<svg xmlns="http://www.w3.org/2000/svg" xmlns:xlink="http://www.w3.org/1999/xlink" width="395" zoomAndPan="magnify" viewBox="0 0 296.25 215.999996" height="288" preserveAspectRatio="xMidYMid meet" version="1.0"><defs><g/><clipPath id="d5bf2e4ec9"><path d="M 75 0.273438 L 206 0.273438 L 206 56 L 75 56 Z M 75 0.273438 " clip-rule="nonzero"/></clipPath><clipPath id="1c790d8db8"><path d="M 62 51 L 122 51 L 122 78 L 62 78 Z M 62 51 " clip-rule="nonzero"/></clipPath><clipPath id="23e45bea2e"><path d="M 28.359375 127.882812 C 54.300781 67.210938 47.28125 64.078125 54.113281 54.203125 C 57.332031 49.546875 89.515625 34.164062 92.734375 35.167969 C 95.589844 36.0625 101.859375 38.007812 122.210938 58.195312 C 125.5625 61.515625 127.492188 65.90625 121.539062 68.664062 C 105.121094 76.285156 124.167969 89.21875 107.519531 87.113281 C 98.183594 85.9375 96.144531 80.570312 84.332031 88.128906 C 73.765625 94.882812 83.609375 112.128906 72.351562 130.835938 C 51.8125 164.984375 52.078125 165.714844 48.734375 166.433594 C 39.042969 168.515625 27.09375 160.992188 17.621094 155.753906 C 14.265625 153.890625 26.480469 131.117188 28.359375 127.882812 Z M 28.359375 127.882812 " clip-rule="evenodd"/></clipPath><clipPath id="1b4d52b466"><path d="M 59 67 L 118 67 L 118 84 L 59 84 Z M 59 67 " clip-rule="nonzero"/></clipPath><clipPath id="53dfba113c"><path d="M 28.359375 127.882812 C 54.300781 67.210938 47.28125 64.078125 54.113281 54.203125 C 57.332031 49.546875 89.515625 34.164062 92.734375 35.167969 C 95.589844 36.0625 101.859375 38.007812 122.210938 58.195312 C 125.5625 61.515625 127.492188 65.90625 121.539062 68.664062 C 105.121094 76.285156 124.167969 89.21875 107.519531 87.113281 C 98.183594 85.9375 96.144531 80.570312 84.332031 88.128906 C 73.765625 94.882812 83.609375 112.128906 72.351562 130.835938 C 51.8125 164.984375 52.078125 165.714844 48.734375 166.433594 C 39.042969 168.515625 27.09375 160.992188 17.621094 155.753906 C 14.265625 153.890625 26.480469 131.117188 28.359375 127.882812 Z M 28.359375 127.882812 " clip-rule="evenodd"/></clipPath><clipPath id="37a91c755d"><path d="M 117.464844 68 L 163 68 L 163 115 L 117.464844 115 Z M 117.464844 68 " clip-rule="nonzero"/></clipPath><clipPath id="cb95f76914"><path d="M 121.460938 72.105469 C 124.945312 75.480469 146.4375 95.296875 177.320312 98.046875 C 179.507812 98.246094 193.585938 89.835938 192.996094 77.242188 C 192.363281 63.914062 180.539062 45.957031 191.6875 33.75 C 216.761719 77.992188 207.972656 88.574219 248.828125 142.515625 C 252.945312 147.960938 260.632812 150.078125 247.902344 166.25 C 247.355469 166.949219 232.558594 183.820312 227.546875 182.144531 C 212.195312 177.007812 212.949219 153.242188 188.707031 149.023438 C 185.382812 148.441406 163.738281 148.539062 144.832031 126.433594 C 136.371094 116.527344 139.90625 114.308594 132.195312 103.6875 C 131.785156 103.125 121.394531 90.980469 118.355469 79.648438 C 116.828125 73.980469 116.988281 68.644531 121.460938 72.105469 Z M 121.460938 72.105469 " clip-rule="evenodd"/></clipPath><clipPath id="ad1b90f1ad"><path d="M 117.464844 87 L 171 87 L 171 131 L 117.464844 131 Z M 117.464844 87 " clip-rule="nonzero"/></clipPath><clipPath id="396bdab954"><path d="M 121.460938 72.105469 C 124.945312 75.480469 146.4375 95.296875 177.320312 98.046875 C 179.507812 98.246094 193.585938 89.835938 192.996094 77.242188 C 192.363281 63.914062 180.539062 45.957031 191.6875 33.75 C 216.761719 77.992188 207.972656 88.574219 248.828125 142.515625 C 252.945312 147.960938 260.632812 150.078125 247.902344 166.25 C 247.355469 166.949219 232.558594 183.820312 227.546875 182.144531 C 212.195312 177.007812 212.949219 153.242188 188.707031 149.023438 C 185.382812 148.441406 163.738281 148.539062 144.832031 126.433594 C 136.371094 116.527344 139.90625 114.308594 132.195312 103.6875 C 131.785156 103.125 121.394531 90.980469 118.355469 79.648438 C 116.828125 73.980469 116.988281 68.644531 121.460938 72.105469 Z M 121.460938 72.105469 " clip-rule="evenodd"/></clipPath><clipPath id="43fd137c8a"><path d="M 201 119 L 295.5 119 L 295.5 215.726562 L 201 215.726562 Z M 201 119 " clip-rule="nonzero"/></clipPath></defs><g fill="#000000" fill-opacity="1"><g transform="translate(23.717748, 172.139741)"><g><path d="M 1.484375 -1.03125 C 1.484375 -1.46875 1.582031 -1.796875 1.78125 -2.015625 C 1.976562 -2.242188 2.257812 -2.359375 2.625 -2.359375 C 3 -2.359375 3.289062 -2.242188 3.5 -2.015625 C 3.71875 -1.796875 3.828125 -1.46875 3.828125 -1.03125 C 3.828125 -0.613281 3.71875 -0.289062 3.5 -0.0625 C 3.289062 0.164062 3 0.28125 2.625 0.28125 C 2.289062 0.28125 2.015625 0.179688 1.796875 -0.015625 C 1.585938 -0.222656 1.484375 -0.5625 1.484375 -1.03125 Z M 1.484375 -1.03125 "/></g></g></g><path fill="#000000" d="M 122.703125 21.035156 C 120.96875 22.507812 118.816406 23.816406 116.691406 24.375 C 114.671875 24.902344 112.660156 24.78125 110.914062 23.75 C 108.410156 22.269531 106.222656 18.574219 106.0625 10.917969 L 106.117188 10.296875 L 106.296875 9.722656 L 106.902344 8.804688 C 107.601562 8.035156 109.027344 7.296875 110.921875 6.789062 C 116.085938 5.414062 125.140625 5.234375 127.859375 5.976562 C 130.332031 6.65625 131.75 8.722656 132.296875 11.503906 C 133.289062 16.5 131.316406 23.976562 131.058594 24.949219 C 130.832031 25.796875 130.050781 26.375 129.171875 26.335938 C 128.304688 26.308594 127.566406 25.675781 127.398438 24.816406 C 127.074219 23.140625 126.851562 22.035156 126.679688 20.960938 C 125.59375 24.347656 124.601562 26.976562 121.914062 33.332031 C 121.507812 34.285156 120.402344 34.726562 119.449219 34.320312 C 118.496094 33.925781 118.050781 32.824219 118.457031 31.871094 C 120.742188 26.46875 121.78125 23.800781 122.703125 21.035156 Z M 122.59375 15.679688 C 121.25 15.445312 119.609375 15.632812 117.996094 15.933594 C 115.519531 16.378906 113.105469 17.171875 111.582031 17.71875 C 111.601562 18.160156 111.601562 18.613281 111.613281 19.074219 C 111.613281 19.148438 111.601562 19.214844 111.601562 19.28125 C 111.960938 19.839844 112.367188 20.253906 112.832031 20.527344 C 113.972656 21.195312 115.339844 20.960938 116.664062 20.441406 C 118.324219 19.773438 119.921875 18.585938 121.136719 17.386719 C 121.734375 16.800781 122.234375 16.21875 122.59375 15.679688 Z M 125.621094 9.382812 C 125.914062 9.449219 126.199219 9.523438 126.460938 9.597656 C 126.480469 9.570312 126.507812 9.542969 126.527344 9.515625 C 126.273438 9.464844 125.960938 9.417969 125.621094 9.382812 Z M 125.621094 9.382812 " fill-opacity="1" fill-rule="evenodd"/><path fill="#efb393" d="M 69.253906 116.054688 C 69.253906 115.714844 69.335938 115.363281 69.527344 115.054688 C 69.789062 114.609375 70.046875 114.1875 70.300781 113.769531 C 69.175781 114.5625 67.921875 115.449219 66.476562 116.46875 C 65.710938 117.023438 64.644531 116.910156 64.003906 116.214844 C 63.371094 115.515625 63.351562 114.449219 63.964844 113.722656 C 77.636719 97.675781 81.542969 94.328125 87.792969 88.113281 C 88.492188 87.425781 89.605469 87.390625 90.34375 88.03125 C 91.089844 88.660156 91.210938 89.765625 90.636719 90.558594 C 90.371094 90.914062 90.117188 91.265625 89.859375 91.601562 C 90.457031 91.3125 91.183594 91.339844 91.757812 91.734375 C 92.503906 92.234375 92.777344 93.207031 92.417969 94.035156 C 84.054688 113.234375 74.011719 118.089844 61.644531 124.378906 C 60.71875 124.851562 59.585938 124.484375 59.113281 123.558594 C 58.640625 122.632812 59.007812 121.503906 59.933594 121.039062 C 63.210938 119.371094 66.308594 117.824219 69.253906 116.054688 Z M 69.253906 116.054688 " fill-opacity="1" fill-rule="evenodd"/><path fill="#3b3b3b" d="M 110.421875 23.414062 C 116.785156 20.59375 129.324219 20.273438 137.167969 10.722656 C 138.234375 9.429688 138.640625 1.054688 167.226562 2.300781 C 179.878906 2.847656 175.054688 12.972656 187.410156 15.378906 C 188.742188 15.632812 197.871094 15.820312 201.910156 23.429688 C 202.382812 24.316406 206.507812 38.679688 196.878906 45.410156 C 183.765625 54.585938 110.207031 55.875 92.390625 49.671875 C 79.269531 45.109375 74 37.792969 80.296875 32.511719 C 80.476562 32.652344 80.65625 32.773438 80.835938 32.898438 C 80.65625 32.984375 80.476562 33.066406 80.296875 33.152344 C 80.410156 33.238281 80.523438 33.3125 80.648438 33.386719 C 88.011719 38.214844 93.484375 35.339844 96.375 32.539062 C 97.148438 32.171875 97.695312 31.859375 97.933594 31.730469 C 97.792969 31.671875 97.648438 31.625 97.515625 31.578125 C 98.320312 31.523438 99.121094 31.472656 99.945312 31.417969 C 99.492188 32.050781 99.054688 32.605469 98.765625 33.019531 C 99.652344 32.339844 100.378906 31.8125 101 31.351562 C 101.339844 31.332031 101.679688 31.3125 102.019531 31.296875 C 101.679688 31.3125 101.339844 31.332031 101.011719 31.351562 C 103.671875 29.410156 104.410156 28.9375 107.570312 25.335938 C 108.261719 24.554688 109.234375 23.941406 110.421875 23.414062 Z M 110.421875 23.414062 " fill-opacity="1" fill-rule="evenodd"/><path fill="#3b3b3b" d="M 88.066406 22.675781 C 88.339844 22.753906 88.605469 22.894531 88.832031 23.101562 C 89.484375 23.695312 89.632812 24.675781 89.171875 25.441406 C 88.292969 26.929688 87.453125 28.128906 86.839844 29.210938 C 86.273438 30.230469 85.878906 31.050781 86.367188 32.03125 C 86.820312 32.953125 86.445312 34.085938 85.519531 34.539062 C 84.582031 35 83.460938 34.625 82.996094 33.691406 C 82.527344 32.746094 82.335938 31.859375 82.375 30.972656 C 82.007812 31.8125 81.0625 32.277344 80.15625 32.03125 C 79.15625 31.757812 78.570312 30.71875 78.84375 29.71875 C 79.550781 27.117188 80.042969 25.609375 80.875 24.355469 C 81.734375 23.074219 82.941406 22.035156 85.246094 20.515625 C 85.953125 20.046875 86.886719 20.113281 87.519531 20.667969 C 88.097656 21.167969 88.304688 21.96875 88.066406 22.675781 Z M 88.066406 22.675781 " fill-opacity="1" fill-rule="evenodd"/><g clip-path="url(#d5bf2e4ec9)"><path fill="#3b3b3b" d="M 77.597656 32.613281 C 77.597656 32.605469 77.589844 32.597656 77.578125 32.585938 C 76.332031 31.296875 76.210938 29.144531 77.816406 26.902344 C 80.25 23.488281 87.085938 19.433594 95.601562 20.527344 C 99.101562 20.988281 101.207031 21.988281 102.425781 23.175781 C 104.644531 22.695312 107.164062 22.167969 110.046875 21.574219 C 110.0625 21.574219 110.074219 21.574219 110.082031 21.5625 C 111.953125 20.792969 114.21875 20.160156 116.710938 19.507812 C 122.789062 17.914062 130.371094 16 135.675781 9.589844 C 135.75 9.402344 136.734375 7.089844 138.773438 5.394531 C 142.011719 2.695312 149.320312 -0.359375 167.304688 0.425781 C 174.554688 0.734375 176.800781 3.789062 179 7.109375 C 180.6875 9.664062 182.324219 12.476562 187.769531 13.53125 C 189.234375 13.824219 199.136719 14.210938 203.574219 22.554688 C 203.839844 23.042969 205.1875 27.25 205.066406 32.277344 C 204.933594 37.339844 203.328125 43.195312 197.957031 46.945312 C 193.878906 49.792969 184.203125 52.019531 172.109375 53.414062 C 144.578125 56.582031 104.371094 55.828125 91.769531 51.445312 C 85.707031 49.332031 81.242188 46.625 78.65625 43.828125 C 76.644531 41.636719 75.699219 39.355469 75.777344 37.179688 C 75.824219 35.640625 76.410156 34.085938 77.597656 32.613281 Z M 111.28125 25.082031 C 111.214844 25.109375 111.148438 25.148438 111.074219 25.175781 C 110.214844 25.554688 109.496094 25.996094 108.988281 26.570312 C 106.484375 29.417969 105.457031 30.371094 103.878906 31.558594 C 103.757812 32.4375 103.03125 33.125 102.125 33.171875 C 102.113281 33.171875 102.113281 33.171875 102.113281 33.171875 C 101.964844 33.179688 101.8125 33.191406 101.660156 33.199219 C 101.152344 33.578125 100.566406 34 99.90625 34.511719 C 99.167969 35.066406 98.140625 35.011719 97.46875 34.378906 C 97.421875 34.320312 97.367188 34.273438 97.320312 34.21875 C 95.554688 35.820312 93.042969 37.367188 89.910156 37.761719 C 87.160156 38.101562 83.914062 37.585938 80.25 35.359375 C 80.222656 35.359375 80.195312 35.367188 80.175781 35.367188 C 79.921875 35.773438 79.730469 36.1875 79.628906 36.613281 C 79.136719 38.546875 80.363281 40.496094 82.621094 42.429688 C 85 44.457031 88.519531 46.34375 93.003906 47.898438 C 105.34375 52.199219 144.71875 52.792969 171.683594 49.691406 C 182.9375 48.390625 192.007812 46.53125 195.804688 43.875 C 200.0625 40.894531 201.203125 36.199219 201.308594 32.179688 C 201.410156 28.128906 200.46875 24.703125 200.261719 24.308594 C 196.597656 17.433594 188.261719 17.453125 187.050781 17.21875 C 180.152344 15.878906 178.007812 12.417969 175.867188 9.175781 C 174.222656 6.695312 172.550781 4.402344 167.140625 4.167969 C 150.820312 3.460938 144.117188 5.828125 141.179688 8.277344 C 140.027344 9.242188 139.554688 10.171875 139.265625 10.785156 C 139.019531 11.296875 138.8125 11.671875 138.621094 11.910156 C 132.742188 19.066406 124.414062 21.375 117.664062 23.128906 C 115.585938 23.675781 113.679688 24.167969 112.085938 24.761719 C 111.8125 24.863281 111.535156 24.96875 111.28125 25.082031 Z M 83.753906 26.542969 C 84.273438 26.402344 84.773438 26.269531 85.253906 26.148438 C 85.207031 26.035156 85.167969 25.910156 85.140625 25.789062 C 84.648438 26.023438 84.1875 26.277344 83.753906 26.542969 Z M 83.753906 26.542969 " fill-opacity="1" fill-rule="evenodd"/></g><path fill="#bebebe" d="M 126.632812 40.46875 C 124.515625 42.082031 122.136719 43.203125 119.890625 43.65625 C 117.265625 44.195312 114.839844 43.835938 113.066406 42.574219 C 112.40625 42.089844 111.820312 41.488281 111.347656 40.742188 C 111.046875 40.707031 110.742188 40.667969 110.441406 40.640625 C 106.675781 40.1875 104.570312 39.054688 103.605469 37.632812 C 102.890625 36.574219 102.644531 35.285156 102.945312 33.726562 C 103.078125 33.058594 103.324219 32.324219 103.671875 31.511719 C 102.832031 32.898438 101.5 34.539062 99.234375 36.6875 C 98.488281 37.40625 97.300781 37.375 96.582031 36.621094 C 95.863281 35.878906 95.894531 34.6875 96.648438 33.972656 C 100.925781 29.910156 101.21875 28.109375 101.824219 25.957031 C 102.144531 24.816406 102.539062 23.601562 103.4375 22.054688 C 104.296875 20.554688 106.042969 18.988281 108.347656 17.679688 C 111.507812 15.871094 115.746094 14.492188 119.855469 14.21875 C 124.242188 13.9375 128.464844 14.945312 131.277344 17.78125 C 133.183594 19.707031 134.496094 22.480469 134.714844 26.363281 C 134.976562 31.085938 134.34375 34.660156 132.269531 37.132812 C 131.003906 38.640625 129.199219 39.78125 126.632812 40.46875 Z M 104.636719 29.570312 C 105.011719 28.898438 105.4375 28.183594 105.910156 27.4375 C 106.636719 26.308594 107.429688 25.269531 108.28125 24.316406 C 108.460938 23.394531 108.722656 22.488281 109.074219 21.640625 C 107.988281 22.367188 107.148438 23.140625 106.683594 23.929688 C 105.730469 25.582031 105.503906 26.777344 105.164062 27.976562 C 105.011719 28.496094 104.851562 29.023438 104.636719 29.570312 Z M 125.980469 21.742188 C 125.980469 21.753906 125.980469 21.753906 125.980469 21.761719 C 126.066406 22.054688 126.140625 22.347656 126.207031 22.648438 C 126.652344 22.574219 127.105469 22.601562 127.566406 22.734375 C 127.140625 22.289062 126.660156 21.980469 126.140625 21.800781 C 126.085938 21.78125 126.039062 21.761719 125.980469 21.742188 Z M 125.980469 21.742188 " fill-opacity="1" fill-rule="evenodd"/><path fill="#bebebe" d="M 101.726562 31.964844 C 101.710938 31.585938 101.804688 31.199219 102.011719 30.863281 C 103.863281 27.910156 103.917969 28.003906 106.042969 25.222656 C 106.65625 24.410156 107.796875 24.242188 108.621094 24.828125 C 109.328125 25.328125 109.582031 26.230469 109.289062 27.003906 C 111.820312 25.34375 116.257812 22.449219 119.890625 20.601562 C 122.507812 19.273438 124.820312 18.566406 126.039062 18.734375 L 126.914062 19.027344 L 127.332031 19.328125 L 127.699219 19.746094 L 127.972656 20.253906 L 128.125 20.808594 L 128.125 20.820312 C 128.953125 20.574219 129.851562 20.921875 130.285156 21.6875 C 130.75 22.507812 130.539062 23.542969 129.785156 24.109375 C 127.339844 25.957031 127.566406 26.210938 121.269531 30.039062 C 120.382812 30.578125 119.222656 30.296875 118.683594 29.410156 C 118.324219 28.816406 118.332031 28.078125 118.65625 27.515625 C 118.503906 26.796875 118.777344 26.023438 119.410156 25.570312 C 120.269531 24.976562 120.996094 24.429688 121.621094 23.929688 C 121.609375 23.941406 121.601562 23.941406 121.601562 23.941406 C 116.585938 26.496094 110.015625 31.070312 109.222656 31.523438 C 109.15625 31.558594 109.089844 31.585938 109.027344 31.617188 L 105.398438 33.132812 C 105.050781 33.71875 104.644531 34.398438 104.117188 35.285156 C 103.578125 36.167969 102.425781 36.460938 101.539062 35.933594 C 100.652344 35.398438 100.359375 34.246094 100.886719 33.359375 C 101.207031 32.832031 101.480469 32.371094 101.726562 31.964844 Z M 101.726562 31.964844 " fill-opacity="1" fill-rule="evenodd"/><path fill="#efb393" d="M 57.355469 54.199219 C 60.058594 22.441406 61.578125 20.886719 72.414062 15.519531 C 88.859375 7.375 90.523438 7.25 98.066406 12.777344 C 110.648438 22 110.753906 22.347656 110.59375 23.65625 C 109.222656 34.613281 85.894531 15.605469 80.289062 26.410156 C 77.371094 32.050781 78.117188 43.523438 76.304688 43.316406 C 68.261719 42.402344 57.800781 53.972656 57.355469 54.199219 Z M 57.355469 54.199219 " fill-opacity="1" fill-rule="evenodd"/><path fill="#000000" d="M 75.066406 34.105469 L 203.457031 34.105469 L 203.457031 98.832031 L 75.066406 98.832031 Z M 75.066406 34.105469 " fill-opacity="1" fill-rule="evenodd"/><path fill="#efb393" d="M 74.480469 26.4375 C 74.492188 25.402344 75.339844 24.570312 76.378906 24.582031 C 77.417969 24.589844 78.25 25.441406 78.238281 26.476562 C 78.136719 36.800781 78.109375 36.714844 77.917969 47.042969 C 77.890625 48.078125 77.039062 48.898438 76.003906 48.878906 C 74.964844 48.863281 74.140625 48.003906 74.160156 46.976562 C 74.359375 36.660156 74.378906 36.753906 74.480469 26.4375 Z M 74.480469 26.4375 " fill-opacity="1" fill-rule="evenodd"/><path fill="#000000" d="M 133.296875 32.003906 C 135.214844 29.257812 135.875 26.128906 139.039062 20.46875 C 143.925781 11.71875 175.648438 8.183594 180.292969 23.621094 C 183.410156 34.011719 185.402344 32.851562 192.234375 41.195312 C 205.234375 57.074219 131.851562 62.96875 133.324219 37.828125 C 133.457031 35.425781 132.5625 35.039062 133.296875 32.003906 Z M 133.296875 32.003906 " fill-opacity="1" fill-rule="evenodd"/><path fill="#000000" d="M 131.417969 36.652344 C 130.070312 37.726562 128.332031 38.867188 126.046875 40.175781 C 125.140625 40.6875 124 40.375 123.480469 39.480469 C 122.96875 38.582031 123.28125 37.433594 124.179688 36.925781 C 130.992188 33.039062 132.070312 30.945312 133.855469 26.882812 C 134.695312 24.949219 135.695312 22.609375 137.402344 19.554688 C 138.535156 17.527344 140.859375 15.671875 143.984375 14.246094 C 148.234375 12.324219 153.992188 11.136719 159.75 11.097656 C 169.746094 11.042969 179.546875 14.613281 182.085938 23.074219 C 185.097656 33.113281 187.089844 31.945312 193.691406 40.015625 C 195.246094 41.914062 195.785156 43.730469 195.632812 45.390625 C 195.492188 46.976562 194.71875 48.476562 193.332031 49.8125 C 191.640625 51.453125 188.941406 52.898438 185.550781 54.011719 C 175.023438 57.460938 157.589844 57.960938 145.550781 53.886719 C 136.847656 50.9375 130.984375 45.589844 131.445312 37.714844 C 131.476562 37.300781 131.457031 36.953125 131.417969 36.652344 Z M 135.042969 32.785156 C 134.796875 34 134.902344 34.632812 135.015625 35.300781 C 135.136719 36.027344 135.261719 36.792969 135.195312 37.933594 C 134.941406 42.242188 137.347656 45.4375 141.125 47.757812 C 145.324219 50.351562 151.160156 51.878906 157.378906 52.585938 C 168.726562 53.867188 181.371094 52.378906 188.042969 48.945312 C 190.140625 47.863281 191.648438 46.703125 191.875 45.195312 C 192.019531 44.316406 191.613281 43.402344 190.78125 42.382812 C 183.710938 33.746094 181.71875 34.90625 178.488281 24.15625 C 177.488281 20.820312 174.988281 18.554688 171.789062 17.085938 C 168.320312 15.492188 164.046875 14.824219 159.769531 14.851562 C 154.578125 14.878906 149.375 15.925781 145.542969 17.660156 C 143.277344 18.6875 141.5 19.914062 140.679688 21.386719 C 138.480469 25.316406 137.507812 28.011719 136.46875 30.210938 C 136.027344 31.125 135.582031 31.972656 135.042969 32.785156 Z M 135.042969 32.785156 " fill-opacity="1" fill-rule="evenodd"/><path fill="#808080" d="M 193.488281 61.605469 C 193.488281 62.722656 193.433594 63.835938 193.324219 64.945312 C 193.214844 66.054688 193.050781 67.15625 192.832031 68.253906 C 192.613281 69.347656 192.34375 70.429688 192.015625 71.496094 C 191.691406 72.566406 191.316406 73.613281 190.886719 74.644531 C 190.460938 75.675781 189.980469 76.683594 189.453125 77.667969 C 188.925781 78.652344 188.351562 79.609375 187.730469 80.535156 C 187.109375 81.464844 186.441406 82.359375 185.734375 83.222656 C 185.023438 84.085938 184.273438 84.910156 183.480469 85.699219 C 182.6875 86.488281 181.863281 87.238281 180.996094 87.945312 C 180.132812 88.652344 179.234375 89.316406 178.300781 89.9375 C 177.371094 90.558594 176.414062 91.128906 175.425781 91.65625 C 174.441406 92.183594 173.429688 92.660156 172.394531 93.085938 C 171.363281 93.515625 170.308594 93.890625 169.238281 94.214844 C 168.167969 94.539062 167.085938 94.808594 165.984375 95.027344 C 164.890625 95.246094 163.785156 95.410156 162.671875 95.519531 C 161.558594 95.628906 160.441406 95.679688 159.320312 95.679688 C 158.203125 95.679688 157.085938 95.625 155.972656 95.519531 C 154.859375 95.410156 153.753906 95.246094 152.65625 95.027344 C 151.558594 94.808594 150.472656 94.539062 149.402344 94.214844 C 148.332031 93.890625 147.28125 93.511719 146.246094 93.085938 C 145.210938 92.660156 144.203125 92.183594 143.214844 91.65625 C 142.226562 91.128906 141.269531 90.558594 140.339844 89.9375 C 139.410156 89.316406 138.511719 88.652344 137.644531 87.945312 C 136.78125 87.238281 135.953125 86.488281 135.160156 85.699219 C 134.371094 84.910156 133.621094 84.085938 132.910156 83.222656 C 132.199219 82.359375 131.535156 81.464844 130.910156 80.535156 C 130.289062 79.609375 129.714844 78.652344 129.1875 77.667969 C 128.660156 76.683594 128.183594 75.675781 127.753906 74.644531 C 127.324219 73.613281 126.949219 72.5625 126.625 71.496094 C 126.300781 70.429688 126.027344 69.347656 125.808594 68.253906 C 125.589844 67.160156 125.429688 66.054688 125.320312 64.945312 C 125.210938 63.835938 125.15625 62.722656 125.15625 61.605469 C 125.15625 60.488281 125.210938 59.375 125.320312 58.265625 C 125.429688 57.15625 125.589844 56.050781 125.808594 54.957031 C 126.027344 53.863281 126.300781 52.78125 126.625 51.714844 C 126.949219 50.644531 127.324219 49.59375 127.753906 48.5625 C 128.183594 47.535156 128.660156 46.527344 129.1875 45.542969 C 129.714844 44.558594 130.289062 43.601562 130.910156 42.671875 C 131.535156 41.746094 132.199219 40.851562 132.910156 39.988281 C 133.621094 39.125 134.371094 38.300781 135.160156 37.511719 C 135.953125 36.722656 136.78125 35.972656 137.644531 35.265625 C 138.511719 34.554688 139.40625 33.890625 140.335938 33.269531 C 141.269531 32.652344 142.226562 32.078125 143.214844 31.554688 C 144.203125 31.027344 145.210938 30.550781 146.246094 30.125 C 147.28125 29.695312 148.332031 29.324219 149.402344 29 C 150.476562 28.675781 151.558594 28.402344 152.65625 28.183594 C 153.753906 27.96875 154.859375 27.804688 155.972656 27.695312 C 157.085938 27.585938 158.203125 27.53125 159.320312 27.53125 C 160.441406 27.53125 161.558594 27.585938 162.671875 27.695312 C 163.785156 27.804688 164.890625 27.96875 165.984375 28.183594 C 167.085938 28.402344 168.167969 28.671875 169.238281 28.996094 C 170.308594 29.320312 171.363281 29.695312 172.394531 30.125 C 173.429688 30.550781 174.441406 31.027344 175.429688 31.554688 C 176.414062 32.078125 177.375 32.652344 178.304688 33.273438 C 179.234375 33.890625 180.132812 34.554688 180.996094 35.265625 C 181.863281 35.972656 182.691406 36.71875 183.480469 37.507812 C 184.273438 38.296875 185.023438 39.125 185.734375 39.988281 C 186.445312 40.851562 187.109375 41.746094 187.730469 42.671875 C 188.351562 43.601562 188.925781 44.558594 189.453125 45.542969 C 189.980469 46.523438 190.460938 47.53125 190.886719 48.5625 C 191.316406 49.59375 191.691406 50.644531 192.015625 51.714844 C 192.34375 52.78125 192.613281 53.863281 192.832031 54.957031 C 193.050781 56.050781 193.214844 57.152344 193.324219 58.265625 C 193.433594 59.375 193.488281 60.488281 193.488281 61.605469 Z M 193.488281 61.605469 " fill-opacity="1" fill-rule="nonzero"/><path fill="#3b3b3b" d="M 190.703125 61.65625 C 190.703125 62.640625 190.652344 63.625 190.550781 64.605469 C 190.449219 65.585938 190.300781 66.558594 190.097656 67.523438 C 189.898438 68.488281 189.648438 69.445312 189.351562 70.386719 C 189.050781 71.328125 188.703125 72.257812 188.308594 73.164062 C 187.917969 74.078125 187.480469 74.964844 186.992188 75.835938 C 186.507812 76.703125 185.980469 77.546875 185.410156 78.367188 C 184.835938 79.183594 184.226562 79.976562 183.574219 80.738281 C 182.921875 81.5 182.230469 82.226562 181.503906 82.925781 C 180.777344 83.621094 180.015625 84.28125 179.222656 84.90625 C 178.425781 85.53125 177.601562 86.117188 176.746094 86.664062 C 175.890625 87.210938 175.011719 87.71875 174.105469 88.183594 C 173.195312 88.648438 172.269531 89.066406 171.320312 89.445312 C 170.367188 89.824219 169.402344 90.152344 168.417969 90.441406 C 167.433594 90.726562 166.4375 90.964844 165.429688 91.15625 C 164.417969 91.351562 163.402344 91.496094 162.382812 91.589844 C 161.359375 91.6875 160.332031 91.734375 159.304688 91.734375 C 158.273438 91.734375 157.25 91.6875 156.226562 91.589844 C 155.203125 91.496094 154.1875 91.351562 153.175781 91.15625 C 152.167969 90.964844 151.171875 90.726562 150.1875 90.441406 C 149.203125 90.152344 148.238281 89.820312 147.285156 89.445312 C 146.335938 89.066406 145.410156 88.648438 144.5 88.183594 C 143.59375 87.71875 142.714844 87.210938 141.859375 86.664062 C 141.003906 86.117188 140.179688 85.53125 139.382812 84.90625 C 138.589844 84.28125 137.828125 83.621094 137.101562 82.925781 C 136.375 82.226562 135.683594 81.5 135.03125 80.738281 C 134.378906 79.976562 133.765625 79.183594 133.195312 78.367188 C 132.625 77.546875 132.097656 76.703125 131.613281 75.835938 C 131.125 74.964844 130.6875 74.074219 130.292969 73.164062 C 129.898438 72.253906 129.554688 71.328125 129.257812 70.386719 C 128.957031 69.445312 128.707031 68.492188 128.507812 67.523438 C 128.308594 66.558594 128.15625 65.585938 128.054688 64.605469 C 127.957031 63.625 127.90625 62.640625 127.90625 61.65625 C 127.90625 60.671875 127.957031 59.6875 128.054688 58.707031 C 128.15625 57.726562 128.308594 56.753906 128.507812 55.785156 C 128.707031 54.820312 128.957031 53.867188 129.257812 52.925781 C 129.554688 51.980469 129.902344 51.054688 130.292969 50.144531 C 130.6875 49.234375 131.128906 48.34375 131.613281 47.476562 C 132.097656 46.605469 132.625 45.761719 133.195312 44.945312 C 133.765625 44.125 134.378906 43.335938 135.03125 42.574219 C 135.683594 41.8125 136.375 41.082031 137.101562 40.386719 C 137.828125 39.691406 138.589844 39.03125 139.382812 38.402344 C 140.179688 37.777344 141.003906 37.191406 141.859375 36.644531 C 142.714844 36.097656 143.59375 35.59375 144.5 35.128906 C 145.410156 34.664062 146.335938 34.242188 147.285156 33.867188 C 148.238281 33.488281 149.203125 33.160156 150.191406 32.871094 C 151.171875 32.585938 152.167969 32.347656 153.175781 32.15625 C 154.1875 31.964844 155.203125 31.820312 156.226562 31.722656 C 157.25 31.625 158.273438 31.578125 159.304688 31.578125 C 160.332031 31.578125 161.359375 31.625 162.382812 31.722656 C 163.402344 31.820312 164.417969 31.964844 165.429688 32.15625 C 166.4375 32.347656 167.433594 32.585938 168.417969 32.871094 C 169.402344 33.15625 170.367188 33.488281 171.320312 33.867188 C 172.269531 34.242188 173.199219 34.664062 174.105469 35.128906 C 175.011719 35.59375 175.894531 36.097656 176.746094 36.644531 C 177.601562 37.191406 178.429688 37.777344 179.222656 38.402344 C 180.019531 39.027344 180.777344 39.6875 181.507812 40.386719 C 182.234375 41.082031 182.921875 41.8125 183.574219 42.574219 C 184.226562 43.335938 184.839844 44.125 185.410156 44.945312 C 185.980469 45.761719 186.507812 46.605469 186.992188 47.476562 C 187.480469 48.34375 187.917969 49.234375 188.3125 50.144531 C 188.707031 51.054688 189.050781 51.980469 189.351562 52.925781 C 189.648438 53.867188 189.898438 54.820312 190.097656 55.785156 C 190.300781 56.753906 190.449219 57.726562 190.550781 58.707031 C 190.652344 59.6875 190.703125 60.671875 190.703125 61.65625 Z M 190.703125 61.65625 " fill-opacity="1" fill-rule="nonzero"/><path fill="#808080" d="M 185.691406 62.835938 C 185.691406 63.65625 185.648438 64.476562 185.5625 65.292969 C 185.476562 66.109375 185.351562 66.917969 185.179688 67.722656 C 185.007812 68.53125 184.796875 69.324219 184.542969 70.109375 C 184.289062 70.898438 183.996094 71.667969 183.664062 72.425781 C 183.328125 73.183594 182.957031 73.925781 182.546875 74.648438 C 182.136719 75.375 181.6875 76.078125 181.203125 76.757812 C 180.71875 77.441406 180.199219 78.101562 179.644531 78.734375 C 179.09375 79.371094 178.507812 79.976562 177.890625 80.558594 C 177.273438 81.140625 176.628906 81.691406 175.953125 82.210938 C 175.28125 82.730469 174.582031 83.21875 173.855469 83.675781 C 173.128906 84.132812 172.382812 84.550781 171.613281 84.941406 C 170.84375 85.328125 170.058594 85.679688 169.25 85.992188 C 168.445312 86.304688 167.625 86.582031 166.792969 86.820312 C 165.957031 87.058594 165.113281 87.257812 164.253906 87.417969 C 163.398438 87.578125 162.539062 87.699219 161.671875 87.78125 C 160.804688 87.859375 159.933594 87.902344 159.0625 87.902344 C 158.1875 87.902344 157.320312 87.859375 156.449219 87.78125 C 155.582031 87.699219 154.722656 87.578125 153.867188 87.417969 C 153.011719 87.257812 152.164062 87.058594 151.332031 86.820312 C 150.496094 86.582031 149.675781 86.304688 148.871094 85.992188 C 148.0625 85.675781 147.277344 85.328125 146.507812 84.941406 C 145.738281 84.550781 144.992188 84.132812 144.265625 83.675781 C 143.539062 83.21875 142.839844 82.730469 142.167969 82.210938 C 141.492188 81.691406 140.847656 81.140625 140.230469 80.558594 C 139.613281 79.976562 139.03125 79.371094 138.476562 78.738281 C 137.921875 78.101562 137.402344 77.441406 136.917969 76.757812 C 136.433594 76.078125 135.984375 75.375 135.574219 74.648438 C 135.164062 73.925781 134.789062 73.183594 134.457031 72.425781 C 134.125 71.667969 133.832031 70.894531 133.578125 70.109375 C 133.324219 69.324219 133.113281 68.53125 132.941406 67.726562 C 132.773438 66.921875 132.644531 66.109375 132.558594 65.292969 C 132.472656 64.476562 132.429688 63.65625 132.429688 62.835938 C 132.429688 62.015625 132.472656 61.195312 132.558594 60.378906 C 132.644531 59.5625 132.773438 58.75 132.941406 57.945312 C 133.113281 57.140625 133.324219 56.34375 133.578125 55.558594 C 133.832031 54.773438 134.125 54 134.457031 53.242188 C 134.792969 52.484375 135.164062 51.742188 135.574219 51.019531 C 135.984375 50.292969 136.433594 49.589844 136.917969 48.910156 C 137.402344 48.226562 137.921875 47.566406 138.476562 46.933594 C 139.03125 46.300781 139.613281 45.691406 140.230469 45.109375 C 140.847656 44.53125 141.492188 43.980469 142.167969 43.460938 C 142.839844 42.9375 143.539062 42.449219 144.265625 41.992188 C 144.992188 41.539062 145.738281 41.117188 146.507812 40.730469 C 147.277344 40.34375 148.0625 39.992188 148.871094 39.675781 C 149.675781 39.363281 150.496094 39.089844 151.332031 38.851562 C 152.164062 38.613281 153.011719 38.414062 153.867188 38.253906 C 154.722656 38.09375 155.582031 37.972656 156.449219 37.890625 C 157.320312 37.8125 158.1875 37.769531 159.0625 37.769531 C 159.933594 37.769531 160.804688 37.8125 161.671875 37.890625 C 162.539062 37.972656 163.398438 38.09375 164.253906 38.253906 C 165.113281 38.414062 165.957031 38.609375 166.792969 38.847656 C 167.625 39.085938 168.445312 39.363281 169.25 39.675781 C 170.058594 39.992188 170.84375 40.34375 171.613281 40.730469 C 172.382812 41.117188 173.132812 41.539062 173.855469 41.992188 C 174.582031 42.449219 175.28125 42.9375 175.957031 43.457031 C 176.628906 43.980469 177.273438 44.53125 177.890625 45.109375 C 178.507812 45.691406 179.09375 46.300781 179.648438 46.933594 C 180.199219 47.566406 180.71875 48.226562 181.203125 48.910156 C 181.6875 49.589844 182.136719 50.292969 182.546875 51.019531 C 182.957031 51.742188 183.328125 52.484375 183.664062 53.242188 C 184 54 184.292969 54.773438 184.542969 55.558594 C 184.796875 56.34375 185.007812 57.140625 185.179688 57.945312 C 185.351562 58.75 185.476562 59.5625 185.5625 60.378906 C 185.648438 61.195312 185.691406 62.015625 185.691406 62.835938 Z M 185.691406 62.835938 " fill-opacity="1" fill-rule="nonzero"/><path fill="#c4f3ff" d="M 181.199219 62.878906 C 181.199219 63.574219 181.164062 64.269531 181.09375 64.960938 C 181.023438 65.652344 180.917969 66.339844 180.773438 67.023438 C 180.632812 67.707031 180.457031 68.378906 180.246094 69.046875 C 180.035156 69.710938 179.792969 70.367188 179.511719 71.007812 C 179.238281 71.652344 178.925781 72.28125 178.585938 72.894531 C 178.242188 73.507812 177.871094 74.105469 177.46875 74.683594 C 177.066406 75.261719 176.632812 75.820312 176.171875 76.359375 C 175.714844 76.894531 175.226562 77.410156 174.714844 77.902344 C 174.203125 78.394531 173.664062 78.863281 173.105469 79.304688 C 172.542969 79.746094 171.960938 80.160156 171.359375 80.546875 C 170.757812 80.929688 170.136719 81.289062 169.496094 81.617188 C 168.855469 81.945312 168.203125 82.242188 167.53125 82.507812 C 166.863281 82.777344 166.179688 83.007812 165.484375 83.210938 C 164.792969 83.414062 164.089844 83.582031 163.378906 83.71875 C 162.667969 83.855469 161.949219 83.957031 161.230469 84.027344 C 160.507812 84.09375 159.785156 84.125 159.058594 84.125 C 158.335938 84.125 157.609375 84.09375 156.890625 84.023438 C 156.167969 83.957031 155.449219 83.855469 154.738281 83.71875 C 154.027344 83.582031 153.324219 83.414062 152.632812 83.210938 C 151.9375 83.007812 151.253906 82.773438 150.585938 82.507812 C 149.914062 82.242188 149.261719 81.945312 148.621094 81.617188 C 147.980469 81.289062 147.359375 80.929688 146.757812 80.546875 C 146.15625 80.160156 145.574219 79.746094 145.011719 79.304688 C 144.453125 78.863281 143.914062 78.394531 143.402344 77.902344 C 142.890625 77.410156 142.402344 76.894531 141.945312 76.359375 C 141.484375 75.820312 141.050781 75.261719 140.648438 74.683594 C 140.246094 74.105469 139.875 73.507812 139.53125 72.894531 C 139.191406 72.28125 138.878906 71.652344 138.601562 71.007812 C 138.324219 70.367188 138.082031 69.710938 137.871094 69.046875 C 137.660156 68.378906 137.484375 67.707031 137.34375 67.023438 C 137.203125 66.339844 137.097656 65.652344 137.023438 64.960938 C 136.953125 64.269531 136.917969 63.574219 136.917969 62.878906 C 136.917969 62.183594 136.953125 61.488281 137.023438 60.796875 C 137.097656 60.101562 137.203125 59.414062 137.34375 58.734375 C 137.484375 58.050781 137.660156 57.375 137.871094 56.710938 C 138.082031 56.042969 138.324219 55.390625 138.601562 54.746094 C 138.878906 54.105469 139.191406 53.476562 139.53125 52.863281 C 139.875 52.25 140.246094 51.652344 140.648438 51.074219 C 141.050781 50.496094 141.484375 49.9375 141.945312 49.398438 C 142.402344 48.859375 142.890625 48.347656 143.402344 47.855469 C 143.914062 47.363281 144.453125 46.894531 145.011719 46.453125 C 145.574219 46.011719 146.15625 45.597656 146.757812 45.210938 C 147.359375 44.824219 147.980469 44.46875 148.621094 44.140625 C 149.261719 43.8125 149.914062 43.515625 150.585938 43.246094 C 151.253906 42.980469 151.9375 42.75 152.632812 42.546875 C 153.324219 42.34375 154.027344 42.175781 154.738281 42.039062 C 155.449219 41.902344 156.167969 41.800781 156.890625 41.734375 C 157.609375 41.664062 158.335938 41.632812 159.058594 41.628906 C 159.785156 41.632812 160.507812 41.664062 161.230469 41.734375 C 161.949219 41.800781 162.667969 41.902344 163.378906 42.039062 C 164.089844 42.175781 164.792969 42.34375 165.484375 42.546875 C 166.179688 42.746094 166.863281 42.980469 167.53125 43.246094 C 168.203125 43.515625 168.855469 43.8125 169.496094 44.140625 C 170.136719 44.46875 170.757812 44.824219 171.359375 45.210938 C 171.964844 45.597656 172.542969 46.011719 173.105469 46.453125 C 173.667969 46.894531 174.203125 47.359375 174.714844 47.851562 C 175.226562 48.34375 175.714844 48.859375 176.175781 49.398438 C 176.632812 49.9375 177.066406 50.496094 177.46875 51.074219 C 177.871094 51.652344 178.242188 52.25 178.585938 52.863281 C 178.925781 53.476562 179.238281 54.105469 179.515625 54.746094 C 179.792969 55.390625 180.035156 56.042969 180.246094 56.710938 C 180.457031 57.375 180.632812 58.050781 180.773438 58.730469 C 180.917969 59.414062 181.023438 60.101562 181.09375 60.796875 C 181.164062 61.488281 181.199219 62.183594 181.199219 62.878906 Z M 181.199219 62.878906 " fill-opacity="1" fill-rule="nonzero"/><path fill="#efb393" d="M 55.488281 54.039062 C 56.441406 42.816406 57.253906 35.332031 58.375 30.105469 C 59.585938 24.441406 61.199219 21.261719 63.570312 18.90625 C 65.550781 16.945312 68.109375 15.558594 71.582031 13.832031 C 81.976562 8.683594 86.820312 6.742188 90.703125 7.136719 C 93.449219 7.421875 95.808594 8.796875 99.179688 11.257812 C 106.890625 16.914062 110.007812 19.328125 111.246094 20.632812 C 111.914062 21.339844 112.199219 21.882812 112.339844 22.328125 L 112.492188 23.089844 C 112.507812 23.355469 112.492188 23.609375 112.453125 23.894531 C 112.214844 25.824219 111.433594 27.089844 110.355469 27.902344 C 109.335938 28.683594 107.988281 29.070312 106.363281 29.070312 C 104.683594 29.070312 102.652344 28.664062 100.453125 28.0625 C 96.753906 27.042969 92.523438 25.476562 88.804688 24.976562 C 85.867188 24.589844 83.253906 24.78125 81.960938 27.277344 C 80.875 29.363281 80.375 32.324219 80.003906 35.105469 C 79.597656 38.207031 79.371094 41.121094 78.949219 42.675781 C 78.804688 43.175781 78.644531 43.570312 78.464844 43.875 L 78.097656 44.390625 L 77.71875 44.730469 L 76.976562 45.109375 L 76.085938 45.175781 C 72.492188 44.769531 68.410156 47.304688 65.125 49.824219 C 62.257812 52 59.992188 54.28125 59.085938 55.160156 C 58.621094 55.601562 58.292969 55.828125 58.195312 55.867188 C 57.59375 56.179688 56.867188 56.132812 56.308594 55.746094 C 55.742188 55.367188 55.429688 54.71875 55.488281 54.039062 Z M 59.660156 49.472656 C 61.207031 48.097656 63.144531 46.515625 65.257812 45.117188 C 68.460938 43.015625 72.046875 41.414062 75.351562 41.394531 C 75.484375 40.761719 75.671875 39.761719 75.785156 38.855469 C 76.265625 34.859375 76.777344 29.109375 78.625 25.554688 C 80.324219 22.269531 83.261719 21.0625 86.847656 21.082031 C 91.257812 21.101562 96.761719 23.15625 101.445312 24.441406 C 103.277344 24.941406 104.957031 25.328125 106.363281 25.316406 C 107.042969 25.316406 107.648438 25.25 108.082031 24.921875 C 108.460938 24.636719 108.636719 24.136719 108.722656 23.460938 C 108.582031 23.300781 108.25 22.929688 107.855469 22.582031 C 106.296875 21.195312 103.164062 18.839844 96.949219 14.285156 C 94.289062 12.332031 92.496094 11.097656 90.324219 10.871094 C 88.710938 10.703125 86.925781 11.109375 84.441406 12.039062 C 81.65625 13.085938 78.109375 14.785156 73.253906 17.199219 C 70.222656 18.699219 67.949219 19.847656 66.222656 21.574219 C 64.257812 23.515625 63.050781 26.203125 62.046875 30.890625 C 61.125 35.207031 60.414062 41.121094 59.660156 49.472656 Z M 59.660156 49.472656 " fill-opacity="1" fill-rule="evenodd"/><path fill="#ffccb1" d="M 28.359375 127.882812 C 54.300781 67.210938 47.28125 64.078125 54.113281 54.203125 C 57.332031 49.546875 89.515625 34.164062 92.734375 35.167969 C 95.589844 36.0625 101.855469 38.007812 122.210938 58.195312 C 125.5625 61.515625 127.492188 65.90625 121.539062 68.664062 C 105.121094 76.285156 124.167969 89.21875 107.519531 87.113281 C 98.183594 85.9375 96.144531 80.570312 84.332031 88.128906 C 73.765625 94.882812 83.609375 112.128906 72.351562 130.835938 C 51.8125 164.984375 52.078125 165.714844 48.734375 166.433594 C 39.042969 168.515625 27.09375 160.992188 17.617188 155.753906 C 14.265625 153.890625 26.480469 131.117188 28.359375 127.882812 Z M 28.359375 127.882812 " fill-opacity="1" fill-rule="evenodd"/><g clip-path="url(#1c790d8db8)"><g clip-path="url(#23e45bea2e)"><path fill="#efb393" d="M 64.984375 68.277344 C 64.058594 68.730469 62.9375 68.351562 62.472656 67.425781 C 62.011719 66.496094 62.390625 65.371094 63.324219 64.910156 C 77.984375 57.648438 83.773438 54.207031 87 52.773438 C 89.625 51.613281 90.863281 51.578125 93.003906 51.972656 C 95.875 52.492188 99.5 54.613281 103.183594 57.453125 C 111.179688 63.648438 119.597656 73.207031 120.730469 74.375 C 121.449219 75.121094 121.429688 76.308594 120.683594 77.027344 C 119.9375 77.742188 118.75 77.722656 118.03125 76.980469 C 116.929688 75.839844 108.707031 66.476562 100.878906 60.421875 C 97.761719 58.007812 94.761719 56.105469 92.324219 55.660156 C 90.523438 55.328125 89.683594 55.574219 86.753906 57.054688 C 83.226562 58.839844 77.183594 62.242188 64.984375 68.277344 Z M 64.984375 68.277344 " fill-opacity="1" fill-rule="evenodd"/></g></g><g clip-path="url(#1b4d52b466)"><g clip-path="url(#53dfba113c)"><path fill="#efb393" d="M 62.664062 83.515625 C 61.746094 84.015625 60.605469 83.675781 60.113281 82.769531 C 59.613281 81.855469 59.953125 80.714844 60.859375 80.222656 C 70.074219 75.214844 77.089844 71.179688 81.535156 69.171875 C 83.734375 68.171875 85.40625 67.664062 86.480469 67.625 C 88.179688 67.558594 90.964844 68.070312 94.269531 69.03125 C 101.558594 71.160156 111.488281 75.441406 117.203125 79.449219 C 118.042969 80.054688 118.25 81.222656 117.65625 82.070312 C 117.058594 82.910156 115.878906 83.117188 115.039062 82.523438 C 109.613281 78.703125 100.152344 74.660156 93.210938 72.632812 C 90.417969 71.8125 88.066406 71.3125 86.625 71.367188 C 85.847656 71.398438 84.667969 71.867188 83.082031 72.585938 C 78.695312 74.574219 71.765625 78.5625 62.664062 83.515625 Z M 62.664062 83.515625 " fill-opacity="1" fill-rule="evenodd"/></g></g><path fill="#ffccb1" d="M 121.460938 72.105469 C 124.945312 75.480469 146.4375 95.296875 177.320312 98.046875 C 179.507812 98.246094 193.585938 89.835938 192.996094 77.242188 C 192.363281 63.914062 180.539062 45.957031 191.6875 33.75 C 216.761719 77.992188 207.972656 88.574219 248.828125 142.515625 C 252.945312 147.957031 260.632812 150.078125 247.902344 166.25 C 247.355469 166.949219 232.558594 183.820312 227.546875 182.144531 C 212.195312 177.007812 212.949219 153.242188 188.707031 149.023438 C 185.382812 148.441406 163.738281 148.539062 144.832031 126.433594 C 136.371094 116.527344 139.90625 114.308594 132.195312 103.6875 C 131.785156 103.125 121.394531 90.980469 118.355469 79.648438 C 116.828125 73.980469 116.988281 68.644531 121.460938 72.105469 Z M 121.460938 72.105469 " fill-opacity="1" fill-rule="evenodd"/><g clip-path="url(#37a91c755d)"><g clip-path="url(#cb95f76914)"><path fill="#efb393" d="M 114.511719 71.5625 C 114.109375 70.605469 114.570312 69.511719 115.523438 69.117188 C 116.480469 68.714844 117.578125 69.167969 117.980469 70.121094 C 124.3125 85.296875 134.425781 93.972656 161.480469 110.746094 C 162.359375 111.289062 162.636719 112.453125 162.082031 113.328125 C 161.535156 114.207031 160.378906 114.472656 159.5 113.929688 C 131.417969 96.519531 121.09375 87.328125 114.511719 71.5625 Z M 114.511719 71.5625 " fill-opacity="1" fill-rule="evenodd"/></g></g><g clip-path="url(#ad1b90f1ad)"><g clip-path="url(#396bdab954)"><path fill="#efb393" d="M 113.277344 90.40625 C 112.726562 89.539062 112.984375 88.375 113.851562 87.820312 C 114.722656 87.257812 115.886719 87.515625 116.441406 88.382812 C 121.5625 96.359375 138.363281 113.003906 168.949219 126.867188 C 169.886719 127.289062 170.304688 128.40625 169.875 129.351562 C 169.453125 130.289062 168.335938 130.710938 167.390625 130.277344 C 135.8125 115.972656 118.5625 98.648438 113.277344 90.40625 Z M 113.277344 90.40625 " fill-opacity="1" fill-rule="evenodd"/></g></g><path fill="#ca98e3" d="M 3.960938 172.210938 C 17.289062 147.320312 6.027344 143.5 12.996094 134.996094 C 18.234375 128.601562 20.300781 131.996094 27.457031 141.699219 C 28.714844 141.644531 41.734375 141.066406 42.914062 144.847656 C 44.828125 151.027344 43.773438 151.355469 47.425781 156.558594 C 62.066406 152.988281 70.800781 149.78125 65.890625 158.34375 C 64.523438 160.726562 53.910156 174.398438 49.632812 184.820312 C 48.9375 186.515625 50.492188 197.371094 29.382812 193.75 C 24.050781 192.832031 5.773438 185.96875 5.5 185.914062 C -1.429688 184.421875 3.675781 173.484375 3.960938 172.210938 Z M 3.960938 172.210938 " fill-opacity="1" fill-rule="evenodd"/><path fill="#ca98e3" d="M 51.390625 185.480469 C 51.382812 185.582031 51.257812 186.421875 51.136719 187.082031 C 50.84375 188.683594 50.230469 190.769531 48.53125 192.570312 C 45.960938 195.277344 40.648438 197.585938 29.074219 195.597656 C 23.710938 194.683594 5.375 187.808594 5.101562 187.75 C 1.289062 186.921875 0.00390625 184.113281 0.00390625 180.8125 C 0.00390625 177.058594 1.949219 172.609375 2.128906 171.808594 C 2.15625 171.636719 2.222656 171.476562 2.300781 171.328125 C 10.003906 156.945312 9.21875 149.882812 8.773438 144.765625 C 8.425781 140.710938 8.359375 137.691406 11.550781 133.808594 C 13.496094 131.433594 15.1875 130.261719 16.695312 129.953125 C 18.355469 129.621094 19.992188 130.121094 21.757812 131.660156 C 23.523438 133.203125 25.570312 135.976562 28.375 139.796875 C 30.675781 139.730469 36.050781 139.710938 39.769531 140.683594 C 42.382812 141.359375 44.207031 142.691406 44.707031 144.292969 C 46.394531 149.742188 45.621094 150.441406 48.246094 154.429688 C 53.003906 153.25 57.09375 152.148438 60.21875 151.535156 C 62.792969 151.035156 64.796875 150.882812 66.097656 151.148438 C 67.210938 151.375 67.988281 151.882812 68.488281 152.554688 L 68.847656 153.175781 L 69.0625 153.84375 C 69.140625 154.230469 69.167969 154.675781 69.109375 155.175781 C 69.007812 156.175781 68.515625 157.53125 67.523438 159.277344 C 66.164062 161.632812 55.648438 175.152344 51.390625 185.480469 Z M 65.351562 154.855469 C 65.0625 154.816406 64.523438 154.75 64.089844 154.769531 C 60.753906 154.949219 55.042969 156.636719 47.867188 158.378906 C 47.125 158.558594 46.332031 158.265625 45.886719 157.636719 C 42.0625 152.195312 43.128906 151.863281 41.117188 145.40625 C 41.0625 145.226562 40.875 145.140625 40.675781 145.019531 C 40.183594 144.71875 39.542969 144.492188 38.816406 144.300781 C 34.707031 143.238281 28.375 143.539062 27.535156 143.578125 C 26.910156 143.605469 26.316406 143.320312 25.9375 142.8125 C 23.171875 139.058594 21.207031 136.269531 19.5 134.683594 C 18.847656 134.070312 18.308594 133.636719 17.707031 133.609375 C 17.355469 133.589844 17.007812 133.761719 16.621094 134.023438 C 15.960938 134.476562 15.25 135.203125 14.449219 136.183594 C 12.0625 139.097656 12.257812 141.398438 12.515625 144.445312 C 12.996094 149.949219 13.910156 157.558594 5.679688 172.96875 C 5.246094 174.222656 3.761719 177.757812 3.761719 180.8125 C 3.761719 182.3125 4.167969 183.707031 5.894531 184.082031 C 6.167969 184.140625 24.378906 190.996094 29.707031 191.902344 C 39.230469 193.539062 43.6875 192.222656 45.800781 189.996094 C 47.105469 188.609375 47.367188 186.941406 47.527344 185.847656 C 47.652344 185.0625 47.753906 184.453125 47.898438 184.113281 C 52.203125 173.609375 62.890625 159.8125 64.257812 157.410156 C 64.703125 156.636719 65.023438 155.976562 65.222656 155.417969 C 65.277344 155.230469 65.324219 155.015625 65.351562 154.855469 Z M 65.351562 154.855469 " fill-opacity="1" fill-rule="evenodd"/><path fill="#ca98e3" d="M 203.121094 165.886719 C 206.960938 155.710938 216.242188 163.753906 220.867188 150.535156 C 226.117188 135.5625 232.199219 142.164062 239.324219 137.222656 C 242.175781 135.25 252.835938 109.179688 258.566406 127.460938 C 272.832031 172.996094 305.902344 167.914062 288.871094 188.882812 C 282.441406 196.804688 258.234375 216.3125 250.4375 213.558594 C 236.878906 208.769531 229.449219 187.554688 212.023438 177.058594 C 204.660156 172.628906 203.167969 167.59375 203.121094 165.886719 Z M 203.121094 165.886719 " fill-opacity="1" fill-rule="evenodd"/><g clip-path="url(#43fd137c8a)"><path fill="#ca98e3" d="M 201.363281 165.226562 C 203.195312 160.386719 206.046875 159.003906 209.171875 158.097656 C 211.304688 157.476562 213.628906 157.203125 215.667969 155.496094 C 216.96875 154.390625 218.132812 152.675781 219.105469 149.921875 C 221.199219 143.933594 223.511719 141.117188 225.863281 139.625 C 227.507812 138.589844 229.195312 138.164062 230.96875 137.882812 C 233.246094 137.511719 235.691406 137.464844 238.257812 135.683594 C 238.417969 135.570312 238.578125 135.296875 238.816406 134.96875 C 239.410156 134.136719 240.128906 132.949219 240.949219 131.609375 C 243.160156 127.980469 246.066406 123.339844 248.945312 120.984375 C 251.125 119.203125 253.363281 118.625 255.414062 119.5625 C 257.148438 120.351562 258.972656 122.492188 260.359375 126.90625 C 268.78125 153.789062 283.921875 162.699219 291.023438 170.015625 C 293.816406 172.890625 295.449219 175.617188 295.507812 178.773438 C 295.5625 181.8125 294.128906 185.386719 290.332031 190.0625 C 285.726562 195.730469 272.246094 207.203125 261.824219 212.605469 C 259.007812 214.070312 256.402344 215.085938 254.242188 215.492188 C 252.503906 215.8125 251.003906 215.757812 249.804688 215.332031 C 244.09375 213.3125 239.363281 208.589844 234.632812 202.855469 C 228.015625 194.859375 221.320312 184.847656 211.050781 178.664062 C 202.769531 173.675781 201.296875 167.855469 201.242188 165.941406 C 201.234375 165.699219 201.28125 165.453125 201.363281 165.226562 Z M 205.027344 166.167969 C 205.261719 167.894531 206.980469 171.835938 212.996094 175.457031 C 221.90625 180.820312 228.289062 188.902344 234.152344 196.285156 C 239.636719 203.1875 244.574219 209.503906 251.058594 211.796875 C 251.730469 212.03125 252.578125 211.984375 253.542969 211.804688 C 255.421875 211.457031 257.660156 210.542969 260.09375 209.277344 C 270.074219 204.101562 283.007812 193.125 287.414062 187.703125 C 290.429688 183.988281 291.796875 181.253906 291.757812 178.851562 C 291.722656 177.199219 290.984375 175.777344 289.824219 174.316406 C 288.445312 172.570312 286.492188 170.808594 284.207031 168.78125 C 276.125 161.59375 264.050781 151.261719 256.773438 128.027344 C 256.148438 126.039062 255.488281 124.644531 254.75 123.738281 C 254.328125 123.210938 253.910156 122.898438 253.4375 122.871094 C 252.890625 122.84375 252.355469 123.132812 251.789062 123.53125 C 250.957031 124.113281 250.125 124.964844 249.304688 125.945312 C 246.738281 129.027344 244.359375 133.316406 242.675781 135.949219 C 241.75 137.390625 240.929688 138.390625 240.402344 138.769531 C 237.265625 140.9375 234.339844 141.144531 231.554688 141.585938 C 230.289062 141.785156 229.054688 142.039062 227.882812 142.792969 C 225.996094 143.992188 224.324219 146.359375 222.644531 151.15625 C 220.007812 158.671875 216.035156 160.125 212.191406 161.160156 C 209.4375 161.90625 206.671875 162.246094 205.027344 166.167969 Z M 205.027344 166.167969 " fill-opacity="1" fill-rule="evenodd"/></g></svg>