<svg width="500" height="500" viewBox="0 0 500 500" fill="none" xmlns="http://www.w3.org/2000/svg">
<path d="M404.792 270.417C405.625 263.75 406.25 257.083 406.25 250C406.25 242.917 405.625 236.25 404.792 229.583L448.75 195.208C452.708 192.083 453.75 186.458 451.25 181.875L409.583 109.792C408.355 107.642 406.402 106 404.073 105.161C401.744 104.321 399.192 104.338 396.875 105.208L345 126.042C334.167 117.708 322.5 110.833 309.792 105.625L301.875 50.4167C301.522 47.9692 300.292 45.733 298.415 44.1237C296.537 42.5144 294.139 41.6413 291.667 41.6667H208.333C203.125 41.6667 198.75 45.4167 198.125 50.4167L190.208 105.625C177.5 110.833 165.833 117.917 155 126.042L103.125 105.208C101.914 104.81 100.65 104.599 99.3751 104.583C95.8334 104.583 92.2917 106.458 90.4167 109.792L48.7501 181.875C46.0417 186.458 47.2917 192.083 51.2501 195.208L95.2084 229.583C94.3751 236.25 93.7501 243.125 93.7501 250C93.7501 256.875 94.3751 263.75 95.2084 270.417L51.2501 304.792C47.2917 307.917 46.2501 313.542 48.7501 318.125L90.4167 390.208C91.6449 392.358 93.5984 394 95.9272 394.84C98.2559 395.679 100.808 395.662 103.125 394.792L155 373.958C165.833 382.292 177.5 389.167 190.208 394.375L198.125 449.583C198.75 454.583 203.125 458.333 208.333 458.333H291.667C296.875 458.333 301.25 454.583 301.875 449.583L309.792 394.375C322.5 389.167 334.167 382.083 345 373.958L396.875 394.792C398.125 395.208 399.375 395.417 400.625 395.417C404.167 395.417 407.708 393.542 409.583 390.208L451.25 318.125C453.75 313.542 452.708 307.917 448.75 304.792L404.792 270.417ZM363.542 234.792C364.375 241.25 364.583 245.625 364.583 250C364.583 254.375 364.167 258.958 363.542 265.208L360.625 288.75L379.167 303.333L401.667 320.833L387.083 346.042L360.625 335.417L338.958 326.667L320.208 340.833C311.25 347.5 302.708 352.5 294.167 356.042L272.083 365L268.75 388.542L264.583 416.667H235.417L231.458 388.542L228.125 365L206.042 356.042C197.083 352.292 188.75 347.5 180.417 341.25L161.458 326.667L139.375 335.625L112.917 346.25L98.3334 321.042L120.833 303.542L139.375 288.958L136.458 265.417C135.833 258.958 135.417 254.167 135.417 250C135.417 245.833 135.833 241.042 136.458 234.792L139.375 211.25L120.833 196.667L98.3334 179.167L112.917 153.958L139.375 164.583L161.042 173.333L179.792 159.167C188.75 152.5 197.292 147.5 205.833 143.958L227.917 135L231.25 111.458L235.417 83.3333H264.375L268.333 111.458L271.667 135L293.75 143.958C302.708 147.708 311.042 152.5 319.375 158.75L338.333 173.333L360.417 164.375L386.875 153.75L401.458 178.958L379.167 196.667L360.625 211.25L363.542 234.792ZM250 166.667C203.958 166.667 166.667 203.958 166.667 250C166.667 296.042 203.958 333.333 250 333.333C296.042 333.333 333.333 296.042 333.333 250C333.333 203.958 296.042 166.667 250 166.667ZM250 291.667C227.083 291.667 208.333 272.917 208.333 250C208.333 227.083 227.083 208.333 250 208.333C272.917 208.333 291.667 227.083 291.667 250C291.667 272.917 272.917 291.667 250 291.667Z" fill="black"/>
</svg>
