<svg xmlns="http://www.w3.org/2000/svg" xmlns:xlink="http://www.w3.org/1999/xlink" width="158" zoomAndPan="magnify" viewBox="0 0 118.5 103.5" height="138" preserveAspectRatio="xMidYMid meet" version="1.0"><defs><g/><clipPath id="ebae9b6e8f"><path d="M 39 21 L 117.964844 21 L 117.964844 95 L 39 95 Z M 39 21 " clip-rule="nonzero"/></clipPath><clipPath id="9cd55a3146"><path d="M 86.628906 0 L 117.585938 22.152344 L 59.808594 102.878906 L 28.855469 80.726562 Z M 86.628906 0 " clip-rule="nonzero"/></clipPath><clipPath id="a4a9f29085"><path d="M 86.628906 0 L 117.585938 22.152344 L 59.808594 102.878906 L 28.855469 80.726562 Z M 86.628906 0 " clip-rule="nonzero"/></clipPath><clipPath id="54b4203071"><path d="M 86.628906 0 L 117.585938 22.152344 L 59.808594 102.878906 L 28.855469 80.726562 Z M 86.628906 0 " clip-rule="nonzero"/></clipPath><clipPath id="0ac63c8bb5"><path d="M 100 28 L 102 28 L 102 29 L 100 29 Z M 100 28 " clip-rule="nonzero"/></clipPath><clipPath id="24074f93d3"><path d="M 86.628906 0 L 117.585938 22.152344 L 59.808594 102.878906 L 28.855469 80.726562 Z M 86.628906 0 " clip-rule="nonzero"/></clipPath><clipPath id="de6fc2e097"><path d="M 86.628906 0 L 117.585938 22.152344 L 59.808594 102.878906 L 28.855469 80.726562 Z M 86.628906 0 " clip-rule="nonzero"/></clipPath><clipPath id="bafea9bb2a"><path d="M 86.628906 0 L 117.585938 22.152344 L 59.808594 102.878906 L 28.855469 80.726562 Z M 86.628906 0 " clip-rule="nonzero"/></clipPath></defs><g clip-path="url(#ebae9b6e8f)"><g clip-path="url(#9cd55a3146)"><g clip-path="url(#a4a9f29085)"><g clip-path="url(#54b4203071)"><path fill="#000000" d="M 100.460938 28.589844 C 99.367188 29.078125 98.59375 30.171875 97.539062 29.234375 L 97.253906 30.292969 L 96.433594 29.703125 C 96.132812 29.820312 96.089844 30.507812 95.5 30.867188 C 93.421875 32.136719 87.589844 35.023438 85.304688 35.964844 C 84.996094 36.089844 84.929688 35.5 84.640625 35.5 C 81.335938 39.085938 76.359375 41.589844 72.527344 44.996094 C 61.582031 54.726562 54.738281 69 50.335938 82.722656 C 50.84375 83.210938 51.1875 82.191406 51.484375 81.804688 C 53.1875 79.585938 54.148438 78.210938 56.425781 76.472656 C 59.363281 74.234375 68.683594 69.597656 72.25 70.367188 C 73.660156 70.671875 75.394531 71.378906 74.5625 72.933594 C 73.535156 74.859375 71.636719 73.898438 69.980469 74.261719 C 61.378906 76.136719 53.671875 82.046875 50.882812 90.609375 C 49.988281 93.359375 50.484375 96.851562 46.359375 93.125 C 44.5 84.304688 42.320312 75.542969 39.28125 67.058594 C 39.066406 65.183594 41.292969 64.964844 42.519531 65.753906 C 43.742188 66.546875 46.007812 77.210938 46.875 79.25 C 49.019531 74.6875 50.96875 70.007812 53.300781 65.527344 C 63.535156 45.867188 74.554688 35.953125 94.59375 27.230469 C 100 24.882812 107.535156 21.816406 113.332031 21.304688 C 114.589844 21.199219 116.996094 20.808594 117.28125 22.367188 C 114.941406 23.296875 112.480469 23.886719 110.128906 24.761719 C 108.144531 25.5 107.761719 25.535156 105.867188 26.046875 C 105.710938 26.089844 104.75 28.214844 103.902344 26.542969 L 102.953125 27.875 C 102.953125 27.875 102.535156 27.066406 102.535156 27.066406 C 102.1875 28.40625 101.84375 28.125 101.019531 28.488281 L 101.089844 28.046875 C 100.882812 27.902344 100.726562 28.25 100.695312 28.253906 C 100.664062 28.261719 100.402344 27.980469 100.257812 28.191406 L 100.457031 28.585938 Z M 100.460938 28.589844 " fill-opacity="1" fill-rule="nonzero"/></g></g></g></g><g clip-path="url(#0ac63c8bb5)"><g clip-path="url(#24074f93d3)"><g clip-path="url(#de6fc2e097)"><g clip-path="url(#bafea9bb2a)"><path fill="#000000" d="M 100.460938 28.589844 C 100.523438 28.605469 100.613281 28.273438 100.695312 28.261719 C 100.78125 28.246094 100.964844 28.527344 101.023438 28.496094 C 100.855469 28.566406 100.605469 28.527344 100.460938 28.589844 Z M 100.460938 28.589844 " fill-opacity="1" fill-rule="nonzero"/></g></g></g></g><g fill="#000000" fill-opacity="1"><g transform="translate(48.090052, 86.929999)"><g><path d="M 1.484375 -1.03125 C 1.484375 -1.46875 1.582031 -1.796875 1.78125 -2.015625 C 1.976562 -2.242188 2.257812 -2.359375 2.625 -2.359375 C 3 -2.359375 3.289062 -2.242188 3.5 -2.015625 C 3.707031 -1.796875 3.8125 -1.46875 3.8125 -1.03125 C 3.8125 -0.613281 3.703125 -0.289062 3.484375 -0.0625 C 3.273438 0.164062 2.988281 0.28125 2.625 0.28125 C 2.289062 0.28125 2.015625 0.179688 1.796875 -0.015625 C 1.585938 -0.222656 1.484375 -0.5625 1.484375 -1.03125 Z M 1.484375 -1.03125 "/></g></g></g></svg>