<svg xmlns="http://www.w3.org/2000/svg" xmlns:xlink="http://www.w3.org/1999/xlink" width="188" zoomAndPan="magnify" viewBox="0 0 141 62.249996" height="83" preserveAspectRatio="xMidYMid meet" version="1.0"><defs><g/><clipPath id="509c5859a6"><path d="M 9 0 L 103 0 L 103 57 L 9 57 Z M 9 0 " clip-rule="nonzero"/></clipPath><clipPath id="e0d308f0f6"><path d="M 0.84375 36.945312 L 10.226562 0.332031 L 105.703125 24.804688 L 96.320312 61.414062 Z M 0.84375 36.945312 " clip-rule="nonzero"/></clipPath><clipPath id="9bfcb82447"><path d="M 0.84375 36.945312 L 10.226562 0.332031 L 105.703125 24.804688 L 96.320312 61.414062 Z M 0.84375 36.945312 " clip-rule="nonzero"/></clipPath><clipPath id="d3cfce23c8"><path d="M 0.84375 36.945312 L 10.226562 0.332031 L 105.703125 24.804688 L 96.320312 61.414062 Z M 0.84375 36.945312 " clip-rule="nonzero"/></clipPath><clipPath id="abbcc4465b"><path d="M 21 13 L 23 13 L 23 14 L 21 14 Z M 21 13 " clip-rule="nonzero"/></clipPath><clipPath id="97fc060713"><path d="M 0.84375 36.945312 L 10.226562 0.332031 L 105.703125 24.804688 L 96.320312 61.414062 Z M 0.84375 36.945312 " clip-rule="nonzero"/></clipPath><clipPath id="8d7e172469"><path d="M 0.84375 36.945312 L 10.226562 0.332031 L 105.703125 24.804688 L 96.320312 61.414062 Z M 0.84375 36.945312 " clip-rule="nonzero"/></clipPath><clipPath id="b0a54cb298"><path d="M 0.84375 36.945312 L 10.226562 0.332031 L 105.703125 24.804688 L 96.320312 61.414062 Z M 0.84375 36.945312 " clip-rule="nonzero"/></clipPath></defs><g clip-path="url(#509c5859a6)"><g clip-path="url(#e0d308f0f6)"><g clip-path="url(#9bfcb82447)"><g clip-path="url(#d3cfce23c8)"><path fill="#000000" d="M 22.335938 13.871094 C 23.179688 14.710938 24.472656 15.03125 23.980469 16.347656 L 25.066406 16.226562 L 24.816406 17.199219 C 25.03125 17.433594 25.683594 17.230469 26.226562 17.644531 C 28.148438 19.113281 32.914062 23.472656 34.609375 25.25 C 34.835938 25.488281 34.3125 25.765625 34.417969 26.03125 C 38.921875 27.800781 43.027344 31.511719 47.554688 33.832031 C 60.5 40.464844 76.167969 41.671875 90.453125 40.816406 C 90.71875 40.171875 89.652344 40.21875 89.1875 40.085938 C 86.519531 39.304688 84.90625 38.90625 82.476562 37.421875 C 79.347656 35.507812 71.710938 28.546875 71.140625 24.96875 C 70.914062 23.554688 70.949219 21.699219 72.6875 21.910156 C 74.835938 22.171875 74.628906 24.269531 75.5625 25.675781 C 80.386719 32.960938 88.628906 37.96875 97.554688 37.472656 C 100.421875 37.316406 103.476562 35.605469 101.507812 40.757812 C 94.011719 45.648438 86.683594 50.816406 79.921875 56.675781 C 78.265625 57.546875 77.261719 55.566406 77.554688 54.148438 C 77.847656 52.730469 86.90625 46.800781 88.476562 45.269531 C 83.484375 44.921875 78.457031 44.796875 73.46875 44.25 C 51.59375 41.84375 38.457031 35.203125 23.1875 19.789062 C 19.070312 15.628906 13.527344 9.757812 10.972656 4.574219 C 10.417969 3.449219 9.191406 1.363281 10.53125 0.539062 C 12.234375 2.371094 13.664062 4.433594 15.320312 6.300781 C 16.71875 7.871094 16.886719 8.210938 18.042969 9.78125 C 18.136719 9.910156 20.449219 10.035156 19.207031 11.417969 L 20.78125 11.820312 C 20.78125 11.820312 20.183594 12.496094 20.183594 12.496094 C 21.546875 12.335938 21.410156 12.757812 22.042969 13.386719 L 21.609375 13.484375 C 21.546875 13.726562 21.925781 13.75 21.941406 13.773438 C 21.957031 13.800781 21.792969 14.144531 22.039062 14.203125 L 22.332031 13.875 Z M 22.335938 13.871094 " fill-opacity="1" fill-rule="nonzero"/></g></g></g></g><g clip-path="url(#abbcc4465b)"><g clip-path="url(#97fc060713)"><g clip-path="url(#8d7e172469)"><g clip-path="url(#b0a54cb298)"><path fill="#000000" d="M 22.335938 13.871094 C 22.328125 13.808594 21.992188 13.84375 21.949219 13.769531 C 21.902344 13.699219 22.097656 13.425781 22.046875 13.386719 C 22.171875 13.515625 22.226562 13.757812 22.335938 13.871094 Z M 22.335938 13.871094 " fill-opacity="1" fill-rule="nonzero"/></g></g></g></g><g fill="#000000" fill-opacity="1"><g transform="translate(87.05447, 43.774131)"><g><path d="M 1.46875 -1.015625 C 1.46875 -1.453125 1.5625 -1.78125 1.75 -2 C 1.945312 -2.21875 2.234375 -2.328125 2.609375 -2.328125 C 2.972656 -2.328125 3.257812 -2.21875 3.46875 -2 C 3.6875 -1.78125 3.796875 -1.453125 3.796875 -1.015625 C 3.796875 -0.597656 3.6875 -0.273438 3.46875 -0.046875 C 3.257812 0.171875 2.972656 0.28125 2.609375 0.28125 C 2.273438 0.28125 2 0.179688 1.78125 -0.015625 C 1.570312 -0.222656 1.46875 -0.554688 1.46875 -1.015625 Z M 1.46875 -1.015625 "/></g></g></g></svg>