<svg xmlns="http://www.w3.org/2000/svg" xmlns:xlink="http://www.w3.org/1999/xlink" width="376" zoomAndPan="magnify" viewBox="0 0 282 231" height="308" preserveAspectRatio="xMidYMid meet" version="1.0"><defs><g/></defs><g fill="#000000" fill-opacity="1"><g transform="translate(149.662583, 109.900004)"><g><path d="M 1.640625 -1.140625 C 1.640625 -1.617188 1.742188 -1.976562 1.953125 -2.21875 C 2.171875 -2.46875 2.488281 -2.59375 2.90625 -2.59375 C 3.320312 -2.59375 3.644531 -2.46875 3.875 -2.21875 C 4.101562 -1.976562 4.21875 -1.617188 4.21875 -1.140625 C 4.21875 -0.671875 4.097656 -0.3125 3.859375 -0.0625 C 3.628906 0.1875 3.3125 0.3125 2.90625 0.3125 C 2.539062 0.3125 2.238281 0.203125 2 -0.015625 C 1.757812 -0.242188 1.640625 -0.617188 1.640625 -1.140625 Z M 1.640625 -1.140625 "/></g></g></g><path fill="#000000" d="M 270.785156 124.933594 L 9.15625 124.933594 C 8.511719 124.933594 7.875 124.871094 7.242188 124.746094 C 6.609375 124.621094 5.996094 124.433594 5.402344 124.1875 C 4.808594 123.941406 4.242188 123.640625 3.707031 123.28125 C 3.171875 122.925781 2.675781 122.515625 2.21875 122.0625 C 1.765625 121.605469 1.355469 121.109375 1 120.574219 C 0.640625 120.039062 0.339844 119.472656 0.09375 118.878906 C -0.152344 118.285156 -0.339844 117.671875 -0.464844 117.039062 C -0.589844 116.40625 -0.652344 115.769531 -0.652344 115.125 C -0.652344 114.480469 -0.589844 113.84375 -0.464844 113.210938 C -0.339844 112.578125 -0.152344 111.964844 0.09375 111.371094 C 0.339844 110.777344 0.640625 110.210938 1 109.675781 C 1.355469 109.140625 1.765625 108.644531 2.21875 108.1875 C 2.675781 107.734375 3.171875 107.324219 3.707031 106.96875 C 4.242188 106.609375 4.808594 106.308594 5.402344 106.0625 C 5.996094 105.816406 6.609375 105.628906 7.242188 105.503906 C 7.875 105.378906 8.511719 105.316406 9.15625 105.316406 L 270.785156 105.316406 C 271.429688 105.316406 272.066406 105.378906 272.699219 105.503906 C 273.332031 105.628906 273.945312 105.816406 274.539062 106.0625 C 275.132812 106.308594 275.699219 106.609375 276.234375 106.96875 C 276.769531 107.324219 277.265625 107.734375 277.722656 108.1875 C 278.179688 108.644531 278.585938 109.140625 278.941406 109.675781 C 279.300781 110.210938 279.601562 110.777344 279.847656 111.371094 C 280.09375 111.964844 280.28125 112.578125 280.40625 113.210938 C 280.53125 113.84375 280.597656 114.480469 280.597656 115.125 C 280.597656 115.769531 280.53125 116.40625 280.40625 117.039062 C 280.28125 117.671875 280.09375 118.285156 279.847656 118.878906 C 279.601562 119.472656 279.300781 120.039062 278.941406 120.574219 C 278.585938 121.109375 278.179688 121.605469 277.722656 122.0625 C 277.265625 122.515625 276.769531 122.925781 276.234375 123.28125 C 275.699219 123.640625 275.132812 123.941406 274.539062 124.1875 C 273.945312 124.433594 273.332031 124.621094 272.699219 124.746094 C 272.066406 124.871094 271.429688 124.933594 270.785156 124.933594 Z M 270.785156 124.933594 " fill-opacity="1" fill-rule="nonzero"/><path fill="#000000" d="M 113.808594 229.578125 C 112.507812 229.582031 111.253906 229.335938 110.054688 228.835938 C 108.851562 228.335938 107.792969 227.625 106.875 226.703125 L 2.222656 122.058594 C 1.769531 121.601562 1.363281 121.109375 1.003906 120.574219 C 0.644531 120.039062 0.34375 119.472656 0.0976562 118.878906 C -0.148438 118.28125 -0.335938 117.667969 -0.460938 117.039062 C -0.589844 116.40625 -0.652344 115.769531 -0.652344 115.125 C -0.652344 114.480469 -0.589844 113.84375 -0.460938 113.210938 C -0.335938 112.582031 -0.148438 111.96875 0.0976562 111.371094 C 0.34375 110.777344 0.644531 110.210938 1.003906 109.675781 C 1.363281 109.140625 1.769531 108.648438 2.222656 108.191406 L 106.875 3.546875 C 107.324219 3.066406 107.816406 2.632812 108.351562 2.25 C 108.890625 1.867188 109.457031 1.542969 110.058594 1.273438 C 110.660156 1.007812 111.285156 0.800781 111.925781 0.660156 C 112.570312 0.515625 113.222656 0.4375 113.878906 0.425781 C 114.539062 0.414062 115.191406 0.46875 115.839844 0.589844 C 116.488281 0.710938 117.117188 0.894531 117.726562 1.140625 C 118.339844 1.386719 118.917969 1.691406 119.46875 2.054688 C 120.015625 2.417969 120.523438 2.832031 120.992188 3.300781 C 121.457031 3.765625 121.871094 4.273438 122.234375 4.820312 C 122.597656 5.371094 122.902344 5.953125 123.148438 6.5625 C 123.398438 7.171875 123.578125 7.800781 123.699219 8.449219 C 123.820312 9.097656 123.875 9.75 123.863281 10.410156 C 123.851562 11.066406 123.773438 11.71875 123.628906 12.363281 C 123.488281 13.003906 123.28125 13.628906 123.015625 14.230469 C 122.746094 14.832031 122.421875 15.398438 122.039062 15.9375 C 121.65625 16.472656 121.222656 16.964844 120.742188 17.414062 L 23.035156 115.125 L 120.742188 212.835938 C 121.425781 213.523438 121.996094 214.292969 122.453125 215.148438 C 122.910156 216.003906 123.234375 216.90625 123.421875 217.859375 C 123.613281 218.808594 123.660156 219.765625 123.5625 220.730469 C 123.46875 221.695312 123.234375 222.625 122.863281 223.523438 C 122.492188 224.417969 122 225.242188 121.386719 225.988281 C 120.769531 226.738281 120.058594 227.382812 119.253906 227.921875 C 118.449219 228.460938 117.582031 228.871094 116.652344 229.15625 C 115.726562 229.4375 114.777344 229.578125 113.808594 229.578125 Z M 113.808594 229.578125 " fill-opacity="1" fill-rule="nonzero"/></svg>