<svg width="500" height="500" viewBox="0 0 500 500" fill="none" xmlns="http://www.w3.org/2000/svg">
<path d="M208.333 437.5H291.667C291.667 460.417 272.917 479.167 250 479.167C227.083 479.167 208.333 460.417 208.333 437.5ZM437.5 395.833V416.667H62.5V395.833L104.167 354.167V229.167C104.167 164.583 145.833 108.333 208.333 89.5833V83.3333C208.333 60.4167 227.083 41.6667 250 41.6667C272.917 41.6667 291.667 60.4167 291.667 83.3333V89.5833C354.167 108.333 395.833 164.583 395.833 229.167V354.167L437.5 395.833ZM354.167 229.167C354.167 170.833 308.333 125 250 125C191.667 125 145.833 170.833 145.833 229.167V375H354.167V229.167Z" fill="black"/>
</svg>
