<svg xmlns="http://www.w3.org/2000/svg" xmlns:xlink="http://www.w3.org/1999/xlink" width="367" zoomAndPan="magnify" viewBox="0 0 275.25 215.999996" height="288" preserveAspectRatio="xMidYMid meet" version="1.0"><defs><g/><clipPath id="de724949fc"><path d="M 0 0.292969 L 273.753906 0.292969 L 273.753906 215.707031 L 0 215.707031 Z M 0 0.292969 " clip-rule="nonzero"/></clipPath></defs><g fill="#000000" fill-opacity="1"><g transform="translate(263.050818, 171.582236)"><g><path d="M 3.40625 -2.3125 L 3.546875 -2.09375 C 3.378906 -1.445312 3.132812 -0.695312 2.8125 0.15625 C 2.5 1.019531 2.171875 1.820312 1.828125 2.5625 L 0.609375 2.5625 C 0.785156 1.894531 0.976562 1.0625 1.1875 0.0625 C 1.40625 -0.925781 1.554688 -1.71875 1.640625 -2.3125 Z M 3.40625 -2.3125 "/></g></g></g><g clip-path="url(#de724949fc)"><path fill="#18375d" d="M 259.8125 36.703125 L 202.488281 36.703125 L 200.550781 23.007812 L 199.066406 13.773438 C 198.464844 10.054688 196.496094 6.972656 193.40625 4.394531 C 190.242188 1.757812 186.855469 0.378906 183.132812 0.378906 L 89.929688 0.378906 C 86.207031 0.378906 82.785156 1.714844 79.65625 4.394531 C 76.53125 7.078125 74.867188 10.21875 74.296875 13.773438 L 72.808594 23.007812 L 70.722656 36.703125 L 13.699219 36.703125 C 6.101562 36.703125 0 42.808594 0 50.105469 L 0 201.96875 C 0 209.5625 6.101562 215.664062 13.699219 215.664062 L 259.804688 215.664062 C 267.402344 215.664062 273.503906 209.5625 273.503906 201.96875 L 273.503906 50.105469 C 273.503906 42.808594 267.402344 36.703125 259.804688 36.703125 Z M 256.984375 199.144531 L 16.382812 199.144531 L 16.382812 53.082031 L 70.726562 53.082031 C 78.914062 53.082031 85.984375 46.992188 87.101562 39.089844 L 89.035156 25.394531 L 90.527344 16.90625 L 182.835938 16.90625 L 184.175781 25.394531 L 186.261719 39.089844 C 187.460938 46.980469 194.597656 53.082031 202.492188 53.082031 L 256.980469 53.082031 L 256.980469 199.144531 Z M 256.984375 199.144531 " fill-opacity="1" fill-rule="nonzero"/></g><path fill="#18375d" d="M 230.480469 91.941406 C 237.625 91.941406 243.582031 85.839844 243.582031 78.695312 C 243.582031 71.398438 237.777344 65.292969 230.480469 65.292969 C 223.183594 65.292969 217.378906 71.398438 217.378906 78.695312 C 217.378906 85.839844 223.332031 91.941406 230.480469 91.941406 Z M 230.480469 91.941406 " fill-opacity="1" fill-rule="nonzero"/><path fill="#18375d" d="M 136.53125 57.402344 C 119.710938 57.402344 105.117188 63.503906 93.058594 75.5625 C 80.996094 87.625 74.890625 102.214844 74.890625 119.039062 C 74.890625 135.863281 80.996094 150.453125 93.058594 162.515625 C 105.117188 174.574219 119.710938 180.28125 136.53125 180.53125 C 169.886719 181.023438 198.5625 152.09375 198.167969 119.039062 C 197.96875 102.066406 192.0625 87.625 180.007812 75.5625 C 167.945312 63.503906 153.503906 57.402344 136.527344 57.402344 Z M 168.390625 151.050781 C 159.609375 159.832031 149.039062 164.148438 136.53125 164.148438 C 124.175781 164.148438 113.605469 159.832031 104.820312 151.050781 C 96.03125 142.265625 91.714844 131.546875 91.714844 119.039062 C 91.714844 106.679688 96.035156 95.960938 104.820312 87.175781 C 113.605469 78.394531 124.175781 73.925781 136.53125 73.925781 C 149.039062 73.925781 159.609375 78.394531 168.390625 87.175781 C 177.175781 95.960938 181.644531 106.679688 181.644531 119.039062 C 181.644531 131.546875 177.175781 142.265625 168.390625 151.050781 Z M 168.390625 151.050781 " fill-opacity="1" fill-rule="nonzero"/></svg>