<svg xmlns="http://www.w3.org/2000/svg" xmlns:xlink="http://www.w3.org/1999/xlink" width="288" zoomAndPan="magnify" viewBox="0 0 216 215.999996" height="288" preserveAspectRatio="xMidYMid meet" version="1.0"><defs><g/></defs><g fill="#000000" fill-opacity="1"><g transform="translate(188.418975, 166.260678)"><g><path d="M 3.421875 -2.328125 L 3.5625 -2.09375 C 3.394531 -1.445312 3.148438 -0.691406 2.828125 0.171875 C 2.515625 1.035156 2.1875 1.835938 1.84375 2.578125 L 0.609375 2.578125 C 0.785156 1.898438 0.976562 1.0625 1.1875 0.0625 C 1.40625 -0.925781 1.554688 -1.722656 1.640625 -2.328125 Z M 3.421875 -2.328125 "/></g></g></g><path fill="#18375d" d="M 108 0 C 48.449219 0 0 48.449219 0 108 C 0 167.550781 48.449219 216 108 216 C 167.550781 216 216 167.550781 216 108 C 216 48.449219 167.550781 0 108 0 Z M 108 201.601562 C 56.386719 201.601562 14.398438 159.613281 14.398438 108 C 14.398438 56.386719 56.386719 14.398438 108 14.398438 C 159.613281 14.398438 201.601562 56.386719 201.601562 108 C 201.601562 159.613281 159.613281 201.601562 108 201.601562 Z M 108 201.601562 " fill-opacity="1" fill-rule="nonzero"/><path fill="#18375d" d="M 145.667969 100.800781 L 115.199219 100.800781 L 115.199219 70.328125 C 115.199219 66.355469 111.976562 63.128906 108 63.128906 C 104.023438 63.128906 100.800781 66.355469 100.800781 70.328125 L 100.800781 100.800781 L 70.328125 100.800781 C 66.355469 100.800781 63.128906 104.023438 63.128906 108 C 63.128906 111.976562 66.355469 115.199219 70.328125 115.199219 L 100.800781 115.199219 L 100.800781 145.667969 C 100.800781 149.644531 104.023438 152.871094 108 152.871094 C 111.976562 152.871094 115.199219 149.644531 115.199219 145.667969 L 115.199219 115.199219 L 145.667969 115.199219 C 149.644531 115.199219 152.871094 111.976562 152.871094 108 C 152.871094 104.023438 149.644531 100.800781 145.667969 100.800781 Z M 145.667969 100.800781 " fill-opacity="1" fill-rule="nonzero"/></svg>