<svg xmlns="http://www.w3.org/2000/svg" xmlns:xlink="http://www.w3.org/1999/xlink" width="289" zoomAndPan="magnify" viewBox="0 0 216.75 215.999996" height="288" preserveAspectRatio="xMidYMid meet" version="1.0"><defs><g/><clipPath id="34514765e9"><path d="M 0 0.125 L 216 0.125 L 216 215.875 L 0 215.875 Z M 0 0.125 " clip-rule="nonzero"/></clipPath></defs><g fill="#000000" fill-opacity="1"><g transform="translate(153.364919, 168.70969)"><g><path d="M 3.40625 -2.328125 L 3.5625 -2.09375 C 3.394531 -1.445312 3.148438 -0.691406 2.828125 0.171875 C 2.503906 1.035156 2.171875 1.835938 1.828125 2.578125 L 0.609375 2.578125 C 0.785156 1.898438 0.976562 1.0625 1.1875 0.0625 C 1.40625 -0.925781 1.554688 -1.722656 1.640625 -2.328125 Z M 3.40625 -2.328125 "/></g></g></g><g clip-path="url(#34514765e9)"><path fill="#18375d" d="M 139.453125 215.847656 C 137.433594 215.847656 135.558594 214.746094 134.578125 212.953125 L 88.226562 127.972656 L 3.246094 81.621094 C 1.316406 80.566406 0.1875 78.472656 0.371094 76.28125 C 0.554688 74.089844 2.011719 72.214844 4.089844 71.496094 L 208.339844 0.792969 C 210.351562 0.0976562 212.582031 0.609375 214.085938 2.113281 C 215.589844 3.617188 216.101562 5.847656 215.40625 7.859375 L 144.703125 212.109375 C 143.984375 214.1875 142.105469 215.644531 139.914062 215.828125 C 139.761719 215.839844 139.605469 215.847656 139.453125 215.847656 Z M 19.597656 77.882812 L 94.980469 119 C 95.917969 119.511719 96.6875 120.28125 97.195312 121.21875 L 138.316406 196.601562 L 201.167969 15.03125 Z M 19.597656 77.882812 " fill-opacity="1" fill-rule="nonzero"/></g><path fill="#18375d" d="M 92.320312 129.433594 C 90.898438 129.433594 89.476562 128.890625 88.394531 127.804688 C 86.222656 125.636719 86.222656 122.121094 88.394531 119.949219 L 202.300781 6.042969 C 204.472656 3.871094 207.988281 3.871094 210.15625 6.042969 C 212.328125 8.210938 212.328125 11.726562 210.15625 13.898438 L 96.25 127.804688 C 95.164062 128.890625 93.742188 129.433594 92.320312 129.433594 Z M 92.320312 129.433594 " fill-opacity="1" fill-rule="nonzero"/></svg>