<svg xmlns="http://www.w3.org/2000/svg" xmlns:xlink="http://www.w3.org/1999/xlink" width="580" zoomAndPan="magnify" viewBox="0 0 434.88 289.499996" height="386" preserveAspectRatio="xMidYMid meet" version="1.0"><defs><filter x="0%" y="0%" width="100%" height="100%" id="c61d701d50"><feColorMatrix values="0 0 0 0 1 0 0 0 0 1 0 0 0 0 1 0 0 0 1 0" color-interpolation-filters="sRGB"/></filter><g/><clipPath id="5ada92fc7a"><path d="M 0.316406 0 L 434.445312 0 L 434.445312 289 L 0.316406 289 Z M 0.316406 0 " clip-rule="nonzero"/></clipPath><clipPath id="98fd5eed49"><path d="M 0.316406 0 L 434.445312 0 L 434.445312 289 L 0.316406 289 Z M 0.316406 0 " clip-rule="nonzero"/></clipPath><clipPath id="301c08ca0f"><path d="M 0.316406 0 L 434.445312 0 L 434.445312 289 L 0.316406 289 Z M 0.316406 0 " clip-rule="nonzero"/></clipPath><linearGradient x1="-31.963957" gradientTransform="matrix(0.748743, 0, 0, 0.747803, 24.247783, 27.814898)" y1="134" x2="547.848268" gradientUnits="userSpaceOnUse" y2="134" id="7bcc73cb56"><stop stop-opacity="1" stop-color="rgb(31.759644%, 43.919373%, 100%)" offset="0"/><stop stop-opacity="1" stop-color="rgb(31.759644%, 43.919373%, 100%)" offset="0.03125"/><stop stop-opacity="1" stop-color="rgb(31.759644%, 43.919373%, 100%)" offset="0.046875"/><stop stop-opacity="1" stop-color="rgb(31.759644%, 43.919373%, 100%)" offset="0.0546875"/><stop stop-opacity="1" stop-color="rgb(32.124329%, 43.89801%, 99.874878%)" offset="0.0585938"/><stop stop-opacity="1" stop-color="rgb(32.49054%, 43.876648%, 99.751282%)" offset="0.0625"/><stop stop-opacity="1" stop-color="rgb(32.878113%, 43.85376%, 99.620056%)" offset="0.0664063"/><stop stop-opacity="1" stop-color="rgb(33.265686%, 43.832397%, 99.488831%)" offset="0.0703125"/><stop stop-opacity="1" stop-color="rgb(33.651733%, 43.809509%, 99.357605%)" offset="0.0742188"/><stop stop-opacity="1" stop-color="rgb(34.039307%, 43.788147%, 99.226379%)" offset="0.078125"/><stop stop-opacity="1" stop-color="rgb(34.42688%, 43.765259%, 99.095154%)" offset="0.0820312"/><stop stop-opacity="1" stop-color="rgb(34.814453%, 43.743896%, 98.963928%)" offset="0.0859375"/><stop stop-opacity="1" stop-color="rgb(35.202026%, 43.721008%, 98.831177%)" offset="0.0898438"/><stop stop-opacity="1" stop-color="rgb(35.5896%, 43.699646%, 98.699951%)" offset="0.09375"/><stop stop-opacity="1" stop-color="rgb(35.975647%, 43.676758%, 98.568726%)" offset="0.0976562"/><stop stop-opacity="1" stop-color="rgb(36.36322%, 43.655396%, 98.4375%)" offset="0.101563"/><stop stop-opacity="1" stop-color="rgb(36.750793%, 43.632507%, 98.306274%)" offset="0.105469"/><stop stop-opacity="1" stop-color="rgb(37.138367%, 43.609619%, 98.175049%)" offset="0.109375"/><stop stop-opacity="1" stop-color="rgb(37.52594%, 43.586731%, 98.043823%)" offset="0.113281"/><stop stop-opacity="1" stop-color="rgb(37.913513%, 43.565369%, 97.912598%)" offset="0.117188"/><stop stop-opacity="1" stop-color="rgb(38.301086%, 43.54248%, 97.781372%)" offset="0.121094"/><stop stop-opacity="1" stop-color="rgb(38.68866%, 43.521118%, 97.650146%)" offset="0.125"/><stop stop-opacity="1" stop-color="rgb(39.074707%, 43.49823%, 97.518921%)" offset="0.128906"/><stop stop-opacity="1" stop-color="rgb(39.46228%, 43.476868%, 97.387695%)" offset="0.132813"/><stop stop-opacity="1" stop-color="rgb(39.849854%, 43.453979%, 97.254944%)" offset="0.136719"/><stop stop-opacity="1" stop-color="rgb(40.237427%, 43.432617%, 97.123718%)" offset="0.140625"/><stop stop-opacity="1" stop-color="rgb(40.625%, 43.409729%, 96.992493%)" offset="0.144531"/><stop stop-opacity="1" stop-color="rgb(41.012573%, 43.388367%, 96.861267%)" offset="0.148437"/><stop stop-opacity="1" stop-color="rgb(41.398621%, 43.365479%, 96.730042%)" offset="0.152344"/><stop stop-opacity="1" stop-color="rgb(41.786194%, 43.34259%, 96.598816%)" offset="0.15625"/><stop stop-opacity="1" stop-color="rgb(42.173767%, 43.319702%, 96.46759%)" offset="0.160156"/><stop stop-opacity="1" stop-color="rgb(42.56134%, 43.29834%, 96.336365%)" offset="0.164062"/><stop stop-opacity="1" stop-color="rgb(42.948914%, 43.275452%, 96.205139%)" offset="0.167969"/><stop stop-opacity="1" stop-color="rgb(43.336487%, 43.254089%, 96.073914%)" offset="0.171875"/><stop stop-opacity="1" stop-color="rgb(43.72406%, 43.231201%, 95.942688%)" offset="0.175781"/><stop stop-opacity="1" stop-color="rgb(44.111633%, 43.209839%, 95.811462%)" offset="0.179688"/><stop stop-opacity="1" stop-color="rgb(44.497681%, 43.186951%, 95.678711%)" offset="0.183594"/><stop stop-opacity="1" stop-color="rgb(44.885254%, 43.165588%, 95.547485%)" offset="0.1875"/><stop stop-opacity="1" stop-color="rgb(45.272827%, 43.1427%, 95.41626%)" offset="0.191406"/><stop stop-opacity="1" stop-color="rgb(45.6604%, 43.121338%, 95.285034%)" offset="0.195312"/><stop stop-opacity="1" stop-color="rgb(46.047974%, 43.09845%, 95.153809%)" offset="0.199219"/><stop stop-opacity="1" stop-color="rgb(46.435547%, 43.075562%, 95.022583%)" offset="0.203125"/><stop stop-opacity="1" stop-color="rgb(46.821594%, 43.052673%, 94.891357%)" offset="0.207031"/><stop stop-opacity="1" stop-color="rgb(47.209167%, 43.031311%, 94.760132%)" offset="0.210938"/><stop stop-opacity="1" stop-color="rgb(47.596741%, 43.008423%, 94.628906%)" offset="0.214844"/><stop stop-opacity="1" stop-color="rgb(47.984314%, 42.987061%, 94.497681%)" offset="0.21875"/><stop stop-opacity="1" stop-color="rgb(48.371887%, 42.964172%, 94.366455%)" offset="0.222656"/><stop stop-opacity="1" stop-color="rgb(48.75946%, 42.94281%, 94.235229%)" offset="0.226562"/><stop stop-opacity="1" stop-color="rgb(49.147034%, 42.919922%, 94.102478%)" offset="0.230469"/><stop stop-opacity="1" stop-color="rgb(49.534607%, 42.89856%, 93.971252%)" offset="0.234375"/><stop stop-opacity="1" stop-color="rgb(49.920654%, 42.875671%, 93.840027%)" offset="0.238281"/><stop stop-opacity="1" stop-color="rgb(50.308228%, 42.854309%, 93.708801%)" offset="0.242188"/><stop stop-opacity="1" stop-color="rgb(50.695801%, 42.831421%, 93.577576%)" offset="0.246094"/><stop stop-opacity="1" stop-color="rgb(51.083374%, 42.808533%, 93.44635%)" offset="0.25"/><stop stop-opacity="1" stop-color="rgb(51.470947%, 42.785645%, 93.315125%)" offset="0.253906"/><stop stop-opacity="1" stop-color="rgb(51.858521%, 42.764282%, 93.183899%)" offset="0.257812"/><stop stop-opacity="1" stop-color="rgb(52.246094%, 42.741394%, 93.052673%)" offset="0.261719"/><stop stop-opacity="1" stop-color="rgb(52.633667%, 42.720032%, 92.921448%)" offset="0.265625"/><stop stop-opacity="1" stop-color="rgb(53.019714%, 42.697144%, 92.790222%)" offset="0.269531"/><stop stop-opacity="1" stop-color="rgb(53.407288%, 42.675781%, 92.658997%)" offset="0.273438"/><stop stop-opacity="1" stop-color="rgb(53.794861%, 42.652893%, 92.526245%)" offset="0.277344"/><stop stop-opacity="1" stop-color="rgb(54.182434%, 42.631531%, 92.39502%)" offset="0.28125"/><stop stop-opacity="1" stop-color="rgb(54.570007%, 42.608643%, 92.263794%)" offset="0.285156"/><stop stop-opacity="1" stop-color="rgb(54.957581%, 42.58728%, 92.132568%)" offset="0.289062"/><stop stop-opacity="1" stop-color="rgb(55.343628%, 42.564392%, 92.001343%)" offset="0.292969"/><stop stop-opacity="1" stop-color="rgb(55.731201%, 42.541504%, 91.870117%)" offset="0.296875"/><stop stop-opacity="1" stop-color="rgb(56.118774%, 42.518616%, 91.738892%)" offset="0.300781"/><stop stop-opacity="1" stop-color="rgb(56.506348%, 42.497253%, 91.607666%)" offset="0.304688"/><stop stop-opacity="1" stop-color="rgb(56.893921%, 42.474365%, 91.47644%)" offset="0.308594"/><stop stop-opacity="1" stop-color="rgb(57.281494%, 42.453003%, 91.345215%)" offset="0.3125"/><stop stop-opacity="1" stop-color="rgb(57.669067%, 42.430115%, 91.213989%)" offset="0.316406"/><stop stop-opacity="1" stop-color="rgb(58.056641%, 42.408752%, 91.082764%)" offset="0.320312"/><stop stop-opacity="1" stop-color="rgb(58.442688%, 42.385864%, 90.950012%)" offset="0.324219"/><stop stop-opacity="1" stop-color="rgb(58.830261%, 42.364502%, 90.818787%)" offset="0.328125"/><stop stop-opacity="1" stop-color="rgb(59.217834%, 42.341614%, 90.687561%)" offset="0.332031"/><stop stop-opacity="1" stop-color="rgb(59.605408%, 42.320251%, 90.556335%)" offset="0.335938"/><stop stop-opacity="1" stop-color="rgb(59.992981%, 42.297363%, 90.42511%)" offset="0.339844"/><stop stop-opacity="1" stop-color="rgb(60.380554%, 42.274475%, 90.293884%)" offset="0.34375"/><stop stop-opacity="1" stop-color="rgb(60.766602%, 42.251587%, 90.162659%)" offset="0.347656"/><stop stop-opacity="1" stop-color="rgb(61.154175%, 42.230225%, 90.031433%)" offset="0.351562"/><stop stop-opacity="1" stop-color="rgb(61.541748%, 42.207336%, 89.900208%)" offset="0.355469"/><stop stop-opacity="1" stop-color="rgb(61.929321%, 42.185974%, 89.768982%)" offset="0.359375"/><stop stop-opacity="1" stop-color="rgb(62.316895%, 42.163086%, 89.637756%)" offset="0.363281"/><stop stop-opacity="1" stop-color="rgb(62.704468%, 42.141724%, 89.506531%)" offset="0.367188"/><stop stop-opacity="1" stop-color="rgb(63.092041%, 42.118835%, 89.373779%)" offset="0.371094"/><stop stop-opacity="1" stop-color="rgb(63.479614%, 42.097473%, 89.242554%)" offset="0.375"/><stop stop-opacity="1" stop-color="rgb(63.865662%, 42.074585%, 89.111328%)" offset="0.378906"/><stop stop-opacity="1" stop-color="rgb(64.253235%, 42.053223%, 88.980103%)" offset="0.382812"/><stop stop-opacity="1" stop-color="rgb(64.640808%, 42.030334%, 88.848877%)" offset="0.386719"/><stop stop-opacity="1" stop-color="rgb(65.028381%, 42.007446%, 88.717651%)" offset="0.390625"/><stop stop-opacity="1" stop-color="rgb(65.415955%, 41.984558%, 88.586426%)" offset="0.394531"/><stop stop-opacity="1" stop-color="rgb(65.803528%, 41.963196%, 88.4552%)" offset="0.398438"/><stop stop-opacity="1" stop-color="rgb(66.189575%, 41.940308%, 88.323975%)" offset="0.402344"/><stop stop-opacity="1" stop-color="rgb(66.577148%, 41.918945%, 88.192749%)" offset="0.40625"/><stop stop-opacity="1" stop-color="rgb(66.964722%, 41.896057%, 88.061523%)" offset="0.410156"/><stop stop-opacity="1" stop-color="rgb(67.352295%, 41.874695%, 87.930298%)" offset="0.414063"/><stop stop-opacity="1" stop-color="rgb(67.739868%, 41.851807%, 87.797546%)" offset="0.417969"/><stop stop-opacity="1" stop-color="rgb(68.127441%, 41.830444%, 87.666321%)" offset="0.421875"/><stop stop-opacity="1" stop-color="rgb(68.515015%, 41.807556%, 87.535095%)" offset="0.425781"/><stop stop-opacity="1" stop-color="rgb(68.902588%, 41.786194%, 87.40387%)" offset="0.429688"/><stop stop-opacity="1" stop-color="rgb(69.288635%, 41.763306%, 87.272644%)" offset="0.433594"/><stop stop-opacity="1" stop-color="rgb(69.676208%, 41.740417%, 87.141418%)" offset="0.4375"/><stop stop-opacity="1" stop-color="rgb(70.063782%, 41.717529%, 87.010193%)" offset="0.441406"/><stop stop-opacity="1" stop-color="rgb(70.451355%, 41.696167%, 86.878967%)" offset="0.445313"/><stop stop-opacity="1" stop-color="rgb(70.838928%, 41.673279%, 86.747742%)" offset="0.449219"/><stop stop-opacity="1" stop-color="rgb(71.226501%, 41.651917%, 86.616516%)" offset="0.453125"/><stop stop-opacity="1" stop-color="rgb(71.612549%, 41.629028%, 86.485291%)" offset="0.457031"/><stop stop-opacity="1" stop-color="rgb(72.000122%, 41.607666%, 86.354065%)" offset="0.460938"/><stop stop-opacity="1" stop-color="rgb(72.387695%, 41.584778%, 86.221313%)" offset="0.464844"/><stop stop-opacity="1" stop-color="rgb(72.775269%, 41.563416%, 86.090088%)" offset="0.46875"/><stop stop-opacity="1" stop-color="rgb(73.162842%, 41.540527%, 85.958862%)" offset="0.472656"/><stop stop-opacity="1" stop-color="rgb(73.550415%, 41.519165%, 85.827637%)" offset="0.476563"/><stop stop-opacity="1" stop-color="rgb(73.937988%, 41.496277%, 85.696411%)" offset="0.480469"/><stop stop-opacity="1" stop-color="rgb(74.325562%, 41.473389%, 85.565186%)" offset="0.484375"/><stop stop-opacity="1" stop-color="rgb(74.711609%, 41.4505%, 85.43396%)" offset="0.488281"/><stop stop-opacity="1" stop-color="rgb(75.099182%, 41.429138%, 85.302734%)" offset="0.492188"/><stop stop-opacity="1" stop-color="rgb(75.486755%, 41.40625%, 85.171509%)" offset="0.496094"/><stop stop-opacity="1" stop-color="rgb(75.874329%, 41.384888%, 85.040283%)" offset="0.5"/><stop stop-opacity="1" stop-color="rgb(76.261902%, 41.362%, 84.909058%)" offset="0.503906"/><stop stop-opacity="1" stop-color="rgb(76.649475%, 41.340637%, 84.777832%)" offset="0.507813"/><stop stop-opacity="1" stop-color="rgb(77.037048%, 41.317749%, 84.645081%)" offset="0.511719"/><stop stop-opacity="1" stop-color="rgb(77.424622%, 41.296387%, 84.513855%)" offset="0.515625"/><stop stop-opacity="1" stop-color="rgb(77.810669%, 41.273499%, 84.382629%)" offset="0.519531"/><stop stop-opacity="1" stop-color="rgb(78.198242%, 41.252136%, 84.251404%)" offset="0.523438"/><stop stop-opacity="1" stop-color="rgb(78.585815%, 41.229248%, 84.120178%)" offset="0.527344"/><stop stop-opacity="1" stop-color="rgb(78.973389%, 41.20636%, 83.988953%)" offset="0.53125"/><stop stop-opacity="1" stop-color="rgb(79.360962%, 41.183472%, 83.857727%)" offset="0.535156"/><stop stop-opacity="1" stop-color="rgb(79.748535%, 41.162109%, 83.726501%)" offset="0.539062"/><stop stop-opacity="1" stop-color="rgb(80.134583%, 41.139221%, 83.595276%)" offset="0.542969"/><stop stop-opacity="1" stop-color="rgb(80.522156%, 41.117859%, 83.46405%)" offset="0.546875"/><stop stop-opacity="1" stop-color="rgb(80.909729%, 41.094971%, 83.332825%)" offset="0.550781"/><stop stop-opacity="1" stop-color="rgb(81.297302%, 41.073608%, 83.201599%)" offset="0.554688"/><stop stop-opacity="1" stop-color="rgb(81.684875%, 41.05072%, 83.068848%)" offset="0.558594"/><stop stop-opacity="1" stop-color="rgb(82.072449%, 41.029358%, 82.937622%)" offset="0.5625"/><stop stop-opacity="1" stop-color="rgb(82.460022%, 41.00647%, 82.806396%)" offset="0.566406"/><stop stop-opacity="1" stop-color="rgb(82.847595%, 40.985107%, 82.675171%)" offset="0.570312"/><stop stop-opacity="1" stop-color="rgb(83.233643%, 40.962219%, 82.543945%)" offset="0.574219"/><stop stop-opacity="1" stop-color="rgb(83.621216%, 40.939331%, 82.41272%)" offset="0.578125"/><stop stop-opacity="1" stop-color="rgb(84.008789%, 40.916443%, 82.281494%)" offset="0.582031"/><stop stop-opacity="1" stop-color="rgb(84.396362%, 40.895081%, 82.150269%)" offset="0.585938"/><stop stop-opacity="1" stop-color="rgb(84.783936%, 40.872192%, 82.019043%)" offset="0.589844"/><stop stop-opacity="1" stop-color="rgb(85.171509%, 40.85083%, 81.887817%)" offset="0.59375"/><stop stop-opacity="1" stop-color="rgb(85.557556%, 40.827942%, 81.756592%)" offset="0.597656"/><stop stop-opacity="1" stop-color="rgb(85.945129%, 40.80658%, 81.625366%)" offset="0.601562"/><stop stop-opacity="1" stop-color="rgb(86.332703%, 40.783691%, 81.492615%)" offset="0.605469"/><stop stop-opacity="1" stop-color="rgb(86.720276%, 40.762329%, 81.361389%)" offset="0.609375"/><stop stop-opacity="1" stop-color="rgb(87.107849%, 40.739441%, 81.230164%)" offset="0.613281"/><stop stop-opacity="1" stop-color="rgb(87.495422%, 40.718079%, 81.098938%)" offset="0.617188"/><stop stop-opacity="1" stop-color="rgb(87.882996%, 40.69519%, 80.967712%)" offset="0.621094"/><stop stop-opacity="1" stop-color="rgb(88.270569%, 40.672302%, 80.836487%)" offset="0.625"/><stop stop-opacity="1" stop-color="rgb(88.656616%, 40.649414%, 80.705261%)" offset="0.628906"/><stop stop-opacity="1" stop-color="rgb(89.044189%, 40.628052%, 80.574036%)" offset="0.632812"/><stop stop-opacity="1" stop-color="rgb(89.431763%, 40.605164%, 80.44281%)" offset="0.636719"/><stop stop-opacity="1" stop-color="rgb(89.819336%, 40.583801%, 80.311584%)" offset="0.640625"/><stop stop-opacity="1" stop-color="rgb(90.206909%, 40.560913%, 80.180359%)" offset="0.644531"/><stop stop-opacity="1" stop-color="rgb(90.594482%, 40.539551%, 80.049133%)" offset="0.648438"/><stop stop-opacity="1" stop-color="rgb(90.98053%, 40.516663%, 79.916382%)" offset="0.652344"/><stop stop-opacity="1" stop-color="rgb(91.368103%, 40.4953%, 79.785156%)" offset="0.65625"/><stop stop-opacity="1" stop-color="rgb(91.755676%, 40.472412%, 79.653931%)" offset="0.660156"/><stop stop-opacity="1" stop-color="rgb(92.14325%, 40.45105%, 79.522705%)" offset="0.664062"/><stop stop-opacity="1" stop-color="rgb(92.530823%, 40.428162%, 79.391479%)" offset="0.667969"/><stop stop-opacity="1" stop-color="rgb(92.918396%, 40.405273%, 79.260254%)" offset="0.671875"/><stop stop-opacity="1" stop-color="rgb(93.305969%, 40.382385%, 79.129028%)" offset="0.675781"/><stop stop-opacity="1" stop-color="rgb(93.693542%, 40.361023%, 78.997803%)" offset="0.679688"/><stop stop-opacity="1" stop-color="rgb(94.07959%, 40.338135%, 78.866577%)" offset="0.683594"/><stop stop-opacity="1" stop-color="rgb(94.467163%, 40.316772%, 78.735352%)" offset="0.6875"/><stop stop-opacity="1" stop-color="rgb(94.854736%, 40.293884%, 78.604126%)" offset="0.691406"/><stop stop-opacity="1" stop-color="rgb(95.24231%, 40.272522%, 78.4729%)" offset="0.695312"/><stop stop-opacity="1" stop-color="rgb(95.629883%, 40.249634%, 78.340149%)" offset="0.699219"/><stop stop-opacity="1" stop-color="rgb(96.017456%, 40.228271%, 78.208923%)" offset="0.703125"/><stop stop-opacity="1" stop-color="rgb(96.403503%, 40.205383%, 78.077698%)" offset="0.707031"/><stop stop-opacity="1" stop-color="rgb(96.791077%, 40.184021%, 77.946472%)" offset="0.710938"/><stop stop-opacity="1" stop-color="rgb(97.17865%, 40.161133%, 77.815247%)" offset="0.714844"/><stop stop-opacity="1" stop-color="rgb(97.566223%, 40.138245%, 77.684021%)" offset="0.71875"/><stop stop-opacity="1" stop-color="rgb(97.953796%, 40.115356%, 77.552795%)" offset="0.722656"/><stop stop-opacity="1" stop-color="rgb(98.34137%, 40.093994%, 77.42157%)" offset="0.726562"/><stop stop-opacity="1" stop-color="rgb(98.728943%, 40.071106%, 77.290344%)" offset="0.730469"/><stop stop-opacity="1" stop-color="rgb(99.116516%, 40.049744%, 77.159119%)" offset="0.734375"/><stop stop-opacity="1" stop-color="rgb(99.502563%, 40.026855%, 77.027893%)" offset="0.738281"/><stop stop-opacity="1" stop-color="rgb(99.890137%, 40.005493%, 76.896667%)" offset="0.742188"/><stop stop-opacity="1" stop-color="rgb(99.945068%, 40.002441%, 76.876831%)" offset="0.75"/><stop stop-opacity="1" stop-color="rgb(100%, 39.99939%, 76.858521%)" offset="1"/></linearGradient><clipPath id="df71baa09d"><rect x="0" width="435" y="0" height="289"/></clipPath><clipPath id="1fd92c3a18"><path d="M 0.316406 0 L 434.445312 0 L 434.445312 289 L 0.316406 289 Z M 0.316406 0 " clip-rule="nonzero"/></clipPath><clipPath id="95cbe3cb92"><rect x="0" width="435" y="0" height="289"/></clipPath><clipPath id="7e0d6650b3"><rect x="0" width="435" y="0" height="289"/></clipPath><mask id="ae49b05da9"><g filter="url(#c61d701d50)"><g><g clip-path="url(#7e0d6650b3)"><g clip-path="url(#1fd92c3a18)"><g><g clip-path="url(#95cbe3cb92)"><g fill="#000000" fill-opacity="1"><g transform="translate(23.880593, 116.034917)"><g><path d="M 42.9375 -74.96875 L 42.9375 -65.40625 C 42.9375 -64.320312 42.425781 -63.78125 41.40625 -63.78125 L 17.5 -63.78125 L 17.5 -44.65625 L 35.765625 -44.65625 C 36.785156 -44.65625 37.296875 -44.113281 37.296875 -43.03125 L 37.296875 -33.5625 C 37.296875 -32.476562 36.785156 -31.9375 35.765625 -31.9375 L 17.5 -31.9375 L 17.5 -12.625 L 41.40625 -12.625 C 42.425781 -12.625 42.9375 -12.113281 42.9375 -11.09375 L 42.9375 -1.53125 C 42.9375 -0.507812 42.425781 0 41.40625 0 L 6.21875 0 C 5.257812 0 4.78125 -0.507812 4.78125 -1.53125 L 4.78125 -74.96875 C 4.78125 -75.988281 5.257812 -76.5 6.21875 -76.5 L 41.40625 -76.5 C 42.425781 -76.5 42.9375 -75.988281 42.9375 -74.96875 Z M 42.9375 -74.96875 "/></g></g></g><g fill="#000000" fill-opacity="1"><g transform="translate(73.50968, 116.034917)"><g><path d="M 18.546875 -76.5 L 29.265625 -76.5 C 33.785156 -76.5 37.207031 -75.332031 39.53125 -73 C 41.863281 -70.675781 43.03125 -67.253906 43.03125 -62.734375 L 43.03125 -52.59375 C 43.03125 -51.570312 42.519531 -51.0625 41.5 -51.0625 L 31.5625 -51.0625 C 30.539062 -51.0625 30.03125 -51.570312 30.03125 -52.59375 L 30.03125 -60.046875 C 30.03125 -62.597656 28.753906 -63.875 26.203125 -63.875 L 21.609375 -63.875 C 19.054688 -63.875 17.78125 -62.597656 17.78125 -60.046875 L 17.78125 -46.859375 L 40.546875 -39.390625 C 42.203125 -38.691406 43.03125 -37.515625 43.03125 -35.859375 L 43.03125 -13.765625 C 43.03125 -9.304688 41.863281 -5.894531 39.53125 -3.53125 C 37.207031 -1.175781 33.785156 0 29.265625 0 L 18.546875 0 C 14.085938 0 10.675781 -1.175781 8.3125 -3.53125 C 5.957031 -5.894531 4.78125 -9.304688 4.78125 -13.765625 L 4.78125 -23.8125 C 4.78125 -24.832031 5.289062 -25.34375 6.3125 -25.34375 L 16.25 -25.34375 C 17.269531 -25.34375 17.78125 -24.832031 17.78125 -23.8125 L 17.78125 -16.453125 C 17.78125 -13.898438 19.054688 -12.625 21.609375 -12.625 L 26.203125 -12.625 C 28.753906 -12.625 30.03125 -13.898438 30.03125 -16.453125 L 30.03125 -29.171875 L 7.359375 -36.625 C 5.640625 -37.195312 4.78125 -38.375 4.78125 -40.15625 L 4.78125 -62.734375 C 4.78125 -67.253906 5.957031 -70.675781 8.3125 -73 C 10.675781 -75.332031 14.085938 -76.5 18.546875 -76.5 Z M 18.546875 -76.5 "/></g></g></g><g fill="#000000" fill-opacity="1"><g transform="translate(123.23439, 116.034917)"><g><path d="M 4.40625 -76.5 L 39.59375 -76.5 C 40.613281 -76.5 41.125 -75.988281 41.125 -74.96875 L 41.125 -65.40625 C 41.125 -64.382812 40.613281 -63.875 39.59375 -63.875 L 28.5 -63.875 L 28.5 -1.53125 C 28.5 -0.507812 27.988281 0 26.96875 0 L 17.015625 0 C 15.992188 0 15.484375 -0.507812 15.484375 -1.53125 L 15.484375 -63.875 L 4.40625 -63.875 C 3.382812 -63.875 2.875 -64.382812 2.875 -65.40625 L 2.875 -74.96875 C 2.875 -75.988281 3.382812 -76.5 4.40625 -76.5 Z M 4.40625 -76.5 "/></g></g></g><g fill="#000000" fill-opacity="1"><g transform="translate(169.134144, 116.034917)"><g><path d="M 50.875 0 L 40.734375 0 C 39.910156 0 39.398438 -0.445312 39.203125 -1.34375 L 36.53125 -15.296875 L 19.5 -15.296875 L 16.921875 -1.34375 C 16.734375 -0.445312 16.222656 0 15.390625 0 L 5.15625 0 C 4.007812 0 3.597656 -0.539062 3.921875 -1.625 L 19.796875 -75.15625 C 19.984375 -76.050781 20.523438 -76.5 21.421875 -76.5 L 34.71875 -76.5 C 35.601562 -76.5 36.144531 -76.050781 36.34375 -75.15625 L 52.21875 -1.625 C 52.40625 -0.539062 51.957031 0 50.875 0 Z M 34.140625 -26.390625 L 28.015625 -59.765625 L 21.890625 -26.390625 Z M 34.140625 -26.390625 "/></g></g></g><g fill="#000000" fill-opacity="1"><g transform="translate(227.082508, 116.034917)"><g><path d="M 4.40625 -76.5 L 39.59375 -76.5 C 40.613281 -76.5 41.125 -75.988281 41.125 -74.96875 L 41.125 -65.40625 C 41.125 -64.382812 40.613281 -63.875 39.59375 -63.875 L 28.5 -63.875 L 28.5 -1.53125 C 28.5 -0.507812 27.988281 0 26.96875 0 L 17.015625 0 C 15.992188 0 15.484375 -0.507812 15.484375 -1.53125 L 15.484375 -63.875 L 4.40625 -63.875 C 3.382812 -63.875 2.875 -64.382812 2.875 -65.40625 L 2.875 -74.96875 C 2.875 -75.988281 3.382812 -76.5 4.40625 -76.5 Z M 4.40625 -76.5 "/></g></g></g><g fill="#000000" fill-opacity="1"><g transform="translate(272.982273, 116.034917)"><g><path d="M 42.9375 -74.96875 L 42.9375 -65.40625 C 42.9375 -64.320312 42.425781 -63.78125 41.40625 -63.78125 L 17.5 -63.78125 L 17.5 -44.65625 L 35.765625 -44.65625 C 36.785156 -44.65625 37.296875 -44.113281 37.296875 -43.03125 L 37.296875 -33.5625 C 37.296875 -32.476562 36.785156 -31.9375 35.765625 -31.9375 L 17.5 -31.9375 L 17.5 -12.625 L 41.40625 -12.625 C 42.425781 -12.625 42.9375 -12.113281 42.9375 -11.09375 L 42.9375 -1.53125 C 42.9375 -0.507812 42.425781 0 41.40625 0 L 6.21875 0 C 5.257812 0 4.78125 -0.507812 4.78125 -1.53125 L 4.78125 -74.96875 C 4.78125 -75.988281 5.257812 -76.5 6.21875 -76.5 L 41.40625 -76.5 C 42.425781 -76.5 42.9375 -75.988281 42.9375 -74.96875 Z M 42.9375 -74.96875 "/></g></g></g><g fill="#000000" fill-opacity="1"><g transform="translate(23.880593, 216.361636)"><g><path d="M 18.546875 -76.5 L 29.265625 -76.5 C 33.785156 -76.5 37.207031 -75.332031 39.53125 -73 C 41.863281 -70.675781 43.03125 -67.253906 43.03125 -62.734375 L 43.03125 -52.59375 C 43.03125 -51.570312 42.519531 -51.0625 41.5 -51.0625 L 31.5625 -51.0625 C 30.539062 -51.0625 30.03125 -51.570312 30.03125 -52.59375 L 30.03125 -60.046875 C 30.03125 -62.597656 28.753906 -63.875 26.203125 -63.875 L 21.609375 -63.875 C 19.054688 -63.875 17.78125 -62.597656 17.78125 -60.046875 L 17.78125 -46.859375 L 40.546875 -39.390625 C 42.203125 -38.691406 43.03125 -37.515625 43.03125 -35.859375 L 43.03125 -13.765625 C 43.03125 -9.304688 41.863281 -5.894531 39.53125 -3.53125 C 37.207031 -1.175781 33.785156 0 29.265625 0 L 18.546875 0 C 14.085938 0 10.675781 -1.175781 8.3125 -3.53125 C 5.957031 -5.894531 4.78125 -9.304688 4.78125 -13.765625 L 4.78125 -23.8125 C 4.78125 -24.832031 5.289062 -25.34375 6.3125 -25.34375 L 16.25 -25.34375 C 17.269531 -25.34375 17.78125 -24.832031 17.78125 -23.8125 L 17.78125 -16.453125 C 17.78125 -13.898438 19.054688 -12.625 21.609375 -12.625 L 26.203125 -12.625 C 28.753906 -12.625 30.03125 -13.898438 30.03125 -16.453125 L 30.03125 -29.171875 L 7.359375 -36.625 C 5.640625 -37.195312 4.78125 -38.375 4.78125 -40.15625 L 4.78125 -62.734375 C 4.78125 -67.253906 5.957031 -70.675781 8.3125 -73 C 10.675781 -75.332031 14.085938 -76.5 18.546875 -76.5 Z M 18.546875 -76.5 "/></g></g></g><g fill="#000000" fill-opacity="1"><g transform="translate(73.605303, 216.361636)"><g><path d="M 4.78125 -1.53125 L 4.78125 -74.96875 C 4.78125 -75.988281 5.289062 -76.5 6.3125 -76.5 L 29.265625 -76.5 C 33.785156 -76.5 37.207031 -75.332031 39.53125 -73 C 41.863281 -70.675781 43.03125 -67.253906 43.03125 -62.734375 L 43.03125 -39.390625 C 43.03125 -34.929688 41.863281 -31.519531 39.53125 -29.15625 C 37.207031 -26.800781 33.785156 -25.625 29.265625 -25.625 L 17.78125 -25.625 L 17.78125 -1.53125 C 17.78125 -0.507812 17.269531 0 16.25 0 L 6.3125 0 C 5.289062 0 4.78125 -0.507812 4.78125 -1.53125 Z M 17.78125 -38.25 L 26.203125 -38.25 C 28.753906 -38.25 30.03125 -39.523438 30.03125 -42.078125 L 30.03125 -60.046875 C 30.03125 -62.597656 28.753906 -63.875 26.203125 -63.875 L 17.78125 -63.875 Z M 17.78125 -38.25 "/></g></g></g><g fill="#000000" fill-opacity="1"><g transform="translate(123.330013, 216.361636)"><g><path d="M 50.875 0 L 40.734375 0 C 39.910156 0 39.398438 -0.445312 39.203125 -1.34375 L 36.53125 -15.296875 L 19.5 -15.296875 L 16.921875 -1.34375 C 16.734375 -0.445312 16.222656 0 15.390625 0 L 5.15625 0 C 4.007812 0 3.597656 -0.539062 3.921875 -1.625 L 19.796875 -75.15625 C 19.984375 -76.050781 20.523438 -76.5 21.421875 -76.5 L 34.71875 -76.5 C 35.601562 -76.5 36.144531 -76.050781 36.34375 -75.15625 L 52.21875 -1.625 C 52.40625 -0.539062 51.957031 0 50.875 0 Z M 34.140625 -26.390625 L 28.015625 -59.765625 L 21.890625 -26.390625 Z M 34.140625 -26.390625 "/></g></g></g><g fill="#000000" fill-opacity="1"><g transform="translate(181.278377, 216.361636)"><g><path d="M 43.125 -62.734375 L 43.125 -52.40625 C 43.125 -51.382812 42.613281 -50.875 41.59375 -50.875 L 32.03125 -50.875 C 31.007812 -50.875 30.5 -51.382812 30.5 -52.40625 L 30.5 -60.046875 C 30.5 -62.597656 29.222656 -63.875 26.671875 -63.875 L 21.703125 -63.875 C 19.148438 -63.875 17.875 -62.597656 17.875 -60.046875 L 17.875 -16.453125 C 17.875 -13.898438 19.148438 -12.625 21.703125 -12.625 L 26.671875 -12.625 C 29.222656 -12.625 30.5 -13.898438 30.5 -16.453125 L 30.5 -24.09375 C 30.5 -25.113281 31.007812 -25.625 32.03125 -25.625 L 41.59375 -25.625 C 42.613281 -25.625 43.125 -25.113281 43.125 -24.09375 L 43.125 -13.765625 C 43.125 -9.304688 41.941406 -5.894531 39.578125 -3.53125 C 37.222656 -1.175781 33.816406 0 29.359375 0 L 18.640625 0 C 14.179688 0 10.753906 -1.175781 8.359375 -3.53125 C 5.972656 -5.894531 4.78125 -9.304688 4.78125 -13.765625 L 4.78125 -62.734375 C 4.78125 -67.253906 5.972656 -70.675781 8.359375 -73 C 10.753906 -75.332031 14.179688 -76.5 18.640625 -76.5 L 29.359375 -76.5 C 33.816406 -76.5 37.222656 -75.332031 39.578125 -73 C 41.941406 -70.675781 43.125 -67.253906 43.125 -62.734375 Z M 43.125 -62.734375 "/></g></g></g><g fill="#000000" fill-opacity="1"><g transform="translate(231.098697, 216.361636)"><g><path d="M 42.9375 -74.96875 L 42.9375 -65.40625 C 42.9375 -64.320312 42.425781 -63.78125 41.40625 -63.78125 L 17.5 -63.78125 L 17.5 -44.65625 L 35.765625 -44.65625 C 36.785156 -44.65625 37.296875 -44.113281 37.296875 -43.03125 L 37.296875 -33.5625 C 37.296875 -32.476562 36.785156 -31.9375 35.765625 -31.9375 L 17.5 -31.9375 L 17.5 -12.625 L 41.40625 -12.625 C 42.425781 -12.625 42.9375 -12.113281 42.9375 -11.09375 L 42.9375 -1.53125 C 42.9375 -0.507812 42.425781 0 41.40625 0 L 6.21875 0 C 5.257812 0 4.78125 -0.507812 4.78125 -1.53125 L 4.78125 -74.96875 C 4.78125 -75.988281 5.257812 -76.5 6.21875 -76.5 L 41.40625 -76.5 C 42.425781 -76.5 42.9375 -75.988281 42.9375 -74.96875 Z M 42.9375 -74.96875 "/></g></g></g></g></g></g></g></g></g></mask><clipPath id="3608047506"><path d="M 0.316406 0 L 434.445312 0 L 434.445312 289 L 0.316406 289 Z M 0.316406 0 " clip-rule="nonzero"/></clipPath><clipPath id="9af87a1e08"><rect x="0" width="435" y="0" height="289"/></clipPath><clipPath id="09bd060260"><rect x="0" width="435" y="0" height="289"/></clipPath></defs><g clip-path="url(#5ada92fc7a)"><g><g clip-path="url(#09bd060260)"><g clip-path="url(#98fd5eed49)"><g mask="url(#ae49b05da9)"><g><g clip-path="url(#9af87a1e08)"><g clip-path="url(#3608047506)"><path fill="url(#7bcc73cb56)" d="M 0.316406 0 L 0.316406 289 L 434.445312 289 L 434.445312 0 Z M 0.316406 0 " fill-rule="nonzero"/></g></g></g></g></g></g></g></g><g fill="#000000" fill-opacity="1"><g transform="translate(28.544976, 262.947822)"><g><path d="M 3.9375 -13.984375 C 3.5625 -13.140625 3.359375 -12.609375 3.328125 -12.390625 C 3.046875 -11.378906 3.375 -10.640625 4.3125 -10.171875 C 4.375 -10.140625 4.546875 -10.0625 4.828125 -9.9375 C 5.109375 -9.8125 5.328125 -9.71875 5.484375 -9.65625 C 6.828125 -9 7.5625 -7.9375 7.6875 -6.46875 C 7.90625 -4.53125 7.71875 -3.015625 7.125 -1.921875 C 6.8125 -1.234375 6.34375 -0.71875 5.71875 -0.375 C 5.09375 -0.03125 4.4375 0.109375 3.75 0.046875 C 2.125 -0.109375 1.09375 -0.96875 0.65625 -2.53125 C 0.5 -3.1875 0.328125 -4.234375 0.140625 -5.671875 C 0.046875 -6.359375 0.34375 -6.8125 1.03125 -7.03125 C 1.46875 -7.1875 1.84375 -7.125 2.15625 -6.84375 C 2.46875 -6.5625 2.5625 -6.21875 2.4375 -5.8125 C 2.28125 -5.28125 2.40625 -4.328125 2.8125 -2.953125 C 3 -2.484375 3.332031 -2.207031 3.8125 -2.125 C 4.300781 -2.050781 4.703125 -2.21875 5.015625 -2.625 C 5.359375 -3.09375 5.5625 -3.769531 5.625 -4.65625 C 5.6875 -5.550781 5.609375 -6.296875 5.390625 -6.890625 C 5.234375 -7.265625 4.90625 -7.5625 4.40625 -7.78125 C 4.25 -7.84375 4.003906 -7.953125 3.671875 -8.109375 C 3.347656 -8.265625 3.109375 -8.390625 2.953125 -8.484375 C 1.703125 -9.078125 1.078125 -10.09375 1.078125 -11.53125 C 1.046875 -12.695312 1.34375 -13.765625 1.96875 -14.734375 C 2.375 -15.421875 2.910156 -15.828125 3.578125 -15.953125 C 4.253906 -16.078125 4.90625 -15.90625 5.53125 -15.4375 C 6.46875 -14.75 7 -13.921875 7.125 -12.953125 C 7.1875 -12.703125 7.1875 -12.453125 7.125 -12.203125 C 7.03125 -11.535156 6.6875 -11.203125 6.09375 -11.203125 C 5.4375 -11.140625 5.0625 -11.488281 4.96875 -12.25 C 4.875 -12.78125 4.8125 -13.078125 4.78125 -13.140625 Z M 3.9375 -13.984375 "/></g></g></g><g fill="#000000" fill-opacity="1"><g transform="translate(44.870044, 262.947822)"><g><path d="M 0.421875 -3.140625 C 0.078125 -4.796875 0.15625 -6.234375 0.65625 -7.453125 C 1.125 -8.703125 1.984375 -9.515625 3.234375 -9.890625 C 3.609375 -10.015625 4 -10.03125 4.40625 -9.9375 C 5.6875 -9.59375 6.5 -8.78125 6.84375 -7.5 C 7.40625 -5.25 7.21875 -3.203125 6.28125 -1.359375 C 5.78125 -0.390625 5.019531 0.140625 4 0.234375 C 2.988281 0.328125 2.140625 -0.0625 1.453125 -0.9375 C 1.015625 -1.5 0.671875 -2.234375 0.421875 -3.140625 Z M 4.875 -6.703125 C 4.875 -6.734375 4.859375 -6.800781 4.828125 -6.90625 C 4.796875 -7.019531 4.765625 -7.109375 4.734375 -7.171875 C 4.421875 -7.828125 3.984375 -7.984375 3.421875 -7.640625 C 3.046875 -7.359375 2.78125 -7.03125 2.625 -6.65625 C 2.09375 -5.34375 2.1875 -3.984375 2.90625 -2.578125 C 2.9375 -2.453125 3.03125 -2.3125 3.1875 -2.15625 C 3.59375 -1.6875 3.984375 -1.71875 4.359375 -2.25 C 4.453125 -2.40625 4.53125 -2.5625 4.59375 -2.71875 C 5.0625 -3.96875 5.15625 -5.296875 4.875 -6.703125 Z M 4.875 -6.703125 "/></g></g></g><g fill="#000000" fill-opacity="1"><g transform="translate(60.772902, 262.947822)"><g><path d="M 2.34375 -6.703125 C 2.34375 -6.578125 2.347656 -6.410156 2.359375 -6.203125 C 2.378906 -6.003906 2.390625 -5.859375 2.390625 -5.765625 C 2.453125 -3.640625 2.484375 -2.015625 2.484375 -0.890625 C 2.484375 -0.703125 2.453125 -0.484375 2.390625 -0.234375 C 2.234375 0.234375 1.90625 0.46875 1.40625 0.46875 C 0.90625 0.46875 0.578125 0.203125 0.421875 -0.328125 C 0.390625 -0.359375 0.375 -0.425781 0.375 -0.53125 C 0.375 -0.644531 0.375 -0.734375 0.375 -0.796875 C 0.375 -1.703125 0.34375 -3.046875 0.28125 -4.828125 C 0.21875 -6.609375 0.1875 -7.953125 0.1875 -8.859375 C 0.1875 -9.265625 0.203125 -9.5 0.234375 -9.5625 C 0.328125 -10 0.640625 -10.25 1.171875 -10.3125 C 1.671875 -10.3125 2 -10.078125 2.15625 -9.609375 C 2.25 -9.265625 2.3125 -9.046875 2.34375 -8.953125 C 2.5625 -9.015625 2.9375 -9.160156 3.46875 -9.390625 C 4 -9.628906 4.484375 -9.796875 4.921875 -9.890625 C 5.671875 -10.046875 6.125 -9.828125 6.28125 -9.234375 C 6.46875 -8.671875 6.1875 -8.25 5.4375 -7.96875 C 5.09375 -7.84375 4.0625 -7.421875 2.34375 -6.703125 Z M 2.34375 -6.703125 "/></g></g></g><g fill="#000000" fill-opacity="1"><g transform="translate(75.972099, 262.947822)"><g><path d="M 2.203125 -9 C 1.734375 -9 1.390625 -9.015625 1.171875 -9.046875 C 0.859375 -9.078125 0.609375 -9.207031 0.421875 -9.4375 C 0.234375 -9.675781 0.140625 -9.9375 0.140625 -10.21875 C 0.203125 -10.875 0.59375 -11.203125 1.3125 -11.203125 C 1.5 -11.234375 1.8125 -11.21875 2.25 -11.15625 C 2.28125 -11.34375 2.328125 -11.597656 2.390625 -11.921875 C 2.421875 -12.390625 2.453125 -12.878906 2.484375 -13.390625 C 2.515625 -13.910156 2.546875 -14.40625 2.578125 -14.875 L 2.625 -15.109375 C 2.65625 -15.265625 2.6875 -15.375 2.71875 -15.4375 C 2.90625 -16.03125 3.296875 -16.28125 3.890625 -16.1875 C 4.484375 -16.09375 4.78125 -15.734375 4.78125 -15.109375 L 4.59375 -12.484375 C 4.59375 -12.359375 4.582031 -12.160156 4.5625 -11.890625 C 4.550781 -11.617188 4.546875 -11.40625 4.546875 -11.25 C 4.640625 -11.25 4.78125 -11.234375 4.96875 -11.203125 C 5.15625 -11.171875 5.296875 -11.15625 5.390625 -11.15625 C 6.046875 -11.0625 6.375 -10.703125 6.375 -10.078125 C 6.375 -9.453125 6.015625 -9.09375 5.296875 -9 L 4.5 -9 C 4.5 -8.9375 4.484375 -8.859375 4.453125 -8.765625 C 4.421875 -8.671875 4.40625 -8.609375 4.40625 -8.578125 C 4.40625 -7.921875 4.421875 -6.9375 4.453125 -5.625 C 4.484375 -4.3125 4.5 -3.328125 4.5 -2.671875 C 4.53125 -2.390625 4.5625 -2.191406 4.59375 -2.078125 C 4.625 -1.972656 4.6875 -1.90625 4.78125 -1.875 C 4.875 -1.84375 5.0625 -1.8125 5.34375 -1.78125 C 5.625 -1.75 6.0625 -1.734375 6.65625 -1.734375 C 7.40625 -1.734375 7.828125 -1.4375 7.921875 -0.84375 C 7.984375 -0.5625 7.925781 -0.285156 7.75 -0.015625 C 7.582031 0.242188 7.34375 0.390625 7.03125 0.421875 C 5.53125 0.609375 4.359375 0.4375 3.515625 -0.09375 C 2.734375 -0.53125 2.34375 -1.265625 2.34375 -2.296875 C 2.28125 -4.046875 2.25 -5.359375 2.25 -6.234375 C 2.21875 -6.828125 2.203125 -7.75 2.203125 -9 Z M 2.203125 -9 "/></g></g></g><g fill="#000000" fill-opacity="1"><g transform="translate(91.312033, 262.947822)"><g/></g></g><g fill="#000000" fill-opacity="1"><g transform="translate(102.570694, 262.947822)"><g><path d="M 3.9375 -13.984375 C 3.5625 -13.140625 3.359375 -12.609375 3.328125 -12.390625 C 3.046875 -11.378906 3.375 -10.640625 4.3125 -10.171875 C 4.375 -10.140625 4.546875 -10.0625 4.828125 -9.9375 C 5.109375 -9.8125 5.328125 -9.71875 5.484375 -9.65625 C 6.828125 -9 7.5625 -7.9375 7.6875 -6.46875 C 7.90625 -4.53125 7.71875 -3.015625 7.125 -1.921875 C 6.8125 -1.234375 6.34375 -0.71875 5.71875 -0.375 C 5.09375 -0.03125 4.4375 0.109375 3.75 0.046875 C 2.125 -0.109375 1.09375 -0.96875 0.65625 -2.53125 C 0.5 -3.1875 0.328125 -4.234375 0.140625 -5.671875 C 0.046875 -6.359375 0.34375 -6.8125 1.03125 -7.03125 C 1.46875 -7.1875 1.84375 -7.125 2.15625 -6.84375 C 2.46875 -6.5625 2.5625 -6.21875 2.4375 -5.8125 C 2.28125 -5.28125 2.40625 -4.328125 2.8125 -2.953125 C 3 -2.484375 3.332031 -2.207031 3.8125 -2.125 C 4.300781 -2.050781 4.703125 -2.21875 5.015625 -2.625 C 5.359375 -3.09375 5.5625 -3.769531 5.625 -4.65625 C 5.6875 -5.550781 5.609375 -6.296875 5.390625 -6.890625 C 5.234375 -7.265625 4.90625 -7.5625 4.40625 -7.78125 C 4.25 -7.84375 4.003906 -7.953125 3.671875 -8.109375 C 3.347656 -8.265625 3.109375 -8.390625 2.953125 -8.484375 C 1.703125 -9.078125 1.078125 -10.09375 1.078125 -11.53125 C 1.046875 -12.695312 1.34375 -13.765625 1.96875 -14.734375 C 2.375 -15.421875 2.910156 -15.828125 3.578125 -15.953125 C 4.253906 -16.078125 4.90625 -15.90625 5.53125 -15.4375 C 6.46875 -14.75 7 -13.921875 7.125 -12.953125 C 7.1875 -12.703125 7.1875 -12.453125 7.125 -12.203125 C 7.03125 -11.535156 6.6875 -11.203125 6.09375 -11.203125 C 5.4375 -11.140625 5.0625 -11.488281 4.96875 -12.25 C 4.875 -12.78125 4.8125 -13.078125 4.78125 -13.140625 Z M 3.9375 -13.984375 "/></g></g></g><g fill="#000000" fill-opacity="1"><g transform="translate(118.895761, 262.947822)"><g><path d="M 2.203125 -7.078125 C 2.296875 -7.171875 2.40625 -7.285156 2.53125 -7.421875 C 2.65625 -7.566406 2.734375 -7.65625 2.765625 -7.6875 C 3.078125 -8.0625 3.328125 -8.328125 3.515625 -8.484375 C 4.109375 -8.953125 4.6875 -9.097656 5.25 -8.921875 C 5.8125 -8.753906 6.203125 -8.3125 6.421875 -7.59375 C 6.453125 -7.5 6.5 -7.347656 6.5625 -7.140625 C 6.625 -6.941406 6.671875 -6.78125 6.703125 -6.65625 C 6.765625 -6.78125 6.859375 -6.941406 6.984375 -7.140625 C 7.109375 -7.347656 7.203125 -7.5 7.265625 -7.59375 C 7.734375 -8.3125 8.28125 -8.859375 8.90625 -9.234375 C 9.9375 -9.828125 10.78125 -9.609375 11.4375 -8.578125 C 11.726562 -8.046875 11.90625 -7.390625 11.96875 -6.609375 C 12 -6.015625 12.015625 -5.140625 12.015625 -3.984375 C 12.015625 -3.515625 12.046875 -2.8125 12.109375 -1.875 L 12.109375 -0.65625 C 12.078125 -0.375 11.960938 -0.140625 11.765625 0.046875 C 11.578125 0.234375 11.359375 0.3125 11.109375 0.28125 C 10.515625 0.28125 10.1875 -0.046875 10.125 -0.703125 C 10.125 -1.078125 10.109375 -1.628906 10.078125 -2.359375 C 10.046875 -3.097656 10.03125 -3.65625 10.03125 -4.03125 C 10.03125 -5.15625 10.015625 -6 9.984375 -6.5625 C 9.984375 -6.65625 9.957031 -6.800781 9.90625 -7 C 9.863281 -7.207031 9.84375 -7.34375 9.84375 -7.40625 C 9.53125 -7.28125 9.21875 -7 8.90625 -6.5625 C 7.90625 -4.8125 7.296875 -3.0625 7.078125 -1.3125 C 7.015625 -0.65625 6.703125 -0.296875 6.140625 -0.234375 C 5.453125 -0.171875 5.078125 -0.515625 5.015625 -1.265625 L 4.734375 -5.0625 C 4.734375 -5.3125 4.703125 -5.875 4.640625 -6.75 C 4.578125 -6.6875 4.5 -6.613281 4.40625 -6.53125 C 4.3125 -6.457031 4.25 -6.40625 4.21875 -6.375 C 3.71875 -5.8125 3.328125 -5.015625 3.046875 -3.984375 C 2.921875 -3.484375 2.71875 -2.53125 2.4375 -1.125 C 2.4375 -1.0625 2.421875 -0.96875 2.390625 -0.84375 C 2.359375 -0.71875 2.34375 -0.625 2.34375 -0.5625 C 2.21875 -0.125 1.9375 0.109375 1.5 0.140625 C 1.03125 0.203125 0.71875 0.015625 0.5625 -0.421875 C 0.46875 -0.640625 0.421875 -0.890625 0.421875 -1.171875 C 0.359375 -2.546875 0.296875 -4.609375 0.234375 -7.359375 C 0.234375 -7.734375 0.203125 -8.265625 0.140625 -8.953125 C 0.140625 -9.265625 0.15625 -9.5 0.1875 -9.65625 C 0.34375 -10.25 0.6875 -10.515625 1.21875 -10.453125 C 1.75 -10.390625 2.046875 -10.078125 2.109375 -9.515625 C 2.140625 -9.265625 2.160156 -8.863281 2.171875 -8.3125 C 2.191406 -7.769531 2.203125 -7.359375 2.203125 -7.078125 Z M 2.203125 -7.078125 "/></g></g></g><g fill="#000000" fill-opacity="1"><g transform="translate(139.771198, 262.947822)"><g><path d="M 6.328125 -3.984375 L 4.921875 -2.34375 C 4.484375 -1.90625 4.046875 -1.546875 3.609375 -1.265625 C 2.921875 -0.828125 2.222656 -0.753906 1.515625 -1.046875 C 0.816406 -1.347656 0.40625 -1.921875 0.28125 -2.765625 C -0.1875 -5.359375 0.4375 -7.40625 2.15625 -8.90625 C 2.9375 -9.625 3.875 -10.015625 4.96875 -10.078125 C 5.8125 -10.109375 6.5625 -9.84375 7.21875 -9.28125 C 7.28125 -9.21875 7.4375 -9.082031 7.6875 -8.875 C 7.9375 -8.675781 8.109375 -8.5 8.203125 -8.34375 C 8.453125 -7.96875 8.578125 -7.609375 8.578125 -7.265625 L 8.578125 -5.25 C 8.578125 -4.875 8.582031 -4.328125 8.59375 -3.609375 C 8.613281 -2.890625 8.625 -2.359375 8.625 -2.015625 C 8.625 -1.921875 8.628906 -1.75 8.640625 -1.5 C 8.660156 -1.25 8.671875 -1.0625 8.671875 -0.9375 C 8.578125 -0.25 8.203125 0.0625 7.546875 0 C 6.953125 0 6.625 -0.3125 6.5625 -0.9375 C 6.5 -1.46875 6.4375 -2.203125 6.375 -3.140625 C 6.375 -3.421875 6.359375 -3.703125 6.328125 -3.984375 Z M 2.4375 -3.234375 C 2.6875 -3.390625 2.9375 -3.582031 3.1875 -3.8125 C 3.4375 -4.050781 3.644531 -4.25 3.8125 -4.40625 C 3.988281 -4.5625 4.203125 -4.816406 4.453125 -5.171875 C 4.703125 -5.535156 4.863281 -5.765625 4.9375 -5.859375 C 5.019531 -5.953125 5.203125 -6.222656 5.484375 -6.671875 C 5.765625 -7.128906 5.921875 -7.375 5.953125 -7.40625 C 5.609375 -7.90625 5.203125 -8.0625 4.734375 -7.875 C 4.234375 -7.71875 3.828125 -7.5 3.515625 -7.21875 C 2.578125 -6.375 2.21875 -5.046875 2.4375 -3.234375 Z M 2.4375 -3.234375 "/></g></g></g><g fill="#000000" fill-opacity="1"><g transform="translate(157.362861, 262.947822)"><g><path d="M 2.34375 -6.703125 C 2.34375 -6.578125 2.347656 -6.410156 2.359375 -6.203125 C 2.378906 -6.003906 2.390625 -5.859375 2.390625 -5.765625 C 2.453125 -3.640625 2.484375 -2.015625 2.484375 -0.890625 C 2.484375 -0.703125 2.453125 -0.484375 2.390625 -0.234375 C 2.234375 0.234375 1.90625 0.46875 1.40625 0.46875 C 0.90625 0.46875 0.578125 0.203125 0.421875 -0.328125 C 0.390625 -0.359375 0.375 -0.425781 0.375 -0.53125 C 0.375 -0.644531 0.375 -0.734375 0.375 -0.796875 C 0.375 -1.703125 0.34375 -3.046875 0.28125 -4.828125 C 0.21875 -6.609375 0.1875 -7.953125 0.1875 -8.859375 C 0.1875 -9.265625 0.203125 -9.5 0.234375 -9.5625 C 0.328125 -10 0.640625 -10.25 1.171875 -10.3125 C 1.671875 -10.3125 2 -10.078125 2.15625 -9.609375 C 2.25 -9.265625 2.3125 -9.046875 2.34375 -8.953125 C 2.5625 -9.015625 2.9375 -9.160156 3.46875 -9.390625 C 4 -9.628906 4.484375 -9.796875 4.921875 -9.890625 C 5.671875 -10.046875 6.125 -9.828125 6.28125 -9.234375 C 6.46875 -8.671875 6.1875 -8.25 5.4375 -7.96875 C 5.09375 -7.84375 4.0625 -7.421875 2.34375 -6.703125 Z M 2.34375 -6.703125 "/></g></g></g><g fill="#000000" fill-opacity="1"><g transform="translate(172.562058, 262.947822)"><g><path d="M 2.203125 -9 C 1.734375 -9 1.390625 -9.015625 1.171875 -9.046875 C 0.859375 -9.078125 0.609375 -9.207031 0.421875 -9.4375 C 0.234375 -9.675781 0.140625 -9.9375 0.140625 -10.21875 C 0.203125 -10.875 0.59375 -11.203125 1.3125 -11.203125 C 1.5 -11.234375 1.8125 -11.21875 2.25 -11.15625 C 2.28125 -11.34375 2.328125 -11.597656 2.390625 -11.921875 C 2.421875 -12.390625 2.453125 -12.878906 2.484375 -13.390625 C 2.515625 -13.910156 2.546875 -14.40625 2.578125 -14.875 L 2.625 -15.109375 C 2.65625 -15.265625 2.6875 -15.375 2.71875 -15.4375 C 2.90625 -16.03125 3.296875 -16.28125 3.890625 -16.1875 C 4.484375 -16.09375 4.78125 -15.734375 4.78125 -15.109375 L 4.59375 -12.484375 C 4.59375 -12.359375 4.582031 -12.160156 4.5625 -11.890625 C 4.550781 -11.617188 4.546875 -11.40625 4.546875 -11.25 C 4.640625 -11.25 4.78125 -11.234375 4.96875 -11.203125 C 5.15625 -11.171875 5.296875 -11.15625 5.390625 -11.15625 C 6.046875 -11.0625 6.375 -10.703125 6.375 -10.078125 C 6.375 -9.453125 6.015625 -9.09375 5.296875 -9 L 4.5 -9 C 4.5 -8.9375 4.484375 -8.859375 4.453125 -8.765625 C 4.421875 -8.671875 4.40625 -8.609375 4.40625 -8.578125 C 4.40625 -7.921875 4.421875 -6.9375 4.453125 -5.625 C 4.484375 -4.3125 4.5 -3.328125 4.5 -2.671875 C 4.53125 -2.390625 4.5625 -2.191406 4.59375 -2.078125 C 4.625 -1.972656 4.6875 -1.90625 4.78125 -1.875 C 4.875 -1.84375 5.0625 -1.8125 5.34375 -1.78125 C 5.625 -1.75 6.0625 -1.734375 6.65625 -1.734375 C 7.40625 -1.734375 7.828125 -1.4375 7.921875 -0.84375 C 7.984375 -0.5625 7.925781 -0.285156 7.75 -0.015625 C 7.582031 0.242188 7.34375 0.390625 7.03125 0.421875 C 5.53125 0.609375 4.359375 0.4375 3.515625 -0.09375 C 2.734375 -0.53125 2.34375 -1.265625 2.34375 -2.296875 C 2.28125 -4.046875 2.25 -5.359375 2.25 -6.234375 C 2.21875 -6.828125 2.203125 -7.75 2.203125 -9 Z M 2.203125 -9 "/></g></g></g><g fill="#000000" fill-opacity="1"><g transform="translate(187.901992, 262.947822)"><g><path d="M 1.6875 0.421875 C 1.375 0.421875 1.113281 0.3125 0.90625 0.09375 C 0.707031 -0.125 0.609375 -0.375 0.609375 -0.65625 C 0.609375 -0.9375 0.703125 -1.175781 0.890625 -1.375 C 1.078125 -1.582031 1.3125 -1.6875 1.59375 -1.6875 C 1.90625 -1.71875 2.171875 -1.628906 2.390625 -1.421875 C 2.609375 -1.222656 2.71875 -0.96875 2.71875 -0.65625 C 2.71875 -0.375 2.613281 -0.125 2.40625 0.09375 C 2.207031 0.3125 1.96875 0.421875 1.6875 0.421875 Z M 1.6875 0.421875 "/></g></g></g><g fill="#000000" fill-opacity="1"><g transform="translate(199.723588, 262.947822)"><g/></g></g><g fill="#000000" fill-opacity="1"><g transform="translate(210.982249, 262.947822)"><g><path d="M 3.9375 -13.984375 C 3.5625 -13.140625 3.359375 -12.609375 3.328125 -12.390625 C 3.046875 -11.378906 3.375 -10.640625 4.3125 -10.171875 C 4.375 -10.140625 4.546875 -10.0625 4.828125 -9.9375 C 5.109375 -9.8125 5.328125 -9.71875 5.484375 -9.65625 C 6.828125 -9 7.5625 -7.9375 7.6875 -6.46875 C 7.90625 -4.53125 7.71875 -3.015625 7.125 -1.921875 C 6.8125 -1.234375 6.34375 -0.71875 5.71875 -0.375 C 5.09375 -0.03125 4.4375 0.109375 3.75 0.046875 C 2.125 -0.109375 1.09375 -0.96875 0.65625 -2.53125 C 0.5 -3.1875 0.328125 -4.234375 0.140625 -5.671875 C 0.046875 -6.359375 0.34375 -6.8125 1.03125 -7.03125 C 1.46875 -7.1875 1.84375 -7.125 2.15625 -6.84375 C 2.46875 -6.5625 2.5625 -6.21875 2.4375 -5.8125 C 2.28125 -5.28125 2.40625 -4.328125 2.8125 -2.953125 C 3 -2.484375 3.332031 -2.207031 3.8125 -2.125 C 4.300781 -2.050781 4.703125 -2.21875 5.015625 -2.625 C 5.359375 -3.09375 5.5625 -3.769531 5.625 -4.65625 C 5.6875 -5.550781 5.609375 -6.296875 5.390625 -6.890625 C 5.234375 -7.265625 4.90625 -7.5625 4.40625 -7.78125 C 4.25 -7.84375 4.003906 -7.953125 3.671875 -8.109375 C 3.347656 -8.265625 3.109375 -8.390625 2.953125 -8.484375 C 1.703125 -9.078125 1.078125 -10.09375 1.078125 -11.53125 C 1.046875 -12.695312 1.34375 -13.765625 1.96875 -14.734375 C 2.375 -15.421875 2.910156 -15.828125 3.578125 -15.953125 C 4.253906 -16.078125 4.90625 -15.90625 5.53125 -15.4375 C 6.46875 -14.75 7 -13.921875 7.125 -12.953125 C 7.1875 -12.703125 7.1875 -12.453125 7.125 -12.203125 C 7.03125 -11.535156 6.6875 -11.203125 6.09375 -11.203125 C 5.4375 -11.140625 5.0625 -11.488281 4.96875 -12.25 C 4.875 -12.78125 4.8125 -13.078125 4.78125 -13.140625 Z M 3.9375 -13.984375 "/></g></g></g><g fill="#000000" fill-opacity="1"><g transform="translate(227.307317, 262.947822)"><g><path d="M 2.390625 -8.859375 L 4.265625 -9.796875 C 4.921875 -10.046875 5.566406 -10.035156 6.203125 -9.765625 C 6.847656 -9.503906 7.296875 -9.046875 7.546875 -8.390625 C 7.796875 -7.671875 7.90625 -6.984375 7.875 -6.328125 C 7.875 -5.640625 7.84375 -4.660156 7.78125 -3.390625 C 7.71875 -2.128906 7.6875 -1.3125 7.6875 -0.9375 C 7.625 -0.09375 7.25 0.328125 6.5625 0.328125 C 5.90625 0.328125 5.546875 -0.0625 5.484375 -0.84375 C 5.484375 -1.46875 5.5 -1.9375 5.53125 -2.25 C 5.53125 -2.71875 5.5625 -3.410156 5.625 -4.328125 C 5.6875 -5.253906 5.71875 -5.953125 5.71875 -6.421875 C 5.78125 -7.109375 5.65625 -7.546875 5.34375 -7.734375 C 5.03125 -7.890625 4.609375 -7.734375 4.078125 -7.265625 C 3.453125 -6.765625 2.953125 -6.046875 2.578125 -5.109375 C 2.515625 -5.015625 2.484375 -4.71875 2.484375 -4.21875 C 2.515625 -3.84375 2.546875 -3.296875 2.578125 -2.578125 C 2.609375 -1.859375 2.625 -1.3125 2.625 -0.9375 L 2.625 -0.5625 C 2.53125 0 2.21875 0.3125 1.6875 0.375 C 1.09375 0.4375 0.71875 0.171875 0.5625 -0.421875 C 0.53125 -0.453125 0.484375 -0.703125 0.421875 -1.171875 C 0.234375 -5.890625 0.140625 -8.3125 0.140625 -8.4375 L 0.140625 -14.875 C 0.140625 -15.03125 0.15625 -15.140625 0.1875 -15.203125 C 0.28125 -15.890625 0.65625 -16.203125 1.3125 -16.140625 C 1.90625 -16.140625 2.234375 -15.8125 2.296875 -15.15625 L 2.296875 -13.140625 C 2.296875 -10.753906 2.328125 -9.328125 2.390625 -8.859375 Z M 2.390625 -8.859375 "/></g></g></g><g fill="#000000" fill-opacity="1"><g transform="translate(244.1484, 262.947822)"><g><path d="M 6.328125 -3.984375 L 4.921875 -2.34375 C 4.484375 -1.90625 4.046875 -1.546875 3.609375 -1.265625 C 2.921875 -0.828125 2.222656 -0.753906 1.515625 -1.046875 C 0.816406 -1.347656 0.40625 -1.921875 0.28125 -2.765625 C -0.1875 -5.359375 0.4375 -7.40625 2.15625 -8.90625 C 2.9375 -9.625 3.875 -10.015625 4.96875 -10.078125 C 5.8125 -10.109375 6.5625 -9.84375 7.21875 -9.28125 C 7.28125 -9.21875 7.4375 -9.082031 7.6875 -8.875 C 7.9375 -8.675781 8.109375 -8.5 8.203125 -8.34375 C 8.453125 -7.96875 8.578125 -7.609375 8.578125 -7.265625 L 8.578125 -5.25 C 8.578125 -4.875 8.582031 -4.328125 8.59375 -3.609375 C 8.613281 -2.890625 8.625 -2.359375 8.625 -2.015625 C 8.625 -1.921875 8.628906 -1.75 8.640625 -1.5 C 8.660156 -1.25 8.671875 -1.0625 8.671875 -0.9375 C 8.578125 -0.25 8.203125 0.0625 7.546875 0 C 6.953125 0 6.625 -0.3125 6.5625 -0.9375 C 6.5 -1.46875 6.4375 -2.203125 6.375 -3.140625 C 6.375 -3.421875 6.359375 -3.703125 6.328125 -3.984375 Z M 2.4375 -3.234375 C 2.6875 -3.390625 2.9375 -3.582031 3.1875 -3.8125 C 3.4375 -4.050781 3.644531 -4.25 3.8125 -4.40625 C 3.988281 -4.5625 4.203125 -4.816406 4.453125 -5.171875 C 4.703125 -5.535156 4.863281 -5.765625 4.9375 -5.859375 C 5.019531 -5.953125 5.203125 -6.222656 5.484375 -6.671875 C 5.765625 -7.128906 5.921875 -7.375 5.953125 -7.40625 C 5.609375 -7.90625 5.203125 -8.0625 4.734375 -7.875 C 4.234375 -7.71875 3.828125 -7.5 3.515625 -7.21875 C 2.578125 -6.375 2.21875 -5.046875 2.4375 -3.234375 Z M 2.4375 -3.234375 "/></g></g></g><g fill="#000000" fill-opacity="1"><g transform="translate(261.740064, 262.947822)"><g><path d="M 2.34375 -6.703125 C 2.34375 -6.578125 2.347656 -6.410156 2.359375 -6.203125 C 2.378906 -6.003906 2.390625 -5.859375 2.390625 -5.765625 C 2.453125 -3.640625 2.484375 -2.015625 2.484375 -0.890625 C 2.484375 -0.703125 2.453125 -0.484375 2.390625 -0.234375 C 2.234375 0.234375 1.90625 0.46875 1.40625 0.46875 C 0.90625 0.46875 0.578125 0.203125 0.421875 -0.328125 C 0.390625 -0.359375 0.375 -0.425781 0.375 -0.53125 C 0.375 -0.644531 0.375 -0.734375 0.375 -0.796875 C 0.375 -1.703125 0.34375 -3.046875 0.28125 -4.828125 C 0.21875 -6.609375 0.1875 -7.953125 0.1875 -8.859375 C 0.1875 -9.265625 0.203125 -9.5 0.234375 -9.5625 C 0.328125 -10 0.640625 -10.25 1.171875 -10.3125 C 1.671875 -10.3125 2 -10.078125 2.15625 -9.609375 C 2.25 -9.265625 2.3125 -9.046875 2.34375 -8.953125 C 2.5625 -9.015625 2.9375 -9.160156 3.46875 -9.390625 C 4 -9.628906 4.484375 -9.796875 4.921875 -9.890625 C 5.671875 -10.046875 6.125 -9.828125 6.28125 -9.234375 C 6.46875 -8.671875 6.1875 -8.25 5.4375 -7.96875 C 5.09375 -7.84375 4.0625 -7.421875 2.34375 -6.703125 Z M 2.34375 -6.703125 "/></g></g></g><g fill="#000000" fill-opacity="1"><g transform="translate(276.939261, 262.947822)"><g><path d="M 2.390625 -3.703125 C 2.421875 -3.140625 2.65625 -2.59375 3.09375 -2.0625 C 3.4375 -1.71875 3.828125 -1.640625 4.265625 -1.828125 C 4.765625 -2.046875 5.15625 -2.390625 5.4375 -2.859375 C 5.5 -3.015625 5.625 -3.25 5.8125 -3.5625 C 6.125 -4.03125 6.515625 -4.15625 6.984375 -3.9375 C 7.484375 -3.65625 7.65625 -3.28125 7.5 -2.8125 C 6.875 -0.9375 5.6875 0.0625 3.9375 0.1875 C 3.1875 0.28125 2.546875 0.0625 2.015625 -0.46875 C 1.328125 -1.125 0.875 -1.828125 0.65625 -2.578125 C 0.15625 -4.203125 0.03125 -5.578125 0.28125 -6.703125 C 0.625 -8.359375 1.640625 -9.359375 3.328125 -9.703125 C 3.734375 -9.796875 4.203125 -9.75 4.734375 -9.5625 C 5.421875 -9.3125 5.984375 -8.828125 6.421875 -8.109375 C 6.859375 -7.390625 7.03125 -6.65625 6.9375 -5.90625 C 6.84375 -4.90625 6.3125 -4.28125 5.34375 -4.03125 C 5.0625 -3.96875 4.578125 -3.90625 3.890625 -3.84375 C 3.609375 -3.8125 3.203125 -3.796875 2.671875 -3.796875 C 2.640625 -3.765625 2.59375 -3.75 2.53125 -3.75 C 2.46875 -3.75 2.421875 -3.734375 2.390625 -3.703125 Z M 2.109375 -5.671875 C 2.390625 -5.703125 2.800781 -5.734375 3.34375 -5.765625 C 3.894531 -5.796875 4.3125 -5.8125 4.59375 -5.8125 C 4.90625 -5.875 5.046875 -6.0625 5.015625 -6.375 C 4.984375 -6.5625 4.90625 -6.8125 4.78125 -7.125 C 4.40625 -7.78125 3.859375 -7.953125 3.140625 -7.640625 C 2.453125 -7.328125 2.109375 -6.671875 2.109375 -5.671875 Z M 2.109375 -5.671875 "/></g></g></g><g fill="#000000" fill-opacity="1"><g transform="translate(293.170489, 262.947822)"><g/></g></g><g fill="#000000" fill-opacity="1"><g transform="translate(304.42915, 262.947822)"><g><path d="M 2.390625 -3.703125 C 2.421875 -3.140625 2.65625 -2.59375 3.09375 -2.0625 C 3.4375 -1.71875 3.828125 -1.640625 4.265625 -1.828125 C 4.765625 -2.046875 5.15625 -2.390625 5.4375 -2.859375 C 5.5 -3.015625 5.625 -3.25 5.8125 -3.5625 C 6.125 -4.03125 6.515625 -4.15625 6.984375 -3.9375 C 7.484375 -3.65625 7.65625 -3.28125 7.5 -2.8125 C 6.875 -0.9375 5.6875 0.0625 3.9375 0.1875 C 3.1875 0.28125 2.546875 0.0625 2.015625 -0.46875 C 1.328125 -1.125 0.875 -1.828125 0.65625 -2.578125 C 0.15625 -4.203125 0.03125 -5.578125 0.28125 -6.703125 C 0.625 -8.359375 1.640625 -9.359375 3.328125 -9.703125 C 3.734375 -9.796875 4.203125 -9.75 4.734375 -9.5625 C 5.421875 -9.3125 5.984375 -8.828125 6.421875 -8.109375 C 6.859375 -7.390625 7.03125 -6.65625 6.9375 -5.90625 C 6.84375 -4.90625 6.3125 -4.28125 5.34375 -4.03125 C 5.0625 -3.96875 4.578125 -3.90625 3.890625 -3.84375 C 3.609375 -3.8125 3.203125 -3.796875 2.671875 -3.796875 C 2.640625 -3.765625 2.59375 -3.75 2.53125 -3.75 C 2.46875 -3.75 2.421875 -3.734375 2.390625 -3.703125 Z M 2.109375 -5.671875 C 2.390625 -5.703125 2.800781 -5.734375 3.34375 -5.765625 C 3.894531 -5.796875 4.3125 -5.8125 4.59375 -5.8125 C 4.90625 -5.875 5.046875 -6.0625 5.015625 -6.375 C 4.984375 -6.5625 4.90625 -6.8125 4.78125 -7.125 C 4.40625 -7.78125 3.859375 -7.953125 3.140625 -7.640625 C 2.453125 -7.328125 2.109375 -6.671875 2.109375 -5.671875 Z M 2.109375 -5.671875 "/></g></g></g><g fill="#000000" fill-opacity="1"><g transform="translate(320.660401, 262.947822)"><g><path d="M 6.328125 -3.984375 L 4.921875 -2.34375 C 4.484375 -1.90625 4.046875 -1.546875 3.609375 -1.265625 C 2.921875 -0.828125 2.222656 -0.753906 1.515625 -1.046875 C 0.816406 -1.347656 0.40625 -1.921875 0.28125 -2.765625 C -0.1875 -5.359375 0.4375 -7.40625 2.15625 -8.90625 C 2.9375 -9.625 3.875 -10.015625 4.96875 -10.078125 C 5.8125 -10.109375 6.5625 -9.84375 7.21875 -9.28125 C 7.28125 -9.21875 7.4375 -9.082031 7.6875 -8.875 C 7.9375 -8.675781 8.109375 -8.5 8.203125 -8.34375 C 8.453125 -7.96875 8.578125 -7.609375 8.578125 -7.265625 L 8.578125 -5.25 C 8.578125 -4.875 8.582031 -4.328125 8.59375 -3.609375 C 8.613281 -2.890625 8.625 -2.359375 8.625 -2.015625 C 8.625 -1.921875 8.628906 -1.75 8.640625 -1.5 C 8.660156 -1.25 8.671875 -1.0625 8.671875 -0.9375 C 8.578125 -0.25 8.203125 0.0625 7.546875 0 C 6.953125 0 6.625 -0.3125 6.5625 -0.9375 C 6.5 -1.46875 6.4375 -2.203125 6.375 -3.140625 C 6.375 -3.421875 6.359375 -3.703125 6.328125 -3.984375 Z M 2.4375 -3.234375 C 2.6875 -3.390625 2.9375 -3.582031 3.1875 -3.8125 C 3.4375 -4.050781 3.644531 -4.25 3.8125 -4.40625 C 3.988281 -4.5625 4.203125 -4.816406 4.453125 -5.171875 C 4.703125 -5.535156 4.863281 -5.765625 4.9375 -5.859375 C 5.019531 -5.953125 5.203125 -6.222656 5.484375 -6.671875 C 5.765625 -7.128906 5.921875 -7.375 5.953125 -7.40625 C 5.609375 -7.90625 5.203125 -8.0625 4.734375 -7.875 C 4.234375 -7.71875 3.828125 -7.5 3.515625 -7.21875 C 2.578125 -6.375 2.21875 -5.046875 2.4375 -3.234375 Z M 2.4375 -3.234375 "/></g></g></g><g fill="#000000" fill-opacity="1"><g transform="translate(338.252064, 262.947822)"><g><path d="M 3.140625 0.375 C 1.265625 0.375 0.234375 -0.46875 0.046875 -2.15625 C 0.046875 -2.5 0.09375 -2.8125 0.1875 -3.09375 C 0.28125 -3.5625 0.625 -3.796875 1.21875 -3.796875 C 1.78125 -3.734375 2.109375 -3.453125 2.203125 -2.953125 L 2.203125 -2.484375 C 2.265625 -2.015625 2.453125 -1.75 2.765625 -1.6875 C 3.296875 -1.59375 3.703125 -1.703125 3.984375 -2.015625 C 4.296875 -2.421875 4.394531 -2.875 4.28125 -3.375 C 4.175781 -3.875 3.90625 -4.21875 3.46875 -4.40625 C 2.6875 -4.75 2.0625 -5.09375 1.59375 -5.4375 C 0.71875 -6.1875 0.3125 -6.972656 0.375 -7.796875 C 0.4375 -8.628906 0.796875 -9.3125 1.453125 -9.84375 C 1.859375 -10.1875 2.410156 -10.359375 3.109375 -10.359375 C 3.816406 -10.359375 4.390625 -10.21875 4.828125 -9.9375 C 5.484375 -9.5625 5.953125 -9.015625 6.234375 -8.296875 C 6.453125 -7.671875 6.28125 -7.25 5.71875 -7.03125 C 5.15625 -6.75 4.671875 -6.875 4.265625 -7.40625 C 4.234375 -7.46875 4.175781 -7.566406 4.09375 -7.703125 C 4.019531 -7.847656 3.953125 -7.953125 3.890625 -8.015625 C 3.734375 -8.171875 3.546875 -8.265625 3.328125 -8.296875 C 3.109375 -8.328125 2.921875 -8.28125 2.765625 -8.15625 C 2.609375 -8.03125 2.53125 -7.859375 2.53125 -7.640625 C 2.53125 -7.421875 2.640625 -7.25 2.859375 -7.125 C 3.265625 -6.84375 3.78125 -6.53125 4.40625 -6.1875 C 6.15625 -5.34375 6.84375 -4.046875 6.46875 -2.296875 C 6.28125 -1.453125 5.890625 -0.785156 5.296875 -0.296875 C 4.703125 0.179688 3.984375 0.40625 3.140625 0.375 Z M 3.140625 0.375 "/></g></g></g><g fill="#000000" fill-opacity="1"><g transform="translate(353.638895, 262.947822)"><g><path d="M 2.765625 -1.125 C 2.796875 -0.8125 2.722656 -0.535156 2.546875 -0.296875 C 2.378906 -0.0664062 2.140625 0.0625 1.828125 0.09375 C 1.234375 0.15625 0.828125 -0.125 0.609375 -0.75 C 0.546875 -1.0625 0.515625 -1.28125 0.515625 -1.40625 C 0.265625 -3.4375 0.203125 -5.890625 0.328125 -8.765625 C 0.328125 -8.890625 0.359375 -9.078125 0.421875 -9.328125 C 0.640625 -9.796875 1.03125 -10 1.59375 -9.9375 C 2.125 -9.875 2.421875 -9.578125 2.484375 -9.046875 L 2.484375 -6.375 C 2.453125 -6.375 2.472656 -5.722656 2.546875 -4.421875 C 2.628906 -3.128906 2.703125 -2.03125 2.765625 -1.125 Z M 0.140625 -12.34375 C 0.140625 -12.6875 0.265625 -12.988281 0.515625 -13.25 C 0.765625 -13.519531 1.046875 -13.640625 1.359375 -13.609375 C 1.640625 -13.609375 1.878906 -13.515625 2.078125 -13.328125 C 2.285156 -13.140625 2.390625 -12.90625 2.390625 -12.625 C 2.421875 -12.3125 2.3125 -12.007812 2.0625 -11.71875 C 1.8125 -11.4375 1.546875 -11.296875 1.265625 -11.296875 C 0.953125 -11.265625 0.6875 -11.359375 0.46875 -11.578125 C 0.25 -11.804688 0.140625 -12.0625 0.140625 -12.34375 Z M 0.140625 -12.34375 "/></g></g></g><g fill="#000000" fill-opacity="1"><g transform="translate(365.272869, 262.947822)"><g><path d="M 0.1875 -8.25 C 0.1875 -9 0.175781 -10.09375 0.15625 -11.53125 C 0.144531 -12.976562 0.140625 -14.078125 0.140625 -14.828125 C 0.140625 -15.078125 0.15625 -15.265625 0.1875 -15.390625 C 0.28125 -16.015625 0.640625 -16.328125 1.265625 -16.328125 C 1.828125 -16.328125 2.15625 -16.046875 2.25 -15.484375 C 2.3125 -15.296875 2.34375 -15.046875 2.34375 -14.734375 L 2.34375 -1.03125 C 2.28125 -0.34375 1.90625 0 1.21875 0 C 0.59375 -0.0625 0.25 -0.453125 0.1875 -1.171875 Z M 0.1875 -8.25 "/></g></g></g><g fill="#000000" fill-opacity="1"><g transform="translate(376.625347, 262.947822)"><g><path d="M 5.953125 -7.546875 C 5.984375 -7.640625 6.0625 -7.875 6.1875 -8.25 C 6.3125 -8.625 6.421875 -8.921875 6.515625 -9.140625 C 6.765625 -9.828125 7.234375 -10.0625 7.921875 -9.84375 C 8.578125 -9.59375 8.796875 -9.109375 8.578125 -8.390625 L 7.3125 -4.875 C 7 -3.90625 6.625 -2.90625 6.1875 -1.875 L 5.90625 -1.3125 C 5.75 -0.90625 5.613281 -0.515625 5.5 -0.140625 C 5.394531 0.234375 5.34375 0.515625 5.34375 0.703125 C 5.375 1.171875 5.410156 1.90625 5.453125 2.90625 C 5.503906 3.90625 5.546875 4.640625 5.578125 5.109375 C 5.578125 5.640625 5.359375 6 4.921875 6.1875 C 4.359375 6.40625 3.9375 6.28125 3.65625 5.8125 C 3.4375 5.40625 3.296875 4.953125 3.234375 4.453125 C 3.203125 3.921875 3.1875 3.15625 3.1875 2.15625 C 3.1875 1.15625 3.1875 0.390625 3.1875 -0.140625 C 3.125 -0.640625 3.03125 -1.0625 2.90625 -1.40625 C 1.71875 -4.28125 0.828125 -6.421875 0.234375 -7.828125 C 0.203125 -7.890625 0.171875 -7.972656 0.140625 -8.078125 C 0.109375 -8.191406 0.09375 -8.28125 0.09375 -8.34375 C 0.03125 -8.625 0.078125 -8.894531 0.234375 -9.15625 C 0.390625 -9.425781 0.609375 -9.59375 0.890625 -9.65625 C 1.484375 -9.8125 1.90625 -9.59375 2.15625 -9 C 2.25 -8.75 2.363281 -8.40625 2.5 -7.96875 C 2.644531 -7.53125 2.75 -7.234375 2.8125 -7.078125 C 3 -6.609375 3.28125 -5.96875 3.65625 -5.15625 C 4.03125 -4.34375 4.28125 -3.796875 4.40625 -3.515625 C 4.65625 -3.953125 5.171875 -5.296875 5.953125 -7.546875 Z M 5.953125 -7.546875 "/></g></g></g><g fill="#000000" fill-opacity="1"><g transform="translate(394.076285, 262.947822)"><g><path d="M 1.6875 0.421875 C 1.375 0.421875 1.113281 0.3125 0.90625 0.09375 C 0.707031 -0.125 0.609375 -0.375 0.609375 -0.65625 C 0.609375 -0.9375 0.703125 -1.175781 0.890625 -1.375 C 1.078125 -1.582031 1.3125 -1.6875 1.59375 -1.6875 C 1.90625 -1.71875 2.171875 -1.628906 2.390625 -1.421875 C 2.609375 -1.222656 2.71875 -0.96875 2.71875 -0.65625 C 2.71875 -0.375 2.613281 -0.125 2.40625 0.09375 C 2.207031 0.3125 1.96875 0.421875 1.6875 0.421875 Z M 1.6875 0.421875 "/></g></g></g></svg>