<svg xmlns="http://www.w3.org/2000/svg" xmlns:xlink="http://www.w3.org/1999/xlink" width="455" zoomAndPan="magnify" viewBox="0 0 341.25 256.500001" height="342" preserveAspectRatio="xMidYMid meet" version="1.0"><defs><filter x="0%" y="0%" width="100%" height="100%" id="3aa93bc40b"><feColorMatrix values="0 0 0 0 1 0 0 0 0 1 0 0 0 0 1 0 0 0 1 0" color-interpolation-filters="sRGB"/></filter><g/><clipPath id="5e1ce35f8a"><path d="M 0.277344 5 L 2 5 L 2 7 L 0.277344 7 Z M 0.277344 5 " clip-rule="nonzero"/></clipPath><clipPath id="35b108fad6"><rect x="0" width="3" y="0" height="9"/></clipPath><clipPath id="9527cca90d"><path d="M 0 0.03125 L 340.5 0.03125 L 340.5 255.96875 L 0 255.96875 Z M 0 0.03125 " clip-rule="nonzero"/></clipPath><clipPath id="d060a39934"><path d="M 0 0.03125 L 340.5 0.03125 L 340.5 255.96875 L 0 255.96875 Z M 0 0.03125 " clip-rule="nonzero"/></clipPath><clipPath id="e7e0c739f3"><path d="M 0 0.03125 L 340.5 0.03125 L 340.5 255.96875 L 0 255.96875 Z M 0 0.03125 " clip-rule="nonzero"/></clipPath><linearGradient x1="-27.889113" gradientTransform="matrix(0.748391, 0, 0, 0.747452, 20.871964, 27.833644)" y1="134" x2="427.089091" gradientUnits="userSpaceOnUse" y2="134" id="99ad11e6d4"><stop stop-opacity="1" stop-color="rgb(31.759644%, 43.919373%, 100%)" offset="0"/><stop stop-opacity="1" stop-color="rgb(31.80542%, 43.916321%, 99.983215%)" offset="0.0625"/><stop stop-opacity="1" stop-color="rgb(32.156372%, 43.896484%, 99.864197%)" offset="0.0664062"/><stop stop-opacity="1" stop-color="rgb(32.460022%, 43.8797%, 99.761963%)" offset="0.0703125"/><stop stop-opacity="1" stop-color="rgb(32.763672%, 43.861389%, 99.658203%)" offset="0.0742188"/><stop stop-opacity="1" stop-color="rgb(33.068848%, 43.844604%, 99.555969%)" offset="0.078125"/><stop stop-opacity="1" stop-color="rgb(33.372498%, 43.826294%, 99.452209%)" offset="0.0820312"/><stop stop-opacity="1" stop-color="rgb(33.676147%, 43.809509%, 99.34845%)" offset="0.0859375"/><stop stop-opacity="1" stop-color="rgb(33.979797%, 43.791199%, 99.24469%)" offset="0.0898437"/><stop stop-opacity="1" stop-color="rgb(34.284973%, 43.774414%, 99.142456%)" offset="0.09375"/><stop stop-opacity="1" stop-color="rgb(34.588623%, 43.756104%, 99.038696%)" offset="0.0976562"/><stop stop-opacity="1" stop-color="rgb(34.892273%, 43.739319%, 98.936462%)" offset="0.101562"/><stop stop-opacity="1" stop-color="rgb(35.195923%, 43.721008%, 98.832703%)" offset="0.105469"/><stop stop-opacity="1" stop-color="rgb(35.499573%, 43.704224%, 98.730469%)" offset="0.109375"/><stop stop-opacity="1" stop-color="rgb(35.803223%, 43.685913%, 98.626709%)" offset="0.113281"/><stop stop-opacity="1" stop-color="rgb(36.108398%, 43.669128%, 98.524475%)" offset="0.117188"/><stop stop-opacity="1" stop-color="rgb(36.412048%, 43.650818%, 98.420715%)" offset="0.121094"/><stop stop-opacity="1" stop-color="rgb(36.715698%, 43.634033%, 98.318481%)" offset="0.125"/><stop stop-opacity="1" stop-color="rgb(37.019348%, 43.615723%, 98.214722%)" offset="0.128906"/><stop stop-opacity="1" stop-color="rgb(37.324524%, 43.598938%, 98.112488%)" offset="0.132812"/><stop stop-opacity="1" stop-color="rgb(37.628174%, 43.582153%, 98.008728%)" offset="0.136719"/><stop stop-opacity="1" stop-color="rgb(37.931824%, 43.565369%, 97.906494%)" offset="0.140625"/><stop stop-opacity="1" stop-color="rgb(38.235474%, 43.547058%, 97.802734%)" offset="0.144531"/><stop stop-opacity="1" stop-color="rgb(38.540649%, 43.530273%, 97.7005%)" offset="0.148437"/><stop stop-opacity="1" stop-color="rgb(38.844299%, 43.511963%, 97.596741%)" offset="0.152344"/><stop stop-opacity="1" stop-color="rgb(39.147949%, 43.495178%, 97.494507%)" offset="0.15625"/><stop stop-opacity="1" stop-color="rgb(39.451599%, 43.476868%, 97.390747%)" offset="0.160156"/><stop stop-opacity="1" stop-color="rgb(39.755249%, 43.460083%, 97.286987%)" offset="0.164062"/><stop stop-opacity="1" stop-color="rgb(40.058899%, 43.441772%, 97.183228%)" offset="0.167969"/><stop stop-opacity="1" stop-color="rgb(40.364075%, 43.424988%, 97.080994%)" offset="0.171875"/><stop stop-opacity="1" stop-color="rgb(40.667725%, 43.406677%, 96.977234%)" offset="0.175781"/><stop stop-opacity="1" stop-color="rgb(40.971375%, 43.389893%, 96.875%)" offset="0.179687"/><stop stop-opacity="1" stop-color="rgb(41.275024%, 43.371582%, 96.77124%)" offset="0.183594"/><stop stop-opacity="1" stop-color="rgb(41.5802%, 43.354797%, 96.669006%)" offset="0.1875"/><stop stop-opacity="1" stop-color="rgb(41.88385%, 43.336487%, 96.565247%)" offset="0.191406"/><stop stop-opacity="1" stop-color="rgb(42.1875%, 43.319702%, 96.463013%)" offset="0.195312"/><stop stop-opacity="1" stop-color="rgb(42.49115%, 43.301392%, 96.359253%)" offset="0.199219"/><stop stop-opacity="1" stop-color="rgb(42.7948%, 43.284607%, 96.257019%)" offset="0.203125"/><stop stop-opacity="1" stop-color="rgb(43.09845%, 43.267822%, 96.153259%)" offset="0.207031"/><stop stop-opacity="1" stop-color="rgb(43.403625%, 43.251038%, 96.051025%)" offset="0.210938"/><stop stop-opacity="1" stop-color="rgb(43.707275%, 43.232727%, 95.947266%)" offset="0.214844"/><stop stop-opacity="1" stop-color="rgb(44.010925%, 43.215942%, 95.845032%)" offset="0.21875"/><stop stop-opacity="1" stop-color="rgb(44.314575%, 43.197632%, 95.741272%)" offset="0.222656"/><stop stop-opacity="1" stop-color="rgb(44.619751%, 43.180847%, 95.639038%)" offset="0.226562"/><stop stop-opacity="1" stop-color="rgb(44.923401%, 43.162537%, 95.535278%)" offset="0.230469"/><stop stop-opacity="1" stop-color="rgb(45.227051%, 43.145752%, 95.433044%)" offset="0.234375"/><stop stop-opacity="1" stop-color="rgb(45.530701%, 43.127441%, 95.329285%)" offset="0.238281"/><stop stop-opacity="1" stop-color="rgb(45.834351%, 43.110657%, 95.225525%)" offset="0.242187"/><stop stop-opacity="1" stop-color="rgb(46.138%, 43.092346%, 95.121765%)" offset="0.246094"/><stop stop-opacity="1" stop-color="rgb(46.443176%, 43.075562%, 95.019531%)" offset="0.25"/><stop stop-opacity="1" stop-color="rgb(46.746826%, 43.057251%, 94.915771%)" offset="0.253906"/><stop stop-opacity="1" stop-color="rgb(47.050476%, 43.040466%, 94.813538%)" offset="0.257812"/><stop stop-opacity="1" stop-color="rgb(47.354126%, 43.022156%, 94.709778%)" offset="0.261719"/><stop stop-opacity="1" stop-color="rgb(47.659302%, 43.005371%, 94.607544%)" offset="0.265625"/><stop stop-opacity="1" stop-color="rgb(47.962952%, 42.987061%, 94.503784%)" offset="0.269531"/><stop stop-opacity="1" stop-color="rgb(48.266602%, 42.970276%, 94.40155%)" offset="0.273438"/><stop stop-opacity="1" stop-color="rgb(48.570251%, 42.953491%, 94.297791%)" offset="0.277344"/><stop stop-opacity="1" stop-color="rgb(48.873901%, 42.936707%, 94.195557%)" offset="0.28125"/><stop stop-opacity="1" stop-color="rgb(49.177551%, 42.918396%, 94.091797%)" offset="0.285156"/><stop stop-opacity="1" stop-color="rgb(49.482727%, 42.901611%, 93.989563%)" offset="0.289062"/><stop stop-opacity="1" stop-color="rgb(49.786377%, 42.883301%, 93.885803%)" offset="0.292969"/><stop stop-opacity="1" stop-color="rgb(50.090027%, 42.866516%, 93.783569%)" offset="0.296875"/><stop stop-opacity="1" stop-color="rgb(50.393677%, 42.848206%, 93.67981%)" offset="0.300781"/><stop stop-opacity="1" stop-color="rgb(50.698853%, 42.831421%, 93.577576%)" offset="0.304687"/><stop stop-opacity="1" stop-color="rgb(51.002502%, 42.81311%, 93.473816%)" offset="0.308594"/><stop stop-opacity="1" stop-color="rgb(51.306152%, 42.796326%, 93.371582%)" offset="0.3125"/><stop stop-opacity="1" stop-color="rgb(51.609802%, 42.778015%, 93.267822%)" offset="0.316406"/><stop stop-opacity="1" stop-color="rgb(51.913452%, 42.76123%, 93.164062%)" offset="0.320312"/><stop stop-opacity="1" stop-color="rgb(52.217102%, 42.74292%, 93.060303%)" offset="0.324219"/><stop stop-opacity="1" stop-color="rgb(52.522278%, 42.726135%, 92.958069%)" offset="0.328125"/><stop stop-opacity="1" stop-color="rgb(52.825928%, 42.707825%, 92.854309%)" offset="0.332031"/><stop stop-opacity="1" stop-color="rgb(53.129578%, 42.69104%, 92.752075%)" offset="0.335938"/><stop stop-opacity="1" stop-color="rgb(53.433228%, 42.672729%, 92.648315%)" offset="0.339844"/><stop stop-opacity="1" stop-color="rgb(53.738403%, 42.655945%, 92.546082%)" offset="0.34375"/><stop stop-opacity="1" stop-color="rgb(54.042053%, 42.63916%, 92.442322%)" offset="0.347656"/><stop stop-opacity="1" stop-color="rgb(54.345703%, 42.622375%, 92.340088%)" offset="0.351562"/><stop stop-opacity="1" stop-color="rgb(54.649353%, 42.604065%, 92.236328%)" offset="0.355469"/><stop stop-opacity="1" stop-color="rgb(54.954529%, 42.58728%, 92.134094%)" offset="0.359375"/><stop stop-opacity="1" stop-color="rgb(55.258179%, 42.56897%, 92.030334%)" offset="0.363281"/><stop stop-opacity="1" stop-color="rgb(55.561829%, 42.552185%, 91.928101%)" offset="0.367188"/><stop stop-opacity="1" stop-color="rgb(55.865479%, 42.533875%, 91.824341%)" offset="0.371094"/><stop stop-opacity="1" stop-color="rgb(56.169128%, 42.51709%, 91.722107%)" offset="0.375"/><stop stop-opacity="1" stop-color="rgb(56.472778%, 42.498779%, 91.618347%)" offset="0.378906"/><stop stop-opacity="1" stop-color="rgb(56.777954%, 42.481995%, 91.516113%)" offset="0.382812"/><stop stop-opacity="1" stop-color="rgb(57.081604%, 42.463684%, 91.412354%)" offset="0.386719"/><stop stop-opacity="1" stop-color="rgb(57.385254%, 42.446899%, 91.31012%)" offset="0.390625"/><stop stop-opacity="1" stop-color="rgb(57.688904%, 42.428589%, 91.20636%)" offset="0.394531"/><stop stop-opacity="1" stop-color="rgb(57.99408%, 42.411804%, 91.1026%)" offset="0.398438"/><stop stop-opacity="1" stop-color="rgb(58.297729%, 42.393494%, 90.99884%)" offset="0.402344"/><stop stop-opacity="1" stop-color="rgb(58.601379%, 42.376709%, 90.896606%)" offset="0.40625"/><stop stop-opacity="1" stop-color="rgb(58.905029%, 42.359924%, 90.792847%)" offset="0.410156"/><stop stop-opacity="1" stop-color="rgb(59.208679%, 42.34314%, 90.690613%)" offset="0.414062"/><stop stop-opacity="1" stop-color="rgb(59.512329%, 42.324829%, 90.586853%)" offset="0.417969"/><stop stop-opacity="1" stop-color="rgb(59.817505%, 42.308044%, 90.484619%)" offset="0.421875"/><stop stop-opacity="1" stop-color="rgb(60.121155%, 42.289734%, 90.380859%)" offset="0.425781"/><stop stop-opacity="1" stop-color="rgb(60.424805%, 42.272949%, 90.278625%)" offset="0.429687"/><stop stop-opacity="1" stop-color="rgb(60.728455%, 42.254639%, 90.174866%)" offset="0.433594"/><stop stop-opacity="1" stop-color="rgb(61.03363%, 42.237854%, 90.072632%)" offset="0.4375"/><stop stop-opacity="1" stop-color="rgb(61.33728%, 42.219543%, 89.968872%)" offset="0.441406"/><stop stop-opacity="1" stop-color="rgb(61.64093%, 42.202759%, 89.866638%)" offset="0.445313"/><stop stop-opacity="1" stop-color="rgb(61.94458%, 42.184448%, 89.762878%)" offset="0.449219"/><stop stop-opacity="1" stop-color="rgb(62.24823%, 42.167664%, 89.660645%)" offset="0.453125"/><stop stop-opacity="1" stop-color="rgb(62.55188%, 42.149353%, 89.556885%)" offset="0.457031"/><stop stop-opacity="1" stop-color="rgb(62.857056%, 42.132568%, 89.454651%)" offset="0.460938"/><stop stop-opacity="1" stop-color="rgb(63.160706%, 42.114258%, 89.350891%)" offset="0.464844"/><stop stop-opacity="1" stop-color="rgb(63.464355%, 42.097473%, 89.248657%)" offset="0.46875"/><stop stop-opacity="1" stop-color="rgb(63.768005%, 42.079163%, 89.144897%)" offset="0.472656"/><stop stop-opacity="1" stop-color="rgb(64.073181%, 42.062378%, 89.041138%)" offset="0.476562"/><stop stop-opacity="1" stop-color="rgb(64.376831%, 42.045593%, 88.937378%)" offset="0.480469"/><stop stop-opacity="1" stop-color="rgb(64.680481%, 42.028809%, 88.835144%)" offset="0.484375"/><stop stop-opacity="1" stop-color="rgb(64.984131%, 42.010498%, 88.731384%)" offset="0.488281"/><stop stop-opacity="1" stop-color="rgb(65.287781%, 41.993713%, 88.62915%)" offset="0.492188"/><stop stop-opacity="1" stop-color="rgb(65.591431%, 41.975403%, 88.525391%)" offset="0.496094"/><stop stop-opacity="1" stop-color="rgb(65.896606%, 41.958618%, 88.423157%)" offset="0.5"/><stop stop-opacity="1" stop-color="rgb(66.200256%, 41.940308%, 88.319397%)" offset="0.503906"/><stop stop-opacity="1" stop-color="rgb(66.503906%, 41.923523%, 88.217163%)" offset="0.507812"/><stop stop-opacity="1" stop-color="rgb(66.807556%, 41.905212%, 88.113403%)" offset="0.511719"/><stop stop-opacity="1" stop-color="rgb(67.112732%, 41.888428%, 88.011169%)" offset="0.515625"/><stop stop-opacity="1" stop-color="rgb(67.416382%, 41.870117%, 87.90741%)" offset="0.519531"/><stop stop-opacity="1" stop-color="rgb(67.720032%, 41.853333%, 87.805176%)" offset="0.523438"/><stop stop-opacity="1" stop-color="rgb(68.023682%, 41.835022%, 87.701416%)" offset="0.527344"/><stop stop-opacity="1" stop-color="rgb(68.327332%, 41.818237%, 87.599182%)" offset="0.53125"/><stop stop-opacity="1" stop-color="rgb(68.630981%, 41.799927%, 87.495422%)" offset="0.535156"/><stop stop-opacity="1" stop-color="rgb(68.936157%, 41.783142%, 87.393188%)" offset="0.539062"/><stop stop-opacity="1" stop-color="rgb(69.239807%, 41.764832%, 87.289429%)" offset="0.542969"/><stop stop-opacity="1" stop-color="rgb(69.543457%, 41.748047%, 87.187195%)" offset="0.546875"/><stop stop-opacity="1" stop-color="rgb(69.847107%, 41.731262%, 87.083435%)" offset="0.550781"/><stop stop-opacity="1" stop-color="rgb(70.152283%, 41.714478%, 86.979675%)" offset="0.554688"/><stop stop-opacity="1" stop-color="rgb(70.455933%, 41.696167%, 86.875916%)" offset="0.558594"/><stop stop-opacity="1" stop-color="rgb(70.759583%, 41.679382%, 86.773682%)" offset="0.5625"/><stop stop-opacity="1" stop-color="rgb(71.063232%, 41.661072%, 86.669922%)" offset="0.566406"/><stop stop-opacity="1" stop-color="rgb(71.366882%, 41.644287%, 86.567688%)" offset="0.570312"/><stop stop-opacity="1" stop-color="rgb(71.670532%, 41.625977%, 86.463928%)" offset="0.574219"/><stop stop-opacity="1" stop-color="rgb(71.975708%, 41.609192%, 86.361694%)" offset="0.578125"/><stop stop-opacity="1" stop-color="rgb(72.279358%, 41.590881%, 86.257935%)" offset="0.582031"/><stop stop-opacity="1" stop-color="rgb(72.583008%, 41.574097%, 86.155701%)" offset="0.585938"/><stop stop-opacity="1" stop-color="rgb(72.886658%, 41.555786%, 86.051941%)" offset="0.589844"/><stop stop-opacity="1" stop-color="rgb(73.191833%, 41.539001%, 85.949707%)" offset="0.59375"/><stop stop-opacity="1" stop-color="rgb(73.495483%, 41.520691%, 85.845947%)" offset="0.597656"/><stop stop-opacity="1" stop-color="rgb(73.799133%, 41.503906%, 85.743713%)" offset="0.601562"/><stop stop-opacity="1" stop-color="rgb(74.102783%, 41.485596%, 85.639954%)" offset="0.605469"/><stop stop-opacity="1" stop-color="rgb(74.407959%, 41.468811%, 85.53772%)" offset="0.609375"/><stop stop-opacity="1" stop-color="rgb(74.711609%, 41.4505%, 85.43396%)" offset="0.613281"/><stop stop-opacity="1" stop-color="rgb(75.015259%, 41.433716%, 85.331726%)" offset="0.617188"/><stop stop-opacity="1" stop-color="rgb(75.318909%, 41.416931%, 85.227966%)" offset="0.621094"/><stop stop-opacity="1" stop-color="rgb(75.622559%, 41.400146%, 85.125732%)" offset="0.625"/><stop stop-opacity="1" stop-color="rgb(75.926208%, 41.381836%, 85.021973%)" offset="0.628906"/><stop stop-opacity="1" stop-color="rgb(76.231384%, 41.365051%, 84.919739%)" offset="0.632812"/><stop stop-opacity="1" stop-color="rgb(76.535034%, 41.346741%, 84.815979%)" offset="0.636719"/><stop stop-opacity="1" stop-color="rgb(76.838684%, 41.329956%, 84.712219%)" offset="0.640625"/><stop stop-opacity="1" stop-color="rgb(77.142334%, 41.311646%, 84.608459%)" offset="0.644531"/><stop stop-opacity="1" stop-color="rgb(77.44751%, 41.294861%, 84.506226%)" offset="0.648438"/><stop stop-opacity="1" stop-color="rgb(77.75116%, 41.27655%, 84.402466%)" offset="0.652344"/><stop stop-opacity="1" stop-color="rgb(78.05481%, 41.259766%, 84.300232%)" offset="0.65625"/><stop stop-opacity="1" stop-color="rgb(78.358459%, 41.241455%, 84.196472%)" offset="0.660156"/><stop stop-opacity="1" stop-color="rgb(78.662109%, 41.22467%, 84.094238%)" offset="0.664062"/><stop stop-opacity="1" stop-color="rgb(78.965759%, 41.20636%, 83.990479%)" offset="0.667969"/><stop stop-opacity="1" stop-color="rgb(79.270935%, 41.189575%, 83.888245%)" offset="0.671875"/><stop stop-opacity="1" stop-color="rgb(79.574585%, 41.171265%, 83.784485%)" offset="0.675781"/><stop stop-opacity="1" stop-color="rgb(79.878235%, 41.15448%, 83.682251%)" offset="0.679688"/><stop stop-opacity="1" stop-color="rgb(80.181885%, 41.136169%, 83.578491%)" offset="0.683594"/><stop stop-opacity="1" stop-color="rgb(80.487061%, 41.119385%, 83.476257%)" offset="0.6875"/><stop stop-opacity="1" stop-color="rgb(80.79071%, 41.1026%, 83.372498%)" offset="0.691406"/><stop stop-opacity="1" stop-color="rgb(81.09436%, 41.085815%, 83.270264%)" offset="0.695312"/><stop stop-opacity="1" stop-color="rgb(81.39801%, 41.067505%, 83.166504%)" offset="0.699219"/><stop stop-opacity="1" stop-color="rgb(81.70166%, 41.05072%, 83.06427%)" offset="0.703125"/><stop stop-opacity="1" stop-color="rgb(82.00531%, 41.03241%, 82.96051%)" offset="0.707031"/><stop stop-opacity="1" stop-color="rgb(82.310486%, 41.015625%, 82.858276%)" offset="0.710938"/><stop stop-opacity="1" stop-color="rgb(82.614136%, 40.997314%, 82.754517%)" offset="0.714844"/><stop stop-opacity="1" stop-color="rgb(82.917786%, 40.98053%, 82.650757%)" offset="0.71875"/><stop stop-opacity="1" stop-color="rgb(83.221436%, 40.962219%, 82.546997%)" offset="0.722656"/><stop stop-opacity="1" stop-color="rgb(83.526611%, 40.945435%, 82.444763%)" offset="0.726562"/><stop stop-opacity="1" stop-color="rgb(83.830261%, 40.927124%, 82.341003%)" offset="0.730469"/><stop stop-opacity="1" stop-color="rgb(84.133911%, 40.910339%, 82.23877%)" offset="0.734375"/><stop stop-opacity="1" stop-color="rgb(84.437561%, 40.892029%, 82.13501%)" offset="0.738281"/><stop stop-opacity="1" stop-color="rgb(84.741211%, 40.875244%, 82.032776%)" offset="0.742188"/><stop stop-opacity="1" stop-color="rgb(85.044861%, 40.856934%, 81.929016%)" offset="0.746094"/><stop stop-opacity="1" stop-color="rgb(85.350037%, 40.840149%, 81.826782%)" offset="0.75"/><stop stop-opacity="1" stop-color="rgb(85.653687%, 40.823364%, 81.723022%)" offset="0.753906"/><stop stop-opacity="1" stop-color="rgb(85.957336%, 40.80658%, 81.620789%)" offset="0.757812"/><stop stop-opacity="1" stop-color="rgb(86.260986%, 40.788269%, 81.517029%)" offset="0.761719"/><stop stop-opacity="1" stop-color="rgb(86.566162%, 40.771484%, 81.414795%)" offset="0.765625"/><stop stop-opacity="1" stop-color="rgb(86.869812%, 40.753174%, 81.311035%)" offset="0.769531"/><stop stop-opacity="1" stop-color="rgb(87.173462%, 40.736389%, 81.208801%)" offset="0.773438"/><stop stop-opacity="1" stop-color="rgb(87.477112%, 40.718079%, 81.105042%)" offset="0.777344"/><stop stop-opacity="1" stop-color="rgb(87.780762%, 40.701294%, 81.002808%)" offset="0.78125"/><stop stop-opacity="1" stop-color="rgb(88.084412%, 40.682983%, 80.899048%)" offset="0.785156"/><stop stop-opacity="1" stop-color="rgb(88.389587%, 40.666199%, 80.796814%)" offset="0.789062"/><stop stop-opacity="1" stop-color="rgb(88.693237%, 40.647888%, 80.693054%)" offset="0.792969"/><stop stop-opacity="1" stop-color="rgb(88.996887%, 40.631104%, 80.589294%)" offset="0.796875"/><stop stop-opacity="1" stop-color="rgb(89.300537%, 40.612793%, 80.485535%)" offset="0.800781"/><stop stop-opacity="1" stop-color="rgb(89.605713%, 40.596008%, 80.383301%)" offset="0.804688"/><stop stop-opacity="1" stop-color="rgb(89.909363%, 40.577698%, 80.279541%)" offset="0.808594"/><stop stop-opacity="1" stop-color="rgb(90.213013%, 40.560913%, 80.177307%)" offset="0.8125"/><stop stop-opacity="1" stop-color="rgb(90.516663%, 40.542603%, 80.073547%)" offset="0.816406"/><stop stop-opacity="1" stop-color="rgb(90.821838%, 40.525818%, 79.971313%)" offset="0.820313"/><stop stop-opacity="1" stop-color="rgb(91.125488%, 40.509033%, 79.867554%)" offset="0.824219"/><stop stop-opacity="1" stop-color="rgb(91.429138%, 40.492249%, 79.76532%)" offset="0.828125"/><stop stop-opacity="1" stop-color="rgb(91.732788%, 40.473938%, 79.66156%)" offset="0.832031"/><stop stop-opacity="1" stop-color="rgb(92.036438%, 40.457153%, 79.559326%)" offset="0.835938"/><stop stop-opacity="1" stop-color="rgb(92.340088%, 40.438843%, 79.455566%)" offset="0.839844"/><stop stop-opacity="1" stop-color="rgb(92.645264%, 40.422058%, 79.353333%)" offset="0.84375"/><stop stop-opacity="1" stop-color="rgb(92.948914%, 40.403748%, 79.249573%)" offset="0.847656"/><stop stop-opacity="1" stop-color="rgb(93.252563%, 40.386963%, 79.147339%)" offset="0.851562"/><stop stop-opacity="1" stop-color="rgb(93.556213%, 40.368652%, 79.043579%)" offset="0.855469"/><stop stop-opacity="1" stop-color="rgb(93.861389%, 40.351868%, 78.941345%)" offset="0.859375"/><stop stop-opacity="1" stop-color="rgb(94.165039%, 40.333557%, 78.837585%)" offset="0.863281"/><stop stop-opacity="1" stop-color="rgb(94.468689%, 40.316772%, 78.735352%)" offset="0.867188"/><stop stop-opacity="1" stop-color="rgb(94.772339%, 40.298462%, 78.631592%)" offset="0.871094"/><stop stop-opacity="1" stop-color="rgb(95.075989%, 40.281677%, 78.527832%)" offset="0.875"/><stop stop-opacity="1" stop-color="rgb(95.379639%, 40.263367%, 78.424072%)" offset="0.878906"/><stop stop-opacity="1" stop-color="rgb(95.684814%, 40.246582%, 78.321838%)" offset="0.882812"/><stop stop-opacity="1" stop-color="rgb(95.988464%, 40.228271%, 78.218079%)" offset="0.886719"/><stop stop-opacity="1" stop-color="rgb(96.292114%, 40.211487%, 78.115845%)" offset="0.890625"/><stop stop-opacity="1" stop-color="rgb(96.595764%, 40.194702%, 78.012085%)" offset="0.894531"/><stop stop-opacity="1" stop-color="rgb(96.90094%, 40.177917%, 77.909851%)" offset="0.898438"/><stop stop-opacity="1" stop-color="rgb(97.20459%, 40.159607%, 77.806091%)" offset="0.902344"/><stop stop-opacity="1" stop-color="rgb(97.50824%, 40.142822%, 77.703857%)" offset="0.90625"/><stop stop-opacity="1" stop-color="rgb(97.81189%, 40.124512%, 77.600098%)" offset="0.910156"/><stop stop-opacity="1" stop-color="rgb(98.11554%, 40.107727%, 77.497864%)" offset="0.914062"/><stop stop-opacity="1" stop-color="rgb(98.419189%, 40.089417%, 77.394104%)" offset="0.917969"/><stop stop-opacity="1" stop-color="rgb(98.724365%, 40.072632%, 77.29187%)" offset="0.921875"/><stop stop-opacity="1" stop-color="rgb(99.028015%, 40.054321%, 77.18811%)" offset="0.925781"/><stop stop-opacity="1" stop-color="rgb(99.331665%, 40.037537%, 77.085876%)" offset="0.929687"/><stop stop-opacity="1" stop-color="rgb(99.635315%, 40.019226%, 76.982117%)" offset="0.933594"/><stop stop-opacity="1" stop-color="rgb(99.940491%, 40.002441%, 76.879883%)" offset="0.9375"/><stop stop-opacity="1" stop-color="rgb(99.969482%, 40.000916%, 76.869202%)" offset="1"/></linearGradient><clipPath id="c060a136c5"><rect x="0" width="341" y="0" height="256"/></clipPath><clipPath id="65578bcc0c"><path d="M 0 0.03125 L 340.5 0.03125 L 340.5 255.96875 L 0 255.96875 Z M 0 0.03125 " clip-rule="nonzero"/></clipPath><clipPath id="d345b864b0"><rect x="0" width="341" y="0" height="256"/></clipPath><clipPath id="a0d54ada3f"><rect x="0" width="341" y="0" height="256"/></clipPath><mask id="61f08b6353"><g filter="url(#3aa93bc40b)"><g transform="matrix(1, 0, 0, 1, 0, -0.000000000000043666)"><g clip-path="url(#a0d54ada3f)"><g clip-path="url(#65578bcc0c)"><g transform="matrix(1, 0, 0, 1, 0, -0.000000000000043666)"><g clip-path="url(#d345b864b0)"><g fill="#000000" fill-opacity="1"><g transform="translate(20.504944, 116.012231)"><g><path d="M 42.921875 -74.953125 L 42.921875 -65.390625 C 42.921875 -64.304688 42.410156 -63.765625 41.390625 -63.765625 L 17.5 -63.765625 L 17.5 -44.640625 L 35.75 -44.640625 C 36.769531 -44.640625 37.28125 -44.097656 37.28125 -43.015625 L 37.28125 -33.546875 C 37.28125 -32.460938 36.769531 -31.921875 35.75 -31.921875 L 17.5 -31.921875 L 17.5 -12.625 L 41.390625 -12.625 C 42.410156 -12.625 42.921875 -12.113281 42.921875 -11.09375 L 42.921875 -1.53125 C 42.921875 -0.507812 42.410156 0 41.390625 0 L 6.21875 0 C 5.257812 0 4.78125 -0.507812 4.78125 -1.53125 L 4.78125 -74.953125 C 4.78125 -75.960938 5.257812 -76.46875 6.21875 -76.46875 L 41.390625 -76.46875 C 42.410156 -76.46875 42.921875 -75.960938 42.921875 -74.953125 Z M 42.921875 -74.953125 "/></g></g></g><g fill="#000000" fill-opacity="1"><g transform="translate(70.110724, 116.012231)"><g><path d="M 18.546875 -76.46875 L 29.25 -76.46875 C 33.769531 -76.46875 37.191406 -75.304688 39.515625 -72.984375 C 41.847656 -70.660156 43.015625 -67.234375 43.015625 -62.703125 L 43.015625 -52.578125 C 43.015625 -51.554688 42.503906 -51.046875 41.484375 -51.046875 L 31.546875 -51.046875 C 30.523438 -51.046875 30.015625 -51.554688 30.015625 -52.578125 L 30.015625 -60.03125 C 30.015625 -62.582031 28.738281 -63.859375 26.1875 -63.859375 L 21.609375 -63.859375 C 19.054688 -63.859375 17.78125 -62.582031 17.78125 -60.03125 L 17.78125 -46.84375 L 40.53125 -39.390625 C 42.1875 -38.679688 43.015625 -37.5 43.015625 -35.84375 L 43.015625 -13.765625 C 43.015625 -9.304688 41.847656 -5.894531 39.515625 -3.53125 C 37.191406 -1.175781 33.769531 0 29.25 0 L 18.546875 0 C 14.085938 0 10.675781 -1.175781 8.3125 -3.53125 C 5.957031 -5.894531 4.78125 -9.304688 4.78125 -13.765625 L 4.78125 -23.796875 C 4.78125 -24.816406 5.289062 -25.328125 6.3125 -25.328125 L 16.25 -25.328125 C 17.269531 -25.328125 17.78125 -24.816406 17.78125 -23.796875 L 17.78125 -16.4375 C 17.78125 -13.894531 19.054688 -12.625 21.609375 -12.625 L 26.1875 -12.625 C 28.738281 -12.625 30.015625 -13.894531 30.015625 -16.4375 L 30.015625 -29.15625 L 7.359375 -36.609375 C 5.640625 -37.179688 4.78125 -38.363281 4.78125 -40.15625 L 4.78125 -62.703125 C 4.78125 -67.234375 5.957031 -70.660156 8.3125 -72.984375 C 10.675781 -75.304688 14.085938 -76.46875 18.546875 -76.46875 Z M 18.546875 -76.46875 "/></g></g></g><g fill="#000000" fill-opacity="1"><g transform="translate(119.812081, 116.012231)"><g><path d="M 4.390625 -76.46875 L 39.578125 -76.46875 C 40.597656 -76.46875 41.109375 -75.960938 41.109375 -74.953125 L 41.109375 -65.390625 C 41.109375 -64.367188 40.597656 -63.859375 39.578125 -63.859375 L 28.484375 -63.859375 L 28.484375 -1.53125 C 28.484375 -0.507812 27.972656 0 26.953125 0 L 17.015625 0 C 15.992188 0 15.484375 -0.507812 15.484375 -1.53125 L 15.484375 -63.859375 L 4.390625 -63.859375 C 3.378906 -63.859375 2.875 -64.367188 2.875 -65.390625 L 2.875 -74.953125 C 2.875 -75.960938 3.378906 -76.46875 4.390625 -76.46875 Z M 4.390625 -76.46875 "/></g></g></g><g fill="#000000" fill-opacity="1"><g transform="translate(165.690278, 116.012231)"><g><path d="M 50.859375 0 L 40.71875 0 C 39.894531 0 39.382812 -0.445312 39.1875 -1.34375 L 36.515625 -15.296875 L 19.5 -15.296875 L 16.921875 -1.34375 C 16.734375 -0.445312 16.222656 0 15.390625 0 L 5.15625 0 C 4.007812 0 3.597656 -0.539062 3.921875 -1.625 L 19.78125 -75.140625 C 19.976562 -76.023438 20.519531 -76.46875 21.40625 -76.46875 L 34.703125 -76.46875 C 35.585938 -76.46875 36.128906 -76.023438 36.328125 -75.140625 L 52.1875 -1.625 C 52.382812 -0.539062 51.941406 0 50.859375 0 Z M 34.125 -26.390625 L 28.015625 -59.75 L 21.890625 -26.390625 Z M 34.125 -26.390625 "/></g></g></g><g fill="#000000" fill-opacity="1"><g transform="translate(223.611427, 116.012231)"><g><path d="M 4.390625 -76.46875 L 39.578125 -76.46875 C 40.597656 -76.46875 41.109375 -75.960938 41.109375 -74.953125 L 41.109375 -65.390625 C 41.109375 -64.367188 40.597656 -63.859375 39.578125 -63.859375 L 28.484375 -63.859375 L 28.484375 -1.53125 C 28.484375 -0.507812 27.972656 0 26.953125 0 L 17.015625 0 C 15.992188 0 15.484375 -0.507812 15.484375 -1.53125 L 15.484375 -63.859375 L 4.390625 -63.859375 C 3.378906 -63.859375 2.875 -64.367188 2.875 -65.390625 L 2.875 -74.953125 C 2.875 -75.960938 3.378906 -76.46875 4.390625 -76.46875 Z M 4.390625 -76.46875 "/></g></g></g><g fill="#000000" fill-opacity="1"><g transform="translate(269.489636, 116.012231)"><g><path d="M 42.921875 -74.953125 L 42.921875 -65.390625 C 42.921875 -64.304688 42.410156 -63.765625 41.390625 -63.765625 L 17.5 -63.765625 L 17.5 -44.640625 L 35.75 -44.640625 C 36.769531 -44.640625 37.28125 -44.097656 37.28125 -43.015625 L 37.28125 -33.546875 C 37.28125 -32.460938 36.769531 -31.921875 35.75 -31.921875 L 17.5 -31.921875 L 17.5 -12.625 L 41.390625 -12.625 C 42.410156 -12.625 42.921875 -12.113281 42.921875 -11.09375 L 42.921875 -1.53125 C 42.921875 -0.507812 42.410156 0 41.390625 0 L 6.21875 0 C 5.257812 0 4.78125 -0.507812 4.78125 -1.53125 L 4.78125 -74.953125 C 4.78125 -75.960938 5.257812 -76.46875 6.21875 -76.46875 L 41.390625 -76.46875 C 42.410156 -76.46875 42.921875 -75.960938 42.921875 -74.953125 Z M 42.921875 -74.953125 "/></g></g></g><g fill="#000000" fill-opacity="1"><g transform="translate(20.504944, 216.291832)"><g><path d="M 18.546875 -76.46875 L 29.25 -76.46875 C 33.769531 -76.46875 37.191406 -75.304688 39.515625 -72.984375 C 41.847656 -70.660156 43.015625 -67.234375 43.015625 -62.703125 L 43.015625 -52.578125 C 43.015625 -51.554688 42.503906 -51.046875 41.484375 -51.046875 L 31.546875 -51.046875 C 30.523438 -51.046875 30.015625 -51.554688 30.015625 -52.578125 L 30.015625 -60.03125 C 30.015625 -62.582031 28.738281 -63.859375 26.1875 -63.859375 L 21.609375 -63.859375 C 19.054688 -63.859375 17.78125 -62.582031 17.78125 -60.03125 L 17.78125 -46.84375 L 40.53125 -39.390625 C 42.1875 -38.679688 43.015625 -37.5 43.015625 -35.84375 L 43.015625 -13.765625 C 43.015625 -9.304688 41.847656 -5.894531 39.515625 -3.53125 C 37.191406 -1.175781 33.769531 0 29.25 0 L 18.546875 0 C 14.085938 0 10.675781 -1.175781 8.3125 -3.53125 C 5.957031 -5.894531 4.78125 -9.304688 4.78125 -13.765625 L 4.78125 -23.796875 C 4.78125 -24.816406 5.289062 -25.328125 6.3125 -25.328125 L 16.25 -25.328125 C 17.269531 -25.328125 17.78125 -24.816406 17.78125 -23.796875 L 17.78125 -16.4375 C 17.78125 -13.894531 19.054688 -12.625 21.609375 -12.625 L 26.1875 -12.625 C 28.738281 -12.625 30.015625 -13.894531 30.015625 -16.4375 L 30.015625 -29.15625 L 7.359375 -36.609375 C 5.640625 -37.179688 4.78125 -38.363281 4.78125 -40.15625 L 4.78125 -62.703125 C 4.78125 -67.234375 5.957031 -70.660156 8.3125 -72.984375 C 10.675781 -75.304688 14.085938 -76.46875 18.546875 -76.46875 Z M 18.546875 -76.46875 "/></g></g></g><g fill="#000000" fill-opacity="1"><g transform="translate(70.206302, 216.291832)"><g><path d="M 4.78125 -1.53125 L 4.78125 -74.953125 C 4.78125 -75.960938 5.289062 -76.46875 6.3125 -76.46875 L 29.25 -76.46875 C 33.769531 -76.46875 37.191406 -75.304688 39.515625 -72.984375 C 41.847656 -70.660156 43.015625 -67.234375 43.015625 -62.703125 L 43.015625 -39.390625 C 43.015625 -34.921875 41.847656 -31.507812 39.515625 -29.15625 C 37.191406 -26.800781 33.769531 -25.625 29.25 -25.625 L 17.78125 -25.625 L 17.78125 -1.53125 C 17.78125 -0.507812 17.269531 0 16.25 0 L 6.3125 0 C 5.289062 0 4.78125 -0.507812 4.78125 -1.53125 Z M 17.78125 -38.234375 L 26.1875 -38.234375 C 28.738281 -38.234375 30.015625 -39.507812 30.015625 -42.0625 L 30.015625 -60.03125 C 30.015625 -62.582031 28.738281 -63.859375 26.1875 -63.859375 L 17.78125 -63.859375 Z M 17.78125 -38.234375 "/></g></g></g><g fill="#000000" fill-opacity="1"><g transform="translate(119.907659, 216.291832)"><g><path d="M 50.859375 0 L 40.71875 0 C 39.894531 0 39.382812 -0.445312 39.1875 -1.34375 L 36.515625 -15.296875 L 19.5 -15.296875 L 16.921875 -1.34375 C 16.734375 -0.445312 16.222656 0 15.390625 0 L 5.15625 0 C 4.007812 0 3.597656 -0.539062 3.921875 -1.625 L 19.78125 -75.140625 C 19.976562 -76.023438 20.519531 -76.46875 21.40625 -76.46875 L 34.703125 -76.46875 C 35.585938 -76.46875 36.128906 -76.023438 36.328125 -75.140625 L 52.1875 -1.625 C 52.382812 -0.539062 51.941406 0 50.859375 0 Z M 34.125 -26.390625 L 28.015625 -59.75 L 21.890625 -26.390625 Z M 34.125 -26.390625 "/></g></g></g><g fill="#000000" fill-opacity="1"><g transform="translate(177.828808, 216.291832)"><g><path d="M 43.109375 -62.703125 L 43.109375 -52.390625 C 43.109375 -51.367188 42.597656 -50.859375 41.578125 -50.859375 L 32.03125 -50.859375 C 31.007812 -50.859375 30.5 -51.367188 30.5 -52.390625 L 30.5 -60.03125 C 30.5 -62.582031 29.222656 -63.859375 26.671875 -63.859375 L 21.703125 -63.859375 C 19.148438 -63.859375 17.875 -62.582031 17.875 -60.03125 L 17.875 -16.4375 C 17.875 -13.894531 19.148438 -12.625 21.703125 -12.625 L 26.671875 -12.625 C 29.222656 -12.625 30.5 -13.894531 30.5 -16.4375 L 30.5 -24.09375 C 30.5 -25.113281 31.007812 -25.625 32.03125 -25.625 L 41.578125 -25.625 C 42.597656 -25.625 43.109375 -25.113281 43.109375 -24.09375 L 43.109375 -13.765625 C 43.109375 -9.304688 41.925781 -5.894531 39.5625 -3.53125 C 37.207031 -1.175781 33.800781 0 29.34375 0 L 18.640625 0 C 14.179688 0 10.753906 -1.175781 8.359375 -3.53125 C 5.972656 -5.894531 4.78125 -9.304688 4.78125 -13.765625 L 4.78125 -62.703125 C 4.78125 -67.234375 5.972656 -70.660156 8.359375 -72.984375 C 10.753906 -75.304688 14.179688 -76.46875 18.640625 -76.46875 L 29.34375 -76.46875 C 33.800781 -76.46875 37.207031 -75.304688 39.5625 -72.984375 C 41.925781 -70.660156 43.109375 -67.234375 43.109375 -62.703125 Z M 43.109375 -62.703125 "/></g></g></g><g fill="#000000" fill-opacity="1"><g transform="translate(227.62573, 216.291832)"><g><path d="M 42.921875 -74.953125 L 42.921875 -65.390625 C 42.921875 -64.304688 42.410156 -63.765625 41.390625 -63.765625 L 17.5 -63.765625 L 17.5 -44.640625 L 35.75 -44.640625 C 36.769531 -44.640625 37.28125 -44.097656 37.28125 -43.015625 L 37.28125 -33.546875 C 37.28125 -32.460938 36.769531 -31.921875 35.75 -31.921875 L 17.5 -31.921875 L 17.5 -12.625 L 41.390625 -12.625 C 42.410156 -12.625 42.921875 -12.113281 42.921875 -11.09375 L 42.921875 -1.53125 C 42.921875 -0.507812 42.410156 0 41.390625 0 L 6.21875 0 C 5.257812 0 4.78125 -0.507812 4.78125 -1.53125 L 4.78125 -74.953125 C 4.78125 -75.960938 5.257812 -76.46875 6.21875 -76.46875 L 41.390625 -76.46875 C 42.410156 -76.46875 42.921875 -75.960938 42.921875 -74.953125 Z M 42.921875 -74.953125 "/></g></g></g></g></g></g></g></g></g></mask><clipPath id="f3b94aebcc"><path d="M 0 0.03125 L 340.5 0.03125 L 340.5 255.96875 L 0 255.96875 Z M 0 0.03125 " clip-rule="nonzero"/></clipPath><clipPath id="df32161c04"><rect x="0" width="341" y="0" height="256"/></clipPath><clipPath id="b838883f29"><rect x="0" width="341" y="0" height="256"/></clipPath></defs><g transform="matrix(1, 0, 0, 1, 238, 200)"><g clip-path="url(#35b108fad6)"><g clip-path="url(#5e1ce35f8a)"><g fill="#ffffff" fill-opacity="1"><g transform="translate(0.357909, 6.84399)"><g><path d="M 0.34375 -0.140625 L 0.34375 -0.78125 C 0.34375 -0.875 0.390625 -0.921875 0.484375 -0.921875 L 1.125 -0.921875 C 1.21875 -0.921875 1.265625 -0.875 1.265625 -0.78125 L 1.265625 -0.140625 C 1.265625 -0.046875 1.21875 0 1.125 0 L 0.484375 0 C 0.390625 0 0.34375 -0.046875 0.34375 -0.140625 Z M 0.34375 -0.140625 "/></g></g></g></g></g></g><g clip-path="url(#9527cca90d)"><g transform="matrix(1, 0, 0, 1, 0, -0.000000000000043666)"><g clip-path="url(#b838883f29)"><g clip-path="url(#d060a39934)"><g mask="url(#61f08b6353)"><g transform="matrix(1, 0, 0, 1, 0, -0.000000000000043666)"><g clip-path="url(#df32161c04)"><g clip-path="url(#f3b94aebcc)"><path fill="url(#99ad11e6d4)" d="M 0 0.03125 L 0 255.96875 L 340.5 255.96875 L 340.5 0.03125 Z M 0 0.03125 " fill-rule="nonzero"/></g></g></g></g></g></g></g></g></svg>