<svg width="500" height="500" viewBox="0 0 500 500" fill="none" xmlns="http://www.w3.org/2000/svg">
<path d="M16.8752 120.937L15.6252 93.75C15.6252 77.174 22.21 61.2769 33.931 49.5558C45.6521 37.8348 61.5492 31.25 78.1252 31.25H192.875C209.45 31.2535 225.344 37.8407 237.063 49.5625L262.938 75.4375C274.656 87.1593 290.551 93.7465 307.125 93.75H431.563C440.248 93.7491 448.838 95.5583 456.784 99.0622C464.731 102.566 471.861 107.688 477.718 114.101C483.575 120.513 488.031 128.077 490.802 136.308C493.573 144.539 494.599 153.257 493.813 161.906L473.906 380.656C472.495 396.185 465.331 410.625 453.819 421.142C442.307 431.659 427.28 437.494 411.688 437.5H88.3127C72.7201 437.494 57.693 431.659 46.1814 421.142C34.6697 410.625 27.5051 396.185 26.094 380.656L6.18771 161.906C4.88261 147.433 8.66179 132.957 16.8752 120.969V120.937ZM68.4377 125C64.0966 125 59.8031 125.904 55.8309 127.655C51.8586 129.406 48.2948 131.965 45.3665 135.17C42.4382 138.375 40.2097 142.154 38.823 146.268C37.4364 150.382 36.922 154.739 37.3127 159.063L57.219 377.813C57.9206 385.577 61.4991 392.799 67.252 398.06C73.0049 403.322 80.5167 406.243 88.3127 406.25H411.688C419.484 406.243 426.996 403.322 432.748 398.06C438.501 392.799 442.08 385.577 442.781 377.813L462.688 159.063C463.078 154.739 462.564 150.382 461.177 146.268C459.791 142.154 457.562 138.375 454.634 135.17C451.706 131.965 448.142 129.406 444.17 127.655C440.197 125.904 435.904 125 431.563 125H68.4377ZM215 71.6562C212.095 68.7505 208.646 66.4461 204.849 64.875C201.053 63.3038 196.984 62.4968 192.875 62.5H78.1252C69.939 62.4985 62.0792 65.7093 56.2354 71.442C50.3917 77.1747 47.0307 84.9716 46.8752 93.1562L47.0627 97.5C53.7919 95.0208 60.9169 93.7708 68.4377 93.75H237.063L215 71.6562Z" fill="black"/>
</svg>
