<svg xmlns="http://www.w3.org/2000/svg" xmlns:xlink="http://www.w3.org/1999/xlink" width="320" zoomAndPan="magnify" viewBox="0 0 240 231" height="308" preserveAspectRatio="xMidYMid meet" version="1.0"><defs><clipPath id="f3c62c29b0"><path d="M 31 103 L 209 103 L 209 229.5 L 31 229.5 Z M 31 103 " clip-rule="nonzero"/></clipPath><clipPath id="53d99dda25"><path d="M 0.898438 1 L 238.644531 1 L 238.644531 108 L 0.898438 108 Z M 0.898438 1 " clip-rule="nonzero"/></clipPath><clipPath id="29fbcd8aa2"><path d="M 0 0 L 239.25 0 L 239.25 230.25 L 0 230.25 Z M 0 0 " clip-rule="nonzero"/></clipPath></defs><rect x="-24" width="288" fill="#ffffff" y="-23.1" height="277.2" fill-opacity="1"/><g clip-path="url(#f3c62c29b0)"><path fill="#000000" d="M 197.238281 213.71875 C 197.238281 216.785156 194.75 219.230469 191.730469 219.230469 L 153.019531 219.230469 C 149.953125 219.230469 147.511719 216.738281 147.511719 213.71875 L 147.511719 156.324219 C 147.511719 147.175781 140.085938 139.75 130.933594 139.75 L 108.800781 139.75 C 99.648438 139.75 92.222656 147.175781 92.222656 156.324219 L 92.222656 213.71875 C 92.222656 216.785156 89.734375 219.230469 86.714844 219.230469 L 47.859375 219.230469 C 44.792969 219.230469 42.351562 216.738281 42.351562 213.71875 L 42.351562 103.097656 L 31.285156 103.097656 L 31.285156 213.71875 C 31.285156 222.871094 38.710938 230.296875 47.859375 230.296875 L 86.570312 230.296875 C 95.722656 230.296875 103.148438 222.871094 103.148438 213.71875 L 103.148438 156.324219 C 103.148438 153.257812 105.636719 150.816406 108.65625 150.816406 L 130.789062 150.816406 C 133.855469 150.816406 136.300781 153.304688 136.300781 156.324219 L 136.300781 213.71875 C 136.300781 222.871094 143.726562 230.296875 152.875 230.296875 L 191.585938 230.296875 C 200.738281 230.296875 208.164062 222.871094 208.164062 213.71875 L 208.164062 103.097656 L 197.097656 103.097656 Z M 197.238281 213.71875 " fill-opacity="1" fill-rule="nonzero"/></g><g clip-path="url(#53d99dda25)"><path fill="#000000" d="M 130.550781 5.460938 C 124.273438 0.09375 115.21875 0.09375 108.945312 5.460938 L 0 98.882812 L 7.1875 107.265625 L 116.179688 13.84375 C 118.285156 12.070312 121.304688 12.070312 123.363281 13.84375 L 232.355469 107.265625 L 239.542969 98.882812 Z M 130.550781 5.460938 " fill-opacity="1" fill-rule="nonzero"/></g><g clip-path="url(#29fbcd8aa2)"><path stroke-linecap="butt" transform="matrix(0.75, 0, 0, 0.75, 0.000000000000021316, 0.00001)" fill="none" stroke-linejoin="miter" d="M -0.000000000000028422 -0.0000133333 L -0.000000000000028422 307.187499 L 319.390638 307.187499 L 319.390638 -0.0000133333 L -0.000000000000028422 -0.0000133333 " stroke="#000000" stroke-width="10" stroke-opacity="1" stroke-miterlimit="4"/></g></svg>