<svg xmlns="http://www.w3.org/2000/svg" xmlns:xlink="http://www.w3.org/1999/xlink" width="320" zoomAndPan="magnify" viewBox="0 0 240 231" height="308" preserveAspectRatio="xMidYMid meet" version="1.0"><defs><clipPath id="f3a38dfe55"><path d="M 31 103 L 208 103 L 208 230.25 L 31 230.25 Z M 31 103 " clip-rule="nonzero"/></clipPath><clipPath id="1e2fdf97fa"><path d="M 0 1 L 239.25 1 L 239.25 108 L 0 108 Z M 0 1 " clip-rule="nonzero"/></clipPath></defs><g clip-path="url(#f3a38dfe55)"><path fill="#231f20" d="M 197 213.589844 C 197 216.652344 194.511719 219.09375 191.496094 219.09375 L 152.832031 219.09375 C 149.769531 219.09375 147.332031 216.605469 147.332031 213.589844 L 147.332031 156.230469 C 147.332031 147.085938 139.914062 139.664062 130.773438 139.664062 L 108.667969 139.664062 C 99.527344 139.664062 92.109375 147.085938 92.109375 156.230469 L 92.109375 213.589844 C 92.109375 216.652344 89.625 219.09375 86.609375 219.09375 L 47.800781 219.09375 C 44.738281 219.09375 42.300781 216.605469 42.300781 213.589844 L 42.300781 103.035156 L 31.246094 103.035156 L 31.246094 213.589844 C 31.246094 222.734375 38.664062 230.15625 47.800781 230.15625 L 86.464844 230.15625 C 95.605469 230.15625 103.019531 222.734375 103.019531 213.589844 L 103.019531 156.230469 C 103.019531 153.164062 105.507812 150.722656 108.523438 150.722656 L 130.628906 150.722656 C 133.691406 150.722656 136.132812 153.214844 136.132812 156.230469 L 136.132812 213.589844 C 136.132812 222.734375 143.550781 230.15625 152.6875 230.15625 L 191.351562 230.15625 C 200.492188 230.15625 207.910156 222.734375 207.910156 213.589844 L 207.910156 103.035156 L 196.855469 103.035156 Z M 197 213.589844 " fill-opacity="1" fill-rule="nonzero"/></g><g clip-path="url(#1e2fdf97fa)"><path fill="#231f20" d="M 130.390625 5.457031 C 124.121094 0.09375 115.078125 0.09375 108.8125 5.457031 L 0 98.820312 L 7.175781 107.199219 L 116.035156 13.835938 C 118.140625 12.066406 121.15625 12.066406 123.214844 13.835938 L 232.074219 107.199219 L 239.25 98.820312 Z M 130.390625 5.457031 " fill-opacity="1" fill-rule="nonzero"/></g></svg>