<svg xmlns="http://www.w3.org/2000/svg" xmlns:xlink="http://www.w3.org/1999/xlink" width="476" zoomAndPan="magnify" viewBox="0 0 357 256.499992" height="342" preserveAspectRatio="xMidYMid meet" version="1.0"><defs><filter x="0%" y="0%" width="100%" height="100%" id="f5e1b90a9b"><feColorMatrix values="0 0 0 0 1 0 0 0 0 1 0 0 0 0 1 0 0 0 1 0" color-interpolation-filters="sRGB"/></filter><g/><clipPath id="5a7855662c"><path d="M 0.347656 0 L 356.652344 0 L 356.652344 256 L 0.347656 256 Z M 0.347656 0 " clip-rule="nonzero"/></clipPath><clipPath id="417dbcdc4e"><path d="M 0.347656 0 L 356.652344 0 L 356.652344 256 L 0.347656 256 Z M 0.347656 0 " clip-rule="nonzero"/></clipPath><clipPath id="5d7a5d379d"><path d="M 0.347656 0 L 356.652344 0 L 356.652344 256 L 0.347656 256 Z M 0.347656 0 " clip-rule="nonzero"/></clipPath><linearGradient x1="-49.074114" gradientTransform="matrix(0.748577, 0, 0, 0.747637, 37.083018, 27.808729)" y1="134" x2="426.903085" gradientUnits="userSpaceOnUse" y2="134" id="0e593c6990"><stop stop-opacity="1" stop-color="rgb(31.759644%, 43.919373%, 100%)" offset="0"/><stop stop-opacity="1" stop-color="rgb(31.759644%, 43.919373%, 100%)" offset="0.0625"/><stop stop-opacity="1" stop-color="rgb(31.759644%, 43.919373%, 100%)" offset="0.09375"/><stop stop-opacity="1" stop-color="rgb(31.759644%, 43.919373%, 100%)" offset="0.101562"/><stop stop-opacity="1" stop-color="rgb(32.014465%, 43.904114%, 99.913025%)" offset="0.105469"/><stop stop-opacity="1" stop-color="rgb(32.269287%, 43.890381%, 99.82605%)" offset="0.109375"/><stop stop-opacity="1" stop-color="rgb(32.58667%, 43.87207%, 99.717712%)" offset="0.113281"/><stop stop-opacity="1" stop-color="rgb(32.905579%, 43.85376%, 99.610901%)" offset="0.117188"/><stop stop-opacity="1" stop-color="rgb(33.222961%, 43.835449%, 99.502563%)" offset="0.121094"/><stop stop-opacity="1" stop-color="rgb(33.54187%, 43.817139%, 99.394226%)" offset="0.125"/><stop stop-opacity="1" stop-color="rgb(33.859253%, 43.798828%, 99.285889%)" offset="0.128906"/><stop stop-opacity="1" stop-color="rgb(34.178162%, 43.780518%, 99.179077%)" offset="0.132813"/><stop stop-opacity="1" stop-color="rgb(34.495544%, 43.762207%, 99.07074%)" offset="0.136719"/><stop stop-opacity="1" stop-color="rgb(34.814453%, 43.743896%, 98.963928%)" offset="0.140625"/><stop stop-opacity="1" stop-color="rgb(35.131836%, 43.725586%, 98.855591%)" offset="0.144531"/><stop stop-opacity="1" stop-color="rgb(35.449219%, 43.707275%, 98.747253%)" offset="0.148438"/><stop stop-opacity="1" stop-color="rgb(35.766602%, 43.688965%, 98.638916%)" offset="0.152344"/><stop stop-opacity="1" stop-color="rgb(36.08551%, 43.670654%, 98.532104%)" offset="0.15625"/><stop stop-opacity="1" stop-color="rgb(36.402893%, 43.652344%, 98.423767%)" offset="0.160156"/><stop stop-opacity="1" stop-color="rgb(36.721802%, 43.634033%, 98.316956%)" offset="0.164063"/><stop stop-opacity="1" stop-color="rgb(37.039185%, 43.615723%, 98.208618%)" offset="0.167969"/><stop stop-opacity="1" stop-color="rgb(37.358093%, 43.597412%, 98.100281%)" offset="0.171875"/><stop stop-opacity="1" stop-color="rgb(37.675476%, 43.579102%, 97.991943%)" offset="0.175781"/><stop stop-opacity="1" stop-color="rgb(37.994385%, 43.560791%, 97.885132%)" offset="0.179688"/><stop stop-opacity="1" stop-color="rgb(38.311768%, 43.54248%, 97.776794%)" offset="0.183594"/><stop stop-opacity="1" stop-color="rgb(38.62915%, 43.52417%, 97.669983%)" offset="0.1875"/><stop stop-opacity="1" stop-color="rgb(38.946533%, 43.505859%, 97.561646%)" offset="0.191406"/><stop stop-opacity="1" stop-color="rgb(39.265442%, 43.487549%, 97.453308%)" offset="0.195313"/><stop stop-opacity="1" stop-color="rgb(39.582825%, 43.469238%, 97.344971%)" offset="0.199219"/><stop stop-opacity="1" stop-color="rgb(39.901733%, 43.450928%, 97.238159%)" offset="0.203125"/><stop stop-opacity="1" stop-color="rgb(40.219116%, 43.432617%, 97.129822%)" offset="0.207031"/><stop stop-opacity="1" stop-color="rgb(40.538025%, 43.414307%, 97.02301%)" offset="0.210938"/><stop stop-opacity="1" stop-color="rgb(40.855408%, 43.395996%, 96.914673%)" offset="0.214844"/><stop stop-opacity="1" stop-color="rgb(41.174316%, 43.377686%, 96.806335%)" offset="0.21875"/><stop stop-opacity="1" stop-color="rgb(41.491699%, 43.359375%, 96.697998%)" offset="0.222656"/><stop stop-opacity="1" stop-color="rgb(41.809082%, 43.34259%, 96.591187%)" offset="0.226563"/><stop stop-opacity="1" stop-color="rgb(42.126465%, 43.32428%, 96.482849%)" offset="0.230469"/><stop stop-opacity="1" stop-color="rgb(42.445374%, 43.305969%, 96.376038%)" offset="0.234375"/><stop stop-opacity="1" stop-color="rgb(42.762756%, 43.287659%, 96.2677%)" offset="0.238281"/><stop stop-opacity="1" stop-color="rgb(43.081665%, 43.269348%, 96.159363%)" offset="0.242188"/><stop stop-opacity="1" stop-color="rgb(43.399048%, 43.251038%, 96.051025%)" offset="0.246094"/><stop stop-opacity="1" stop-color="rgb(43.717957%, 43.232727%, 95.944214%)" offset="0.25"/><stop stop-opacity="1" stop-color="rgb(44.035339%, 43.214417%, 95.835876%)" offset="0.253906"/><stop stop-opacity="1" stop-color="rgb(44.354248%, 43.196106%, 95.729065%)" offset="0.257813"/><stop stop-opacity="1" stop-color="rgb(44.671631%, 43.177795%, 95.620728%)" offset="0.261719"/><stop stop-opacity="1" stop-color="rgb(44.989014%, 43.159485%, 95.51239%)" offset="0.265625"/><stop stop-opacity="1" stop-color="rgb(45.306396%, 43.141174%, 95.404053%)" offset="0.269531"/><stop stop-opacity="1" stop-color="rgb(45.625305%, 43.122864%, 95.297241%)" offset="0.273438"/><stop stop-opacity="1" stop-color="rgb(45.942688%, 43.104553%, 95.188904%)" offset="0.277344"/><stop stop-opacity="1" stop-color="rgb(46.261597%, 43.086243%, 95.082092%)" offset="0.28125"/><stop stop-opacity="1" stop-color="rgb(46.578979%, 43.067932%, 94.973755%)" offset="0.285156"/><stop stop-opacity="1" stop-color="rgb(46.897888%, 43.049622%, 94.865417%)" offset="0.289062"/><stop stop-opacity="1" stop-color="rgb(47.215271%, 43.031311%, 94.75708%)" offset="0.292969"/><stop stop-opacity="1" stop-color="rgb(47.532654%, 43.013%, 94.650269%)" offset="0.296875"/><stop stop-opacity="1" stop-color="rgb(47.850037%, 42.99469%, 94.541931%)" offset="0.300781"/><stop stop-opacity="1" stop-color="rgb(48.168945%, 42.976379%, 94.43512%)" offset="0.304688"/><stop stop-opacity="1" stop-color="rgb(48.486328%, 42.958069%, 94.326782%)" offset="0.308594"/><stop stop-opacity="1" stop-color="rgb(48.805237%, 42.939758%, 94.218445%)" offset="0.3125"/><stop stop-opacity="1" stop-color="rgb(49.12262%, 42.921448%, 94.110107%)" offset="0.316406"/><stop stop-opacity="1" stop-color="rgb(49.441528%, 42.903137%, 94.003296%)" offset="0.320312"/><stop stop-opacity="1" stop-color="rgb(49.758911%, 42.884827%, 93.894958%)" offset="0.324219"/><stop stop-opacity="1" stop-color="rgb(50.07782%, 42.866516%, 93.788147%)" offset="0.328125"/><stop stop-opacity="1" stop-color="rgb(50.395203%, 42.848206%, 93.67981%)" offset="0.332031"/><stop stop-opacity="1" stop-color="rgb(50.712585%, 42.829895%, 93.571472%)" offset="0.335938"/><stop stop-opacity="1" stop-color="rgb(51.029968%, 42.811584%, 93.463135%)" offset="0.339844"/><stop stop-opacity="1" stop-color="rgb(51.348877%, 42.793274%, 93.356323%)" offset="0.34375"/><stop stop-opacity="1" stop-color="rgb(51.66626%, 42.774963%, 93.247986%)" offset="0.347656"/><stop stop-opacity="1" stop-color="rgb(51.985168%, 42.756653%, 93.141174%)" offset="0.351563"/><stop stop-opacity="1" stop-color="rgb(52.302551%, 42.738342%, 93.032837%)" offset="0.355469"/><stop stop-opacity="1" stop-color="rgb(52.62146%, 42.721558%, 92.9245%)" offset="0.359375"/><stop stop-opacity="1" stop-color="rgb(52.938843%, 42.703247%, 92.816162%)" offset="0.363281"/><stop stop-opacity="1" stop-color="rgb(53.257751%, 42.684937%, 92.709351%)" offset="0.367188"/><stop stop-opacity="1" stop-color="rgb(53.575134%, 42.666626%, 92.601013%)" offset="0.371094"/><stop stop-opacity="1" stop-color="rgb(53.892517%, 42.648315%, 92.494202%)" offset="0.375"/><stop stop-opacity="1" stop-color="rgb(54.2099%, 42.630005%, 92.385864%)" offset="0.378906"/><stop stop-opacity="1" stop-color="rgb(54.528809%, 42.611694%, 92.277527%)" offset="0.382813"/><stop stop-opacity="1" stop-color="rgb(54.846191%, 42.593384%, 92.169189%)" offset="0.386719"/><stop stop-opacity="1" stop-color="rgb(55.1651%, 42.575073%, 92.062378%)" offset="0.390625"/><stop stop-opacity="1" stop-color="rgb(55.482483%, 42.556763%, 91.954041%)" offset="0.394531"/><stop stop-opacity="1" stop-color="rgb(55.801392%, 42.538452%, 91.847229%)" offset="0.398438"/><stop stop-opacity="1" stop-color="rgb(56.118774%, 42.520142%, 91.738892%)" offset="0.402344"/><stop stop-opacity="1" stop-color="rgb(56.437683%, 42.501831%, 91.630554%)" offset="0.40625"/><stop stop-opacity="1" stop-color="rgb(56.755066%, 42.483521%, 91.522217%)" offset="0.410156"/><stop stop-opacity="1" stop-color="rgb(57.072449%, 42.46521%, 91.415405%)" offset="0.414062"/><stop stop-opacity="1" stop-color="rgb(57.389832%, 42.446899%, 91.307068%)" offset="0.417969"/><stop stop-opacity="1" stop-color="rgb(57.70874%, 42.428589%, 91.200256%)" offset="0.421875"/><stop stop-opacity="1" stop-color="rgb(58.026123%, 42.410278%, 91.091919%)" offset="0.425781"/><stop stop-opacity="1" stop-color="rgb(58.345032%, 42.391968%, 90.983582%)" offset="0.429688"/><stop stop-opacity="1" stop-color="rgb(58.662415%, 42.373657%, 90.875244%)" offset="0.433594"/><stop stop-opacity="1" stop-color="rgb(58.981323%, 42.355347%, 90.768433%)" offset="0.4375"/><stop stop-opacity="1" stop-color="rgb(59.298706%, 42.337036%, 90.660095%)" offset="0.441406"/><stop stop-opacity="1" stop-color="rgb(59.617615%, 42.318726%, 90.553284%)" offset="0.445312"/><stop stop-opacity="1" stop-color="rgb(59.934998%, 42.300415%, 90.444946%)" offset="0.449219"/><stop stop-opacity="1" stop-color="rgb(60.25238%, 42.282104%, 90.336609%)" offset="0.453125"/><stop stop-opacity="1" stop-color="rgb(60.569763%, 42.263794%, 90.228271%)" offset="0.457031"/><stop stop-opacity="1" stop-color="rgb(60.888672%, 42.245483%, 90.12146%)" offset="0.460938"/><stop stop-opacity="1" stop-color="rgb(61.206055%, 42.227173%, 90.013123%)" offset="0.464844"/><stop stop-opacity="1" stop-color="rgb(61.524963%, 42.208862%, 89.906311%)" offset="0.46875"/><stop stop-opacity="1" stop-color="rgb(61.842346%, 42.190552%, 89.797974%)" offset="0.472656"/><stop stop-opacity="1" stop-color="rgb(62.161255%, 42.172241%, 89.689636%)" offset="0.476563"/><stop stop-opacity="1" stop-color="rgb(62.478638%, 42.153931%, 89.581299%)" offset="0.480469"/><stop stop-opacity="1" stop-color="rgb(62.797546%, 42.13562%, 89.474487%)" offset="0.484375"/><stop stop-opacity="1" stop-color="rgb(63.114929%, 42.11731%, 89.36615%)" offset="0.488281"/><stop stop-opacity="1" stop-color="rgb(63.432312%, 42.100525%, 89.259338%)" offset="0.492188"/><stop stop-opacity="1" stop-color="rgb(63.749695%, 42.082214%, 89.151001%)" offset="0.496094"/><stop stop-opacity="1" stop-color="rgb(64.068604%, 42.063904%, 89.042664%)" offset="0.5"/><stop stop-opacity="1" stop-color="rgb(64.385986%, 42.045593%, 88.934326%)" offset="0.503906"/><stop stop-opacity="1" stop-color="rgb(64.704895%, 42.027283%, 88.827515%)" offset="0.507812"/><stop stop-opacity="1" stop-color="rgb(65.022278%, 42.008972%, 88.719177%)" offset="0.511719"/><stop stop-opacity="1" stop-color="rgb(65.341187%, 41.990662%, 88.612366%)" offset="0.515625"/><stop stop-opacity="1" stop-color="rgb(65.658569%, 41.972351%, 88.504028%)" offset="0.519531"/><stop stop-opacity="1" stop-color="rgb(65.977478%, 41.954041%, 88.395691%)" offset="0.523437"/><stop stop-opacity="1" stop-color="rgb(66.294861%, 41.93573%, 88.287354%)" offset="0.527344"/><stop stop-opacity="1" stop-color="rgb(66.612244%, 41.917419%, 88.180542%)" offset="0.53125"/><stop stop-opacity="1" stop-color="rgb(66.929626%, 41.899109%, 88.072205%)" offset="0.535156"/><stop stop-opacity="1" stop-color="rgb(67.248535%, 41.880798%, 87.965393%)" offset="0.539062"/><stop stop-opacity="1" stop-color="rgb(67.565918%, 41.862488%, 87.857056%)" offset="0.542969"/><stop stop-opacity="1" stop-color="rgb(67.884827%, 41.844177%, 87.748718%)" offset="0.546875"/><stop stop-opacity="1" stop-color="rgb(68.202209%, 41.825867%, 87.640381%)" offset="0.550781"/><stop stop-opacity="1" stop-color="rgb(68.521118%, 41.807556%, 87.533569%)" offset="0.554687"/><stop stop-opacity="1" stop-color="rgb(68.838501%, 41.789246%, 87.425232%)" offset="0.558594"/><stop stop-opacity="1" stop-color="rgb(69.15741%, 41.770935%, 87.31842%)" offset="0.5625"/><stop stop-opacity="1" stop-color="rgb(69.474792%, 41.752625%, 87.210083%)" offset="0.566406"/><stop stop-opacity="1" stop-color="rgb(69.792175%, 41.734314%, 87.101746%)" offset="0.570312"/><stop stop-opacity="1" stop-color="rgb(70.109558%, 41.716003%, 86.993408%)" offset="0.574219"/><stop stop-opacity="1" stop-color="rgb(70.428467%, 41.697693%, 86.886597%)" offset="0.578125"/><stop stop-opacity="1" stop-color="rgb(70.74585%, 41.679382%, 86.778259%)" offset="0.582031"/><stop stop-opacity="1" stop-color="rgb(71.064758%, 41.661072%, 86.671448%)" offset="0.585937"/><stop stop-opacity="1" stop-color="rgb(71.382141%, 41.642761%, 86.56311%)" offset="0.589844"/><stop stop-opacity="1" stop-color="rgb(71.70105%, 41.624451%, 86.454773%)" offset="0.59375"/><stop stop-opacity="1" stop-color="rgb(72.018433%, 41.60614%, 86.346436%)" offset="0.597656"/><stop stop-opacity="1" stop-color="rgb(72.335815%, 41.58783%, 86.239624%)" offset="0.601562"/><stop stop-opacity="1" stop-color="rgb(72.653198%, 41.569519%, 86.131287%)" offset="0.605469"/><stop stop-opacity="1" stop-color="rgb(72.972107%, 41.551208%, 86.024475%)" offset="0.609375"/><stop stop-opacity="1" stop-color="rgb(73.28949%, 41.532898%, 85.916138%)" offset="0.613281"/><stop stop-opacity="1" stop-color="rgb(73.608398%, 41.514587%, 85.8078%)" offset="0.617188"/><stop stop-opacity="1" stop-color="rgb(73.925781%, 41.496277%, 85.699463%)" offset="0.621094"/><stop stop-opacity="1" stop-color="rgb(74.24469%, 41.477966%, 85.592651%)" offset="0.625"/><stop stop-opacity="1" stop-color="rgb(74.562073%, 41.459656%, 85.484314%)" offset="0.628906"/><stop stop-opacity="1" stop-color="rgb(74.880981%, 41.442871%, 85.377502%)" offset="0.632812"/><stop stop-opacity="1" stop-color="rgb(75.198364%, 41.424561%, 85.269165%)" offset="0.636719"/><stop stop-opacity="1" stop-color="rgb(75.515747%, 41.40625%, 85.160828%)" offset="0.640625"/><stop stop-opacity="1" stop-color="rgb(75.83313%, 41.387939%, 85.05249%)" offset="0.644531"/><stop stop-opacity="1" stop-color="rgb(76.152039%, 41.369629%, 84.945679%)" offset="0.648438"/><stop stop-opacity="1" stop-color="rgb(76.469421%, 41.351318%, 84.837341%)" offset="0.652344"/><stop stop-opacity="1" stop-color="rgb(76.78833%, 41.333008%, 84.73053%)" offset="0.65625"/><stop stop-opacity="1" stop-color="rgb(77.105713%, 41.314697%, 84.622192%)" offset="0.660156"/><stop stop-opacity="1" stop-color="rgb(77.424622%, 41.296387%, 84.513855%)" offset="0.664063"/><stop stop-opacity="1" stop-color="rgb(77.742004%, 41.278076%, 84.405518%)" offset="0.667969"/><stop stop-opacity="1" stop-color="rgb(78.060913%, 41.259766%, 84.298706%)" offset="0.671875"/><stop stop-opacity="1" stop-color="rgb(78.378296%, 41.241455%, 84.190369%)" offset="0.675781"/><stop stop-opacity="1" stop-color="rgb(78.695679%, 41.223145%, 84.083557%)" offset="0.679688"/><stop stop-opacity="1" stop-color="rgb(79.013062%, 41.204834%, 83.97522%)" offset="0.683594"/><stop stop-opacity="1" stop-color="rgb(79.33197%, 41.186523%, 83.866882%)" offset="0.6875"/><stop stop-opacity="1" stop-color="rgb(79.649353%, 41.168213%, 83.758545%)" offset="0.691406"/><stop stop-opacity="1" stop-color="rgb(79.968262%, 41.149902%, 83.651733%)" offset="0.695313"/><stop stop-opacity="1" stop-color="rgb(80.285645%, 41.131592%, 83.543396%)" offset="0.699219"/><stop stop-opacity="1" stop-color="rgb(80.604553%, 41.113281%, 83.436584%)" offset="0.703125"/><stop stop-opacity="1" stop-color="rgb(80.921936%, 41.094971%, 83.328247%)" offset="0.707031"/><stop stop-opacity="1" stop-color="rgb(81.240845%, 41.07666%, 83.21991%)" offset="0.710938"/><stop stop-opacity="1" stop-color="rgb(81.558228%, 41.05835%, 83.111572%)" offset="0.714844"/><stop stop-opacity="1" stop-color="rgb(81.87561%, 41.040039%, 83.004761%)" offset="0.71875"/><stop stop-opacity="1" stop-color="rgb(82.192993%, 41.021729%, 82.896423%)" offset="0.722656"/><stop stop-opacity="1" stop-color="rgb(82.511902%, 41.003418%, 82.789612%)" offset="0.726563"/><stop stop-opacity="1" stop-color="rgb(82.829285%, 40.985107%, 82.681274%)" offset="0.730469"/><stop stop-opacity="1" stop-color="rgb(83.148193%, 40.966797%, 82.572937%)" offset="0.734375"/><stop stop-opacity="1" stop-color="rgb(83.465576%, 40.948486%, 82.4646%)" offset="0.738281"/><stop stop-opacity="1" stop-color="rgb(83.784485%, 40.930176%, 82.357788%)" offset="0.742188"/><stop stop-opacity="1" stop-color="rgb(84.101868%, 40.911865%, 82.249451%)" offset="0.746094"/><stop stop-opacity="1" stop-color="rgb(84.420776%, 40.893555%, 82.142639%)" offset="0.75"/><stop stop-opacity="1" stop-color="rgb(84.738159%, 40.875244%, 82.034302%)" offset="0.753906"/><stop stop-opacity="1" stop-color="rgb(85.055542%, 40.856934%, 81.925964%)" offset="0.757812"/><stop stop-opacity="1" stop-color="rgb(85.372925%, 40.838623%, 81.817627%)" offset="0.761719"/><stop stop-opacity="1" stop-color="rgb(85.691833%, 40.821838%, 81.710815%)" offset="0.765625"/><stop stop-opacity="1" stop-color="rgb(86.009216%, 40.803528%, 81.602478%)" offset="0.769531"/><stop stop-opacity="1" stop-color="rgb(86.328125%, 40.785217%, 81.495667%)" offset="0.773437"/><stop stop-opacity="1" stop-color="rgb(86.645508%, 40.766907%, 81.387329%)" offset="0.777344"/><stop stop-opacity="1" stop-color="rgb(86.964417%, 40.748596%, 81.278992%)" offset="0.78125"/><stop stop-opacity="1" stop-color="rgb(87.281799%, 40.730286%, 81.170654%)" offset="0.785156"/><stop stop-opacity="1" stop-color="rgb(87.600708%, 40.711975%, 81.063843%)" offset="0.789062"/><stop stop-opacity="1" stop-color="rgb(87.918091%, 40.693665%, 80.955505%)" offset="0.792969"/><stop stop-opacity="1" stop-color="rgb(88.235474%, 40.675354%, 80.848694%)" offset="0.796875"/><stop stop-opacity="1" stop-color="rgb(88.552856%, 40.657043%, 80.740356%)" offset="0.800781"/><stop stop-opacity="1" stop-color="rgb(88.871765%, 40.638733%, 80.632019%)" offset="0.804687"/><stop stop-opacity="1" stop-color="rgb(89.189148%, 40.620422%, 80.523682%)" offset="0.808594"/><stop stop-opacity="1" stop-color="rgb(89.508057%, 40.602112%, 80.41687%)" offset="0.8125"/><stop stop-opacity="1" stop-color="rgb(89.825439%, 40.583801%, 80.308533%)" offset="0.816406"/><stop stop-opacity="1" stop-color="rgb(90.144348%, 40.565491%, 80.201721%)" offset="0.820312"/><stop stop-opacity="1" stop-color="rgb(90.461731%, 40.54718%, 80.093384%)" offset="0.824219"/><stop stop-opacity="1" stop-color="rgb(90.78064%, 40.52887%, 79.985046%)" offset="0.828125"/><stop stop-opacity="1" stop-color="rgb(91.098022%, 40.510559%, 79.876709%)" offset="0.832031"/><stop stop-opacity="1" stop-color="rgb(91.415405%, 40.492249%, 79.769897%)" offset="0.835937"/><stop stop-opacity="1" stop-color="rgb(91.732788%, 40.473938%, 79.66156%)" offset="0.839844"/><stop stop-opacity="1" stop-color="rgb(92.051697%, 40.455627%, 79.554749%)" offset="0.84375"/><stop stop-opacity="1" stop-color="rgb(92.36908%, 40.437317%, 79.446411%)" offset="0.847656"/><stop stop-opacity="1" stop-color="rgb(92.687988%, 40.419006%, 79.338074%)" offset="0.851562"/><stop stop-opacity="1" stop-color="rgb(93.005371%, 40.400696%, 79.229736%)" offset="0.855469"/><stop stop-opacity="1" stop-color="rgb(93.32428%, 40.382385%, 79.122925%)" offset="0.859375"/><stop stop-opacity="1" stop-color="rgb(93.641663%, 40.364075%, 79.014587%)" offset="0.863281"/><stop stop-opacity="1" stop-color="rgb(93.959045%, 40.345764%, 78.907776%)" offset="0.867188"/><stop stop-opacity="1" stop-color="rgb(94.276428%, 40.327454%, 78.799438%)" offset="0.871094"/><stop stop-opacity="1" stop-color="rgb(94.595337%, 40.309143%, 78.691101%)" offset="0.875"/><stop stop-opacity="1" stop-color="rgb(94.91272%, 40.290833%, 78.582764%)" offset="0.878906"/><stop stop-opacity="1" stop-color="rgb(95.231628%, 40.272522%, 78.475952%)" offset="0.882812"/><stop stop-opacity="1" stop-color="rgb(95.549011%, 40.254211%, 78.367615%)" offset="0.886719"/><stop stop-opacity="1" stop-color="rgb(95.86792%, 40.235901%, 78.260803%)" offset="0.890625"/><stop stop-opacity="1" stop-color="rgb(96.185303%, 40.21759%, 78.152466%)" offset="0.894531"/><stop stop-opacity="1" stop-color="rgb(96.504211%, 40.19928%, 78.044128%)" offset="0.898438"/><stop stop-opacity="1" stop-color="rgb(96.821594%, 40.180969%, 77.935791%)" offset="0.902344"/><stop stop-opacity="1" stop-color="rgb(97.138977%, 40.164185%, 77.828979%)" offset="0.90625"/><stop stop-opacity="1" stop-color="rgb(97.45636%, 40.145874%, 77.720642%)" offset="0.910156"/><stop stop-opacity="1" stop-color="rgb(97.775269%, 40.127563%, 77.613831%)" offset="0.914063"/><stop stop-opacity="1" stop-color="rgb(98.092651%, 40.109253%, 77.505493%)" offset="0.917969"/><stop stop-opacity="1" stop-color="rgb(98.41156%, 40.090942%, 77.397156%)" offset="0.921875"/><stop stop-opacity="1" stop-color="rgb(98.728943%, 40.072632%, 77.288818%)" offset="0.925781"/><stop stop-opacity="1" stop-color="rgb(99.047852%, 40.054321%, 77.182007%)" offset="0.929688"/><stop stop-opacity="1" stop-color="rgb(99.365234%, 40.036011%, 77.073669%)" offset="0.933594"/><stop stop-opacity="1" stop-color="rgb(99.684143%, 40.0177%, 76.966858%)" offset="0.9375"/><stop stop-opacity="1" stop-color="rgb(99.841309%, 40.008545%, 76.911926%)" offset="1"/></linearGradient><clipPath id="3c5564a6fa"><rect x="0" width="357" y="0" height="256"/></clipPath><clipPath id="d7e5e324fe"><path d="M 0.347656 0 L 356.652344 0 L 356.652344 256 L 0.347656 256 Z M 0.347656 0 " clip-rule="nonzero"/></clipPath><clipPath id="f3592c3346"><rect x="0" width="357" y="0" height="256"/></clipPath><clipPath id="40a89fa35a"><rect x="0" width="357" y="0" height="256"/></clipPath><mask id="6193b54652"><g filter="url(#f5e1b90a9b)"><g><g clip-path="url(#40a89fa35a)"><g clip-path="url(#d7e5e324fe)"><g><g clip-path="url(#f3592c3346)"><g fill="#000000" fill-opacity="1"><g transform="translate(36.715908, 116.009182)"><g><path d="M 42.921875 -74.953125 L 42.921875 -65.390625 C 42.921875 -64.304688 42.414062 -63.765625 41.40625 -63.765625 L 17.5 -63.765625 L 17.5 -44.65625 L 35.765625 -44.65625 C 36.773438 -44.65625 37.28125 -44.113281 37.28125 -43.03125 L 37.28125 -33.5625 C 37.28125 -32.476562 36.773438 -31.9375 35.765625 -31.9375 L 17.5 -31.9375 L 17.5 -12.625 L 41.40625 -12.625 C 42.414062 -12.625 42.921875 -12.113281 42.921875 -11.09375 L 42.921875 -1.53125 C 42.921875 -0.507812 42.414062 0 41.40625 0 L 6.21875 0 C 5.257812 0 4.78125 -0.507812 4.78125 -1.53125 L 4.78125 -74.953125 C 4.78125 -75.972656 5.257812 -76.484375 6.21875 -76.484375 L 41.40625 -76.484375 C 42.414062 -76.484375 42.921875 -75.972656 42.921875 -74.953125 Z M 42.921875 -74.953125 "/></g></g></g><g fill="#000000" fill-opacity="1"><g transform="translate(86.333988, 116.009182)"><g><path d="M 18.546875 -76.484375 L 29.25 -76.484375 C 33.78125 -76.484375 37.207031 -75.320312 39.53125 -73 C 41.863281 -70.675781 43.03125 -67.25 43.03125 -62.71875 L 43.03125 -52.578125 C 43.03125 -51.566406 42.519531 -51.0625 41.5 -51.0625 L 31.546875 -51.0625 C 30.523438 -51.0625 30.015625 -51.566406 30.015625 -52.578125 L 30.015625 -60.046875 C 30.015625 -62.585938 28.742188 -63.859375 26.203125 -63.859375 L 21.609375 -63.859375 C 19.054688 -63.859375 17.78125 -62.585938 17.78125 -60.046875 L 17.78125 -46.84375 L 40.53125 -39.390625 C 42.195312 -38.691406 43.03125 -37.515625 43.03125 -35.859375 L 43.03125 -13.765625 C 43.03125 -9.304688 41.863281 -5.894531 39.53125 -3.53125 C 37.207031 -1.175781 33.78125 0 29.25 0 L 18.546875 0 C 14.085938 0 10.675781 -1.175781 8.3125 -3.53125 C 5.957031 -5.894531 4.78125 -9.304688 4.78125 -13.765625 L 4.78125 -23.8125 C 4.78125 -24.832031 5.289062 -25.34375 6.3125 -25.34375 L 16.25 -25.34375 C 17.269531 -25.34375 17.78125 -24.832031 17.78125 -23.8125 L 17.78125 -16.4375 C 17.78125 -13.894531 19.054688 -12.625 21.609375 -12.625 L 26.203125 -12.625 C 28.742188 -12.625 30.015625 -13.894531 30.015625 -16.4375 L 30.015625 -29.15625 L 7.359375 -36.625 C 5.640625 -37.195312 4.78125 -38.375 4.78125 -40.15625 L 4.78125 -62.71875 C 4.78125 -67.25 5.957031 -70.675781 8.3125 -73 C 10.675781 -75.320312 14.085938 -76.484375 18.546875 -76.484375 Z M 18.546875 -76.484375 "/></g></g></g><g fill="#000000" fill-opacity="1"><g transform="translate(136.04767, 116.009182)"><g><path d="M 4.390625 -76.484375 L 39.578125 -76.484375 C 40.597656 -76.484375 41.109375 -75.972656 41.109375 -74.953125 L 41.109375 -65.390625 C 41.109375 -64.367188 40.597656 -63.859375 39.578125 -63.859375 L 28.484375 -63.859375 L 28.484375 -1.53125 C 28.484375 -0.507812 27.976562 0 26.96875 0 L 17.015625 0 C 15.992188 0 15.484375 -0.507812 15.484375 -1.53125 L 15.484375 -63.859375 L 4.390625 -63.859375 C 3.378906 -63.859375 2.875 -64.367188 2.875 -65.390625 L 2.875 -74.953125 C 2.875 -75.972656 3.378906 -76.484375 4.390625 -76.484375 Z M 4.390625 -76.484375 "/></g></g></g><g fill="#000000" fill-opacity="1"><g transform="translate(181.937244, 116.009182)"><g><path d="M 50.859375 0 L 40.734375 0 C 39.898438 0 39.390625 -0.445312 39.203125 -1.34375 L 36.515625 -15.296875 L 19.5 -15.296875 L 16.921875 -1.34375 C 16.734375 -0.445312 16.222656 0 15.390625 0 L 5.15625 0 C 4.007812 0 3.597656 -0.539062 3.921875 -1.625 L 19.796875 -75.15625 C 19.984375 -76.039062 20.523438 -76.484375 21.421875 -76.484375 L 34.703125 -76.484375 C 35.597656 -76.484375 36.140625 -76.039062 36.328125 -75.15625 L 52.203125 -1.625 C 52.390625 -0.539062 51.941406 0 50.859375 0 Z M 34.125 -26.390625 L 28.015625 -59.75 L 21.890625 -26.390625 Z M 34.125 -26.390625 "/></g></g></g><g fill="#000000" fill-opacity="1"><g transform="translate(239.872755, 116.009182)"><g><path d="M 4.390625 -76.484375 L 39.578125 -76.484375 C 40.597656 -76.484375 41.109375 -75.972656 41.109375 -74.953125 L 41.109375 -65.390625 C 41.109375 -64.367188 40.597656 -63.859375 39.578125 -63.859375 L 28.484375 -63.859375 L 28.484375 -1.53125 C 28.484375 -0.507812 27.976562 0 26.96875 0 L 17.015625 0 C 15.992188 0 15.484375 -0.507812 15.484375 -1.53125 L 15.484375 -63.859375 L 4.390625 -63.859375 C 3.378906 -63.859375 2.875 -64.367188 2.875 -65.390625 L 2.875 -74.953125 C 2.875 -75.972656 3.378906 -76.484375 4.390625 -76.484375 Z M 4.390625 -76.484375 "/></g></g></g><g fill="#000000" fill-opacity="1"><g transform="translate(285.76234, 116.009182)"><g><path d="M 42.921875 -74.953125 L 42.921875 -65.390625 C 42.921875 -64.304688 42.414062 -63.765625 41.40625 -63.765625 L 17.5 -63.765625 L 17.5 -44.65625 L 35.765625 -44.65625 C 36.773438 -44.65625 37.28125 -44.113281 37.28125 -43.03125 L 37.28125 -33.5625 C 37.28125 -32.476562 36.773438 -31.9375 35.765625 -31.9375 L 17.5 -31.9375 L 17.5 -12.625 L 41.40625 -12.625 C 42.414062 -12.625 42.921875 -12.113281 42.921875 -11.09375 L 42.921875 -1.53125 C 42.921875 -0.507812 42.414062 0 41.40625 0 L 6.21875 0 C 5.257812 0 4.78125 -0.507812 4.78125 -1.53125 L 4.78125 -74.953125 C 4.78125 -75.972656 5.257812 -76.484375 6.21875 -76.484375 L 41.40625 -76.484375 C 42.414062 -76.484375 42.921875 -75.972656 42.921875 -74.953125 Z M 42.921875 -74.953125 "/></g></g></g><g fill="#000000" fill-opacity="1"><g transform="translate(36.715908, 216.31365)"><g><path d="M 18.546875 -76.484375 L 29.25 -76.484375 C 33.78125 -76.484375 37.207031 -75.320312 39.53125 -73 C 41.863281 -70.675781 43.03125 -67.25 43.03125 -62.71875 L 43.03125 -52.578125 C 43.03125 -51.566406 42.519531 -51.0625 41.5 -51.0625 L 31.546875 -51.0625 C 30.523438 -51.0625 30.015625 -51.566406 30.015625 -52.578125 L 30.015625 -60.046875 C 30.015625 -62.585938 28.742188 -63.859375 26.203125 -63.859375 L 21.609375 -63.859375 C 19.054688 -63.859375 17.78125 -62.585938 17.78125 -60.046875 L 17.78125 -46.84375 L 40.53125 -39.390625 C 42.195312 -38.691406 43.03125 -37.515625 43.03125 -35.859375 L 43.03125 -13.765625 C 43.03125 -9.304688 41.863281 -5.894531 39.53125 -3.53125 C 37.207031 -1.175781 33.78125 0 29.25 0 L 18.546875 0 C 14.085938 0 10.675781 -1.175781 8.3125 -3.53125 C 5.957031 -5.894531 4.78125 -9.304688 4.78125 -13.765625 L 4.78125 -23.8125 C 4.78125 -24.832031 5.289062 -25.34375 6.3125 -25.34375 L 16.25 -25.34375 C 17.269531 -25.34375 17.78125 -24.832031 17.78125 -23.8125 L 17.78125 -16.4375 C 17.78125 -13.894531 19.054688 -12.625 21.609375 -12.625 L 26.203125 -12.625 C 28.742188 -12.625 30.015625 -13.894531 30.015625 -16.4375 L 30.015625 -29.15625 L 7.359375 -36.625 C 5.640625 -37.195312 4.78125 -38.375 4.78125 -40.15625 L 4.78125 -62.71875 C 4.78125 -67.25 5.957031 -70.675781 8.3125 -73 C 10.675781 -75.320312 14.085938 -76.484375 18.546875 -76.484375 Z M 18.546875 -76.484375 "/></g></g></g><g fill="#000000" fill-opacity="1"><g transform="translate(86.429589, 216.31365)"><g><path d="M 4.78125 -1.53125 L 4.78125 -74.953125 C 4.78125 -75.972656 5.289062 -76.484375 6.3125 -76.484375 L 29.25 -76.484375 C 33.78125 -76.484375 37.207031 -75.320312 39.53125 -73 C 41.863281 -70.675781 43.03125 -67.25 43.03125 -62.71875 L 43.03125 -39.390625 C 43.03125 -34.929688 41.863281 -31.519531 39.53125 -29.15625 C 37.207031 -26.800781 33.78125 -25.625 29.25 -25.625 L 17.78125 -25.625 L 17.78125 -1.53125 C 17.78125 -0.507812 17.269531 0 16.25 0 L 6.3125 0 C 5.289062 0 4.78125 -0.507812 4.78125 -1.53125 Z M 17.78125 -38.25 L 26.203125 -38.25 C 28.742188 -38.25 30.015625 -39.519531 30.015625 -42.0625 L 30.015625 -60.046875 C 30.015625 -62.585938 28.742188 -63.859375 26.203125 -63.859375 L 17.78125 -63.859375 Z M 17.78125 -38.25 "/></g></g></g><g fill="#000000" fill-opacity="1"><g transform="translate(136.143271, 216.31365)"><g><path d="M 50.859375 0 L 40.734375 0 C 39.898438 0 39.390625 -0.445312 39.203125 -1.34375 L 36.515625 -15.296875 L 19.5 -15.296875 L 16.921875 -1.34375 C 16.734375 -0.445312 16.222656 0 15.390625 0 L 5.15625 0 C 4.007812 0 3.597656 -0.539062 3.921875 -1.625 L 19.796875 -75.15625 C 19.984375 -76.039062 20.523438 -76.484375 21.421875 -76.484375 L 34.703125 -76.484375 C 35.597656 -76.484375 36.140625 -76.039062 36.328125 -75.15625 L 52.203125 -1.625 C 52.390625 -0.539062 51.941406 0 50.859375 0 Z M 34.125 -26.390625 L 28.015625 -59.75 L 21.890625 -26.390625 Z M 34.125 -26.390625 "/></g></g></g><g fill="#000000" fill-opacity="1"><g transform="translate(194.078783, 216.31365)"><g><path d="M 43.125 -62.71875 L 43.125 -52.390625 C 43.125 -51.367188 42.613281 -50.859375 41.59375 -50.859375 L 32.03125 -50.859375 C 31.007812 -50.859375 30.5 -51.367188 30.5 -52.390625 L 30.5 -60.046875 C 30.5 -62.585938 29.222656 -63.859375 26.671875 -63.859375 L 21.703125 -63.859375 C 19.148438 -63.859375 17.875 -62.585938 17.875 -60.046875 L 17.875 -16.4375 C 17.875 -13.894531 19.148438 -12.625 21.703125 -12.625 L 26.671875 -12.625 C 29.222656 -12.625 30.5 -13.894531 30.5 -16.4375 L 30.5 -24.09375 C 30.5 -25.113281 31.007812 -25.625 32.03125 -25.625 L 41.59375 -25.625 C 42.613281 -25.625 43.125 -25.113281 43.125 -24.09375 L 43.125 -13.765625 C 43.125 -9.304688 41.941406 -5.894531 39.578125 -3.53125 C 37.222656 -1.175781 33.816406 0 29.359375 0 L 18.640625 0 C 14.179688 0 10.753906 -1.175781 8.359375 -3.53125 C 5.972656 -5.894531 4.78125 -9.304688 4.78125 -13.765625 L 4.78125 -62.71875 C 4.78125 -67.25 5.972656 -70.675781 8.359375 -73 C 10.753906 -75.320312 14.179688 -76.484375 18.640625 -76.484375 L 29.359375 -76.484375 C 33.816406 -76.484375 37.222656 -75.320312 39.578125 -73 C 41.941406 -70.675781 43.125 -67.25 43.125 -62.71875 Z M 43.125 -62.71875 "/></g></g></g><g fill="#000000" fill-opacity="1"><g transform="translate(243.888053, 216.31365)"><g><path d="M 42.921875 -74.953125 L 42.921875 -65.390625 C 42.921875 -64.304688 42.414062 -63.765625 41.40625 -63.765625 L 17.5 -63.765625 L 17.5 -44.65625 L 35.765625 -44.65625 C 36.773438 -44.65625 37.28125 -44.113281 37.28125 -43.03125 L 37.28125 -33.5625 C 37.28125 -32.476562 36.773438 -31.9375 35.765625 -31.9375 L 17.5 -31.9375 L 17.5 -12.625 L 41.40625 -12.625 C 42.414062 -12.625 42.921875 -12.113281 42.921875 -11.09375 L 42.921875 -1.53125 C 42.921875 -0.507812 42.414062 0 41.40625 0 L 6.21875 0 C 5.257812 0 4.78125 -0.507812 4.78125 -1.53125 L 4.78125 -74.953125 C 4.78125 -75.972656 5.257812 -76.484375 6.21875 -76.484375 L 41.40625 -76.484375 C 42.414062 -76.484375 42.921875 -75.972656 42.921875 -74.953125 Z M 42.921875 -74.953125 "/></g></g></g></g></g></g></g></g></g></mask><clipPath id="7a1207a828"><path d="M 0.347656 0 L 356.652344 0 L 356.652344 256 L 0.347656 256 Z M 0.347656 0 " clip-rule="nonzero"/></clipPath><clipPath id="1cffc8b57d"><rect x="0" width="357" y="0" height="256"/></clipPath><clipPath id="ce3bd7048f"><rect x="0" width="357" y="0" height="256"/></clipPath><clipPath id="61ac1c9374"><path d="M 0.546875 5 L 2 5 L 2 7 L 0.546875 7 Z M 0.546875 5 " clip-rule="nonzero"/></clipPath><clipPath id="65f07e1531"><rect x="0" width="3" y="0" height="9"/></clipPath></defs><g fill="#ffffff" fill-opacity="1"><g transform="translate(153.475541, 198.943958)"><g><path d="M 1.484375 -1.03125 C 1.484375 -1.46875 1.582031 -1.796875 1.78125 -2.015625 C 1.976562 -2.242188 2.257812 -2.359375 2.625 -2.359375 C 3.007812 -2.359375 3.304688 -2.242188 3.515625 -2.015625 C 3.722656 -1.796875 3.828125 -1.46875 3.828125 -1.03125 C 3.828125 -0.613281 3.71875 -0.289062 3.5 -0.0625 C 3.289062 0.164062 3 0.28125 2.625 0.28125 C 2.300781 0.28125 2.03125 0.179688 1.8125 -0.015625 C 1.59375 -0.222656 1.484375 -0.5625 1.484375 -1.03125 Z M 1.484375 -1.03125 "/></g></g></g><g clip-path="url(#5a7855662c)"><g><g clip-path="url(#ce3bd7048f)"><g clip-path="url(#417dbcdc4e)"><g mask="url(#6193b54652)"><g><g clip-path="url(#1cffc8b57d)"><g clip-path="url(#7a1207a828)"><path fill="url(#0e593c6990)" d="M 0.347656 0 L 0.347656 256 L 356.652344 256 L 356.652344 0 Z M 0.347656 0 " fill-rule="nonzero"/></g></g></g></g></g></g></g></g><g transform="matrix(1, 0, 0, 1, 184, 221)"><g clip-path="url(#65f07e1531)"><g clip-path="url(#61ac1c9374)"><g fill="#ffffff" fill-opacity="1"><g transform="translate(0.574226, 6.750618)"><g><path d="M 0.34375 -0.140625 L 0.34375 -0.78125 C 0.34375 -0.875 0.390625 -0.921875 0.484375 -0.921875 L 1.125 -0.921875 C 1.21875 -0.921875 1.265625 -0.875 1.265625 -0.78125 L 1.265625 -0.140625 C 1.265625 -0.046875 1.21875 0 1.125 0 L 0.484375 0 C 0.390625 0 0.34375 -0.046875 0.34375 -0.140625 Z M 0.34375 -0.140625 "/></g></g></g></g></g></g></svg>