<svg xmlns="http://www.w3.org/2000/svg" xmlns:xlink="http://www.w3.org/1999/xlink" width="512" zoomAndPan="magnify" viewBox="0 0 384 167.999997" height="224" preserveAspectRatio="xMidYMid meet" version="1.0"><defs><g/><clipPath id="c66f1237e9"><path d="M 106 22 L 128 22 L 128 74 L 106 74 Z M 106 22 " clip-rule="nonzero"/></clipPath><clipPath id="e8ab1054a5"><path d="M 74.589844 23.140625 C 77.15625 20.226562 78.910156 20.589844 85.226562 20.554688 C 89.097656 11.441406 92.207031 11.988281 101.765625 13.214844 C 107.121094 6.691406 108.285156 5.988281 121.273438 9.882812 C 122.566406 8.636719 130.234375 -3.726562 139.0625 1.226562 C 140.65625 2.113281 153.730469 21.527344 151.890625 24.058594 C 146.921875 30.921875 138.207031 22.382812 134.414062 20.128906 C 134.1875 19.992188 133.984375 19.886719 133.792969 19.800781 C 133.160156 19.511719 132.230469 18.273438 128 23.769531 C 123.027344 30.238281 125.113281 41.378906 127.914062 59.695312 C 129.078125 67.304688 125.859375 68.746094 125.785156 68.714844 C 125.046875 68.46875 124.363281 68.191406 123.734375 67.890625 C 124.289062 69.609375 124.960938 78.300781 136.957031 82.492188 C 146.289062 85.75 149.914062 85.277344 154.679688 90.753906 C 155.011719 91.183594 164.101562 101.511719 156.445312 110.628906 C 152.875 106.894531 151.675781 106.070312 146.160156 102.484375 C 139.640625 98.078125 132.59375 94.320312 114.890625 99.207031 C 91.105469 105.773438 77.132812 123.167969 74.953125 124.515625 C 72.152344 126.253906 72.078125 124.257812 53.476562 109.507812 C 51.476562 107.929688 34.96875 96.921875 37.40625 92.601562 C 49.402344 71.402344 48.34375 52.746094 74.589844 23.140625 Z M 74.589844 23.140625 " clip-rule="evenodd"/></clipPath><clipPath id="e435ce4879"><path d="M 91 29 L 118 29 L 118 77 L 91 77 Z M 91 29 " clip-rule="nonzero"/></clipPath><clipPath id="df282eeb4e"><path d="M 74.589844 23.140625 C 77.15625 20.226562 78.910156 20.589844 85.226562 20.554688 C 89.097656 11.441406 92.207031 11.988281 101.765625 13.214844 C 107.121094 6.691406 108.285156 5.988281 121.273438 9.882812 C 122.566406 8.636719 130.234375 -3.726562 139.0625 1.226562 C 140.65625 2.113281 153.730469 21.527344 151.890625 24.058594 C 146.921875 30.921875 138.207031 22.382812 134.414062 20.128906 C 134.1875 19.992188 133.984375 19.886719 133.792969 19.800781 C 133.160156 19.511719 132.230469 18.273438 128 23.769531 C 123.027344 30.238281 125.113281 41.378906 127.914062 59.695312 C 129.078125 67.304688 125.859375 68.746094 125.785156 68.714844 C 125.046875 68.46875 124.363281 68.191406 123.734375 67.890625 C 124.289062 69.609375 124.960938 78.300781 136.957031 82.492188 C 146.289062 85.75 149.914062 85.277344 154.679688 90.753906 C 155.011719 91.183594 164.101562 101.511719 156.445312 110.628906 C 152.875 106.894531 151.675781 106.070312 146.160156 102.484375 C 139.640625 98.078125 132.59375 94.320312 114.890625 99.207031 C 91.105469 105.773438 77.132812 123.167969 74.953125 124.515625 C 72.152344 126.253906 72.078125 124.257812 53.476562 109.507812 C 51.476562 107.929688 34.96875 96.921875 37.40625 92.601562 C 49.402344 71.402344 48.34375 52.746094 74.589844 23.140625 Z M 74.589844 23.140625 " clip-rule="evenodd"/></clipPath><clipPath id="2c788a8a39"><path d="M 77 34 L 98 34 L 98 74 L 77 74 Z M 77 34 " clip-rule="nonzero"/></clipPath><clipPath id="72a28d4e61"><path d="M 74.589844 23.140625 C 77.15625 20.226562 78.910156 20.589844 85.226562 20.554688 C 89.097656 11.441406 92.207031 11.988281 101.765625 13.214844 C 107.121094 6.691406 108.285156 5.988281 121.273438 9.882812 C 122.566406 8.636719 130.234375 -3.726562 139.0625 1.226562 C 140.65625 2.113281 153.730469 21.527344 151.890625 24.058594 C 146.921875 30.921875 138.207031 22.382812 134.414062 20.128906 C 134.1875 19.992188 133.984375 19.886719 133.792969 19.800781 C 133.160156 19.511719 132.230469 18.273438 128 23.769531 C 123.027344 30.238281 125.113281 41.378906 127.914062 59.695312 C 129.078125 67.304688 125.859375 68.746094 125.785156 68.714844 C 125.046875 68.46875 124.363281 68.191406 123.734375 67.890625 C 124.289062 69.609375 124.960938 78.300781 136.957031 82.492188 C 146.289062 85.75 149.914062 85.277344 154.679688 90.753906 C 155.011719 91.183594 164.101562 101.511719 156.445312 110.628906 C 152.875 106.894531 151.675781 106.070312 146.160156 102.484375 C 139.640625 98.078125 132.59375 94.320312 114.890625 99.207031 C 91.105469 105.773438 77.132812 123.167969 74.953125 124.515625 C 72.152344 126.253906 72.078125 124.257812 53.476562 109.507812 C 51.476562 107.929688 34.96875 96.921875 37.40625 92.601562 C 49.402344 71.402344 48.34375 52.746094 74.589844 23.140625 Z M 74.589844 23.140625 " clip-rule="evenodd"/></clipPath><clipPath id="02c3b4dbac"><path d="M 122 8 L 130 8 L 130 37 L 122 37 Z M 122 8 " clip-rule="nonzero"/></clipPath><clipPath id="f4541040ac"><path d="M 74.589844 23.140625 C 77.15625 20.226562 78.910156 20.589844 85.226562 20.554688 C 89.097656 11.441406 92.207031 11.988281 101.765625 13.214844 C 107.121094 6.691406 108.285156 5.988281 121.273438 9.882812 C 122.566406 8.636719 130.234375 -3.726562 139.0625 1.226562 C 140.65625 2.113281 153.730469 21.527344 151.890625 24.058594 C 146.921875 30.921875 138.207031 22.382812 134.414062 20.128906 C 134.1875 19.992188 133.984375 19.886719 133.792969 19.800781 C 133.160156 19.511719 132.230469 18.273438 128 23.769531 C 123.027344 30.238281 125.113281 41.378906 127.914062 59.695312 C 129.078125 67.304688 125.859375 68.746094 125.785156 68.714844 C 125.046875 68.46875 124.363281 68.191406 123.734375 67.890625 C 124.289062 69.609375 124.960938 78.300781 136.957031 82.492188 C 146.289062 85.75 149.914062 85.277344 154.679688 90.753906 C 155.011719 91.183594 164.101562 101.511719 156.445312 110.628906 C 152.875 106.894531 151.675781 106.070312 146.160156 102.484375 C 139.640625 98.078125 132.59375 94.320312 114.890625 99.207031 C 91.105469 105.773438 77.132812 123.167969 74.953125 124.515625 C 72.152344 126.253906 72.078125 124.257812 53.476562 109.507812 C 51.476562 107.929688 34.96875 96.921875 37.40625 92.601562 C 49.402344 71.402344 48.34375 52.746094 74.589844 23.140625 Z M 74.589844 23.140625 " clip-rule="evenodd"/></clipPath><clipPath id="0aefb22666"><path d="M 122 8 L 138 8 L 138 28 L 122 28 Z M 122 8 " clip-rule="nonzero"/></clipPath><clipPath id="26cc44a385"><path d="M 74.589844 23.140625 C 77.15625 20.226562 78.910156 20.589844 85.226562 20.554688 C 89.097656 11.441406 92.207031 11.988281 101.765625 13.214844 C 107.121094 6.691406 108.285156 5.988281 121.273438 9.882812 C 122.566406 8.636719 130.234375 -3.726562 139.0625 1.226562 C 140.65625 2.113281 153.730469 21.527344 151.890625 24.058594 C 146.921875 30.921875 138.207031 22.382812 134.414062 20.128906 C 134.1875 19.992188 133.984375 19.886719 133.792969 19.800781 C 133.160156 19.511719 132.230469 18.273438 128 23.769531 C 123.027344 30.238281 125.113281 41.378906 127.914062 59.695312 C 129.078125 67.304688 125.859375 68.746094 125.785156 68.714844 C 125.046875 68.46875 124.363281 68.191406 123.734375 67.890625 C 124.289062 69.609375 124.960938 78.300781 136.957031 82.492188 C 146.289062 85.75 149.914062 85.277344 154.679688 90.753906 C 155.011719 91.183594 164.101562 101.511719 156.445312 110.628906 C 152.875 106.894531 151.675781 106.070312 146.160156 102.484375 C 139.640625 98.078125 132.59375 94.320312 114.890625 99.207031 C 91.105469 105.773438 77.132812 123.167969 74.953125 124.515625 C 72.152344 126.253906 72.078125 124.257812 53.476562 109.507812 C 51.476562 107.929688 34.96875 96.921875 37.40625 92.601562 C 49.402344 71.402344 48.34375 52.746094 74.589844 23.140625 Z M 74.589844 23.140625 " clip-rule="evenodd"/></clipPath><clipPath id="031c80bb35"><path d="M 124 12 L 133 12 L 133 28 L 124 28 Z M 124 12 " clip-rule="nonzero"/></clipPath><clipPath id="e4265894b0"><path d="M 74.589844 23.140625 C 77.15625 20.226562 78.910156 20.589844 85.226562 20.554688 C 89.097656 11.441406 92.207031 11.988281 101.765625 13.214844 C 107.121094 6.691406 108.285156 5.988281 121.273438 9.882812 C 122.566406 8.636719 130.234375 -3.726562 139.0625 1.226562 C 140.65625 2.113281 153.730469 21.527344 151.890625 24.058594 C 146.921875 30.921875 138.207031 22.382812 134.414062 20.128906 C 134.1875 19.992188 133.984375 19.886719 133.792969 19.800781 C 133.160156 19.511719 132.230469 18.273438 128 23.769531 C 123.027344 30.238281 125.113281 41.378906 127.914062 59.695312 C 129.078125 67.304688 125.859375 68.746094 125.785156 68.714844 C 125.046875 68.46875 124.363281 68.191406 123.734375 67.890625 C 124.289062 69.609375 124.960938 78.300781 136.957031 82.492188 C 146.289062 85.75 149.914062 85.277344 154.679688 90.753906 C 155.011719 91.183594 164.101562 101.511719 156.445312 110.628906 C 152.875 106.894531 151.675781 106.070312 146.160156 102.484375 C 139.640625 98.078125 132.59375 94.320312 114.890625 99.207031 C 91.105469 105.773438 77.132812 123.167969 74.953125 124.515625 C 72.152344 126.253906 72.078125 124.257812 53.476562 109.507812 C 51.476562 107.929688 34.96875 96.921875 37.40625 92.601562 C 49.402344 71.402344 48.34375 52.746094 74.589844 23.140625 Z M 74.589844 23.140625 " clip-rule="evenodd"/></clipPath><clipPath id="1fa78212b4"><path d="M 265 22 L 288 22 L 288 74 L 265 74 Z M 265 22 " clip-rule="nonzero"/></clipPath><clipPath id="a4e7d15c14"><path d="M 318.824219 23.140625 C 316.257812 20.226562 314.503906 20.589844 308.1875 20.554688 C 304.316406 11.441406 301.203125 11.988281 291.648438 13.214844 C 286.292969 6.691406 285.125 5.988281 272.136719 9.882812 C 270.84375 8.636719 263.179688 -3.726562 254.347656 1.226562 C 252.753906 2.113281 239.679688 21.527344 241.519531 24.058594 C 246.492188 30.921875 255.203125 22.382812 259 20.128906 C 259.222656 19.992188 259.425781 19.886719 259.617188 19.800781 C 260.25 19.511719 261.179688 18.273438 265.414062 23.769531 C 270.382812 30.238281 268.300781 41.378906 265.5 59.695312 C 264.332031 67.304688 267.550781 68.746094 267.625 68.714844 C 268.363281 68.46875 269.046875 68.191406 269.679688 67.890625 C 269.121094 69.609375 268.449219 78.300781 256.453125 82.492188 C 247.121094 85.75 243.496094 85.277344 238.730469 90.753906 C 238.398438 91.183594 229.3125 101.511719 236.964844 110.628906 C 240.535156 106.894531 241.734375 106.070312 247.25 102.484375 C 253.769531 98.078125 260.816406 94.320312 278.519531 99.207031 C 302.304688 105.773438 316.277344 123.167969 318.457031 124.515625 C 321.261719 126.253906 321.335938 124.257812 339.9375 109.507812 C 341.933594 107.929688 358.441406 96.921875 356.003906 92.601562 C 344.007812 71.402344 345.066406 52.746094 318.824219 23.140625 Z M 318.824219 23.140625 " clip-rule="evenodd"/></clipPath><clipPath id="0271a0afdb"><path d="M 275 29 L 303 29 L 303 77 L 275 77 Z M 275 29 " clip-rule="nonzero"/></clipPath><clipPath id="eb870237b9"><path d="M 318.824219 23.140625 C 316.257812 20.226562 314.503906 20.589844 308.1875 20.554688 C 304.316406 11.441406 301.203125 11.988281 291.648438 13.214844 C 286.292969 6.691406 285.125 5.988281 272.136719 9.882812 C 270.84375 8.636719 263.179688 -3.726562 254.347656 1.226562 C 252.753906 2.113281 239.679688 21.527344 241.519531 24.058594 C 246.492188 30.921875 255.203125 22.382812 259 20.128906 C 259.222656 19.992188 259.425781 19.886719 259.617188 19.800781 C 260.25 19.511719 261.179688 18.273438 265.414062 23.769531 C 270.382812 30.238281 268.300781 41.378906 265.5 59.695312 C 264.332031 67.304688 267.550781 68.746094 267.625 68.714844 C 268.363281 68.46875 269.046875 68.191406 269.679688 67.890625 C 269.121094 69.609375 268.449219 78.300781 256.453125 82.492188 C 247.121094 85.75 243.496094 85.277344 238.730469 90.753906 C 238.398438 91.183594 229.3125 101.511719 236.964844 110.628906 C 240.535156 106.894531 241.734375 106.070312 247.25 102.484375 C 253.769531 98.078125 260.816406 94.320312 278.519531 99.207031 C 302.304688 105.773438 316.277344 123.167969 318.457031 124.515625 C 321.261719 126.253906 321.335938 124.257812 339.9375 109.507812 C 341.933594 107.929688 358.441406 96.921875 356.003906 92.601562 C 344.007812 71.402344 345.066406 52.746094 318.824219 23.140625 Z M 318.824219 23.140625 " clip-rule="evenodd"/></clipPath><clipPath id="f25d1f4bd9"><path d="M 295 34 L 316 34 L 316 74 L 295 74 Z M 295 34 " clip-rule="nonzero"/></clipPath><clipPath id="1eae585625"><path d="M 318.824219 23.140625 C 316.257812 20.226562 314.503906 20.589844 308.1875 20.554688 C 304.316406 11.441406 301.203125 11.988281 291.648438 13.214844 C 286.292969 6.691406 285.125 5.988281 272.136719 9.882812 C 270.84375 8.636719 263.179688 -3.726562 254.347656 1.226562 C 252.753906 2.113281 239.679688 21.527344 241.519531 24.058594 C 246.492188 30.921875 255.203125 22.382812 259 20.128906 C 259.222656 19.992188 259.425781 19.886719 259.617188 19.800781 C 260.25 19.511719 261.179688 18.273438 265.414062 23.769531 C 270.382812 30.238281 268.300781 41.378906 265.5 59.695312 C 264.332031 67.304688 267.550781 68.746094 267.625 68.714844 C 268.363281 68.46875 269.046875 68.191406 269.679688 67.890625 C 269.121094 69.609375 268.449219 78.300781 256.453125 82.492188 C 247.121094 85.75 243.496094 85.277344 238.730469 90.753906 C 238.398438 91.183594 229.3125 101.511719 236.964844 110.628906 C 240.535156 106.894531 241.734375 106.070312 247.25 102.484375 C 253.769531 98.078125 260.816406 94.320312 278.519531 99.207031 C 302.304688 105.773438 316.277344 123.167969 318.457031 124.515625 C 321.261719 126.253906 321.335938 124.257812 339.9375 109.507812 C 341.933594 107.929688 358.441406 96.921875 356.003906 92.601562 C 344.007812 71.402344 345.066406 52.746094 318.824219 23.140625 Z M 318.824219 23.140625 " clip-rule="evenodd"/></clipPath><clipPath id="cf3b834a91"><path d="M 263 8 L 272 8 L 272 37 L 263 37 Z M 263 8 " clip-rule="nonzero"/></clipPath><clipPath id="830e920733"><path d="M 318.824219 23.140625 C 316.257812 20.226562 314.503906 20.589844 308.1875 20.554688 C 304.316406 11.441406 301.203125 11.988281 291.648438 13.214844 C 286.292969 6.691406 285.125 5.988281 272.136719 9.882812 C 270.84375 8.636719 263.179688 -3.726562 254.347656 1.226562 C 252.753906 2.113281 239.679688 21.527344 241.519531 24.058594 C 246.492188 30.921875 255.203125 22.382812 259 20.128906 C 259.222656 19.992188 259.425781 19.886719 259.617188 19.800781 C 260.25 19.511719 261.179688 18.273438 265.414062 23.769531 C 270.382812 30.238281 268.300781 41.378906 265.5 59.695312 C 264.332031 67.304688 267.550781 68.746094 267.625 68.714844 C 268.363281 68.46875 269.046875 68.191406 269.679688 67.890625 C 269.121094 69.609375 268.449219 78.300781 256.453125 82.492188 C 247.121094 85.75 243.496094 85.277344 238.730469 90.753906 C 238.398438 91.183594 229.3125 101.511719 236.964844 110.628906 C 240.535156 106.894531 241.734375 106.070312 247.25 102.484375 C 253.769531 98.078125 260.816406 94.320312 278.519531 99.207031 C 302.304688 105.773438 316.277344 123.167969 318.457031 124.515625 C 321.261719 126.253906 321.335938 124.257812 339.9375 109.507812 C 341.933594 107.929688 358.441406 96.921875 356.003906 92.601562 C 344.007812 71.402344 345.066406 52.746094 318.824219 23.140625 Z M 318.824219 23.140625 " clip-rule="evenodd"/></clipPath><clipPath id="9c8fec4f79"><path d="M 256 8 L 271 8 L 271 28 L 256 28 Z M 256 8 " clip-rule="nonzero"/></clipPath><clipPath id="a8fc7b3e46"><path d="M 318.824219 23.140625 C 316.257812 20.226562 314.503906 20.589844 308.1875 20.554688 C 304.316406 11.441406 301.203125 11.988281 291.648438 13.214844 C 286.292969 6.691406 285.125 5.988281 272.136719 9.882812 C 270.84375 8.636719 263.179688 -3.726562 254.347656 1.226562 C 252.753906 2.113281 239.679688 21.527344 241.519531 24.058594 C 246.492188 30.921875 255.203125 22.382812 259 20.128906 C 259.222656 19.992188 259.425781 19.886719 259.617188 19.800781 C 260.25 19.511719 261.179688 18.273438 265.414062 23.769531 C 270.382812 30.238281 268.300781 41.378906 265.5 59.695312 C 264.332031 67.304688 267.550781 68.746094 267.625 68.714844 C 268.363281 68.46875 269.046875 68.191406 269.679688 67.890625 C 269.121094 69.609375 268.449219 78.300781 256.453125 82.492188 C 247.121094 85.75 243.496094 85.277344 238.730469 90.753906 C 238.398438 91.183594 229.3125 101.511719 236.964844 110.628906 C 240.535156 106.894531 241.734375 106.070312 247.25 102.484375 C 253.769531 98.078125 260.816406 94.320312 278.519531 99.207031 C 302.304688 105.773438 316.277344 123.167969 318.457031 124.515625 C 321.261719 126.253906 321.335938 124.257812 339.9375 109.507812 C 341.933594 107.929688 358.441406 96.921875 356.003906 92.601562 C 344.007812 71.402344 345.066406 52.746094 318.824219 23.140625 Z M 318.824219 23.140625 " clip-rule="evenodd"/></clipPath><clipPath id="4ddc5c600f"><path d="M 261 12 L 269 12 L 269 28 L 261 28 Z M 261 12 " clip-rule="nonzero"/></clipPath><clipPath id="60de745a8a"><path d="M 318.824219 23.140625 C 316.257812 20.226562 314.503906 20.589844 308.1875 20.554688 C 304.316406 11.441406 301.203125 11.988281 291.648438 13.214844 C 286.292969 6.691406 285.125 5.988281 272.136719 9.882812 C 270.84375 8.636719 263.179688 -3.726562 254.347656 1.226562 C 252.753906 2.113281 239.679688 21.527344 241.519531 24.058594 C 246.492188 30.921875 255.203125 22.382812 259 20.128906 C 259.222656 19.992188 259.425781 19.886719 259.617188 19.800781 C 260.25 19.511719 261.179688 18.273438 265.414062 23.769531 C 270.382812 30.238281 268.300781 41.378906 265.5 59.695312 C 264.332031 67.304688 267.550781 68.746094 267.625 68.714844 C 268.363281 68.46875 269.046875 68.191406 269.679688 67.890625 C 269.121094 69.609375 268.449219 78.300781 256.453125 82.492188 C 247.121094 85.75 243.496094 85.277344 238.730469 90.753906 C 238.398438 91.183594 229.3125 101.511719 236.964844 110.628906 C 240.535156 106.894531 241.734375 106.070312 247.25 102.484375 C 253.769531 98.078125 260.816406 94.320312 278.519531 99.207031 C 302.304688 105.773438 316.277344 123.167969 318.457031 124.515625 C 321.261719 126.253906 321.335938 124.257812 339.9375 109.507812 C 341.933594 107.929688 358.441406 96.921875 356.003906 92.601562 C 344.007812 71.402344 345.066406 52.746094 318.824219 23.140625 Z M 318.824219 23.140625 " clip-rule="evenodd"/></clipPath><clipPath id="13e35f4ac8"><path d="M 0 79 L 89 79 L 89 167.25 L 0 167.25 Z M 0 79 " clip-rule="nonzero"/></clipPath></defs><g fill="#000000" fill-opacity="1"><g transform="translate(213.951905, 57.115474)"><g><path d="M 1.484375 -1.03125 C 1.484375 -1.46875 1.582031 -1.796875 1.78125 -2.015625 C 1.976562 -2.242188 2.265625 -2.359375 2.640625 -2.359375 C 3.015625 -2.359375 3.304688 -2.242188 3.515625 -2.015625 C 3.734375 -1.796875 3.84375 -1.46875 3.84375 -1.03125 C 3.84375 -0.613281 3.734375 -0.289062 3.515625 -0.0625 C 3.296875 0.164062 3.003906 0.28125 2.640625 0.28125 C 2.304688 0.28125 2.03125 0.179688 1.8125 -0.015625 C 1.59375 -0.222656 1.484375 -0.5625 1.484375 -1.03125 Z M 1.484375 -1.03125 "/></g></g></g><path fill="#525252" d="M 244.003906 90.304688 L 142.378906 88.683594 C 131.792969 88.515625 123.347656 79.804688 123.515625 69.234375 L 124.128906 30.964844 C 124.296875 20.390625 133.015625 11.957031 143.601562 12.125 L 245.226562 13.746094 C 255.8125 13.914062 264.257812 22.621094 264.089844 33.195312 L 263.476562 71.464844 C 263.308594 82.039062 254.589844 90.472656 244.003906 90.304688 Z M 244.003906 90.304688 " fill-opacity="1" fill-rule="evenodd"/><path stroke-linecap="round" transform="matrix(-0.00237492, 0.148532, -0.133287, -0.0021243, 8236.437593, -6956.531826)" fill-opacity="1" fill="#808080" fill-rule="evenodd" stroke-linejoin="round" d="M 48061.390824 59045.892499 L 48061.41133 59255.115031 C 48061.398671 59267.101832 48052.701036 59276.810899 48041.891931 59276.798348 L 48003.101019 59276.815465 C 47992.291913 59276.802914 47983.606089 59267.110516 47983.592035 59255.094883 L 47983.598241 59045.901183 C 47983.610481 59033.885082 47992.308535 59024.205314 48003.090929 59024.189034 L 48041.908552 59024.200748 C 48052.691365 59024.213768 48061.403483 59033.905697 48061.390824 59045.892499 Z M 48061.390824 59045.892499 " stroke="#808080" stroke-width="0.76" stroke-opacity="1" stroke-miterlimit="1.5"/><path fill="#ffffff" d="M 230.304688 52.9375 C 229.988281 52.933594 229.6875 52.863281 229.402344 52.726562 C 229.113281 52.59375 228.859375 52.40625 228.640625 52.160156 C 228.421875 51.914062 228.253906 51.636719 228.140625 51.320312 C 228.023438 51.003906 227.96875 50.675781 227.972656 50.335938 C 227.980469 49.996094 228.042969 49.667969 228.171875 49.355469 C 228.296875 49.042969 228.472656 48.769531 228.699219 48.535156 C 228.925781 48.296875 229.183594 48.113281 229.476562 47.988281 C 229.769531 47.863281 230.070312 47.804688 230.386719 47.808594 C 230.703125 47.8125 231.003906 47.882812 231.292969 48.019531 C 231.582031 48.152344 231.835938 48.34375 232.050781 48.585938 C 232.269531 48.832031 232.4375 49.109375 232.554688 49.425781 C 232.667969 49.742188 232.722656 50.070312 232.71875 50.414062 C 232.710938 50.75 232.648438 51.078125 232.523438 51.390625 C 232.394531 51.703125 232.21875 51.976562 231.992188 52.214844 C 231.769531 52.449219 231.507812 52.632812 231.214844 52.757812 C 230.921875 52.882812 230.621094 52.945312 230.304688 52.9375 Z M 230.304688 52.9375 " fill-opacity="1" fill-rule="nonzero"/><path fill="#ffffff" d="M 249.425781 53.6875 C 249.058594 53.679688 248.703125 53.597656 248.363281 53.441406 C 248.023438 53.285156 247.726562 53.0625 247.46875 52.777344 C 247.210938 52.492188 247.015625 52.164062 246.878906 51.796875 C 246.742188 51.425781 246.679688 51.042969 246.683594 50.644531 C 246.691406 50.246094 246.769531 49.867188 246.914062 49.5 C 247.0625 49.136719 247.269531 48.816406 247.535156 48.539062 C 247.800781 48.261719 248.109375 48.050781 248.453125 47.902344 C 248.796875 47.757812 249.152344 47.6875 249.523438 47.691406 C 249.894531 47.699219 250.25 47.78125 250.585938 47.9375 C 250.925781 48.09375 251.226562 48.316406 251.480469 48.601562 C 251.738281 48.886719 251.9375 49.214844 252.070312 49.582031 C 252.207031 49.953125 252.269531 50.335938 252.265625 50.734375 C 252.257812 51.132812 252.179688 51.511719 252.035156 51.878906 C 251.886719 52.242188 251.679688 52.5625 251.414062 52.839844 C 251.148438 53.117188 250.84375 53.328125 250.5 53.476562 C 250.152344 53.621094 249.796875 53.691406 249.425781 53.6875 Z M 249.425781 53.6875 " fill-opacity="1" fill-rule="nonzero"/><path fill="#ffccb1" d="M 118.089844 48.414062 C 118.164062 44.5625 118.515625 41.136719 119.09375 39.375 C 119.265625 38.851562 119.46875 38.425781 119.671875 38.113281 L 120.066406 37.589844 L 120.460938 37.238281 L 121.027344 36.917969 L 121.753906 36.738281 L 121.765625 36.738281 C 122.054688 31.964844 122.3125 26.585938 120.601562 14.121094 C 120.503906 13.460938 120.738281 12.808594 121.1875 12.347656 C 121.1875 12.125 121.199219 11.933594 121.210938 11.792969 C 121.21875 11.453125 121.253906 11.25 121.261719 11.207031 L 121.476562 10.566406 C 121.765625 10.035156 122.097656 9.636719 122.449219 9.328125 L 123.125 8.871094 L 123.894531 8.570312 C 125.003906 8.273438 126.375 8.527344 127.785156 9.445312 C 131.121094 11.582031 135.289062 17.886719 135.546875 18.207031 C 139.820312 23.578125 146.097656 25.445312 149.144531 26.0625 C 148.929688 25.222656 148.535156 24.109375 147.828125 22.839844 C 145.605469 18.859375 143.542969 16.894531 137.179688 9.285156 C 136.433594 8.378906 136.550781 7.042969 137.449219 6.296875 C 138.355469 5.539062 139.695312 5.667969 140.453125 6.5625 C 147.101562 14.539062 149.230469 16.617188 151.539062 20.78125 C 154.125 25.433594 153.675781 28.230469 153.570312 28.753906 L 153.300781 29.46875 L 152.726562 30.121094 L 152.191406 30.398438 L 151.601562 30.546875 C 151.3125 30.589844 150.78125 30.621094 150.054688 30.589844 C 146.78125 30.410156 138.539062 28.773438 132.222656 20.855469 C 132.019531 20.609375 129.269531 16.320312 126.578125 13.875 C 126.191406 13.511719 125.796875 13.203125 125.421875 12.96875 C 125.421875 13.480469 125.421875 14.132812 125.441406 14.921875 C 125.613281 15.390625 125.785156 15.9375 125.976562 16.671875 C 126.105469 16.894531 126.191406 17.152344 126.234375 17.417969 C 126.289062 17.78125 126.332031 18.132812 126.382812 18.476562 C 126.949219 21.25 127.6875 25.925781 128.863281 34.65625 C 128.917969 35.050781 128.855469 35.433594 128.714844 35.777344 C 129.195312 39.277344 129.792969 43.25 130.949219 50.066406 C 134.027344 68.171875 133.035156 69.835938 132.339844 71.394531 C 131.601562 73.015625 130.082031 73.964844 128.148438 73.847656 C 126.84375 73.773438 125.261719 73.15625 123.742188 71.660156 C 122.472656 70.421875 121.1875 68.5 120.171875 65.738281 C 118.546875 62.855469 116.804688 58.148438 115.972656 50.773438 C 115.84375 49.671875 116.59375 48.671875 117.671875 48.457031 C 117.808594 48.425781 117.949219 48.414062 118.089844 48.414062 Z M 122.75 57.871094 C 122.953125 58.328125 123.15625 58.765625 123.378906 59.203125 C 123.070312 57.324219 122.695312 55.222656 122.363281 52.941406 C 122.429688 54.636719 122.558594 56.3125 122.75 57.871094 Z M 122.75 57.871094 " fill-opacity="1" fill-rule="evenodd"/><path fill="#efb393" d="M 266.289062 33.480469 C 266.460938 36.972656 266.640625 40.847656 267.210938 47.785156 C 267.304688 48.949219 266.429688 49.972656 265.261719 50.066406 C 264.097656 50.164062 263.070312 49.289062 262.976562 48.125 C 261.691406 32.414062 262.410156 32.5 260.65625 16.875 C 260.527344 15.722656 261.339844 14.6875 262.484375 14.527344 C 263.636719 14.378906 264.695312 15.167969 264.867188 16.308594 C 264.984375 17.046875 265.082031 17.707031 265.167969 18.304688 C 265.316406 17.375 265.476562 16.296875 265.660156 15.027344 C 265.832031 13.863281 266.921875 13.0625 268.074219 13.234375 C 269.238281 13.40625 270.042969 14.484375 269.871094 15.636719 C 268.664062 23.824219 268.554688 23.707031 267.53125 31.816406 C 267.445312 32.5625 266.953125 33.195312 266.289062 33.480469 Z M 266.289062 33.480469 " fill-opacity="1" fill-rule="evenodd"/><path fill="#ffccb1" d="M 74.589844 23.140625 C 77.15625 20.226562 78.90625 20.589844 85.226562 20.558594 C 89.097656 11.441406 92.207031 11.988281 101.765625 13.214844 C 107.121094 6.691406 108.285156 5.988281 121.273438 9.882812 C 122.566406 8.636719 130.234375 -3.726562 139.0625 1.226562 C 140.65625 2.113281 153.730469 21.527344 151.890625 24.058594 C 146.921875 30.921875 138.207031 22.382812 134.414062 20.128906 C 134.1875 19.992188 133.984375 19.882812 133.792969 19.800781 C 133.160156 19.511719 132.230469 18.273438 128 23.769531 C 123.027344 30.238281 125.113281 41.378906 127.914062 59.695312 C 129.078125 67.304688 125.859375 68.746094 125.785156 68.714844 C 125.046875 68.46875 124.363281 68.191406 123.734375 67.890625 C 124.289062 69.609375 124.960938 78.300781 136.957031 82.492188 C 146.289062 85.75 149.914062 85.28125 154.679688 90.753906 C 155.011719 91.183594 164.101562 101.511719 156.445312 110.628906 C 152.875 106.894531 151.679688 106.070312 146.160156 102.484375 C 139.640625 98.078125 132.59375 94.320312 114.890625 99.207031 C 91.105469 105.773438 77.132812 123.167969 74.953125 124.515625 C 72.152344 126.253906 72.078125 124.257812 53.476562 109.507812 C 51.476562 107.929688 34.96875 96.921875 37.40625 92.601562 C 49.402344 71.402344 48.34375 52.746094 74.589844 23.140625 Z M 74.589844 23.140625 " fill-opacity="1" fill-rule="evenodd"/><g clip-path="url(#c66f1237e9)"><g clip-path="url(#e8ab1054a5)"><path fill="#efb393" d="M 106.210938 25.402344 C 106.03125 24.25 106.808594 23.160156 107.976562 22.96875 C 109.128906 22.789062 110.21875 23.566406 110.414062 24.730469 C 113.308594 42.542969 115.492188 53.023438 117.992188 59.535156 C 120.257812 65.417969 122.761719 67.753906 126.511719 69.527344 C 127.570312 70.027344 128.03125 71.296875 127.527344 72.355469 C 127.027344 73.410156 125.753906 73.871094 124.695312 73.367188 C 120.042969 71.160156 116.835938 68.351562 114.027344 61.050781 C 111.460938 54.390625 109.183594 43.664062 106.210938 25.402344 Z M 106.210938 25.402344 " fill-opacity="1" fill-rule="evenodd"/></g></g><g clip-path="url(#e435ce4879)"><g clip-path="url(#df282eeb4e)"><path fill="#efb393" d="M 91.277344 31.679688 C 91.042969 30.527344 91.800781 29.40625 92.945312 29.179688 C 94.097656 28.957031 95.222656 29.703125 95.445312 30.847656 C 98.34375 45.46875 100.695312 58.382812 105.035156 65.960938 C 107.492188 70.242188 110.605469 72.652344 115.148438 72.023438 C 116.304688 71.863281 117.382812 72.664062 117.542969 73.828125 C 117.714844 74.988281 116.902344 76.058594 115.738281 76.226562 C 109.363281 77.113281 104.800781 74.074219 101.347656 68.0625 C 96.835938 60.207031 94.292969 46.84375 91.277344 31.679688 Z M 91.277344 31.679688 " fill-opacity="1" fill-rule="evenodd"/></g></g><g clip-path="url(#2c788a8a39)"><g clip-path="url(#72a28d4e61)"><path fill="#efb393" d="M 77.933594 37.539062 C 77.679688 36.394531 78.40625 35.265625 79.550781 35.007812 C 80.691406 34.761719 81.828125 35.476562 82.082031 36.628906 C 84.789062 48.894531 86.550781 56.492188 88.175781 61.265625 C 89.234375 64.382812 90.132812 66.164062 91.351562 67.21875 C 92.496094 68.203125 93.886719 68.46875 95.722656 68.8125 C 96.878906 69.035156 97.636719 70.144531 97.425781 71.285156 C 97.210938 72.441406 96.097656 73.207031 94.945312 72.984375 C 92.21875 72.472656 90.25 71.882812 88.5625 70.421875 C 87.4375 69.441406 86.414062 68.0625 85.449219 65.949219 C 83.386719 61.476562 81.398438 53.261719 77.933594 37.539062 Z M 77.933594 37.539062 " fill-opacity="1" fill-rule="evenodd"/></g></g><g clip-path="url(#02c3b4dbac)"><g clip-path="url(#f4541040ac)"><path fill="#efb393" d="M 122.074219 11.515625 C 121.765625 10.386719 122.4375 9.222656 123.574219 8.914062 C 124.707031 8.613281 125.871094 9.285156 126.179688 10.417969 C 129.226562 21.675781 128.414062 21.785156 129.964844 34.015625 C 130.117188 35.179688 129.28125 36.246094 128.125 36.394531 C 126.960938 36.535156 125.890625 35.710938 125.742188 34.550781 C 124.234375 22.617188 125.046875 22.511719 122.074219 11.515625 Z M 122.074219 11.515625 " fill-opacity="1" fill-rule="evenodd"/></g></g><g clip-path="url(#0aefb22666)"><g clip-path="url(#26cc44a385)"><path fill="#efb393" d="M 123.058594 11.742188 C 122.429688 10.75 122.726562 9.433594 123.710938 8.804688 C 124.707031 8.1875 126.019531 8.476562 126.652344 9.46875 C 131.484375 17.097656 131.441406 17.066406 136.851562 24.324219 C 137.546875 25.265625 137.351562 26.597656 136.410156 27.292969 C 135.472656 27.996094 134.132812 27.792969 133.441406 26.855469 C 127.933594 19.46875 127.976562 19.5 123.058594 11.742188 Z M 123.058594 11.742188 " fill-opacity="1" fill-rule="evenodd"/></g></g><g clip-path="url(#031c80bb35)"><g clip-path="url(#e4265894b0)"><path fill="#efb393" d="M 129.367188 16.832031 C 129.699219 17.078125 129.964844 17.417969 130.117188 17.835938 C 131.152344 20.8125 131.121094 20.792969 132.15625 25.296875 C 132.414062 26.382812 131.773438 27.484375 130.703125 27.804688 C 129.632812 28.125 128.488281 27.570312 128.105469 26.523438 C 125.933594 20.800781 125.882812 20.429688 124.640625 15.457031 C 124.351562 14.324219 125.046875 13.171875 126.179688 12.882812 C 127.324219 12.59375 128.480469 13.289062 128.769531 14.429688 C 129.003906 15.378906 129.195312 16.148438 129.367188 16.832031 Z M 129.367188 16.832031 " fill-opacity="1" fill-rule="evenodd"/></g></g><path fill="#ffccb1" d="M 318.824219 23.140625 C 316.257812 20.226562 314.503906 20.589844 308.1875 20.558594 C 304.316406 11.441406 301.203125 11.988281 291.648438 13.214844 C 286.292969 6.691406 285.125 5.988281 272.136719 9.882812 C 270.84375 8.636719 263.179688 -3.726562 254.347656 1.226562 C 252.757812 2.113281 239.679688 21.527344 241.519531 24.058594 C 246.492188 30.921875 255.203125 22.382812 259 20.128906 C 259.222656 19.992188 259.425781 19.882812 259.617188 19.800781 C 260.25 19.511719 261.179688 18.273438 265.414062 23.769531 C 270.382812 30.238281 268.300781 41.378906 265.5 59.695312 C 264.332031 67.304688 267.550781 68.746094 267.625 68.714844 C 268.363281 68.46875 269.046875 68.191406 269.679688 67.890625 C 269.121094 69.609375 268.449219 78.300781 256.453125 82.492188 C 247.121094 85.75 243.496094 85.28125 238.730469 90.753906 C 238.398438 91.183594 229.3125 101.511719 236.964844 110.628906 C 240.535156 106.894531 241.734375 106.070312 247.25 102.484375 C 253.769531 98.078125 260.816406 94.320312 278.519531 99.207031 C 302.304688 105.773438 316.277344 123.167969 318.457031 124.515625 C 321.261719 126.253906 321.335938 124.257812 339.9375 109.507812 C 341.933594 107.929688 358.441406 96.921875 356.003906 92.601562 C 344.007812 71.402344 345.066406 52.746094 318.824219 23.140625 Z M 318.824219 23.140625 " fill-opacity="1" fill-rule="evenodd"/><g clip-path="url(#1fa78212b4)"><g clip-path="url(#a4e7d15c14)"><path fill="#efb393" d="M 283 24.730469 C 283.191406 23.566406 284.28125 22.789062 285.4375 22.96875 C 286.601562 23.160156 287.382812 24.25 287.199219 25.402344 C 284.226562 43.664062 281.949219 54.390625 279.386719 61.050781 C 276.574219 68.351562 273.367188 71.160156 268.714844 73.367188 C 267.65625 73.871094 266.386719 73.410156 265.882812 72.355469 C 265.382812 71.296875 265.839844 70.027344 266.898438 69.527344 C 270.652344 67.753906 273.152344 65.417969 275.417969 59.535156 C 277.921875 53.023438 280.101562 42.542969 283 24.730469 Z M 283 24.730469 " fill-opacity="1" fill-rule="evenodd"/></g></g><g clip-path="url(#0271a0afdb)"><g clip-path="url(#eb870237b9)"><path fill="#efb393" d="M 297.964844 30.847656 C 298.191406 29.703125 299.3125 28.957031 300.46875 29.179688 C 301.609375 29.40625 302.371094 30.527344 302.132812 31.679688 C 299.121094 46.84375 296.574219 60.207031 292.0625 68.0625 C 288.613281 74.074219 284.046875 77.113281 277.675781 76.226562 C 276.511719 76.058594 275.695312 74.988281 275.867188 73.828125 C 276.027344 72.664062 277.109375 71.863281 278.261719 72.023438 C 282.804688 72.652344 285.917969 70.242188 288.375 65.960938 C 292.714844 58.382812 295.070312 45.46875 297.964844 30.847656 Z M 297.964844 30.847656 " fill-opacity="1" fill-rule="evenodd"/></g></g><g clip-path="url(#f25d1f4bd9)"><g clip-path="url(#1eae585625)"><path fill="#efb393" d="M 311.328125 36.628906 C 311.585938 35.476562 312.71875 34.761719 313.863281 35.007812 C 315.007812 35.265625 315.734375 36.394531 315.476562 37.539062 C 312.011719 53.261719 310.023438 61.476562 307.960938 65.949219 C 307 68.0625 305.972656 69.441406 304.851562 70.421875 C 303.160156 71.882812 301.195312 72.472656 298.46875 72.984375 C 297.3125 73.207031 296.203125 72.441406 295.988281 71.285156 C 295.773438 70.144531 296.53125 69.035156 297.6875 68.8125 C 299.527344 68.46875 300.917969 68.203125 302.058594 67.21875 C 303.277344 66.164062 304.175781 64.382812 305.234375 61.265625 C 306.859375 56.492188 308.625 48.894531 311.328125 36.628906 Z M 311.328125 36.628906 " fill-opacity="1" fill-rule="evenodd"/></g></g><g clip-path="url(#cf3b834a91)"><g clip-path="url(#830e920733)"><path fill="#efb393" d="M 267.230469 10.417969 C 267.539062 9.285156 268.707031 8.613281 269.839844 8.914062 C 270.972656 9.222656 271.644531 10.386719 271.335938 11.515625 C 268.363281 22.511719 269.175781 22.617188 267.667969 34.550781 C 267.519531 35.710938 266.449219 36.535156 265.285156 36.394531 C 264.128906 36.246094 263.296875 35.179688 263.445312 34.015625 C 264.996094 21.785156 264.183594 21.675781 267.230469 10.417969 Z M 267.230469 10.417969 " fill-opacity="1" fill-rule="evenodd"/></g></g><g clip-path="url(#9c8fec4f79)"><g clip-path="url(#a8fc7b3e46)"><path fill="#efb393" d="M 266.761719 9.46875 C 267.390625 8.476562 268.707031 8.1875 269.699219 8.804688 C 270.683594 9.433594 270.984375 10.75 270.351562 11.742188 C 265.433594 19.5 265.476562 19.46875 259.972656 26.855469 C 259.277344 27.792969 257.941406 27.996094 257 27.292969 C 256.058594 26.597656 255.867188 25.265625 256.5625 24.324219 C 261.972656 17.066406 261.929688 17.097656 266.761719 9.46875 Z M 266.761719 9.46875 " fill-opacity="1" fill-rule="evenodd"/></g></g><g clip-path="url(#4ddc5c600f)"><g clip-path="url(#60de745a8a)"><path fill="#efb393" d="M 264.042969 16.832031 C 264.214844 16.148438 264.410156 15.378906 264.644531 14.429688 C 264.933594 13.289062 266.085938 12.59375 267.230469 12.882812 C 268.363281 13.171875 269.058594 14.324219 268.769531 15.457031 C 267.53125 20.429688 267.476562 20.800781 265.304688 26.523438 C 264.921875 27.570312 263.777344 28.125 262.707031 27.804688 C 261.640625 27.484375 260.996094 26.382812 261.253906 25.296875 C 262.292969 20.792969 262.257812 20.8125 263.296875 17.835938 C 263.445312 17.417969 263.714844 17.078125 264.042969 16.832031 Z M 264.042969 16.832031 " fill-opacity="1" fill-rule="evenodd"/></g></g><path fill="#ffccb1" d="M 244.265625 26.0625 C 247.3125 25.445312 253.589844 23.578125 257.867188 18.207031 C 258.121094 17.886719 262.292969 11.582031 265.625 9.445312 C 267.039062 8.527344 268.40625 8.273438 269.519531 8.570312 L 270.289062 8.871094 L 270.960938 9.328125 C 271.3125 9.636719 271.644531 10.035156 271.933594 10.566406 L 272.148438 11.207031 C 272.160156 11.25 272.191406 11.453125 272.203125 11.792969 C 272.210938 11.933594 272.222656 12.125 272.222656 12.347656 C 272.671875 12.808594 272.90625 13.460938 272.8125 14.121094 C 271.101562 26.585938 271.355469 31.964844 271.644531 36.738281 L 271.65625 36.738281 L 272.382812 36.917969 L 272.949219 37.238281 L 273.34375 37.589844 L 273.742188 38.113281 C 273.945312 38.425781 274.148438 38.851562 274.316406 39.375 C 274.894531 41.136719 275.25 44.5625 275.324219 48.414062 C 275.460938 48.414062 275.601562 48.425781 275.742188 48.457031 C 276.820312 48.671875 277.566406 49.671875 277.441406 50.773438 C 276.605469 58.148438 274.863281 62.855469 273.238281 65.738281 C 272.222656 68.5 270.941406 70.421875 269.667969 71.660156 C 268.148438 73.15625 266.566406 73.773438 265.261719 73.847656 C 263.328125 73.964844 261.808594 73.015625 261.074219 71.394531 C 260.378906 69.835938 259.382812 68.171875 262.460938 50.066406 C 263.617188 43.25 264.214844 39.277344 264.695312 35.777344 C 264.558594 35.433594 264.492188 35.050781 264.546875 34.65625 C 265.722656 25.925781 266.460938 21.25 267.027344 18.476562 C 267.082031 18.132812 267.125 17.78125 267.175781 17.417969 C 267.21875 17.152344 267.304688 16.894531 267.433594 16.671875 C 267.625 15.9375 267.796875 15.390625 267.96875 14.921875 C 267.988281 14.132812 267.988281 13.480469 267.988281 12.96875 C 267.617188 13.203125 267.21875 13.511719 266.835938 13.875 C 264.140625 16.320312 261.394531 20.609375 261.191406 20.855469 C 254.871094 28.773438 246.628906 30.410156 243.359375 30.589844 C 242.632812 30.621094 242.097656 30.589844 241.808594 30.546875 L 241.21875 30.398438 L 240.6875 30.121094 L 240.109375 29.46875 L 239.839844 28.753906 C 239.734375 28.230469 239.285156 25.433594 241.871094 20.78125 C 244.183594 16.617188 246.308594 14.539062 252.957031 6.5625 C 253.71875 5.667969 255.054688 5.539062 255.964844 6.296875 C 256.859375 7.042969 256.980469 8.378906 256.230469 9.285156 C 249.871094 16.894531 247.804688 18.859375 245.582031 22.839844 C 244.878906 24.109375 244.480469 25.222656 244.265625 26.0625 Z M 271.046875 52.941406 C 270.714844 55.222656 270.339844 57.324219 270.03125 59.203125 C 270.257812 58.765625 270.457031 58.328125 270.664062 57.871094 C 270.855469 56.3125 270.984375 54.636719 271.046875 52.941406 Z M 271.046875 52.941406 " fill-opacity="1" fill-rule="evenodd"/><path fill="#ca98e3" d="M 14.285156 120.960938 C 36.1875 88.042969 34.210938 74.007812 42.230469 84.832031 C 48.3125 93.027344 48.546875 92.984375 58.167969 96.699219 C 69.117188 100.925781 66.730469 111.140625 71.863281 113.777344 C 81.367188 118.65625 91.394531 118.367188 82.554688 124.269531 C 66.304688 135.132812 65.105469 134.804688 52.523438 161.089844 C 49.5625 167.269531 27.046875 166.84375 9.871094 155.863281 C -4.90625 146.425781 4.214844 136.722656 14.285156 120.960938 Z M 14.285156 120.960938 " fill-opacity="1" fill-rule="evenodd"/><g clip-path="url(#13e35f4ac8)"><path fill="#ca98e3" d="M 8.265625 126.273438 C 8.328125 125.996094 8.4375 125.71875 8.617188 125.464844 C 9.988281 123.53125 11.28125 121.644531 12.488281 119.816406 C 12.507812 119.796875 12.519531 119.773438 12.542969 119.742188 C 25.15625 100.789062 29.816406 88.109375 33.054688 82.867188 C 34.863281 79.933594 36.691406 78.949219 38.402344 79.132812 C 39.171875 79.21875 40.003906 79.546875 40.894531 80.21875 C 41.769531 80.890625 42.773438 81.992188 43.941406 83.570312 C 49.660156 91.277344 49.882812 91.222656 58.9375 94.726562 C 66.273438 97.554688 68.324219 102.730469 69.972656 107.09375 C 70.417969 108.28125 70.824219 109.402344 71.359375 110.328125 C 71.746094 110.992188 72.183594 111.546875 72.835938 111.886719 C 77.582031 114.320312 82.445312 115.464844 85.035156 116.734375 C 86.820312 117.621094 87.757812 118.738281 88.015625 119.851562 L 88.101562 120.660156 L 87.996094 121.449219 C 87.886719 121.867188 87.695312 122.316406 87.386719 122.785156 C 86.796875 123.671875 85.664062 124.75 83.738281 126.03125 C 67.863281 136.640625 66.722656 136.339844 54.4375 162.007812 C 53.335938 164.304688 50.203125 166.160156 45.5625 166.855469 C 36.488281 168.210938 21.242188 165.648438 8.726562 157.644531 C 3.691406 154.429688 1.199219 151.101562 0.34375 147.644531 C -0.511719 144.175781 0.269531 140.480469 2.203125 136.425781 C 3.679688 133.332031 5.828125 129.980469 8.265625 126.273438 Z M 16.082031 122.101562 C 12.101562 128.324219 8.277344 133.574219 6.054688 138.25 C 4.597656 141.292969 3.828125 144.023438 4.46875 146.628906 C 5.121094 149.253906 7.1875 151.625 11.011719 154.070312 C 22.546875 161.441406 36.574219 163.910156 44.933594 162.660156 C 46.546875 162.414062 47.9375 162.042969 49.007812 161.507812 C 49.753906 161.132812 50.332031 160.726562 50.601562 160.171875 C 63.480469 133.265625 64.734375 133.628906 81.378906 122.507812 C 82.285156 121.898438 83.078125 121.171875 83.515625 120.734375 C 83.472656 120.714844 83.429688 120.683594 83.386719 120.660156 C 82.875 120.394531 82.253906 120.128906 81.527344 119.859375 C 78.746094 118.816406 74.78125 117.652344 70.890625 115.664062 C 68.398438 114.386719 67.179688 111.757812 65.984375 108.589844 C 64.691406 105.132812 63.203125 100.925781 57.410156 98.683594 C 47.210938 94.734375 46.964844 94.789062 40.519531 86.089844 C 39.800781 85.128906 39.183594 84.382812 38.625 83.859375 C 38.421875 83.679688 38.132812 83.496094 37.996094 83.402344 C 37.898438 83.484375 37.707031 83.65625 37.566406 83.816406 C 37.28125 84.148438 36.992188 84.574219 36.679688 85.085938 C 33.429688 90.359375 28.726562 103.070312 16.082031 122.101562 Z M 16.082031 122.101562 " fill-opacity="1" fill-rule="evenodd"/></g><path fill="#ca98e3" d="M 305.671875 128.941406 C 304.199219 104.652344 324.242188 117 330.582031 101.671875 C 334.3125 92.664062 331.351562 87.554688 341.015625 88.824219 C 348.746094 89.835938 348.765625 90.0625 349.515625 89.664062 C 351.257812 88.75 362.695312 68.480469 365.871094 88.449219 C 368.566406 105.386719 362.472656 107.777344 381.863281 135.859375 C 380.515625 138.59375 374.636719 150.472656 350.464844 157.484375 C 325.558594 164.710938 319.441406 150.972656 305.671875 128.941406 Z M 305.671875 128.941406 " fill-opacity="1" fill-rule="evenodd"/><path fill="#ca98e3" d="M 348.488281 87.691406 C 349.171875 86.796875 351.578125 83.6875 353.578125 81.617188 C 354.964844 80.1875 356.464844 78.949219 357.917969 78.257812 C 359.1875 77.648438 360.460938 77.421875 361.648438 77.648438 C 362.886719 77.871094 364.105469 78.554688 365.164062 79.964844 C 366.296875 81.46875 367.324219 84.042969 367.976562 88.117188 C 370.617188 104.746094 364.589844 107.09375 383.617188 134.652344 C 384.054688 135.292969 384.121094 136.117188 383.777344 136.800781 C 382.367188 139.660156 376.316406 152.199219 351.054688 159.523438 C 343.109375 161.828125 336.964844 162.0625 331.863281 160.71875 C 325.824219 159.128906 321.175781 155.339844 316.78125 149.800781 C 312.664062 144.613281 308.742188 137.855469 303.867188 130.074219 C 303.683594 129.765625 303.578125 129.421875 303.554688 129.070312 C 303.140625 122.324219 304.347656 118.140625 306.316406 115.367188 C 308.367188 112.476562 311.285156 111.011719 314.523438 109.933594 C 316.738281 109.199219 319.101562 108.644531 321.34375 107.757812 C 324.273438 106.59375 326.988281 104.800781 328.613281 100.863281 C 330.070312 97.363281 330.453125 94.46875 331.03125 92.34375 C 331.640625 90.070312 332.515625 88.492188 334.097656 87.519531 C 335.519531 86.65625 337.691406 86.25 341.292969 86.71875 C 345.410156 87.265625 347.707031 87.574219 348.488281 87.691406 Z M 307.769531 128.28125 C 312.398438 135.722656 316.160156 142.1875 320.117188 147.164062 C 323.878906 151.902344 327.78125 155.253906 332.945312 156.617188 C 337.445312 157.804688 342.863281 157.472656 349.867188 155.445312 C 370.542969 149.457031 377.277344 139.839844 379.394531 136.007812 C 360.515625 108.386719 366.480469 105.824219 363.777344 88.789062 C 363.347656 86.121094 362.800781 84.253906 362.097656 83.027344 C 361.710938 82.355469 361.371094 81.90625 360.890625 81.820312 C 360.375 81.726562 359.851562 81.992188 359.296875 82.324219 C 358.398438 82.867188 357.5 83.679688 356.644531 84.566406 C 354.828125 86.433594 353.222656 88.652344 352.175781 89.945312 C 351.460938 90.828125 350.839844 91.375 350.507812 91.542969 L 349.449219 91.917969 C 349.160156 91.972656 348.796875 91.992188 348.242188 91.949219 C 347.324219 91.875 345.441406 91.542969 340.738281 90.925781 C 338.535156 90.636719 337.1875 90.617188 336.3125 91.148438 C 335.59375 91.585938 335.414062 92.410156 335.136719 93.433594 C 334.527344 95.695312 334.089844 98.769531 332.546875 102.484375 C 329.707031 109.347656 324.488281 111.363281 319.261719 112.921875 C 315.550781 114.03125 311.789062 114.746094 309.617188 118.054688 C 308.21875 120.214844 307.535156 123.394531 307.769531 128.28125 Z M 307.769531 128.28125 " fill-opacity="1" fill-rule="evenodd"/></svg>