<svg xmlns="http://www.w3.org/2000/svg" xmlns:xlink="http://www.w3.org/1999/xlink" width="227" zoomAndPan="magnify" viewBox="0 0 170.25 38.999999" height="52" preserveAspectRatio="xMidYMid meet" version="1.0"><defs><g/></defs><g fill="#000000" fill-opacity="1"><g transform="translate(5.549481, 23.455813)"><g><path d="M 3.59375 2.640625 C 3.3125 2.640625 3.09375 2.539062 2.9375 2.34375 C 2.644531 1.988281 2.609375 1.609375 2.828125 1.203125 C 3.085938 0.753906 3.453125 0.320312 3.921875 -0.09375 C 4.398438 -0.507812 4.851562 -0.847656 5.28125 -1.109375 C 5.4375 -1.191406 5.582031 -1.273438 5.71875 -1.359375 C 5.863281 -1.453125 6.007812 -1.546875 6.15625 -1.640625 C 6.300781 -1.722656 6.445312 -1.8125 6.59375 -1.90625 C 6.738281 -2 6.890625 -2.082031 7.046875 -2.15625 C 7.273438 -2.289062 7.4375 -2.484375 7.53125 -2.734375 C 7.632812 -2.984375 7.703125 -3.238281 7.734375 -3.5 C 7.828125 -4.425781 7.421875 -4.90625 6.515625 -4.9375 C 6.253906 -4.9375 6.003906 -4.910156 5.765625 -4.859375 C 5.597656 -4.828125 5.421875 -4.789062 5.234375 -4.75 C 5.046875 -4.707031 4.867188 -4.671875 4.703125 -4.640625 C 4.515625 -4.609375 4.328125 -4.566406 4.140625 -4.515625 C 3.960938 -4.472656 3.785156 -4.4375 3.609375 -4.40625 C 3.378906 -4.351562 3.140625 -4.300781 2.890625 -4.25 C 2.648438 -4.207031 2.40625 -4.1875 2.15625 -4.1875 C 1.644531 -4.1875 1.210938 -4.3125 0.859375 -4.5625 C 0.503906 -4.8125 0.253906 -5.191406 0.109375 -5.703125 C 0.00390625 -6.097656 -0.0351562 -6.492188 -0.015625 -6.890625 C 0.00390625 -7.296875 0.0703125 -7.703125 0.1875 -8.109375 C 0.382812 -8.972656 0.726562 -9.832031 1.21875 -10.6875 C 1.707031 -11.550781 2.285156 -12.347656 2.953125 -13.078125 C 3.628906 -13.816406 4.335938 -14.429688 5.078125 -14.921875 C 5.535156 -15.234375 6.035156 -15.492188 6.578125 -15.703125 C 7.117188 -15.921875 7.664062 -16.03125 8.21875 -16.03125 C 8.851562 -16.03125 9.414062 -15.867188 9.90625 -15.546875 C 10.394531 -15.234375 10.65625 -14.75 10.6875 -14.09375 C 10.71875 -13.75 10.6875 -13.445312 10.59375 -13.1875 C 10.300781 -12.164062 9.8125 -11.195312 9.125 -10.28125 C 8.914062 -10.039062 8.660156 -9.800781 8.359375 -9.5625 C 8.054688 -9.320312 7.726562 -9.203125 7.375 -9.203125 C 7.289062 -9.203125 7.210938 -9.210938 7.140625 -9.234375 C 7.078125 -9.253906 7.035156 -9.3125 7.015625 -9.40625 C 7.003906 -9.507812 7.050781 -9.609375 7.15625 -9.703125 C 7.1875 -9.734375 7.21875 -9.75 7.25 -9.75 C 7.28125 -9.75 7.304688 -9.757812 7.328125 -9.78125 C 7.660156 -9.84375 7.988281 -10.023438 8.3125 -10.328125 C 8.644531 -10.640625 8.941406 -11.007812 9.203125 -11.4375 C 9.472656 -11.875 9.691406 -12.3125 9.859375 -12.75 C 10.023438 -13.195312 10.109375 -13.582031 10.109375 -13.90625 C 10.109375 -14.457031 9.921875 -14.847656 9.546875 -15.078125 C 9.171875 -15.316406 8.738281 -15.4375 8.25 -15.4375 C 7.8125 -15.4375 7.359375 -15.347656 6.890625 -15.171875 C 6.429688 -15.003906 6.023438 -14.804688 5.671875 -14.578125 C 3.203125 -12.984375 1.554688 -10.757812 0.734375 -7.90625 C 0.660156 -7.59375 0.613281 -7.289062 0.59375 -7 C 0.570312 -6.707031 0.59375 -6.414062 0.65625 -6.125 C 0.800781 -5.21875 1.285156 -4.765625 2.109375 -4.765625 C 2.171875 -4.765625 2.21875 -4.773438 2.25 -4.796875 C 2.257812 -4.796875 2.273438 -4.796875 2.296875 -4.796875 C 2.328125 -4.796875 2.347656 -4.796875 2.359375 -4.796875 C 2.453125 -4.804688 2.546875 -4.820312 2.640625 -4.84375 C 2.734375 -4.875 2.828125 -4.894531 2.921875 -4.90625 C 3.015625 -4.925781 3.109375 -4.941406 3.203125 -4.953125 C 3.296875 -4.972656 3.382812 -4.988281 3.46875 -5 C 3.644531 -5.03125 3.820312 -5.066406 4 -5.109375 C 4.175781 -5.160156 4.347656 -5.203125 4.515625 -5.234375 C 4.679688 -5.265625 4.847656 -5.300781 5.015625 -5.34375 C 5.191406 -5.382812 5.363281 -5.421875 5.53125 -5.453125 C 5.71875 -5.492188 5.90625 -5.515625 6.09375 -5.515625 C 6.28125 -5.523438 6.472656 -5.53125 6.671875 -5.53125 C 7.210938 -5.5 7.632812 -5.316406 7.9375 -4.984375 C 8.238281 -4.660156 8.378906 -4.226562 8.359375 -3.6875 C 8.359375 -3.59375 8.34375 -3.484375 8.3125 -3.359375 C 8.28125 -3.234375 8.289062 -3.117188 8.34375 -3.015625 L 8.4375 -3.015625 C 8.5625 -3.015625 8.660156 -3.046875 8.734375 -3.109375 C 8.765625 -3.140625 8.800781 -3.164062 8.84375 -3.1875 C 8.894531 -3.207031 8.9375 -3.226562 8.96875 -3.25 L 12.046875 -4.859375 C 12.078125 -4.878906 12.113281 -4.894531 12.15625 -4.90625 C 12.207031 -4.925781 12.253906 -4.941406 12.296875 -4.953125 C 12.328125 -4.972656 12.363281 -4.988281 12.40625 -5 C 12.457031 -5.019531 12.5 -5.035156 12.53125 -5.046875 C 12.550781 -5.066406 12.582031 -5.078125 12.625 -5.078125 C 12.707031 -5.078125 12.769531 -5.035156 12.8125 -4.953125 C 12.832031 -4.921875 12.84375 -4.890625 12.84375 -4.859375 C 12.851562 -4.828125 12.859375 -4.796875 12.859375 -4.765625 C 12.859375 -4.691406 12.835938 -4.640625 12.796875 -4.609375 C 12.710938 -4.535156 12.625 -4.472656 12.53125 -4.421875 C 12.488281 -4.410156 12.441406 -4.390625 12.390625 -4.359375 C 12.347656 -4.335938 12.304688 -4.3125 12.265625 -4.28125 C 11.960938 -4.132812 11.660156 -3.976562 11.359375 -3.8125 C 11.054688 -3.644531 10.753906 -3.476562 10.453125 -3.3125 C 9.835938 -2.96875 9.210938 -2.644531 8.578125 -2.34375 C 8.128906 -2.113281 7.800781 -1.78125 7.59375 -1.34375 C 7.457031 -1.03125 7.257812 -0.671875 7 -0.265625 C 6.75 0.128906 6.457031 0.519531 6.125 0.90625 C 5.789062 1.300781 5.441406 1.648438 5.078125 1.953125 C 4.722656 2.253906 4.382812 2.453125 4.0625 2.546875 C 3.9375 2.609375 3.78125 2.640625 3.59375 2.640625 Z M 3.640625 2.046875 C 3.703125 2.046875 3.738281 2.035156 3.75 2.015625 C 3.90625 1.953125 4.0625 1.875 4.21875 1.78125 C 4.707031 1.488281 5.179688 1.066406 5.640625 0.515625 C 6.109375 -0.0234375 6.453125 -0.609375 6.671875 -1.234375 C 6.347656 -1.046875 5.941406 -0.789062 5.453125 -0.46875 C 4.972656 -0.15625 4.523438 0.175781 4.109375 0.53125 C 3.703125 0.882812 3.4375 1.234375 3.3125 1.578125 C 3.28125 1.703125 3.3125 1.816406 3.40625 1.921875 C 3.476562 2.003906 3.554688 2.046875 3.640625 2.046875 Z M 3.640625 2.046875 "/></g></g></g><g fill="#000000" fill-opacity="1"><g transform="translate(17.245135, 23.455813)"><g><path d="M 0.96875 -1.15625 C 0.695312 -1.15625 0.453125 -1.238281 0.234375 -1.40625 C 0.015625 -1.582031 -0.125 -1.820312 -0.1875 -2.125 C -0.226562 -2.363281 -0.242188 -2.566406 -0.234375 -2.734375 C -0.203125 -3.054688 -0.109375 -3.429688 0.046875 -3.859375 C 0.203125 -4.285156 0.410156 -4.679688 0.671875 -5.046875 C 0.929688 -5.421875 1.207031 -5.660156 1.5 -5.765625 C 1.59375 -5.816406 1.695312 -5.84375 1.8125 -5.84375 C 1.945312 -5.820312 2.03125 -5.742188 2.0625 -5.609375 C 2.09375 -5.421875 2.046875 -5.320312 1.921875 -5.3125 C 1.660156 -5.257812 1.457031 -5.148438 1.3125 -4.984375 C 1.175781 -4.816406 1.046875 -4.628906 0.921875 -4.421875 C 0.710938 -4.003906 0.5625 -3.613281 0.46875 -3.25 C 0.40625 -3.070312 0.375 -2.847656 0.375 -2.578125 C 0.375 -2.128906 0.523438 -1.863281 0.828125 -1.78125 C 1.015625 -1.78125 1.171875 -1.800781 1.296875 -1.84375 C 1.421875 -1.894531 1.535156 -2.015625 1.640625 -2.203125 C 1.796875 -2.453125 1.890625 -2.695312 1.921875 -2.9375 C 1.953125 -3.1875 1.882812 -3.441406 1.71875 -3.703125 C 1.625 -3.859375 1.546875 -4.015625 1.484375 -4.171875 C 1.453125 -4.242188 1.460938 -4.316406 1.515625 -4.390625 C 1.566406 -4.460938 1.632812 -4.503906 1.71875 -4.515625 L 2.4375 -4.515625 C 2.863281 -4.515625 3.296875 -4.585938 3.734375 -4.734375 C 3.835938 -4.753906 3.941406 -4.785156 4.046875 -4.828125 C 4.160156 -4.878906 4.269531 -4.921875 4.375 -4.953125 C 4.488281 -4.984375 4.59375 -5.019531 4.6875 -5.0625 C 4.789062 -5.113281 4.894531 -5.15625 5 -5.1875 L 5.375 -5.28125 C 5.5 -5.28125 5.597656 -5.21875 5.671875 -5.09375 C 5.753906 -4.90625 5.691406 -4.785156 5.484375 -4.734375 C 5.273438 -4.648438 5.0625 -4.566406 4.84375 -4.484375 C 4.625 -4.410156 4.40625 -4.335938 4.1875 -4.265625 C 3.976562 -4.179688 3.757812 -4.113281 3.53125 -4.0625 C 3.3125 -4.007812 3.078125 -3.96875 2.828125 -3.9375 C 2.609375 -3.90625 2.488281 -3.867188 2.46875 -3.828125 C 2.445312 -3.796875 2.453125 -3.675781 2.484375 -3.46875 C 2.578125 -3.019531 2.519531 -2.582031 2.3125 -2.15625 C 2.15625 -1.832031 1.925781 -1.5625 1.625 -1.34375 C 1.40625 -1.21875 1.1875 -1.15625 0.96875 -1.15625 Z M 0.96875 -1.15625 "/></g></g></g><g fill="#000000" fill-opacity="1"><g transform="translate(21.784442, 23.455813)"><g><path d="M -0.0625 0.390625 C -0.0820312 0.390625 -0.09375 0.390625 -0.09375 0.390625 C -0.101562 0.390625 -0.117188 0.390625 -0.140625 0.390625 C -0.140625 0.378906 -0.15625 0.375 -0.1875 0.375 C -0.34375 0.320312 -0.4375 0.203125 -0.46875 0.015625 C -0.46875 -0.0234375 -0.46875 -0.0664062 -0.46875 -0.109375 C -0.46875 -0.160156 -0.472656 -0.21875 -0.484375 -0.28125 C -0.484375 -0.320312 -0.484375 -0.363281 -0.484375 -0.40625 C -0.484375 -0.457031 -0.476562 -0.515625 -0.46875 -0.578125 C -0.3125 -1.609375 -0.0820312 -2.539062 0.21875 -3.375 C 0.53125 -4.21875 0.890625 -5.101562 1.296875 -6.03125 C 1.328125 -6.09375 1.359375 -6.148438 1.390625 -6.203125 C 1.421875 -6.253906 1.453125 -6.300781 1.484375 -6.34375 C 1.523438 -6.394531 1.59375 -6.421875 1.6875 -6.421875 L 1.765625 -6.421875 C 1.890625 -6.367188 1.941406 -6.289062 1.921875 -6.1875 C 1.921875 -6.050781 1.882812 -5.878906 1.8125 -5.671875 C 1.71875 -5.441406 1.617188 -5.210938 1.515625 -4.984375 C 1.410156 -4.753906 1.304688 -4.519531 1.203125 -4.28125 C 1.046875 -3.925781 0.90625 -3.570312 0.78125 -3.21875 C 0.664062 -2.863281 0.5625 -2.507812 0.46875 -2.15625 C 0.4375 -2.03125 0.40625 -1.90625 0.375 -1.78125 C 0.351562 -1.65625 0.375 -1.53125 0.4375 -1.40625 L 0.421875 -1.40625 L 0.4375 -1.390625 L 1.34375 -3.21875 C 1.53125 -3.570312 1.757812 -3.929688 2.03125 -4.296875 C 2.3125 -4.660156 2.628906 -4.953125 2.984375 -5.171875 C 3.078125 -5.210938 3.171875 -5.234375 3.265625 -5.234375 C 3.453125 -5.234375 3.597656 -5.140625 3.703125 -4.953125 C 3.734375 -4.921875 3.757812 -4.878906 3.78125 -4.828125 C 3.8125 -4.785156 3.832031 -4.742188 3.84375 -4.703125 C 3.863281 -4.609375 3.90625 -4.515625 3.96875 -4.421875 C 4.132812 -4.148438 4.316406 -4.015625 4.515625 -4.015625 C 4.660156 -4.015625 4.832031 -4.070312 5.03125 -4.1875 C 5.226562 -4.3125 5.429688 -4.453125 5.640625 -4.609375 C 5.847656 -4.765625 6.015625 -4.894531 6.140625 -5 C 6.234375 -5.09375 6.332031 -5.171875 6.4375 -5.234375 C 6.457031 -5.253906 6.488281 -5.265625 6.53125 -5.265625 C 6.59375 -5.265625 6.65625 -5.238281 6.71875 -5.1875 C 6.8125 -5.09375 6.835938 -5 6.796875 -4.90625 C 6.734375 -4.789062 6.660156 -4.691406 6.578125 -4.609375 C 6.441406 -4.472656 6.25 -4.304688 6 -4.109375 C 5.75 -3.921875 5.492188 -3.753906 5.234375 -3.609375 C 4.972656 -3.472656 4.734375 -3.40625 4.515625 -3.40625 C 4.128906 -3.40625 3.8125 -3.578125 3.5625 -3.921875 C 3.53125 -3.960938 3.5 -4.003906 3.46875 -4.046875 C 3.4375 -4.097656 3.410156 -4.144531 3.390625 -4.1875 C 3.367188 -4.238281 3.34375 -4.285156 3.3125 -4.328125 C 3.28125 -4.378906 3.25 -4.425781 3.21875 -4.46875 C 3.113281 -4.46875 3.03125 -4.441406 2.96875 -4.390625 C 2.914062 -4.347656 2.867188 -4.296875 2.828125 -4.234375 C 2.609375 -4.023438 2.414062 -3.789062 2.25 -3.53125 C 2.082031 -3.28125 1.925781 -3.019531 1.78125 -2.75 C 1.6875 -2.570312 1.59375 -2.390625 1.5 -2.203125 C 1.40625 -2.015625 1.320312 -1.828125 1.25 -1.640625 C 1.15625 -1.453125 1.0625 -1.265625 0.96875 -1.078125 C 0.875 -0.898438 0.773438 -0.710938 0.671875 -0.515625 C 0.609375 -0.390625 0.539062 -0.269531 0.46875 -0.15625 C 0.40625 -0.0390625 0.332031 0.078125 0.25 0.203125 C 0.175781 0.328125 0.0703125 0.390625 -0.0625 0.390625 Z M -0.0625 0.390625 "/></g></g></g><g fill="#000000" fill-opacity="1"><g transform="translate(27.435405, 23.455813)"><g><path d="M 0.421875 1.640625 C 0.128906 1.640625 -0.0664062 1.476562 -0.171875 1.15625 C -0.273438 0.832031 -0.328125 0.539062 -0.328125 0.28125 C -0.328125 -0.457031 -0.234375 -1.28125 -0.046875 -2.1875 C 0.140625 -3.09375 0.367188 -3.984375 0.640625 -4.859375 C 0.910156 -5.742188 1.164062 -6.535156 1.40625 -7.234375 C 1.488281 -7.441406 1.5625 -7.644531 1.625 -7.84375 C 1.695312 -8.039062 1.773438 -8.238281 1.859375 -8.4375 C 1.921875 -8.601562 1.9375 -8.71875 1.90625 -8.78125 C 1.882812 -8.851562 1.804688 -8.890625 1.671875 -8.890625 L 1.484375 -8.890625 C 1.328125 -8.878906 1.171875 -8.863281 1.015625 -8.84375 C 0.859375 -8.832031 0.707031 -8.8125 0.5625 -8.78125 C 0.40625 -8.769531 0.242188 -8.75 0.078125 -8.71875 C -0.078125 -8.695312 -0.234375 -8.679688 -0.390625 -8.671875 C -0.484375 -8.648438 -0.578125 -8.628906 -0.671875 -8.609375 C -0.773438 -8.597656 -0.875 -8.59375 -0.96875 -8.59375 C -1.09375 -8.59375 -1.179688 -8.601562 -1.234375 -8.625 C -1.304688 -8.632812 -1.359375 -8.679688 -1.390625 -8.765625 C -1.421875 -8.910156 -1.382812 -8.992188 -1.28125 -9.015625 C -1.21875 -9.023438 -1.160156 -9.035156 -1.109375 -9.046875 C -1.066406 -9.066406 -1.019531 -9.085938 -0.96875 -9.109375 C -0.90625 -9.117188 -0.847656 -9.128906 -0.796875 -9.140625 C -0.742188 -9.148438 -0.6875 -9.160156 -0.625 -9.171875 C -0.40625 -9.203125 -0.191406 -9.234375 0.015625 -9.265625 C 0.222656 -9.296875 0.425781 -9.320312 0.625 -9.34375 C 0.84375 -9.375 1.050781 -9.398438 1.25 -9.421875 C 1.445312 -9.441406 1.648438 -9.460938 1.859375 -9.484375 C 2.128906 -9.492188 2.320312 -9.625 2.4375 -9.875 L 3.0625 -11.265625 C 3.125 -11.359375 3.175781 -11.445312 3.21875 -11.53125 C 3.269531 -11.625 3.328125 -11.71875 3.390625 -11.8125 C 3.429688 -11.90625 3.476562 -12 3.53125 -12.09375 C 3.582031 -12.1875 3.640625 -12.28125 3.703125 -12.375 C 3.878906 -12.65625 4.039062 -12.796875 4.1875 -12.796875 C 4.28125 -12.796875 4.351562 -12.738281 4.40625 -12.625 C 4.4375 -12.46875 4.394531 -12.300781 4.28125 -12.125 C 4.15625 -11.8125 4.019531 -11.5 3.875 -11.1875 C 3.726562 -10.882812 3.578125 -10.578125 3.421875 -10.265625 C 3.410156 -10.234375 3.394531 -10.191406 3.375 -10.140625 C 3.363281 -10.097656 3.351562 -10.0625 3.34375 -10.03125 C 3.289062 -9.9375 3.265625 -9.828125 3.265625 -9.703125 C 3.328125 -9.691406 3.378906 -9.679688 3.421875 -9.671875 C 3.472656 -9.660156 3.519531 -9.65625 3.5625 -9.65625 C 3.625 -9.65625 3.671875 -9.664062 3.703125 -9.6875 C 3.734375 -9.6875 3.753906 -9.6875 3.765625 -9.6875 C 3.785156 -9.6875 3.804688 -9.6875 3.828125 -9.6875 C 4.148438 -9.71875 4.484375 -9.75 4.828125 -9.78125 C 5.179688 -9.820312 5.550781 -9.859375 5.9375 -9.890625 C 6.320312 -9.921875 6.6875 -9.953125 7.03125 -9.984375 C 7.375 -10.015625 7.710938 -10.046875 8.046875 -10.078125 L 8.875 -10.078125 C 8.976562 -10.078125 9.039062 -10 9.0625 -9.84375 C 9.0625 -9.71875 9.015625 -9.640625 8.921875 -9.609375 C 8.859375 -9.597656 8.800781 -9.585938 8.75 -9.578125 C 8.707031 -9.566406 8.664062 -9.5625 8.625 -9.5625 C 8.570312 -9.550781 8.519531 -9.546875 8.46875 -9.546875 C 8.425781 -9.546875 8.375 -9.539062 8.3125 -9.53125 L 3.34375 -9.078125 C 3 -9.046875 2.773438 -8.894531 2.671875 -8.625 C 2.523438 -8.320312 2.351562 -7.894531 2.15625 -7.34375 C 1.96875 -6.800781 1.769531 -6.210938 1.5625 -5.578125 C 1.351562 -4.953125 1.160156 -4.351562 0.984375 -3.78125 C 0.816406 -3.207031 0.695312 -2.75 0.625 -2.40625 C 0.53125 -2.019531 0.457031 -1.632812 0.40625 -1.25 C 0.351562 -0.875 0.3125 -0.488281 0.28125 -0.09375 C 0.257812 0.0703125 0.242188 0.25 0.234375 0.4375 C 0.234375 0.632812 0.316406 0.804688 0.484375 0.953125 C 0.648438 0.929688 0.804688 0.851562 0.953125 0.71875 C 1.015625 0.644531 1.070312 0.570312 1.125 0.5 C 1.175781 0.425781 1.234375 0.359375 1.296875 0.296875 C 1.546875 -0.00390625 1.84375 -0.398438 2.1875 -0.890625 C 2.539062 -1.378906 2.894531 -1.878906 3.25 -2.390625 C 3.613281 -2.898438 3.953125 -3.363281 4.265625 -3.78125 C 4.578125 -4.195312 4.816406 -4.488281 4.984375 -4.65625 C 5.015625 -4.707031 5.050781 -4.753906 5.09375 -4.796875 C 5.144531 -4.835938 5.1875 -4.882812 5.21875 -4.9375 C 5.289062 -5.007812 5.378906 -5.070312 5.484375 -5.125 C 5.503906 -5.125 5.519531 -5.128906 5.53125 -5.140625 C 5.550781 -5.140625 5.5625 -5.140625 5.5625 -5.140625 C 5.5625 -5.140625 5.566406 -5.140625 5.578125 -5.140625 C 5.597656 -5.140625 5.65625 -5.125 5.75 -5.09375 C 5.875 -5 5.894531 -4.882812 5.8125 -4.75 C 5.8125 -4.707031 5.789062 -4.660156 5.75 -4.609375 C 5.519531 -4.328125 5.210938 -3.929688 4.828125 -3.421875 C 4.453125 -2.921875 4.101562 -2.445312 3.78125 -2 C 3.394531 -1.46875 3 -0.9375 2.59375 -0.40625 C 2.195312 0.125 1.8125 0.609375 1.4375 1.046875 C 1.332031 1.179688 1.179688 1.3125 0.984375 1.4375 C 0.785156 1.570312 0.597656 1.640625 0.421875 1.640625 Z M 0.421875 1.640625 "/></g></g></g><g fill="#000000" fill-opacity="1"><g transform="translate(32.090507, 23.455813)"><g/></g></g><g fill="#000000" fill-opacity="1"><g transform="translate(40.891188, 23.455813)"><g><path d="M -0.15625 1.859375 C -0.28125 1.859375 -0.40625 1.816406 -0.53125 1.734375 C -0.71875 1.609375 -0.832031 1.460938 -0.875 1.296875 C -0.925781 1.128906 -0.9375 0.941406 -0.90625 0.734375 C -0.851562 0.523438 -0.734375 0.28125 -0.546875 0 C -0.367188 -0.289062 -0.164062 -0.566406 0.0625 -0.828125 C 0.300781 -1.097656 0.507812 -1.289062 0.6875 -1.40625 C 0.863281 -1.550781 0.976562 -1.695312 1.03125 -1.84375 C 1.082031 -2 1.109375 -2.1875 1.109375 -2.40625 C 1.097656 -2.757812 1.066406 -3.109375 1.015625 -3.453125 C 0.972656 -3.796875 0.910156 -4.144531 0.828125 -4.5 C 0.796875 -4.65625 0.769531 -4.804688 0.75 -4.953125 C 0.738281 -5.097656 0.726562 -5.25 0.71875 -5.40625 C 0.6875 -5.925781 0.78125 -6.375 1 -6.75 C 1.226562 -7.132812 1.546875 -7.472656 1.953125 -7.765625 C 2.179688 -7.898438 2.421875 -7.96875 2.671875 -7.96875 C 2.785156 -7.96875 2.878906 -7.957031 2.953125 -7.9375 C 3.035156 -7.925781 3.125 -7.875 3.21875 -7.78125 C 3.28125 -7.71875 3.300781 -7.648438 3.28125 -7.578125 C 3.257812 -7.503906 3.207031 -7.453125 3.125 -7.421875 C 3.113281 -7.398438 3.066406 -7.390625 2.984375 -7.390625 C 2.554688 -7.390625 2.175781 -7.234375 1.84375 -6.921875 C 1.519531 -6.617188 1.347656 -6.25 1.328125 -5.8125 C 1.304688 -5.75 1.296875 -5.6875 1.296875 -5.625 C 1.296875 -5.5625 1.296875 -5.503906 1.296875 -5.453125 C 1.296875 -5.390625 1.300781 -5.328125 1.3125 -5.265625 C 1.320312 -5.203125 1.332031 -5.140625 1.34375 -5.078125 C 1.414062 -4.660156 1.488281 -4.242188 1.5625 -3.828125 C 1.632812 -3.421875 1.6875 -3.007812 1.71875 -2.59375 C 1.71875 -2.582031 1.753906 -2.515625 1.828125 -2.390625 C 1.972656 -2.460938 2.085938 -2.53125 2.171875 -2.59375 L 5.53125 -4.953125 C 5.613281 -4.984375 5.6875 -5.03125 5.75 -5.09375 C 5.820312 -5.144531 5.890625 -5.171875 5.953125 -5.171875 C 6.015625 -5.171875 6.070312 -5.144531 6.125 -5.09375 C 6.257812 -4.96875 6.269531 -4.851562 6.15625 -4.75 C 6.101562 -4.65625 5.984375 -4.539062 5.796875 -4.40625 C 5.484375 -4.1875 5.179688 -3.972656 4.890625 -3.765625 C 4.597656 -3.554688 4.304688 -3.34375 4.015625 -3.125 L 2.078125 -1.765625 C 1.816406 -1.578125 1.664062 -1.328125 1.625 -1.015625 C 1.601562 -0.691406 1.515625 -0.304688 1.359375 0.140625 C 1.210938 0.585938 1.003906 0.984375 0.734375 1.328125 C 0.472656 1.679688 0.175781 1.859375 -0.15625 1.859375 Z M -0.109375 1.203125 C -0.046875 1.203125 0.00390625 1.179688 0.046875 1.140625 C 0.265625 0.960938 0.445312 0.707031 0.59375 0.375 C 0.75 0.0507812 0.835938 -0.296875 0.859375 -0.671875 C 0.316406 -0.265625 -0.0664062 0.21875 -0.296875 0.78125 C -0.316406 0.84375 -0.316406 0.898438 -0.296875 0.953125 C -0.296875 1.023438 -0.273438 1.085938 -0.234375 1.140625 C -0.203125 1.179688 -0.160156 1.203125 -0.109375 1.203125 Z M -0.109375 1.203125 "/></g></g></g><g fill="#000000" fill-opacity="1"><g transform="translate(45.940006, 23.455813)"><g><path d="M 0.140625 -0.234375 C 0.078125 -0.234375 0.0351562 -0.238281 0.015625 -0.25 C -0.148438 -0.300781 -0.234375 -0.421875 -0.234375 -0.609375 C -0.234375 -1.222656 -0.171875 -1.832031 -0.046875 -2.4375 C 0.078125 -3.050781 0.222656 -3.648438 0.390625 -4.234375 C 0.441406 -4.390625 0.53125 -4.675781 0.65625 -5.09375 C 0.789062 -5.507812 0.945312 -5.960938 1.125 -6.453125 C 1.300781 -6.953125 1.476562 -7.390625 1.65625 -7.765625 C 1.832031 -8.148438 1.984375 -8.375 2.109375 -8.4375 C 2.203125 -8.46875 2.25 -8.484375 2.25 -8.484375 C 2.28125 -8.484375 2.316406 -8.457031 2.359375 -8.40625 C 2.410156 -8.363281 2.441406 -8.328125 2.453125 -8.296875 C 2.484375 -8.160156 2.476562 -8.050781 2.4375 -7.96875 C 2.375 -7.863281 2.316406 -7.753906 2.265625 -7.640625 C 1.867188 -6.796875 1.53125 -5.914062 1.25 -5 C 0.96875 -4.09375 0.726562 -3.175781 0.53125 -2.25 C 0.519531 -2.1875 0.519531 -2.128906 0.53125 -2.078125 C 0.53125 -2.023438 0.523438 -1.984375 0.515625 -1.953125 C 0.523438 -1.929688 0.5625 -1.921875 0.625 -1.921875 C 0.6875 -1.921875 0.722656 -1.945312 0.734375 -2 C 0.765625 -2.050781 0.789062 -2.085938 0.8125 -2.109375 C 0.90625 -2.273438 1 -2.4375 1.09375 -2.59375 C 1.1875 -2.757812 1.273438 -2.929688 1.359375 -3.109375 C 1.453125 -3.273438 1.546875 -3.4375 1.640625 -3.59375 C 1.734375 -3.757812 1.835938 -3.921875 1.953125 -4.078125 C 2.148438 -4.390625 2.375 -4.707031 2.625 -5.03125 C 2.882812 -5.351562 3.164062 -5.625 3.46875 -5.84375 C 3.5625 -5.882812 3.648438 -5.90625 3.734375 -5.90625 C 3.929688 -5.90625 4.066406 -5.796875 4.140625 -5.578125 C 4.203125 -5.460938 4.238281 -5.332031 4.25 -5.1875 C 4.257812 -5.050781 4.253906 -4.910156 4.234375 -4.765625 C 4.234375 -4.660156 4.234375 -4.5625 4.234375 -4.46875 C 4.234375 -4.375 4.226562 -4.28125 4.21875 -4.1875 C 4.195312 -4.101562 4.1875 -4.015625 4.1875 -3.921875 C 4.1875 -3.828125 4.179688 -3.734375 4.171875 -3.640625 C 4.171875 -3.585938 4.171875 -3.535156 4.171875 -3.484375 C 4.171875 -3.441406 4.175781 -3.398438 4.1875 -3.359375 C 4.1875 -3.316406 4.1875 -3.269531 4.1875 -3.21875 C 4.1875 -3.175781 4.1875 -3.140625 4.1875 -3.109375 C 4.1875 -3.015625 4.25 -2.96875 4.375 -2.96875 C 4.394531 -2.976562 4.410156 -2.984375 4.421875 -2.984375 L 4.859375 -3.40625 C 4.921875 -3.46875 4.988281 -3.53125 5.0625 -3.59375 C 5.132812 -3.65625 5.203125 -3.71875 5.265625 -3.78125 C 5.328125 -3.84375 5.382812 -3.90625 5.4375 -3.96875 C 5.5 -4.03125 5.5625 -4.085938 5.625 -4.140625 C 5.8125 -4.265625 5.960938 -4.359375 6.078125 -4.421875 C 6.128906 -4.441406 6.175781 -4.453125 6.21875 -4.453125 C 6.257812 -4.460938 6.285156 -4.46875 6.296875 -4.46875 C 6.515625 -4.46875 6.671875 -4.367188 6.765625 -4.171875 C 6.828125 -4.078125 6.863281 -4.007812 6.875 -3.96875 C 6.894531 -3.9375 6.90625 -3.898438 6.90625 -3.859375 C 6.914062 -3.816406 6.929688 -3.78125 6.953125 -3.75 C 7.015625 -3.59375 7.09375 -3.460938 7.1875 -3.359375 C 7.3125 -3.222656 7.441406 -3.15625 7.578125 -3.15625 C 7.734375 -3.15625 7.910156 -3.210938 8.109375 -3.328125 C 8.304688 -3.453125 8.460938 -3.554688 8.578125 -3.640625 C 8.835938 -3.859375 9.097656 -4.082031 9.359375 -4.3125 C 9.617188 -4.539062 9.875 -4.765625 10.125 -4.984375 C 10.144531 -4.992188 10.160156 -5.003906 10.171875 -5.015625 C 10.191406 -5.035156 10.207031 -5.0625 10.21875 -5.09375 C 10.34375 -5.175781 10.425781 -5.21875 10.46875 -5.21875 C 10.5625 -5.21875 10.632812 -5.175781 10.6875 -5.09375 C 10.820312 -4.957031 10.8125 -4.8125 10.65625 -4.65625 C 10.5625 -4.53125 10.453125 -4.421875 10.328125 -4.328125 L 8.9375 -3.15625 C 8.738281 -2.976562 8.460938 -2.804688 8.109375 -2.640625 C 7.972656 -2.578125 7.796875 -2.546875 7.578125 -2.546875 C 7.171875 -2.546875 6.847656 -2.738281 6.609375 -3.125 C 6.578125 -3.1875 6.546875 -3.242188 6.515625 -3.296875 C 6.484375 -3.359375 6.457031 -3.414062 6.4375 -3.46875 C 6.394531 -3.59375 6.3125 -3.695312 6.1875 -3.78125 C 6.082031 -3.71875 5.984375 -3.644531 5.890625 -3.5625 C 5.796875 -3.488281 5.707031 -3.414062 5.625 -3.34375 C 5.550781 -3.257812 5.46875 -3.171875 5.375 -3.078125 C 5.28125 -2.984375 5.195312 -2.898438 5.125 -2.828125 C 5.0625 -2.765625 5 -2.703125 4.9375 -2.640625 C 4.875 -2.578125 4.8125 -2.515625 4.75 -2.453125 C 4.625 -2.328125 4.476562 -2.226562 4.3125 -2.15625 C 4.1875 -2.125 4.125 -2.109375 4.125 -2.109375 C 3.96875 -2.109375 3.835938 -2.1875 3.734375 -2.34375 C 3.648438 -2.507812 3.597656 -2.675781 3.578125 -2.84375 C 3.566406 -3.019531 3.5625 -3.203125 3.5625 -3.390625 C 3.582031 -3.554688 3.59375 -3.726562 3.59375 -3.90625 C 3.601562 -4.082031 3.609375 -4.253906 3.609375 -4.421875 C 3.609375 -4.472656 3.613281 -4.523438 3.625 -4.578125 C 3.632812 -4.628906 3.644531 -4.6875 3.65625 -4.75 C 3.6875 -4.875 3.632812 -4.953125 3.5 -4.984375 C 3.40625 -4.992188 3.328125 -4.960938 3.265625 -4.890625 C 3.234375 -4.828125 3.203125 -4.769531 3.171875 -4.71875 C 3.140625 -4.675781 3.109375 -4.640625 3.078125 -4.609375 C 2.878906 -4.378906 2.695312 -4.132812 2.53125 -3.875 C 2.375 -3.625 2.21875 -3.367188 2.0625 -3.109375 C 1.875 -2.765625 1.6875 -2.425781 1.5 -2.09375 C 1.320312 -1.757812 1.140625 -1.429688 0.953125 -1.109375 C 0.867188 -0.972656 0.789062 -0.84375 0.71875 -0.71875 C 0.65625 -0.59375 0.5625 -0.476562 0.4375 -0.375 C 0.34375 -0.28125 0.242188 -0.234375 0.140625 -0.234375 Z M 0.140625 -0.234375 "/></g></g></g><g fill="#000000" fill-opacity="1"><g transform="translate(55.551284, 23.455813)"><g><path d="M 0.109375 -2 C -0.191406 -2 -0.359375 -2.179688 -0.390625 -2.546875 C -0.390625 -2.890625 -0.316406 -3.253906 -0.171875 -3.640625 C -0.0234375 -4.023438 0.15625 -4.394531 0.375 -4.75 C 0.601562 -5.101562 0.832031 -5.394531 1.0625 -5.625 C 1.125 -5.707031 1.238281 -5.8125 1.40625 -5.9375 C 1.65625 -6.132812 1.910156 -6.234375 2.171875 -6.234375 C 2.410156 -6.234375 2.644531 -6.140625 2.875 -5.953125 C 3 -5.878906 3.066406 -5.84375 3.078125 -5.84375 C 3.128906 -5.84375 3.203125 -5.90625 3.296875 -6.03125 C 3.367188 -6.101562 3.4375 -6.1875 3.5 -6.28125 C 3.570312 -6.375 3.640625 -6.46875 3.703125 -6.5625 C 3.765625 -6.65625 3.832031 -6.742188 3.90625 -6.828125 C 3.976562 -6.921875 4.039062 -7.015625 4.09375 -7.109375 C 4.125 -7.140625 4.15625 -7.175781 4.1875 -7.21875 C 4.21875 -7.269531 4.25 -7.320312 4.28125 -7.375 C 4.3125 -7.40625 4.335938 -7.441406 4.359375 -7.484375 C 4.390625 -7.523438 4.421875 -7.5625 4.453125 -7.59375 C 4.554688 -7.707031 4.648438 -7.765625 4.734375 -7.765625 C 4.734375 -7.765625 4.773438 -7.75 4.859375 -7.71875 C 5.015625 -7.625 5.054688 -7.46875 4.984375 -7.25 C 4.960938 -7.1875 4.941406 -7.128906 4.921875 -7.078125 C 4.898438 -7.035156 4.875 -6.992188 4.84375 -6.953125 C 4.78125 -6.847656 4.726562 -6.738281 4.6875 -6.625 C 4.539062 -6.332031 4.375 -5.96875 4.1875 -5.53125 C 4.007812 -5.101562 3.851562 -4.664062 3.71875 -4.21875 C 3.582031 -3.78125 3.515625 -3.394531 3.515625 -3.0625 C 3.515625 -2.914062 3.5625 -2.84375 3.65625 -2.84375 C 3.707031 -2.84375 3.738281 -2.851562 3.75 -2.875 C 3.863281 -2.914062 3.96875 -2.957031 4.0625 -3 C 4.164062 -3.050781 4.269531 -3.109375 4.375 -3.171875 C 4.519531 -3.265625 4.664062 -3.359375 4.8125 -3.453125 C 4.957031 -3.554688 5.097656 -3.671875 5.234375 -3.796875 C 5.347656 -3.878906 5.445312 -3.960938 5.53125 -4.046875 C 5.625 -4.140625 5.71875 -4.226562 5.8125 -4.3125 C 5.988281 -4.476562 6.175781 -4.640625 6.375 -4.796875 C 6.40625 -4.828125 6.4375 -4.859375 6.46875 -4.890625 C 6.507812 -4.921875 6.546875 -4.953125 6.578125 -4.984375 C 6.609375 -5.015625 6.671875 -5.0625 6.765625 -5.125 C 6.796875 -5.132812 6.816406 -5.144531 6.828125 -5.15625 C 6.847656 -5.164062 6.863281 -5.171875 6.875 -5.171875 C 6.9375 -5.171875 6.992188 -5.144531 7.046875 -5.09375 C 7.148438 -5.03125 7.179688 -4.914062 7.140625 -4.75 C 7.117188 -4.738281 7.109375 -4.726562 7.109375 -4.71875 C 7.109375 -4.707031 7.101562 -4.695312 7.09375 -4.6875 C 7.070312 -4.664062 7.050781 -4.644531 7.03125 -4.625 C 7.019531 -4.613281 7.007812 -4.601562 7 -4.59375 C 6.78125 -4.375 6.46875 -4.082031 6.0625 -3.71875 C 5.664062 -3.351562 5.253906 -3.023438 4.828125 -2.734375 C 4.398438 -2.441406 4.023438 -2.265625 3.703125 -2.203125 C 3.671875 -2.179688 3.601562 -2.171875 3.5 -2.171875 C 3.113281 -2.171875 2.921875 -2.394531 2.921875 -2.84375 C 2.921875 -3.15625 2.953125 -3.460938 3.015625 -3.765625 C 3.078125 -4.078125 3.144531 -4.390625 3.21875 -4.703125 C 3.050781 -4.628906 2.9375 -4.550781 2.875 -4.46875 C 2.84375 -4.425781 2.800781 -4.378906 2.75 -4.328125 C 2.707031 -4.285156 2.671875 -4.25 2.640625 -4.21875 C 2.378906 -3.90625 2.113281 -3.601562 1.84375 -3.3125 C 1.582031 -3.03125 1.304688 -2.757812 1.015625 -2.5 C 0.910156 -2.40625 0.769531 -2.296875 0.59375 -2.171875 C 0.425781 -2.054688 0.265625 -2 0.109375 -2 Z M 0.328125 -2.828125 C 0.421875 -2.828125 0.488281 -2.847656 0.53125 -2.890625 C 0.90625 -3.203125 1.253906 -3.539062 1.578125 -3.90625 C 1.898438 -4.28125 2.21875 -4.660156 2.53125 -5.046875 C 2.539062 -5.066406 2.550781 -5.082031 2.5625 -5.09375 C 2.582031 -5.113281 2.601562 -5.140625 2.625 -5.171875 C 2.664062 -5.328125 2.632812 -5.429688 2.53125 -5.484375 C 2.40625 -5.566406 2.296875 -5.609375 2.203125 -5.609375 C 2.117188 -5.609375 2.019531 -5.578125 1.90625 -5.515625 C 1.789062 -5.453125 1.703125 -5.390625 1.640625 -5.328125 C 0.921875 -4.691406 0.46875 -3.875 0.28125 -2.875 L 0.296875 -2.84375 C 0.316406 -2.84375 0.328125 -2.835938 0.328125 -2.828125 Z M 0.328125 -2.828125 "/></g></g></g><g fill="#000000" fill-opacity="1"><g transform="translate(61.549647, 23.455813)"><g><path d="M -0.0625 0.390625 C -0.0820312 0.390625 -0.09375 0.390625 -0.09375 0.390625 C -0.101562 0.390625 -0.117188 0.390625 -0.140625 0.390625 C -0.140625 0.378906 -0.15625 0.375 -0.1875 0.375 C -0.34375 0.320312 -0.4375 0.203125 -0.46875 0.015625 C -0.46875 -0.0234375 -0.46875 -0.0664062 -0.46875 -0.109375 C -0.46875 -0.160156 -0.472656 -0.21875 -0.484375 -0.28125 C -0.484375 -0.320312 -0.484375 -0.363281 -0.484375 -0.40625 C -0.484375 -0.457031 -0.476562 -0.515625 -0.46875 -0.578125 C -0.3125 -1.609375 -0.0820312 -2.539062 0.21875 -3.375 C 0.53125 -4.21875 0.890625 -5.101562 1.296875 -6.03125 C 1.328125 -6.09375 1.359375 -6.148438 1.390625 -6.203125 C 1.421875 -6.253906 1.453125 -6.300781 1.484375 -6.34375 C 1.523438 -6.394531 1.59375 -6.421875 1.6875 -6.421875 L 1.765625 -6.421875 C 1.890625 -6.367188 1.941406 -6.289062 1.921875 -6.1875 C 1.921875 -6.050781 1.882812 -5.878906 1.8125 -5.671875 C 1.71875 -5.441406 1.617188 -5.210938 1.515625 -4.984375 C 1.410156 -4.753906 1.304688 -4.519531 1.203125 -4.28125 C 1.046875 -3.925781 0.90625 -3.570312 0.78125 -3.21875 C 0.664062 -2.863281 0.5625 -2.507812 0.46875 -2.15625 C 0.4375 -2.03125 0.40625 -1.90625 0.375 -1.78125 C 0.351562 -1.65625 0.375 -1.53125 0.4375 -1.40625 L 0.421875 -1.40625 L 0.4375 -1.390625 L 1.34375 -3.21875 C 1.53125 -3.570312 1.757812 -3.929688 2.03125 -4.296875 C 2.3125 -4.660156 2.628906 -4.953125 2.984375 -5.171875 C 3.078125 -5.210938 3.171875 -5.234375 3.265625 -5.234375 C 3.453125 -5.234375 3.597656 -5.140625 3.703125 -4.953125 C 3.734375 -4.921875 3.757812 -4.878906 3.78125 -4.828125 C 3.8125 -4.785156 3.832031 -4.742188 3.84375 -4.703125 C 3.863281 -4.609375 3.90625 -4.515625 3.96875 -4.421875 C 4.132812 -4.148438 4.316406 -4.015625 4.515625 -4.015625 C 4.660156 -4.015625 4.832031 -4.070312 5.03125 -4.1875 C 5.226562 -4.3125 5.429688 -4.453125 5.640625 -4.609375 C 5.847656 -4.765625 6.015625 -4.894531 6.140625 -5 C 6.234375 -5.09375 6.332031 -5.171875 6.4375 -5.234375 C 6.457031 -5.253906 6.488281 -5.265625 6.53125 -5.265625 C 6.59375 -5.265625 6.65625 -5.238281 6.71875 -5.1875 C 6.8125 -5.09375 6.835938 -5 6.796875 -4.90625 C 6.734375 -4.789062 6.660156 -4.691406 6.578125 -4.609375 C 6.441406 -4.472656 6.25 -4.304688 6 -4.109375 C 5.75 -3.921875 5.492188 -3.753906 5.234375 -3.609375 C 4.972656 -3.472656 4.734375 -3.40625 4.515625 -3.40625 C 4.128906 -3.40625 3.8125 -3.578125 3.5625 -3.921875 C 3.53125 -3.960938 3.5 -4.003906 3.46875 -4.046875 C 3.4375 -4.097656 3.410156 -4.144531 3.390625 -4.1875 C 3.367188 -4.238281 3.34375 -4.285156 3.3125 -4.328125 C 3.28125 -4.378906 3.25 -4.425781 3.21875 -4.46875 C 3.113281 -4.46875 3.03125 -4.441406 2.96875 -4.390625 C 2.914062 -4.347656 2.867188 -4.296875 2.828125 -4.234375 C 2.609375 -4.023438 2.414062 -3.789062 2.25 -3.53125 C 2.082031 -3.28125 1.925781 -3.019531 1.78125 -2.75 C 1.6875 -2.570312 1.59375 -2.390625 1.5 -2.203125 C 1.40625 -2.015625 1.320312 -1.828125 1.25 -1.640625 C 1.15625 -1.453125 1.0625 -1.265625 0.96875 -1.078125 C 0.875 -0.898438 0.773438 -0.710938 0.671875 -0.515625 C 0.609375 -0.390625 0.539062 -0.269531 0.46875 -0.15625 C 0.40625 -0.0390625 0.332031 0.078125 0.25 0.203125 C 0.175781 0.328125 0.0703125 0.390625 -0.0625 0.390625 Z M -0.0625 0.390625 "/></g></g></g><g fill="#000000" fill-opacity="1"><g transform="translate(67.20061, 23.455813)"><g><path d="M 0.421875 1.640625 C 0.128906 1.640625 -0.0664062 1.476562 -0.171875 1.15625 C -0.273438 0.832031 -0.328125 0.539062 -0.328125 0.28125 C -0.328125 -0.457031 -0.234375 -1.28125 -0.046875 -2.1875 C 0.140625 -3.09375 0.367188 -3.984375 0.640625 -4.859375 C 0.910156 -5.742188 1.164062 -6.535156 1.40625 -7.234375 C 1.488281 -7.441406 1.5625 -7.644531 1.625 -7.84375 C 1.695312 -8.039062 1.773438 -8.238281 1.859375 -8.4375 C 1.921875 -8.601562 1.9375 -8.71875 1.90625 -8.78125 C 1.882812 -8.851562 1.804688 -8.890625 1.671875 -8.890625 L 1.484375 -8.890625 C 1.328125 -8.878906 1.171875 -8.863281 1.015625 -8.84375 C 0.859375 -8.832031 0.707031 -8.8125 0.5625 -8.78125 C 0.40625 -8.769531 0.242188 -8.75 0.078125 -8.71875 C -0.078125 -8.695312 -0.234375 -8.679688 -0.390625 -8.671875 C -0.484375 -8.648438 -0.578125 -8.628906 -0.671875 -8.609375 C -0.773438 -8.597656 -0.875 -8.59375 -0.96875 -8.59375 C -1.09375 -8.59375 -1.179688 -8.601562 -1.234375 -8.625 C -1.304688 -8.632812 -1.359375 -8.679688 -1.390625 -8.765625 C -1.421875 -8.910156 -1.382812 -8.992188 -1.28125 -9.015625 C -1.21875 -9.023438 -1.160156 -9.035156 -1.109375 -9.046875 C -1.066406 -9.066406 -1.019531 -9.085938 -0.96875 -9.109375 C -0.90625 -9.117188 -0.847656 -9.128906 -0.796875 -9.140625 C -0.742188 -9.148438 -0.6875 -9.160156 -0.625 -9.171875 C -0.40625 -9.203125 -0.191406 -9.234375 0.015625 -9.265625 C 0.222656 -9.296875 0.425781 -9.320312 0.625 -9.34375 C 0.84375 -9.375 1.050781 -9.398438 1.25 -9.421875 C 1.445312 -9.441406 1.648438 -9.460938 1.859375 -9.484375 C 2.128906 -9.492188 2.320312 -9.625 2.4375 -9.875 L 3.0625 -11.265625 C 3.125 -11.359375 3.175781 -11.445312 3.21875 -11.53125 C 3.269531 -11.625 3.328125 -11.71875 3.390625 -11.8125 C 3.429688 -11.90625 3.476562 -12 3.53125 -12.09375 C 3.582031 -12.1875 3.640625 -12.28125 3.703125 -12.375 C 3.878906 -12.65625 4.039062 -12.796875 4.1875 -12.796875 C 4.28125 -12.796875 4.351562 -12.738281 4.40625 -12.625 C 4.4375 -12.46875 4.394531 -12.300781 4.28125 -12.125 C 4.15625 -11.8125 4.019531 -11.5 3.875 -11.1875 C 3.726562 -10.882812 3.578125 -10.578125 3.421875 -10.265625 C 3.410156 -10.234375 3.394531 -10.191406 3.375 -10.140625 C 3.363281 -10.097656 3.351562 -10.0625 3.34375 -10.03125 C 3.289062 -9.9375 3.265625 -9.828125 3.265625 -9.703125 C 3.328125 -9.691406 3.378906 -9.679688 3.421875 -9.671875 C 3.472656 -9.660156 3.519531 -9.65625 3.5625 -9.65625 C 3.625 -9.65625 3.671875 -9.664062 3.703125 -9.6875 C 3.734375 -9.6875 3.753906 -9.6875 3.765625 -9.6875 C 3.785156 -9.6875 3.804688 -9.6875 3.828125 -9.6875 C 4.148438 -9.71875 4.484375 -9.75 4.828125 -9.78125 C 5.179688 -9.820312 5.550781 -9.859375 5.9375 -9.890625 C 6.320312 -9.921875 6.6875 -9.953125 7.03125 -9.984375 C 7.375 -10.015625 7.710938 -10.046875 8.046875 -10.078125 L 8.875 -10.078125 C 8.976562 -10.078125 9.039062 -10 9.0625 -9.84375 C 9.0625 -9.71875 9.015625 -9.640625 8.921875 -9.609375 C 8.859375 -9.597656 8.800781 -9.585938 8.75 -9.578125 C 8.707031 -9.566406 8.664062 -9.5625 8.625 -9.5625 C 8.570312 -9.550781 8.519531 -9.546875 8.46875 -9.546875 C 8.425781 -9.546875 8.375 -9.539062 8.3125 -9.53125 L 3.34375 -9.078125 C 3 -9.046875 2.773438 -8.894531 2.671875 -8.625 C 2.523438 -8.320312 2.351562 -7.894531 2.15625 -7.34375 C 1.96875 -6.800781 1.769531 -6.210938 1.5625 -5.578125 C 1.351562 -4.953125 1.160156 -4.351562 0.984375 -3.78125 C 0.816406 -3.207031 0.695312 -2.75 0.625 -2.40625 C 0.53125 -2.019531 0.457031 -1.632812 0.40625 -1.25 C 0.351562 -0.875 0.3125 -0.488281 0.28125 -0.09375 C 0.257812 0.0703125 0.242188 0.25 0.234375 0.4375 C 0.234375 0.632812 0.316406 0.804688 0.484375 0.953125 C 0.648438 0.929688 0.804688 0.851562 0.953125 0.71875 C 1.015625 0.644531 1.070312 0.570312 1.125 0.5 C 1.175781 0.425781 1.234375 0.359375 1.296875 0.296875 C 1.546875 -0.00390625 1.84375 -0.398438 2.1875 -0.890625 C 2.539062 -1.378906 2.894531 -1.878906 3.25 -2.390625 C 3.613281 -2.898438 3.953125 -3.363281 4.265625 -3.78125 C 4.578125 -4.195312 4.816406 -4.488281 4.984375 -4.65625 C 5.015625 -4.707031 5.050781 -4.753906 5.09375 -4.796875 C 5.144531 -4.835938 5.1875 -4.882812 5.21875 -4.9375 C 5.289062 -5.007812 5.378906 -5.070312 5.484375 -5.125 C 5.503906 -5.125 5.519531 -5.128906 5.53125 -5.140625 C 5.550781 -5.140625 5.5625 -5.140625 5.5625 -5.140625 C 5.5625 -5.140625 5.566406 -5.140625 5.578125 -5.140625 C 5.597656 -5.140625 5.65625 -5.125 5.75 -5.09375 C 5.875 -5 5.894531 -4.882812 5.8125 -4.75 C 5.8125 -4.707031 5.789062 -4.660156 5.75 -4.609375 C 5.519531 -4.328125 5.210938 -3.929688 4.828125 -3.421875 C 4.453125 -2.921875 4.101562 -2.445312 3.78125 -2 C 3.394531 -1.46875 3 -0.9375 2.59375 -0.40625 C 2.195312 0.125 1.8125 0.609375 1.4375 1.046875 C 1.332031 1.179688 1.179688 1.3125 0.984375 1.4375 C 0.785156 1.570312 0.597656 1.640625 0.421875 1.640625 Z M 0.421875 1.640625 "/></g></g></g><g fill="#000000" fill-opacity="1"><g transform="translate(71.855712, 23.455813)"><g><path d="M 1.15625 -1.203125 C 0.96875 -1.203125 0.898438 -1.300781 0.953125 -1.5 C 0.992188 -1.6875 1.101562 -1.78125 1.28125 -1.78125 C 1.488281 -1.78125 1.578125 -1.6875 1.546875 -1.5 C 1.515625 -1.300781 1.382812 -1.203125 1.15625 -1.203125 Z M 1.15625 -1.203125 "/></g></g></g><g fill="#000000" fill-opacity="1"><g transform="translate(74.333805, 23.455813)"><g/></g></g><g fill="#000000" fill-opacity="1"><g transform="translate(83.134486, 23.455813)"><g><path d="M 3.59375 2.640625 C 3.3125 2.640625 3.09375 2.539062 2.9375 2.34375 C 2.644531 1.988281 2.609375 1.609375 2.828125 1.203125 C 3.085938 0.753906 3.453125 0.320312 3.921875 -0.09375 C 4.398438 -0.507812 4.851562 -0.847656 5.28125 -1.109375 C 5.4375 -1.191406 5.582031 -1.273438 5.71875 -1.359375 C 5.863281 -1.453125 6.007812 -1.546875 6.15625 -1.640625 C 6.300781 -1.722656 6.445312 -1.8125 6.59375 -1.90625 C 6.738281 -2 6.890625 -2.082031 7.046875 -2.15625 C 7.273438 -2.289062 7.4375 -2.484375 7.53125 -2.734375 C 7.632812 -2.984375 7.703125 -3.238281 7.734375 -3.5 C 7.828125 -4.425781 7.421875 -4.90625 6.515625 -4.9375 C 6.253906 -4.9375 6.003906 -4.910156 5.765625 -4.859375 C 5.597656 -4.828125 5.421875 -4.789062 5.234375 -4.75 C 5.046875 -4.707031 4.867188 -4.671875 4.703125 -4.640625 C 4.515625 -4.609375 4.328125 -4.566406 4.140625 -4.515625 C 3.960938 -4.472656 3.785156 -4.4375 3.609375 -4.40625 C 3.378906 -4.351562 3.140625 -4.300781 2.890625 -4.25 C 2.648438 -4.207031 2.40625 -4.1875 2.15625 -4.1875 C 1.644531 -4.1875 1.210938 -4.3125 0.859375 -4.5625 C 0.503906 -4.8125 0.253906 -5.191406 0.109375 -5.703125 C 0.00390625 -6.097656 -0.0351562 -6.492188 -0.015625 -6.890625 C 0.00390625 -7.296875 0.0703125 -7.703125 0.1875 -8.109375 C 0.382812 -8.972656 0.726562 -9.832031 1.21875 -10.6875 C 1.707031 -11.550781 2.285156 -12.347656 2.953125 -13.078125 C 3.628906 -13.816406 4.335938 -14.429688 5.078125 -14.921875 C 5.535156 -15.234375 6.035156 -15.492188 6.578125 -15.703125 C 7.117188 -15.921875 7.664062 -16.03125 8.21875 -16.03125 C 8.851562 -16.03125 9.414062 -15.867188 9.90625 -15.546875 C 10.394531 -15.234375 10.65625 -14.75 10.6875 -14.09375 C 10.71875 -13.75 10.6875 -13.445312 10.59375 -13.1875 C 10.300781 -12.164062 9.8125 -11.195312 9.125 -10.28125 C 8.914062 -10.039062 8.660156 -9.800781 8.359375 -9.5625 C 8.054688 -9.320312 7.726562 -9.203125 7.375 -9.203125 C 7.289062 -9.203125 7.210938 -9.210938 7.140625 -9.234375 C 7.078125 -9.253906 7.035156 -9.3125 7.015625 -9.40625 C 7.003906 -9.507812 7.050781 -9.609375 7.15625 -9.703125 C 7.1875 -9.734375 7.21875 -9.75 7.25 -9.75 C 7.28125 -9.75 7.304688 -9.757812 7.328125 -9.78125 C 7.660156 -9.84375 7.988281 -10.023438 8.3125 -10.328125 C 8.644531 -10.640625 8.941406 -11.007812 9.203125 -11.4375 C 9.472656 -11.875 9.691406 -12.3125 9.859375 -12.75 C 10.023438 -13.195312 10.109375 -13.582031 10.109375 -13.90625 C 10.109375 -14.457031 9.921875 -14.847656 9.546875 -15.078125 C 9.171875 -15.316406 8.738281 -15.4375 8.25 -15.4375 C 7.8125 -15.4375 7.359375 -15.347656 6.890625 -15.171875 C 6.429688 -15.003906 6.023438 -14.804688 5.671875 -14.578125 C 3.203125 -12.984375 1.554688 -10.757812 0.734375 -7.90625 C 0.660156 -7.59375 0.613281 -7.289062 0.59375 -7 C 0.570312 -6.707031 0.59375 -6.414062 0.65625 -6.125 C 0.800781 -5.21875 1.285156 -4.765625 2.109375 -4.765625 C 2.171875 -4.765625 2.21875 -4.773438 2.25 -4.796875 C 2.257812 -4.796875 2.273438 -4.796875 2.296875 -4.796875 C 2.328125 -4.796875 2.347656 -4.796875 2.359375 -4.796875 C 2.453125 -4.804688 2.546875 -4.820312 2.640625 -4.84375 C 2.734375 -4.875 2.828125 -4.894531 2.921875 -4.90625 C 3.015625 -4.925781 3.109375 -4.941406 3.203125 -4.953125 C 3.296875 -4.972656 3.382812 -4.988281 3.46875 -5 C 3.644531 -5.03125 3.820312 -5.066406 4 -5.109375 C 4.175781 -5.160156 4.347656 -5.203125 4.515625 -5.234375 C 4.679688 -5.265625 4.847656 -5.300781 5.015625 -5.34375 C 5.191406 -5.382812 5.363281 -5.421875 5.53125 -5.453125 C 5.71875 -5.492188 5.90625 -5.515625 6.09375 -5.515625 C 6.28125 -5.523438 6.472656 -5.53125 6.671875 -5.53125 C 7.210938 -5.5 7.632812 -5.316406 7.9375 -4.984375 C 8.238281 -4.660156 8.378906 -4.226562 8.359375 -3.6875 C 8.359375 -3.59375 8.34375 -3.484375 8.3125 -3.359375 C 8.28125 -3.234375 8.289062 -3.117188 8.34375 -3.015625 L 8.4375 -3.015625 C 8.5625 -3.015625 8.660156 -3.046875 8.734375 -3.109375 C 8.765625 -3.140625 8.800781 -3.164062 8.84375 -3.1875 C 8.894531 -3.207031 8.9375 -3.226562 8.96875 -3.25 L 12.046875 -4.859375 C 12.078125 -4.878906 12.113281 -4.894531 12.15625 -4.90625 C 12.207031 -4.925781 12.253906 -4.941406 12.296875 -4.953125 C 12.328125 -4.972656 12.363281 -4.988281 12.40625 -5 C 12.457031 -5.019531 12.5 -5.035156 12.53125 -5.046875 C 12.550781 -5.066406 12.582031 -5.078125 12.625 -5.078125 C 12.707031 -5.078125 12.769531 -5.035156 12.8125 -4.953125 C 12.832031 -4.921875 12.84375 -4.890625 12.84375 -4.859375 C 12.851562 -4.828125 12.859375 -4.796875 12.859375 -4.765625 C 12.859375 -4.691406 12.835938 -4.640625 12.796875 -4.609375 C 12.710938 -4.535156 12.625 -4.472656 12.53125 -4.421875 C 12.488281 -4.410156 12.441406 -4.390625 12.390625 -4.359375 C 12.347656 -4.335938 12.304688 -4.3125 12.265625 -4.28125 C 11.960938 -4.132812 11.660156 -3.976562 11.359375 -3.8125 C 11.054688 -3.644531 10.753906 -3.476562 10.453125 -3.3125 C 9.835938 -2.96875 9.210938 -2.644531 8.578125 -2.34375 C 8.128906 -2.113281 7.800781 -1.78125 7.59375 -1.34375 C 7.457031 -1.03125 7.257812 -0.671875 7 -0.265625 C 6.75 0.128906 6.457031 0.519531 6.125 0.90625 C 5.789062 1.300781 5.441406 1.648438 5.078125 1.953125 C 4.722656 2.253906 4.382812 2.453125 4.0625 2.546875 C 3.9375 2.609375 3.78125 2.640625 3.59375 2.640625 Z M 3.640625 2.046875 C 3.703125 2.046875 3.738281 2.035156 3.75 2.015625 C 3.90625 1.953125 4.0625 1.875 4.21875 1.78125 C 4.707031 1.488281 5.179688 1.066406 5.640625 0.515625 C 6.109375 -0.0234375 6.453125 -0.609375 6.671875 -1.234375 C 6.347656 -1.046875 5.941406 -0.789062 5.453125 -0.46875 C 4.972656 -0.15625 4.523438 0.175781 4.109375 0.53125 C 3.703125 0.882812 3.4375 1.234375 3.3125 1.578125 C 3.28125 1.703125 3.3125 1.816406 3.40625 1.921875 C 3.476562 2.003906 3.554688 2.046875 3.640625 2.046875 Z M 3.640625 2.046875 "/></g></g></g><g fill="#000000" fill-opacity="1"><g transform="translate(94.83014, 23.455813)"><g><path d="M 0.4375 0.734375 C 0.25 0.734375 0.125 0.632812 0.0625 0.4375 C 0.0195312 0.25 0 0.0507812 0 -0.15625 C -0.03125 -0.601562 -0.0234375 -1.039062 0.015625 -1.46875 C 0.0664062 -1.90625 0.128906 -2.347656 0.203125 -2.796875 C 0.234375 -2.953125 0.265625 -3.101562 0.296875 -3.25 C 0.328125 -3.394531 0.359375 -3.546875 0.390625 -3.703125 C 0.421875 -3.847656 0.453125 -3.992188 0.484375 -4.140625 C 0.515625 -4.285156 0.539062 -4.4375 0.5625 -4.59375 C 0.570312 -4.664062 0.585938 -4.734375 0.609375 -4.796875 C 0.640625 -4.867188 0.660156 -4.9375 0.671875 -5 C 0.703125 -5.144531 0.679688 -5.300781 0.609375 -5.46875 C 0.578125 -5.5625 0.582031 -5.640625 0.625 -5.703125 C 0.644531 -5.734375 0.660156 -5.765625 0.671875 -5.796875 C 0.679688 -5.828125 0.695312 -5.859375 0.71875 -5.890625 C 0.789062 -5.992188 0.859375 -6.101562 0.921875 -6.21875 C 0.984375 -6.332031 1.039062 -6.445312 1.09375 -6.5625 C 1.125 -6.6875 1.160156 -6.804688 1.203125 -6.921875 C 1.253906 -7.035156 1.300781 -7.15625 1.34375 -7.28125 C 1.75 -8.5 2.253906 -9.726562 2.859375 -10.96875 C 3.472656 -12.21875 4.171875 -13.359375 4.953125 -14.390625 C 4.984375 -14.421875 5.023438 -14.453125 5.078125 -14.484375 C 5.140625 -14.523438 5.203125 -14.5625 5.265625 -14.59375 C 5.273438 -14.613281 5.296875 -14.625 5.328125 -14.625 C 5.484375 -14.625 5.5625 -14.5625 5.5625 -14.4375 C 5.5625 -14.40625 5.5625 -14.375 5.5625 -14.34375 C 5.5625 -14.3125 5.5625 -14.28125 5.5625 -14.25 C 5.5625 -14.21875 5.554688 -14.1875 5.546875 -14.15625 C 5.535156 -14.125 5.523438 -14.09375 5.515625 -14.0625 C 5.492188 -14 5.476562 -13.941406 5.46875 -13.890625 C 5.457031 -13.835938 5.4375 -13.78125 5.40625 -13.71875 C 5.382812 -13.65625 5.363281 -13.597656 5.34375 -13.546875 C 5.320312 -13.492188 5.296875 -13.4375 5.265625 -13.375 C 4.816406 -12.363281 4.347656 -11.378906 3.859375 -10.421875 C 3.367188 -9.460938 2.820312 -8.519531 2.21875 -7.59375 C 1.988281 -7.238281 1.773438 -6.765625 1.578125 -6.171875 C 1.390625 -5.578125 1.222656 -4.941406 1.078125 -4.265625 C 0.929688 -3.597656 0.816406 -2.953125 0.734375 -2.328125 C 0.648438 -1.710938 0.609375 -1.207031 0.609375 -0.8125 C 0.609375 -0.757812 0.609375 -0.710938 0.609375 -0.671875 C 0.617188 -0.640625 0.632812 -0.585938 0.65625 -0.515625 C 0.800781 -0.617188 0.898438 -0.734375 0.953125 -0.859375 C 0.984375 -0.921875 1.007812 -0.976562 1.03125 -1.03125 C 1.050781 -1.082031 1.078125 -1.140625 1.109375 -1.203125 C 1.265625 -1.523438 1.460938 -1.925781 1.703125 -2.40625 C 1.953125 -2.882812 2.222656 -3.367188 2.515625 -3.859375 C 2.816406 -4.359375 3.128906 -4.816406 3.453125 -5.234375 C 3.773438 -5.648438 4.082031 -5.957031 4.375 -6.15625 C 4.488281 -6.238281 4.609375 -6.28125 4.734375 -6.28125 C 5.003906 -6.28125 5.164062 -6.125 5.21875 -5.8125 C 5.226562 -5.75 5.238281 -5.691406 5.25 -5.640625 C 5.257812 -5.597656 5.265625 -5.554688 5.265625 -5.515625 C 5.242188 -5.453125 5.234375 -5.394531 5.234375 -5.34375 C 5.234375 -5.300781 5.234375 -5.257812 5.234375 -5.21875 C 5.234375 -5.101562 5.234375 -5 5.234375 -4.90625 C 5.234375 -4.8125 5.234375 -4.722656 5.234375 -4.640625 C 5.222656 -4.453125 5.222656 -4.265625 5.234375 -4.078125 C 5.234375 -4.015625 5.234375 -3.957031 5.234375 -3.90625 C 5.234375 -3.863281 5.234375 -3.820312 5.234375 -3.78125 C 5.234375 -3.71875 5.238281 -3.660156 5.25 -3.609375 C 5.257812 -3.566406 5.269531 -3.519531 5.28125 -3.46875 C 5.332031 -3.207031 5.441406 -3.078125 5.609375 -3.078125 C 5.703125 -3.078125 5.796875 -3.101562 5.890625 -3.15625 C 6.066406 -3.25 6.3125 -3.398438 6.625 -3.609375 C 6.945312 -3.828125 7.257812 -4.054688 7.5625 -4.296875 C 7.863281 -4.535156 8.082031 -4.722656 8.21875 -4.859375 C 8.300781 -4.953125 8.390625 -5.039062 8.484375 -5.125 C 8.515625 -5.15625 8.550781 -5.171875 8.59375 -5.171875 C 8.644531 -5.171875 8.675781 -5.160156 8.6875 -5.140625 C 8.707031 -5.128906 8.71875 -5.125 8.71875 -5.125 C 8.726562 -5.125 8.742188 -5.113281 8.765625 -5.09375 C 8.847656 -5.019531 8.882812 -4.925781 8.875 -4.8125 C 8.832031 -4.644531 8.664062 -4.429688 8.375 -4.171875 C 8.09375 -3.910156 7.757812 -3.644531 7.375 -3.375 C 7 -3.113281 6.644531 -2.894531 6.3125 -2.71875 C 5.976562 -2.539062 5.734375 -2.453125 5.578125 -2.453125 C 5.117188 -2.453125 4.828125 -2.734375 4.703125 -3.296875 C 4.660156 -3.523438 4.632812 -3.757812 4.625 -4 C 4.613281 -4.238281 4.617188 -4.484375 4.640625 -4.734375 C 4.640625 -4.785156 4.640625 -4.832031 4.640625 -4.875 C 4.640625 -4.925781 4.640625 -4.976562 4.640625 -5.03125 C 4.640625 -5.070312 4.640625 -5.113281 4.640625 -5.15625 C 4.640625 -5.207031 4.628906 -5.265625 4.609375 -5.328125 C 4.609375 -5.390625 4.578125 -5.421875 4.515625 -5.421875 C 4.484375 -5.421875 4.460938 -5.414062 4.453125 -5.40625 C 4.390625 -5.375 4.332031 -5.332031 4.28125 -5.28125 C 4.238281 -5.238281 4.203125 -5.203125 4.171875 -5.171875 C 3.660156 -4.597656 3.1875 -3.90625 2.75 -3.09375 C 2.320312 -2.28125 1.945312 -1.535156 1.625 -0.859375 C 1.539062 -0.691406 1.453125 -0.523438 1.359375 -0.359375 C 1.273438 -0.191406 1.1875 -0.0234375 1.09375 0.140625 C 1 0.359375 0.875 0.519531 0.71875 0.625 C 0.59375 0.695312 0.5 0.734375 0.4375 0.734375 Z M 3.25 -10.375 L 3.265625 -10.375 L 3.265625 -10.40625 C 3.367188 -10.539062 3.414062 -10.664062 3.40625 -10.78125 C 3.394531 -10.695312 3.378906 -10.625 3.359375 -10.5625 C 3.347656 -10.5 3.3125 -10.4375 3.25 -10.375 Z M 3.453125 -10.828125 L 3.59375 -10.9375 C 3.570312 -10.914062 3.550781 -10.898438 3.53125 -10.890625 C 3.507812 -10.878906 3.484375 -10.859375 3.453125 -10.828125 Z M 3.65625 -11.046875 C 3.6875 -11.078125 3.703125 -11.109375 3.703125 -11.140625 C 3.703125 -11.191406 3.710938 -11.222656 3.734375 -11.234375 Z M 3.65625 -11.046875 "/></g></g></g><g fill="#000000" fill-opacity="1"><g transform="translate(102.542316, 23.455813)"><g><path d="M 0.109375 -2 C -0.191406 -2 -0.359375 -2.179688 -0.390625 -2.546875 C -0.390625 -2.890625 -0.316406 -3.253906 -0.171875 -3.640625 C -0.0234375 -4.023438 0.15625 -4.394531 0.375 -4.75 C 0.601562 -5.101562 0.832031 -5.394531 1.0625 -5.625 C 1.125 -5.707031 1.238281 -5.8125 1.40625 -5.9375 C 1.65625 -6.132812 1.910156 -6.234375 2.171875 -6.234375 C 2.410156 -6.234375 2.644531 -6.140625 2.875 -5.953125 C 3 -5.878906 3.066406 -5.84375 3.078125 -5.84375 C 3.128906 -5.84375 3.203125 -5.90625 3.296875 -6.03125 C 3.367188 -6.101562 3.4375 -6.1875 3.5 -6.28125 C 3.570312 -6.375 3.640625 -6.46875 3.703125 -6.5625 C 3.765625 -6.65625 3.832031 -6.742188 3.90625 -6.828125 C 3.976562 -6.921875 4.039062 -7.015625 4.09375 -7.109375 C 4.125 -7.140625 4.15625 -7.175781 4.1875 -7.21875 C 4.21875 -7.269531 4.25 -7.320312 4.28125 -7.375 C 4.3125 -7.40625 4.335938 -7.441406 4.359375 -7.484375 C 4.390625 -7.523438 4.421875 -7.5625 4.453125 -7.59375 C 4.554688 -7.707031 4.648438 -7.765625 4.734375 -7.765625 C 4.734375 -7.765625 4.773438 -7.75 4.859375 -7.71875 C 5.015625 -7.625 5.054688 -7.46875 4.984375 -7.25 C 4.960938 -7.1875 4.941406 -7.128906 4.921875 -7.078125 C 4.898438 -7.035156 4.875 -6.992188 4.84375 -6.953125 C 4.78125 -6.847656 4.726562 -6.738281 4.6875 -6.625 C 4.539062 -6.332031 4.375 -5.96875 4.1875 -5.53125 C 4.007812 -5.101562 3.851562 -4.664062 3.71875 -4.21875 C 3.582031 -3.78125 3.515625 -3.394531 3.515625 -3.0625 C 3.515625 -2.914062 3.5625 -2.84375 3.65625 -2.84375 C 3.707031 -2.84375 3.738281 -2.851562 3.75 -2.875 C 3.863281 -2.914062 3.96875 -2.957031 4.0625 -3 C 4.164062 -3.050781 4.269531 -3.109375 4.375 -3.171875 C 4.519531 -3.265625 4.664062 -3.359375 4.8125 -3.453125 C 4.957031 -3.554688 5.097656 -3.671875 5.234375 -3.796875 C 5.347656 -3.878906 5.445312 -3.960938 5.53125 -4.046875 C 5.625 -4.140625 5.71875 -4.226562 5.8125 -4.3125 C 5.988281 -4.476562 6.175781 -4.640625 6.375 -4.796875 C 6.40625 -4.828125 6.4375 -4.859375 6.46875 -4.890625 C 6.507812 -4.921875 6.546875 -4.953125 6.578125 -4.984375 C 6.609375 -5.015625 6.671875 -5.0625 6.765625 -5.125 C 6.796875 -5.132812 6.816406 -5.144531 6.828125 -5.15625 C 6.847656 -5.164062 6.863281 -5.171875 6.875 -5.171875 C 6.9375 -5.171875 6.992188 -5.144531 7.046875 -5.09375 C 7.148438 -5.03125 7.179688 -4.914062 7.140625 -4.75 C 7.117188 -4.738281 7.109375 -4.726562 7.109375 -4.71875 C 7.109375 -4.707031 7.101562 -4.695312 7.09375 -4.6875 C 7.070312 -4.664062 7.050781 -4.644531 7.03125 -4.625 C 7.019531 -4.613281 7.007812 -4.601562 7 -4.59375 C 6.78125 -4.375 6.46875 -4.082031 6.0625 -3.71875 C 5.664062 -3.351562 5.253906 -3.023438 4.828125 -2.734375 C 4.398438 -2.441406 4.023438 -2.265625 3.703125 -2.203125 C 3.671875 -2.179688 3.601562 -2.171875 3.5 -2.171875 C 3.113281 -2.171875 2.921875 -2.394531 2.921875 -2.84375 C 2.921875 -3.15625 2.953125 -3.460938 3.015625 -3.765625 C 3.078125 -4.078125 3.144531 -4.390625 3.21875 -4.703125 C 3.050781 -4.628906 2.9375 -4.550781 2.875 -4.46875 C 2.84375 -4.425781 2.800781 -4.378906 2.75 -4.328125 C 2.707031 -4.285156 2.671875 -4.25 2.640625 -4.21875 C 2.378906 -3.90625 2.113281 -3.601562 1.84375 -3.3125 C 1.582031 -3.03125 1.304688 -2.757812 1.015625 -2.5 C 0.910156 -2.40625 0.769531 -2.296875 0.59375 -2.171875 C 0.425781 -2.054688 0.265625 -2 0.109375 -2 Z M 0.328125 -2.828125 C 0.421875 -2.828125 0.488281 -2.847656 0.53125 -2.890625 C 0.90625 -3.203125 1.253906 -3.539062 1.578125 -3.90625 C 1.898438 -4.28125 2.21875 -4.660156 2.53125 -5.046875 C 2.539062 -5.066406 2.550781 -5.082031 2.5625 -5.09375 C 2.582031 -5.113281 2.601562 -5.140625 2.625 -5.171875 C 2.664062 -5.328125 2.632812 -5.429688 2.53125 -5.484375 C 2.40625 -5.566406 2.296875 -5.609375 2.203125 -5.609375 C 2.117188 -5.609375 2.019531 -5.578125 1.90625 -5.515625 C 1.789062 -5.453125 1.703125 -5.390625 1.640625 -5.328125 C 0.921875 -4.691406 0.46875 -3.875 0.28125 -2.875 L 0.296875 -2.84375 C 0.316406 -2.84375 0.328125 -2.835938 0.328125 -2.828125 Z M 0.328125 -2.828125 "/></g></g></g><g fill="#000000" fill-opacity="1"><g transform="translate(108.540679, 23.455813)"><g><path d="M -0.0625 0.390625 C -0.0820312 0.390625 -0.09375 0.390625 -0.09375 0.390625 C -0.101562 0.390625 -0.117188 0.390625 -0.140625 0.390625 C -0.140625 0.378906 -0.15625 0.375 -0.1875 0.375 C -0.34375 0.320312 -0.4375 0.203125 -0.46875 0.015625 C -0.46875 -0.0234375 -0.46875 -0.0664062 -0.46875 -0.109375 C -0.46875 -0.160156 -0.472656 -0.21875 -0.484375 -0.28125 C -0.484375 -0.320312 -0.484375 -0.363281 -0.484375 -0.40625 C -0.484375 -0.457031 -0.476562 -0.515625 -0.46875 -0.578125 C -0.3125 -1.609375 -0.0820312 -2.539062 0.21875 -3.375 C 0.53125 -4.21875 0.890625 -5.101562 1.296875 -6.03125 C 1.328125 -6.09375 1.359375 -6.148438 1.390625 -6.203125 C 1.421875 -6.253906 1.453125 -6.300781 1.484375 -6.34375 C 1.523438 -6.394531 1.59375 -6.421875 1.6875 -6.421875 L 1.765625 -6.421875 C 1.890625 -6.367188 1.941406 -6.289062 1.921875 -6.1875 C 1.921875 -6.050781 1.882812 -5.878906 1.8125 -5.671875 C 1.71875 -5.441406 1.617188 -5.210938 1.515625 -4.984375 C 1.410156 -4.753906 1.304688 -4.519531 1.203125 -4.28125 C 1.046875 -3.925781 0.90625 -3.570312 0.78125 -3.21875 C 0.664062 -2.863281 0.5625 -2.507812 0.46875 -2.15625 C 0.4375 -2.03125 0.40625 -1.90625 0.375 -1.78125 C 0.351562 -1.65625 0.375 -1.53125 0.4375 -1.40625 L 0.421875 -1.40625 L 0.4375 -1.390625 L 1.34375 -3.21875 C 1.53125 -3.570312 1.757812 -3.929688 2.03125 -4.296875 C 2.3125 -4.660156 2.628906 -4.953125 2.984375 -5.171875 C 3.078125 -5.210938 3.171875 -5.234375 3.265625 -5.234375 C 3.453125 -5.234375 3.597656 -5.140625 3.703125 -4.953125 C 3.734375 -4.921875 3.757812 -4.878906 3.78125 -4.828125 C 3.8125 -4.785156 3.832031 -4.742188 3.84375 -4.703125 C 3.863281 -4.609375 3.90625 -4.515625 3.96875 -4.421875 C 4.132812 -4.148438 4.316406 -4.015625 4.515625 -4.015625 C 4.660156 -4.015625 4.832031 -4.070312 5.03125 -4.1875 C 5.226562 -4.3125 5.429688 -4.453125 5.640625 -4.609375 C 5.847656 -4.765625 6.015625 -4.894531 6.140625 -5 C 6.234375 -5.09375 6.332031 -5.171875 6.4375 -5.234375 C 6.457031 -5.253906 6.488281 -5.265625 6.53125 -5.265625 C 6.59375 -5.265625 6.65625 -5.238281 6.71875 -5.1875 C 6.8125 -5.09375 6.835938 -5 6.796875 -4.90625 C 6.734375 -4.789062 6.660156 -4.691406 6.578125 -4.609375 C 6.441406 -4.472656 6.25 -4.304688 6 -4.109375 C 5.75 -3.921875 5.492188 -3.753906 5.234375 -3.609375 C 4.972656 -3.472656 4.734375 -3.40625 4.515625 -3.40625 C 4.128906 -3.40625 3.8125 -3.578125 3.5625 -3.921875 C 3.53125 -3.960938 3.5 -4.003906 3.46875 -4.046875 C 3.4375 -4.097656 3.410156 -4.144531 3.390625 -4.1875 C 3.367188 -4.238281 3.34375 -4.285156 3.3125 -4.328125 C 3.28125 -4.378906 3.25 -4.425781 3.21875 -4.46875 C 3.113281 -4.46875 3.03125 -4.441406 2.96875 -4.390625 C 2.914062 -4.347656 2.867188 -4.296875 2.828125 -4.234375 C 2.609375 -4.023438 2.414062 -3.789062 2.25 -3.53125 C 2.082031 -3.28125 1.925781 -3.019531 1.78125 -2.75 C 1.6875 -2.570312 1.59375 -2.390625 1.5 -2.203125 C 1.40625 -2.015625 1.320312 -1.828125 1.25 -1.640625 C 1.15625 -1.453125 1.0625 -1.265625 0.96875 -1.078125 C 0.875 -0.898438 0.773438 -0.710938 0.671875 -0.515625 C 0.609375 -0.390625 0.539062 -0.269531 0.46875 -0.15625 C 0.40625 -0.0390625 0.332031 0.078125 0.25 0.203125 C 0.175781 0.328125 0.0703125 0.390625 -0.0625 0.390625 Z M -0.0625 0.390625 "/></g></g></g><g fill="#000000" fill-opacity="1"><g transform="translate(114.191643, 23.455813)"><g><path d="M 1.09375 -0.96875 C 0.457031 -0.96875 0.0625 -1.253906 -0.09375 -1.828125 C -0.132812 -1.953125 -0.171875 -2.082031 -0.203125 -2.21875 C -0.234375 -2.363281 -0.242188 -2.5 -0.234375 -2.625 C -0.242188 -2.820312 -0.226562 -3.003906 -0.1875 -3.171875 C -0.15625 -3.335938 -0.113281 -3.507812 -0.0625 -3.6875 C 0.0703125 -4.050781 0.257812 -4.445312 0.5 -4.875 C 0.738281 -5.300781 1.023438 -5.675781 1.359375 -6 C 1.691406 -6.320312 2.054688 -6.515625 2.453125 -6.578125 C 2.503906 -6.578125 2.535156 -6.585938 2.546875 -6.609375 C 2.566406 -6.609375 2.582031 -6.609375 2.59375 -6.609375 C 2.613281 -6.609375 2.628906 -6.609375 2.640625 -6.609375 C 2.867188 -6.609375 3.050781 -6.53125 3.1875 -6.375 C 3.320312 -6.21875 3.375 -6.007812 3.34375 -5.75 C 3.28125 -5.375 3.097656 -4.988281 2.796875 -4.59375 C 2.492188 -4.207031 2.140625 -3.878906 1.734375 -3.609375 C 1.335938 -3.335938 0.953125 -3.175781 0.578125 -3.125 C 0.472656 -3.09375 0.410156 -3.023438 0.390625 -2.921875 C 0.328125 -2.671875 0.351562 -2.398438 0.46875 -2.109375 C 0.507812 -1.847656 0.59375 -1.691406 0.71875 -1.640625 C 0.851562 -1.597656 1.03125 -1.578125 1.25 -1.578125 C 1.71875 -1.671875 2.191406 -1.875 2.671875 -2.1875 C 3.160156 -2.507812 3.578125 -2.820312 3.921875 -3.125 C 4.054688 -3.25 4.191406 -3.378906 4.328125 -3.515625 C 4.472656 -3.660156 4.613281 -3.796875 4.75 -3.921875 C 4.875 -4.035156 5.003906 -4.160156 5.140625 -4.296875 C 5.285156 -4.429688 5.425781 -4.5625 5.5625 -4.6875 C 5.59375 -4.71875 5.628906 -4.75 5.671875 -4.78125 C 5.722656 -4.820312 5.765625 -4.859375 5.796875 -4.890625 C 5.828125 -4.921875 5.859375 -4.953125 5.890625 -4.984375 C 5.929688 -5.023438 5.96875 -5.0625 6 -5.09375 C 6.082031 -5.144531 6.144531 -5.171875 6.1875 -5.171875 C 6.25 -5.171875 6.300781 -5.144531 6.34375 -5.09375 C 6.46875 -4.988281 6.492188 -4.875 6.421875 -4.75 C 6.398438 -4.707031 6.335938 -4.628906 6.234375 -4.515625 C 5.953125 -4.222656 5.601562 -3.875 5.1875 -3.46875 C 4.769531 -3.070312 4.320312 -2.679688 3.84375 -2.296875 C 3.363281 -1.921875 2.882812 -1.601562 2.40625 -1.34375 C 1.925781 -1.09375 1.488281 -0.96875 1.09375 -0.96875 Z M 0.875 -3.828125 C 1.082031 -3.929688 1.328125 -4.09375 1.609375 -4.3125 C 1.898438 -4.53125 2.15625 -4.765625 2.375 -5.015625 C 2.601562 -5.273438 2.71875 -5.523438 2.71875 -5.765625 C 2.695312 -5.921875 2.625 -5.984375 2.5 -5.953125 C 2.25 -5.921875 2 -5.789062 1.75 -5.5625 C 1.507812 -5.332031 1.296875 -5.066406 1.109375 -4.765625 C 0.921875 -4.472656 0.78125 -4.207031 0.6875 -3.96875 C 0.6875 -3.882812 0.703125 -3.84375 0.734375 -3.84375 C 0.816406 -3.8125 0.863281 -3.804688 0.875 -3.828125 Z M 0.875 -3.828125 "/></g></g></g><g fill="#000000" fill-opacity="1"><g transform="translate(119.472054, 23.455813)"><g/></g></g><g fill="#000000" fill-opacity="1"><g transform="translate(128.272734, 23.455813)"><g><path d="M 1.09375 -0.96875 C 0.457031 -0.96875 0.0625 -1.253906 -0.09375 -1.828125 C -0.132812 -1.953125 -0.171875 -2.082031 -0.203125 -2.21875 C -0.234375 -2.363281 -0.242188 -2.5 -0.234375 -2.625 C -0.242188 -2.820312 -0.226562 -3.003906 -0.1875 -3.171875 C -0.15625 -3.335938 -0.113281 -3.507812 -0.0625 -3.6875 C 0.0703125 -4.050781 0.257812 -4.445312 0.5 -4.875 C 0.738281 -5.300781 1.023438 -5.675781 1.359375 -6 C 1.691406 -6.320312 2.054688 -6.515625 2.453125 -6.578125 C 2.503906 -6.578125 2.535156 -6.585938 2.546875 -6.609375 C 2.566406 -6.609375 2.582031 -6.609375 2.59375 -6.609375 C 2.613281 -6.609375 2.628906 -6.609375 2.640625 -6.609375 C 2.867188 -6.609375 3.050781 -6.53125 3.1875 -6.375 C 3.320312 -6.21875 3.375 -6.007812 3.34375 -5.75 C 3.28125 -5.375 3.097656 -4.988281 2.796875 -4.59375 C 2.492188 -4.207031 2.140625 -3.878906 1.734375 -3.609375 C 1.335938 -3.335938 0.953125 -3.175781 0.578125 -3.125 C 0.472656 -3.09375 0.410156 -3.023438 0.390625 -2.921875 C 0.328125 -2.671875 0.351562 -2.398438 0.46875 -2.109375 C 0.507812 -1.847656 0.59375 -1.691406 0.71875 -1.640625 C 0.851562 -1.597656 1.03125 -1.578125 1.25 -1.578125 C 1.71875 -1.671875 2.191406 -1.875 2.671875 -2.1875 C 3.160156 -2.507812 3.578125 -2.820312 3.921875 -3.125 C 4.054688 -3.25 4.191406 -3.378906 4.328125 -3.515625 C 4.472656 -3.660156 4.613281 -3.796875 4.75 -3.921875 C 4.875 -4.035156 5.003906 -4.160156 5.140625 -4.296875 C 5.285156 -4.429688 5.425781 -4.5625 5.5625 -4.6875 C 5.59375 -4.71875 5.628906 -4.75 5.671875 -4.78125 C 5.722656 -4.820312 5.765625 -4.859375 5.796875 -4.890625 C 5.828125 -4.921875 5.859375 -4.953125 5.890625 -4.984375 C 5.929688 -5.023438 5.96875 -5.0625 6 -5.09375 C 6.082031 -5.144531 6.144531 -5.171875 6.1875 -5.171875 C 6.25 -5.171875 6.300781 -5.144531 6.34375 -5.09375 C 6.46875 -4.988281 6.492188 -4.875 6.421875 -4.75 C 6.398438 -4.707031 6.335938 -4.628906 6.234375 -4.515625 C 5.953125 -4.222656 5.601562 -3.875 5.1875 -3.46875 C 4.769531 -3.070312 4.320312 -2.679688 3.84375 -2.296875 C 3.363281 -1.921875 2.882812 -1.601562 2.40625 -1.34375 C 1.925781 -1.09375 1.488281 -0.96875 1.09375 -0.96875 Z M 0.875 -3.828125 C 1.082031 -3.929688 1.328125 -4.09375 1.609375 -4.3125 C 1.898438 -4.53125 2.15625 -4.765625 2.375 -5.015625 C 2.601562 -5.273438 2.71875 -5.523438 2.71875 -5.765625 C 2.695312 -5.921875 2.625 -5.984375 2.5 -5.953125 C 2.25 -5.921875 2 -5.789062 1.75 -5.5625 C 1.507812 -5.332031 1.296875 -5.066406 1.109375 -4.765625 C 0.921875 -4.472656 0.78125 -4.207031 0.6875 -3.96875 C 0.6875 -3.882812 0.703125 -3.84375 0.734375 -3.84375 C 0.816406 -3.8125 0.863281 -3.804688 0.875 -3.828125 Z M 0.875 -3.828125 "/></g></g></g><g fill="#000000" fill-opacity="1"><g transform="translate(133.553145, 23.455813)"><g><path d="M 0.109375 -2 C -0.191406 -2 -0.359375 -2.179688 -0.390625 -2.546875 C -0.390625 -2.890625 -0.316406 -3.253906 -0.171875 -3.640625 C -0.0234375 -4.023438 0.15625 -4.394531 0.375 -4.75 C 0.601562 -5.101562 0.832031 -5.394531 1.0625 -5.625 C 1.125 -5.707031 1.238281 -5.8125 1.40625 -5.9375 C 1.65625 -6.132812 1.910156 -6.234375 2.171875 -6.234375 C 2.410156 -6.234375 2.644531 -6.140625 2.875 -5.953125 C 3 -5.878906 3.066406 -5.84375 3.078125 -5.84375 C 3.128906 -5.84375 3.203125 -5.90625 3.296875 -6.03125 C 3.367188 -6.101562 3.4375 -6.1875 3.5 -6.28125 C 3.570312 -6.375 3.640625 -6.46875 3.703125 -6.5625 C 3.765625 -6.65625 3.832031 -6.742188 3.90625 -6.828125 C 3.976562 -6.921875 4.039062 -7.015625 4.09375 -7.109375 C 4.125 -7.140625 4.15625 -7.175781 4.1875 -7.21875 C 4.21875 -7.269531 4.25 -7.320312 4.28125 -7.375 C 4.3125 -7.40625 4.335938 -7.441406 4.359375 -7.484375 C 4.390625 -7.523438 4.421875 -7.5625 4.453125 -7.59375 C 4.554688 -7.707031 4.648438 -7.765625 4.734375 -7.765625 C 4.734375 -7.765625 4.773438 -7.75 4.859375 -7.71875 C 5.015625 -7.625 5.054688 -7.46875 4.984375 -7.25 C 4.960938 -7.1875 4.941406 -7.128906 4.921875 -7.078125 C 4.898438 -7.035156 4.875 -6.992188 4.84375 -6.953125 C 4.78125 -6.847656 4.726562 -6.738281 4.6875 -6.625 C 4.539062 -6.332031 4.375 -5.96875 4.1875 -5.53125 C 4.007812 -5.101562 3.851562 -4.664062 3.71875 -4.21875 C 3.582031 -3.78125 3.515625 -3.394531 3.515625 -3.0625 C 3.515625 -2.914062 3.5625 -2.84375 3.65625 -2.84375 C 3.707031 -2.84375 3.738281 -2.851562 3.75 -2.875 C 3.863281 -2.914062 3.96875 -2.957031 4.0625 -3 C 4.164062 -3.050781 4.269531 -3.109375 4.375 -3.171875 C 4.519531 -3.265625 4.664062 -3.359375 4.8125 -3.453125 C 4.957031 -3.554688 5.097656 -3.671875 5.234375 -3.796875 C 5.347656 -3.878906 5.445312 -3.960938 5.53125 -4.046875 C 5.625 -4.140625 5.71875 -4.226562 5.8125 -4.3125 C 5.988281 -4.476562 6.175781 -4.640625 6.375 -4.796875 C 6.40625 -4.828125 6.4375 -4.859375 6.46875 -4.890625 C 6.507812 -4.921875 6.546875 -4.953125 6.578125 -4.984375 C 6.609375 -5.015625 6.671875 -5.0625 6.765625 -5.125 C 6.796875 -5.132812 6.816406 -5.144531 6.828125 -5.15625 C 6.847656 -5.164062 6.863281 -5.171875 6.875 -5.171875 C 6.9375 -5.171875 6.992188 -5.144531 7.046875 -5.09375 C 7.148438 -5.03125 7.179688 -4.914062 7.140625 -4.75 C 7.117188 -4.738281 7.109375 -4.726562 7.109375 -4.71875 C 7.109375 -4.707031 7.101562 -4.695312 7.09375 -4.6875 C 7.070312 -4.664062 7.050781 -4.644531 7.03125 -4.625 C 7.019531 -4.613281 7.007812 -4.601562 7 -4.59375 C 6.78125 -4.375 6.46875 -4.082031 6.0625 -3.71875 C 5.664062 -3.351562 5.253906 -3.023438 4.828125 -2.734375 C 4.398438 -2.441406 4.023438 -2.265625 3.703125 -2.203125 C 3.671875 -2.179688 3.601562 -2.171875 3.5 -2.171875 C 3.113281 -2.171875 2.921875 -2.394531 2.921875 -2.84375 C 2.921875 -3.15625 2.953125 -3.460938 3.015625 -3.765625 C 3.078125 -4.078125 3.144531 -4.390625 3.21875 -4.703125 C 3.050781 -4.628906 2.9375 -4.550781 2.875 -4.46875 C 2.84375 -4.425781 2.800781 -4.378906 2.75 -4.328125 C 2.707031 -4.285156 2.671875 -4.25 2.640625 -4.21875 C 2.378906 -3.90625 2.113281 -3.601562 1.84375 -3.3125 C 1.582031 -3.03125 1.304688 -2.757812 1.015625 -2.5 C 0.910156 -2.40625 0.769531 -2.296875 0.59375 -2.171875 C 0.425781 -2.054688 0.265625 -2 0.109375 -2 Z M 0.328125 -2.828125 C 0.421875 -2.828125 0.488281 -2.847656 0.53125 -2.890625 C 0.90625 -3.203125 1.253906 -3.539062 1.578125 -3.90625 C 1.898438 -4.28125 2.21875 -4.660156 2.53125 -5.046875 C 2.539062 -5.066406 2.550781 -5.082031 2.5625 -5.09375 C 2.582031 -5.113281 2.601562 -5.140625 2.625 -5.171875 C 2.664062 -5.328125 2.632812 -5.429688 2.53125 -5.484375 C 2.40625 -5.566406 2.296875 -5.609375 2.203125 -5.609375 C 2.117188 -5.609375 2.019531 -5.578125 1.90625 -5.515625 C 1.789062 -5.453125 1.703125 -5.390625 1.640625 -5.328125 C 0.921875 -4.691406 0.46875 -3.875 0.28125 -2.875 L 0.296875 -2.84375 C 0.316406 -2.84375 0.328125 -2.835938 0.328125 -2.828125 Z M 0.328125 -2.828125 "/></g></g></g><g fill="#000000" fill-opacity="1"><g transform="translate(139.551508, 23.455813)"><g><path d="M -0.15625 1.859375 C -0.28125 1.859375 -0.40625 1.816406 -0.53125 1.734375 C -0.71875 1.609375 -0.832031 1.460938 -0.875 1.296875 C -0.925781 1.128906 -0.9375 0.941406 -0.90625 0.734375 C -0.851562 0.523438 -0.734375 0.28125 -0.546875 0 C -0.367188 -0.289062 -0.164062 -0.566406 0.0625 -0.828125 C 0.300781 -1.097656 0.507812 -1.289062 0.6875 -1.40625 C 0.863281 -1.550781 0.976562 -1.695312 1.03125 -1.84375 C 1.082031 -2 1.109375 -2.1875 1.109375 -2.40625 C 1.097656 -2.757812 1.066406 -3.109375 1.015625 -3.453125 C 0.972656 -3.796875 0.910156 -4.144531 0.828125 -4.5 C 0.796875 -4.65625 0.769531 -4.804688 0.75 -4.953125 C 0.738281 -5.097656 0.726562 -5.25 0.71875 -5.40625 C 0.6875 -5.925781 0.78125 -6.375 1 -6.75 C 1.226562 -7.132812 1.546875 -7.472656 1.953125 -7.765625 C 2.179688 -7.898438 2.421875 -7.96875 2.671875 -7.96875 C 2.785156 -7.96875 2.878906 -7.957031 2.953125 -7.9375 C 3.035156 -7.925781 3.125 -7.875 3.21875 -7.78125 C 3.28125 -7.71875 3.300781 -7.648438 3.28125 -7.578125 C 3.257812 -7.503906 3.207031 -7.453125 3.125 -7.421875 C 3.113281 -7.398438 3.066406 -7.390625 2.984375 -7.390625 C 2.554688 -7.390625 2.175781 -7.234375 1.84375 -6.921875 C 1.519531 -6.617188 1.347656 -6.25 1.328125 -5.8125 C 1.304688 -5.75 1.296875 -5.6875 1.296875 -5.625 C 1.296875 -5.5625 1.296875 -5.503906 1.296875 -5.453125 C 1.296875 -5.390625 1.300781 -5.328125 1.3125 -5.265625 C 1.320312 -5.203125 1.332031 -5.140625 1.34375 -5.078125 C 1.414062 -4.660156 1.488281 -4.242188 1.5625 -3.828125 C 1.632812 -3.421875 1.6875 -3.007812 1.71875 -2.59375 C 1.71875 -2.582031 1.753906 -2.515625 1.828125 -2.390625 C 1.972656 -2.460938 2.085938 -2.53125 2.171875 -2.59375 L 5.53125 -4.953125 C 5.613281 -4.984375 5.6875 -5.03125 5.75 -5.09375 C 5.820312 -5.144531 5.890625 -5.171875 5.953125 -5.171875 C 6.015625 -5.171875 6.070312 -5.144531 6.125 -5.09375 C 6.257812 -4.96875 6.269531 -4.851562 6.15625 -4.75 C 6.101562 -4.65625 5.984375 -4.539062 5.796875 -4.40625 C 5.484375 -4.1875 5.179688 -3.972656 4.890625 -3.765625 C 4.597656 -3.554688 4.304688 -3.34375 4.015625 -3.125 L 2.078125 -1.765625 C 1.816406 -1.578125 1.664062 -1.328125 1.625 -1.015625 C 1.601562 -0.691406 1.515625 -0.304688 1.359375 0.140625 C 1.210938 0.585938 1.003906 0.984375 0.734375 1.328125 C 0.472656 1.679688 0.175781 1.859375 -0.15625 1.859375 Z M -0.109375 1.203125 C -0.046875 1.203125 0.00390625 1.179688 0.046875 1.140625 C 0.265625 0.960938 0.445312 0.707031 0.59375 0.375 C 0.75 0.0507812 0.835938 -0.296875 0.859375 -0.671875 C 0.316406 -0.265625 -0.0664062 0.21875 -0.296875 0.78125 C -0.316406 0.84375 -0.316406 0.898438 -0.296875 0.953125 C -0.296875 1.023438 -0.273438 1.085938 -0.234375 1.140625 C -0.203125 1.179688 -0.160156 1.203125 -0.109375 1.203125 Z M -0.109375 1.203125 "/></g></g></g><g fill="#000000" fill-opacity="1"><g transform="translate(144.600327, 23.455813)"><g><path d="M 1 -0.828125 C 0.5625 -0.828125 0.257812 -1.050781 0.09375 -1.5 C 0.0390625 -1.625 0.0078125 -1.75 0 -1.875 C 0 -2.007812 0 -2.164062 0 -2.34375 C 0.0625 -2.675781 0.128906 -3.078125 0.203125 -3.546875 C 0.285156 -4.023438 0.390625 -4.472656 0.515625 -4.890625 C 0.648438 -5.316406 0.816406 -5.632812 1.015625 -5.84375 C 1.097656 -5.882812 1.160156 -5.90625 1.203125 -5.90625 C 1.222656 -5.90625 1.273438 -5.890625 1.359375 -5.859375 C 1.472656 -5.816406 1.515625 -5.734375 1.484375 -5.609375 C 1.285156 -5.097656 1.109375 -4.5625 0.953125 -4 C 0.796875 -3.4375 0.679688 -2.882812 0.609375 -2.34375 C 0.585938 -2.164062 0.601562 -1.960938 0.65625 -1.734375 C 0.675781 -1.609375 0.722656 -1.53125 0.796875 -1.5 C 0.878906 -1.46875 0.984375 -1.453125 1.109375 -1.453125 C 1.273438 -1.484375 1.425781 -1.535156 1.5625 -1.609375 C 1.707031 -1.691406 1.851562 -1.789062 2 -1.90625 C 2.300781 -2.164062 2.59375 -2.429688 2.875 -2.703125 C 3.164062 -2.984375 3.441406 -3.28125 3.703125 -3.59375 C 3.796875 -3.695312 3.890625 -3.800781 3.984375 -3.90625 C 4.078125 -4.019531 4.160156 -4.128906 4.234375 -4.234375 C 4.316406 -4.347656 4.40625 -4.457031 4.5 -4.5625 C 4.59375 -4.675781 4.679688 -4.785156 4.765625 -4.890625 C 4.816406 -4.953125 4.867188 -5.003906 4.921875 -5.046875 C 4.972656 -5.097656 5.03125 -5.144531 5.09375 -5.1875 C 5.125 -5.21875 5.164062 -5.234375 5.21875 -5.234375 C 5.28125 -5.234375 5.332031 -5.210938 5.375 -5.171875 C 5.46875 -5.109375 5.5 -5.015625 5.46875 -4.890625 C 5.457031 -4.796875 5.410156 -4.710938 5.328125 -4.640625 C 4.929688 -4.109375 4.519531 -3.59375 4.09375 -3.09375 C 3.664062 -2.601562 3.195312 -2.144531 2.6875 -1.71875 C 2.46875 -1.507812 2.207031 -1.304688 1.90625 -1.109375 C 1.601562 -0.921875 1.300781 -0.828125 1 -0.828125 Z M 1.59375 -6.75 C 1.363281 -6.71875 1.234375 -6.863281 1.203125 -7.1875 C 1.203125 -7.457031 1.34375 -7.59375 1.625 -7.59375 C 1.914062 -7.59375 2.066406 -7.472656 2.078125 -7.234375 C 2.078125 -7.109375 2.023438 -6.992188 1.921875 -6.890625 C 1.828125 -6.796875 1.71875 -6.75 1.59375 -6.75 Z M 1.59375 -6.75 "/></g></g></g><g fill="#000000" fill-opacity="1"><g transform="translate(148.908029, 23.455813)"><g><path d="M 0.765625 1.234375 C 0.546875 1.234375 0.375 1.113281 0.25 0.875 C 0.125 0.644531 0.046875 0.4375 0.015625 0.25 C 0.00390625 0.175781 0 0.0976562 0 0.015625 C 0 -0.0546875 0 -0.125 0 -0.1875 C 0 -0.257812 0 -0.320312 0 -0.375 C 0 -0.4375 0 -0.484375 0 -0.515625 C 0.0078125 -1.097656 0.0507812 -1.644531 0.125 -2.15625 C 0.195312 -2.664062 0.285156 -3.164062 0.390625 -3.65625 C 0.421875 -3.78125 0.445312 -3.910156 0.46875 -4.046875 C 0.5 -4.191406 0.457031 -4.328125 0.34375 -4.453125 C 0.300781 -4.515625 0.289062 -4.578125 0.3125 -4.640625 C 0.332031 -4.703125 0.367188 -4.753906 0.421875 -4.796875 C 0.585938 -5.015625 0.71875 -5.242188 0.8125 -5.484375 C 0.90625 -5.722656 0.988281 -5.972656 1.0625 -6.234375 C 1.238281 -6.753906 1.445312 -7.347656 1.6875 -8.015625 C 1.9375 -8.679688 2.210938 -9.351562 2.515625 -10.03125 C 2.828125 -10.707031 3.160156 -11.34375 3.515625 -11.9375 C 3.878906 -12.539062 4.257812 -13.039062 4.65625 -13.4375 C 4.78125 -13.53125 4.890625 -13.578125 4.984375 -13.578125 C 4.992188 -13.578125 5.007812 -13.570312 5.03125 -13.5625 C 5.0625 -13.5625 5.097656 -13.550781 5.140625 -13.53125 C 5.253906 -13.488281 5.320312 -13.421875 5.34375 -13.328125 C 5.363281 -13.242188 5.367188 -13.15625 5.359375 -13.0625 C 5.242188 -12.601562 5.050781 -12.066406 4.78125 -11.453125 C 4.507812 -10.847656 4.203125 -10.222656 3.859375 -9.578125 C 3.515625 -8.941406 3.160156 -8.332031 2.796875 -7.75 C 2.441406 -7.164062 2.132812 -6.675781 1.875 -6.28125 C 1.59375 -5.875 1.367188 -5.351562 1.203125 -4.71875 C 1.046875 -4.09375 0.921875 -3.453125 0.828125 -2.796875 C 0.734375 -2.140625 0.664062 -1.570312 0.625 -1.09375 C 0.59375 -0.851562 0.570312 -0.613281 0.5625 -0.375 C 0.5625 -0.132812 0.597656 0.0976562 0.671875 0.328125 C 0.703125 0.453125 0.769531 0.515625 0.875 0.515625 C 0.988281 0.515625 1.128906 0.410156 1.296875 0.203125 C 1.460938 0.00390625 1.578125 -0.128906 1.640625 -0.203125 C 2.179688 -0.898438 2.738281 -1.640625 3.3125 -2.421875 C 3.882812 -3.203125 4.425781 -3.945312 4.9375 -4.65625 C 4.96875 -4.71875 5.03125 -4.8125 5.125 -4.9375 C 5.21875 -5.070312 5.300781 -5.140625 5.375 -5.140625 C 5.394531 -5.140625 5.445312 -5.125 5.53125 -5.09375 C 5.644531 -5.050781 5.6875 -4.96875 5.65625 -4.84375 C 5.65625 -4.71875 5.625 -4.625 5.5625 -4.5625 C 5.507812 -4.46875 5.453125 -4.367188 5.390625 -4.265625 C 5.335938 -4.171875 5.28125 -4.078125 5.21875 -3.984375 C 4.96875 -3.671875 4.71875 -3.347656 4.46875 -3.015625 C 4.21875 -2.691406 3.972656 -2.351562 3.734375 -2 C 3.484375 -1.632812 3.226562 -1.28125 2.96875 -0.9375 C 2.71875 -0.601562 2.46875 -0.273438 2.21875 0.046875 C 2.144531 0.171875 2.019531 0.328125 1.84375 0.515625 C 1.664062 0.710938 1.476562 0.878906 1.28125 1.015625 C 1.09375 1.160156 0.921875 1.234375 0.765625 1.234375 Z M 2.640625 -8.3125 C 2.640625 -8.332031 2.648438 -8.34375 2.671875 -8.34375 C 2.671875 -8.34375 2.671875 -8.332031 2.671875 -8.3125 C 2.878906 -8.75 3.09375 -9.1875 3.3125 -9.625 C 3.539062 -10.0625 3.773438 -10.5 4.015625 -10.9375 L 4.640625 -12.1875 L 4.640625 -12.21875 C 4.617188 -12.226562 4.609375 -12.242188 4.609375 -12.265625 C 4.609375 -12.234375 4.617188 -12.207031 4.640625 -12.1875 C 4.546875 -12.21875 4.5 -12.234375 4.5 -12.234375 C 4.4375 -12.234375 4.359375 -12.171875 4.265625 -12.046875 C 3.953125 -11.523438 3.660156 -10.992188 3.390625 -10.453125 C 3.117188 -9.921875 2.878906 -9.375 2.671875 -8.8125 C 2.585938 -8.601562 2.578125 -8.4375 2.640625 -8.3125 Z M 2.640625 -8.3125 "/></g></g></g><g fill="#000000" fill-opacity="1"><g transform="translate(153.401008, 23.455813)"><g><path d="M 3.125 4.59375 C 2.925781 4.59375 2.765625 4.472656 2.640625 4.234375 C 2.441406 3.878906 2.410156 3.535156 2.546875 3.203125 C 2.734375 2.640625 2.960938 2.109375 3.234375 1.609375 C 3.515625 1.109375 3.816406 0.609375 4.140625 0.109375 C 4.296875 -0.128906 4.40625 -0.40625 4.46875 -0.71875 C 4.5 -0.976562 4.53125 -1.234375 4.5625 -1.484375 C 4.59375 -1.742188 4.625 -2 4.65625 -2.25 C 4.6875 -2.507812 4.71875 -2.765625 4.75 -3.015625 C 4.789062 -3.273438 4.828125 -3.535156 4.859375 -3.796875 L 5.078125 -5.453125 C 5.085938 -5.472656 5.09375 -5.546875 5.09375 -5.671875 C 5.09375 -5.734375 5.070312 -5.765625 5.03125 -5.765625 C 4.976562 -5.796875 4.929688 -5.789062 4.890625 -5.75 L 4.40625 -5.171875 C 4.019531 -4.691406 3.617188 -4.25 3.203125 -3.84375 C 2.785156 -3.445312 2.320312 -3.078125 1.8125 -2.734375 C 1.71875 -2.671875 1.625 -2.628906 1.53125 -2.609375 C 1.4375 -2.585938 1.34375 -2.566406 1.25 -2.546875 C 0.9375 -2.546875 0.726562 -2.632812 0.625 -2.8125 C 0.519531 -2.988281 0.46875 -3.21875 0.46875 -3.5 C 0.46875 -4.007812 0.539062 -4.546875 0.6875 -5.109375 C 0.832031 -5.671875 1.070312 -6.15625 1.40625 -6.5625 C 1.488281 -6.632812 1.578125 -6.671875 1.671875 -6.671875 C 1.679688 -6.671875 1.695312 -6.664062 1.71875 -6.65625 C 1.75 -6.65625 1.785156 -6.644531 1.828125 -6.625 C 1.984375 -6.53125 2 -6.398438 1.875 -6.234375 C 1.65625 -5.941406 1.492188 -5.628906 1.390625 -5.296875 C 1.296875 -4.960938 1.210938 -4.617188 1.140625 -4.265625 C 1.109375 -4.140625 1.085938 -4.015625 1.078125 -3.890625 C 1.066406 -3.765625 1.0625 -3.640625 1.0625 -3.515625 C 1.03125 -3.304688 1.101562 -3.203125 1.28125 -3.203125 C 1.332031 -3.203125 1.40625 -3.222656 1.5 -3.265625 C 1.5625 -3.296875 1.617188 -3.332031 1.671875 -3.375 C 1.734375 -3.425781 1.796875 -3.46875 1.859375 -3.5 C 1.921875 -3.53125 1.976562 -3.566406 2.03125 -3.609375 C 2.082031 -3.660156 2.140625 -3.703125 2.203125 -3.734375 C 2.492188 -3.953125 2.765625 -4.195312 3.015625 -4.46875 C 3.273438 -4.75 3.53125 -5.046875 3.78125 -5.359375 C 3.882812 -5.472656 3.988281 -5.597656 4.09375 -5.734375 C 4.207031 -5.878906 4.316406 -6.019531 4.421875 -6.15625 C 4.535156 -6.28125 4.640625 -6.410156 4.734375 -6.546875 C 4.835938 -6.691406 4.941406 -6.828125 5.046875 -6.953125 C 5.078125 -6.984375 5.113281 -7.019531 5.15625 -7.0625 C 5.195312 -7.113281 5.234375 -7.15625 5.265625 -7.1875 C 5.335938 -7.257812 5.421875 -7.296875 5.515625 -7.296875 C 5.523438 -7.296875 5.53125 -7.296875 5.53125 -7.296875 C 5.53125 -7.296875 5.539062 -7.296875 5.5625 -7.296875 C 5.570312 -7.285156 5.585938 -7.28125 5.609375 -7.28125 C 5.804688 -7.226562 5.875 -7.007812 5.8125 -6.625 C 5.78125 -6.332031 5.742188 -6.039062 5.703125 -5.75 C 5.671875 -5.457031 5.640625 -5.160156 5.609375 -4.859375 C 5.578125 -4.566406 5.535156 -4.269531 5.484375 -3.96875 C 5.441406 -3.664062 5.40625 -3.367188 5.375 -3.078125 L 5.234375 -1.734375 C 5.253906 -1.734375 5.3125 -1.71875 5.40625 -1.6875 C 5.613281 -1.96875 5.828125 -2.242188 6.046875 -2.515625 C 6.273438 -2.796875 6.5 -3.078125 6.71875 -3.359375 C 6.9375 -3.617188 7.15625 -3.890625 7.375 -4.171875 C 7.601562 -4.453125 7.84375 -4.722656 8.09375 -4.984375 C 8.164062 -5.078125 8.25 -5.160156 8.34375 -5.234375 C 8.414062 -5.285156 8.476562 -5.3125 8.53125 -5.3125 C 8.59375 -5.3125 8.644531 -5.285156 8.6875 -5.234375 C 8.800781 -5.128906 8.828125 -5.019531 8.765625 -4.90625 C 8.703125 -4.800781 8.625 -4.703125 8.53125 -4.609375 C 8.445312 -4.515625 8.367188 -4.414062 8.296875 -4.3125 C 7.796875 -3.738281 7.3125 -3.15625 6.84375 -2.5625 C 6.375 -1.96875 5.914062 -1.359375 5.46875 -0.734375 C 5.113281 -0.285156 4.890625 0.203125 4.796875 0.734375 C 4.765625 0.953125 4.703125 1.273438 4.609375 1.703125 C 4.515625 2.128906 4.398438 2.5625 4.265625 3 C 4.128906 3.4375 3.960938 3.8125 3.765625 4.125 C 3.566406 4.4375 3.351562 4.59375 3.125 4.59375 Z M 3.21875 3.703125 C 3.28125 3.703125 3.320312 3.679688 3.34375 3.640625 C 3.351562 3.585938 3.375 3.53125 3.40625 3.46875 L 3.75 2.484375 C 3.832031 2.265625 3.828125 2.078125 3.734375 1.921875 C 3.679688 2.023438 3.628906 2.140625 3.578125 2.265625 C 3.523438 2.390625 3.46875 2.515625 3.40625 2.640625 L 3.125 3.34375 C 3.09375 3.394531 3.070312 3.457031 3.0625 3.53125 C 3.0625 3.601562 3.09375 3.65625 3.15625 3.6875 C 3.164062 3.695312 3.1875 3.703125 3.21875 3.703125 Z M 3.21875 3.703125 "/></g></g></g><g fill="#000000" fill-opacity="1"><g transform="translate(161.043704, 23.455813)"><g><path d="M 1.15625 -1.203125 C 0.96875 -1.203125 0.898438 -1.300781 0.953125 -1.5 C 0.992188 -1.6875 1.101562 -1.78125 1.28125 -1.78125 C 1.488281 -1.78125 1.578125 -1.6875 1.546875 -1.5 C 1.515625 -1.300781 1.382812 -1.203125 1.15625 -1.203125 Z M 1.15625 -1.203125 "/></g></g></g><g fill="#ffffff" fill-opacity="1"><g transform="translate(121.539391, 25.695945)"><g><path d="M 1.328125 -0.921875 C 1.328125 -1.316406 1.414062 -1.613281 1.59375 -1.8125 C 1.769531 -2.019531 2.023438 -2.125 2.359375 -2.125 C 2.703125 -2.125 2.96875 -2.019531 3.15625 -1.8125 C 3.34375 -1.613281 3.4375 -1.316406 3.4375 -0.921875 C 3.4375 -0.546875 3.335938 -0.253906 3.140625 -0.046875 C 2.953125 0.148438 2.691406 0.25 2.359375 0.25 C 2.066406 0.25 1.820312 0.160156 1.625 -0.015625 C 1.425781 -0.203125 1.328125 -0.503906 1.328125 -0.921875 Z M 1.328125 -0.921875 "/></g></g></g></svg>