<svg xmlns="http://www.w3.org/2000/svg" xmlns:xlink="http://www.w3.org/1999/xlink" width="390" zoomAndPan="magnify" viewBox="0 0 292.5 44.999999" height="60" preserveAspectRatio="xMidYMid meet" version="1.0"><defs><clipPath id="743954737c"><path d="M 0 0.0390625 L 291.964844 0.0390625 L 291.964844 44.371094 L 0 44.371094 Z M 0 0.0390625 " clip-rule="nonzero"/></clipPath><clipPath id="679fb45049"><path d="M 291.808594 0.0390625 L 291.808594 33.292969 C 267.492188 33.292969 267.492188 44.371094 243.175781 44.371094 C 218.851562 44.371094 218.851562 33.292969 194.53125 33.292969 C 170.214844 33.292969 170.214844 44.371094 145.898438 44.371094 C 121.582031 44.371094 121.582031 33.292969 97.261719 33.292969 C 72.945312 33.292969 72.945312 44.371094 48.636719 44.371094 C 24.316406 44.371094 24.316406 33.292969 0 33.292969 L 0 0.0390625 C 24.316406 0.0390625 24.316406 11.117188 48.636719 11.117188 C 72.945312 11.117188 72.945312 0.0390625 97.261719 0.0390625 C 121.582031 0.0390625 121.582031 11.117188 145.898438 11.117188 C 170.214844 11.117188 170.214844 0.0390625 194.53125 0.0390625 C 218.851562 0.0390625 218.851562 11.117188 243.175781 11.117188 C 267.492188 11.117188 267.492188 0.0390625 291.808594 0.0390625 Z M 291.808594 0.0390625 " clip-rule="nonzero"/></clipPath><clipPath id="50986a1926"><path d="M 0 0.0390625 L 291.820312 0.0390625 L 291.820312 44.371094 L 0 44.371094 Z M 0 0.0390625 " clip-rule="nonzero"/></clipPath><clipPath id="99805e6178"><path d="M 291.808594 0.0390625 L 291.808594 33.292969 C 267.492188 33.292969 267.492188 44.371094 243.175781 44.371094 C 218.851562 44.371094 218.851562 33.292969 194.53125 33.292969 C 170.214844 33.292969 170.214844 44.371094 145.898438 44.371094 C 121.582031 44.371094 121.582031 33.292969 97.261719 33.292969 C 72.945312 33.292969 72.945312 44.371094 48.636719 44.371094 C 24.316406 44.371094 24.316406 33.292969 0 33.292969 L 0 0.0390625 C 24.316406 0.0390625 24.316406 11.117188 48.636719 11.117188 C 72.945312 11.117188 72.945312 0.0390625 97.261719 0.0390625 C 121.582031 0.0390625 121.582031 11.117188 145.898438 11.117188 C 170.214844 11.117188 170.214844 0.0390625 194.53125 0.0390625 C 218.851562 0.0390625 218.851562 11.117188 243.175781 11.117188 C 267.492188 11.117188 267.492188 0.0390625 291.808594 0.0390625 Z M 291.808594 0.0390625 " clip-rule="nonzero"/></clipPath><clipPath id="cd967eaecc"><rect x="0" width="292" y="0" height="45"/></clipPath></defs><g clip-path="url(#743954737c)"><g clip-path="url(#679fb45049)"><g transform="matrix(1, 0, 0, 1, 0, -0.00000000000000025)"><g clip-path="url(#cd967eaecc)"><g clip-path="url(#50986a1926)"><g clip-path="url(#99805e6178)"><path fill="#ffffff" d="M 0 0.0390625 L 291.792969 0.0390625 L 291.792969 44.371094 L 0 44.371094 Z M 0 0.0390625 " fill-opacity="1" fill-rule="nonzero"/></g></g></g></g></g></g></svg>