<svg xmlns="http://www.w3.org/2000/svg" xmlns:xlink="http://www.w3.org/1999/xlink" width="600" zoomAndPan="magnify" viewBox="0 0 450 44.999999" height="60" preserveAspectRatio="xMidYMid meet" version="1.0"><defs><clipPath id="22874914f7"><path d="M 0 0 L 450 0 L 450 44.40625 L 0 44.40625 Z M 0 0 " clip-rule="nonzero"/></clipPath><clipPath id="a99b9a7c75"><path d="M 450 0 L 450 33.308594 C 412.5 33.308594 412.5 44.40625 375 44.40625 C 337.488281 44.40625 337.488281 33.308594 299.988281 33.308594 C 262.488281 33.308594 262.488281 44.40625 224.988281 44.40625 C 187.488281 44.40625 187.488281 33.308594 149.988281 33.308594 C 112.488281 33.308594 112.488281 44.40625 75 44.40625 C 37.5 44.40625 37.5 33.308594 0 33.308594 L 0 0 C 37.5 0 37.5 11.097656 75 11.097656 C 112.488281 11.097656 112.488281 0 149.988281 0 C 187.488281 0 187.488281 11.097656 224.988281 11.097656 C 262.488281 11.097656 262.488281 0 299.988281 0 C 337.488281 0 337.488281 11.097656 375 11.097656 C 412.5 11.097656 412.5 0 450 0 Z M 450 0 " clip-rule="nonzero"/></clipPath><clipPath id="2c2fb6a65c"><path d="M 0 0 L 450 0 L 450 44.40625 L 0 44.40625 Z M 0 0 " clip-rule="nonzero"/></clipPath><clipPath id="5798db0e95"><path d="M 450 0 L 450 33.308594 C 412.5 33.308594 412.5 44.40625 375 44.40625 C 337.488281 44.40625 337.488281 33.308594 299.988281 33.308594 C 262.488281 33.308594 262.488281 44.40625 224.988281 44.40625 C 187.488281 44.40625 187.488281 33.308594 149.988281 33.308594 C 112.488281 33.308594 112.488281 44.40625 75 44.40625 C 37.5 44.40625 37.5 33.308594 0 33.308594 L 0 0 C 37.5 0 37.5 11.097656 75 11.097656 C 112.488281 11.097656 112.488281 0 149.988281 0 C 187.488281 0 187.488281 11.097656 224.988281 11.097656 C 262.488281 11.097656 262.488281 0 299.988281 0 C 337.488281 0 337.488281 11.097656 375 11.097656 C 412.5 11.097656 412.5 0 450 0 Z M 450 0 " clip-rule="nonzero"/></clipPath><clipPath id="eff7470066"><rect x="0" width="450" y="0" height="45"/></clipPath></defs><g clip-path="url(#22874914f7)"><g clip-path="url(#a99b9a7c75)"><g><g clip-path="url(#eff7470066)"><g clip-path="url(#2c2fb6a65c)"><g clip-path="url(#5798db0e95)"><path fill="#ffffff" d="M 0 0 L 449.96875 0 L 449.96875 44.40625 L 0 44.40625 Z M 0 0 " fill-opacity="1" fill-rule="nonzero"/></g></g></g></g></g></g></svg>